<?xml version="1.0" encoding="utf-8"?>
<!-- Generator: Adobe Illustrator 17.0.0, SVG Export Plug-In . SVG Version: 6.00 Build 0)  -->
<!DOCTYPE svg PUBLIC "-//W3C//DTD SVG 1.1//EN" "http://www.w3.org/Graphics/SVG/1.1/DTD/svg11.dtd">
<svg version="1.1" id="Layer_1" xmlns="http://www.w3.org/2000/svg" xmlns:xlink="http://www.w3.org/1999/xlink" x="0px" y="0px"
	 width="879.2px" height="131.2px" viewBox="0 0 879.2 131.2" style="enable-background:new 0 0 879.2 131.2;" xml:space="preserve"
	>
<style type="text/css">
	.st0{display:none;}
	.st1{display:inline;fill:#FFFFFF;}
	.st2{fill:#FFFFFF;}
	.st3{fill:#535353;}
	.st4{fill:#B7EB00;}
</style>
<g id="platform-hover" class="st0">
	<path class="st1" d="M121.9,74.9l-9.4-16.3l9.1-16.1h18.9l3.6,6.3l3.8-6.4l18.9,0.1l9.7,16.2l-9.4,16.2h-18.9l-3.7-6.2l-3.8,6.4
		L121.9,74.9z M122.6,73.9h16.5l-8.2-14.4h-16.5L122.6,73.9z M149.5,73.7h16.6l8.2-14.4h-16.6L149.5,73.7z M132.1,58.6l8.3,14.6
		l3.1-5.7l-5-8.7l5-8.6l-3.3-5.8L132.1,58.6z M145,67.4l3.3,5.8l8.1-14.3l-8.1-14.5l-3.3,5.8l5,8.6L145,67.4z M140.2,58.6l4.2,7.5
		l4.2-7.3l-4.2-7.5L140.2,58.6z M114.4,58.2H131l8.2-14.4h-16.6L114.4,58.2z M157.7,57.9l16.6,0.1L166,43.7l-16.6-0.1L157.7,57.9z"
		/>
</g>
<g id="platform-dafault_1_">
	<path d="M9.4,46.3L0,29.9l9.1-16.1H28l3.6,6.3l3.8-6.4l18.9,0.1L64,30l-9.4,16.2H35.7L32,40l-3.8,6.4L9.4,46.3z M10.1,45.2h16.5
		l-8.2-14.4H1.9L10.1,45.2z M37,45h16.6l8.2-14.4H45.2L37,45z M19.6,29.9l8.3,14.5l3.1-5.7L26,30l5-8.6l-3.3-5.8L19.6,29.9z
		 M32.5,38.7l3.3,5.8l8.1-14.3l-8.1-14.5l-3.3,5.8l5,8.6L32.5,38.7z M27.7,29.9l4.2,7.5l4.2-7.3l-4.2-7.5L27.7,29.9z M1.9,29.5h16.6
		l8.2-14.4H10.1L1.9,29.5z M45.2,29.3l16.6,0.1l-8.3-14.3L36.9,15L45.2,29.3z"/>
</g>
<g id="Service-default_1_">
	<path d="M100.2,60c-2,0-3.6-1.7-3.6-3.6c0-0.3,0.1-0.5,0.2-0.9l0.4-1.3l-0.8-0.5c-1-0.6-1.7-1.8-1.7-3.2v-3.3l-4,4L84,44.6l3.2-3.2
		l-0.5-0.8c-1.4-2.2-2.4-4.5-3-7.1l-0.2-0.9h-4.3v-9.3h4.3l0.2-0.9c0.6-2.6,1.6-4.9,3-7.1l0.5-0.8l-3.2-3l6.7-6.7L93.8,8l0.8-0.5
		c2.2-1.4,4.5-2.4,7.1-3l0.9-0.2V0h9.3v4.3l0.9,0.2c2.6,0.6,4.9,1.6,7.1,3l0.8,0.5l3.2-3.2l6.7,6.7l-3.2,3.2l0.5,0.8
		c1.4,2.2,2.4,4.5,3,7.1l0.2,0.9h4.3v9.3h-4.3l-0.2,0.9c-0.6,2.7-1.4,4.9-3.3,6.9l-0.7,0.8l3.3,3.3l-6.7,6.7l-4-4v3.3
		c0,1.4-0.3,2.1-1.4,2.8l-0.9,0.5l0.8,0.8c0,0.1,0.2,1.1,0.2,1.6c0,2-2.2,3.7-4.2,3.7L100.2,60L100.2,60z M100.6,53.8
		c-1.2,0-2.2,0.9-2.2,2.2s0.9,2.2,2.2,2.2h13.6c1.3,0,2.2-0.9,2.2-2.2s-0.9-2.2-2.2-2.2H100.6z M98.7,48c-1.2,0-2.2,0.9-2.2,2.2
		s0.9,2.2,2.2,2.2h17.4c1.2,0,2.2-0.9,2.2-2.2c0-1.2-0.9-2.2-2.2-2.2H98.7z M86.8,44.2l4.3,4.3l2.8-2.8l5.6-3.6
		c0.5,0.5-0.3,2.3,0.1,2.5l0.2,0.9l-0.4,0.1c0.4-0.2,0.2,0.6,0.2,0.8l-0.1,0.3l-0.7-5l-0.5-0.3c-4.5-3.1-7.2-8.2-7.2-13.6
		c0-9,7.3-16.3,16.3-16.3s16.2,7.3,16.2,16.3c0,5.4-2.7,10.4-7.2,13.6l-0.5,0.3v4.4l0.6,0.3c0.2,0.1,0.5,0.2,0.8,0.3
		s0.5,0.2,0.6,0.3l-2.3-0.7l-0.3-1c0.3-0.3-0.2-1.4,0.1-1.8l0.5-1.3l7.7,6.1l4.3-4.3l-2.8-2.8l0.4-0.5c1.9-2.5,3.3-5.7,4-9.2v-0.8
		h3.9v-6.2h-4.1l-0.1-0.7c-0.7-3.3-2-6.4-3.9-9.2l-0.4-0.5l2.8-2.8L123.4,7l-2.8,2.8l-0.5-0.4c-2.5-1.9-5.7-3.3-9.2-4l-0.5,0.4V1.7
		h-6.2v4.1h-0.7c-3.3,0.7-6.4,2-9.2,3.9l-0.5,0.4L91,7.3l-4.3,4.3l2.8,2.8l-0.4,0.5c-1.9,2.5-3.3,5.7-4,9.2L85,24.9h-4.1v6.2H85
		l0.1,0.7c0.7,3.3,2,6.4,3.9,9.2l0.4,0.5L86.8,44.2z M107.6,23.4c2.6,0,4.7,2.1,4.7,4.7c0,1.9-1.3,3.6-3.2,4.3l-0.7,0.3v13.9h6.2
		v-5.7l0.5-0.3c4.5-2.7,7.4-7.6,7.4-12.7c0-8.3-6.5-14.8-14.8-14.8c-8.1,0-14.8,6.6-14.8,14.8c0,5.2,2.8,10,7.4,12.7l0.5,0.3v5.7
		h6.2v-14l-0.8-0.2c-1.8-0.5-3.1-2.3-3.1-4.3C102.9,25.5,105,23.4,107.6,23.4z M107.4,25.1c-1.6,0-3,1.3-3,3c0,1.6,1.3,3,3,3
		c1.6,0,3-1.3,3-3S109.1,25.1,107.4,25.1z"/>
</g>
<g id="Application-dafault_2_">
	<path d="M175.2,60c-0.1,0-0.3,0-0.3,0c-13.8-6.3-21.1-16.9-23.6-21.2c0-0.1-0.1-0.1-0.1-0.1c0-0.1-0.1-0.2-0.1-0.3
		s-0.1-0.2-0.1-0.2V10.6c0-0.4,0.3-0.9,1-1c13.6-2.1,22.5-9.2,22.6-9.2c0.2-0.2,0.4-0.3,0.7-0.3c0.2,0,0.3,0.1,0.5,0.2l0.2,0.2h0.1
		c0.1,0.1,0.2,0.1,0.4,0.2c9.3,5.6,17.1,7.9,22,8.8c0.4,0.1,1,0.4,1,1.2v27.5c0,0.1,0,0.2-0.1,0.5c-0.1,0.2-7.2,13.9-23.5,21.3
		c-0.1,0-0.3,0.1-0.4,0.1C175.3,59.9,175.2,60,175.2,60z M174.7,2.7c-2.1,1.5-9.8,6.4-20.8,8.5l-0.7,0.1v26.3l0.1,0.2
		c0.7,1.3,7.4,13,21.5,19.6l0.3,0.2l0.3-0.2c14.1-6.6,20.8-18.3,21.5-19.6l0.1-0.2V11.3l-0.7-0.1c-10.4-2.1-18.6-7-20.8-8.5L175,2.4
		L174.7,2.7z"/>
	<path d="M175.2,44.9c-8.2,0-15-6.7-15-15c0-8.4,6.6-15,15-15c1.7,0,3,0.2,4.4,0.8c0.3,0.1,0.6,0.3,0.7,0.6c0.1,0.2,0.1,0.5,0,0.8
		c-0.2,0.5-0.6,0.8-1,0.8c-0.1,0-0.2,0-0.3-0.1c-1.4-0.5-2.5-0.7-3.8-0.7c-7,0-12.7,5.7-12.7,12.7s5.7,12.7,12.7,12.7
		s12.7-5.7,12.7-12.7c0-2.1-0.6-4.3-1.7-6.3l-0.6-1L176,33.3c-0.3,0.3-0.5,0.3-0.8,0.3h-0.1c-0.4-0.2-0.7-0.3-0.8-0.5l-2.9-5.5
		c-0.5-0.8,0.1-1.3,0.5-1.6c0.2-0.1,0.4-0.2,0.5-0.2c0.4,0,0.7,0.3,1,0.7l2.2,4.1L185,20c0.2-0.2,0.5-0.5,0.8-0.5
		c0.1,0,0.4,0.3,0.6,0.5c2.4,2.8,3.7,6.3,3.7,9.8C190.1,38.2,183.4,44.9,175.2,44.9z"/>
</g>
<g>
	<path d="M237,20.6c0,1.7,1.4,3,3.1,3c1.4,0,2.5-0.9,2.9-2.2h6.6v-1.5H243c-0.5-1.6-2.2-2.6-3.8-2.1C237.9,18.1,237,19.2,237,20.6z
		 M241.6,20.6c0,0.8-0.7,1.5-1.5,1.5s-1.5-0.7-1.5-1.5s0.7-1.5,1.5-1.5C240.9,19,241.6,19.7,241.6,20.6z"/>
	<path d="M242.7,30.9c1.4,0,2.6-1,3-2.3h2.1V27h-2.1c-0.4-1.6-2.1-2.6-3.7-2.2c-1.6,0.4-2.6,2.1-2.2,3.7
		C240.1,29.9,241.3,30.9,242.7,30.9z M242.7,26.3c0.8,0,1.5,0.7,1.5,1.5s-0.7,1.5-1.5,1.5s-1.5-0.7-1.5-1.5
		C241.2,26.9,241.8,26.3,242.7,26.3z"/>
	<g>
		<path d="M257,33.7c3.6,0,6.5-2.9,6.5-6.5s-2.9-6.5-6.5-6.5c-3.6,0-6.5,2.9-6.5,6.5S253.4,33.7,257,33.7z M257,22.3
			c2.7,0,4.9,2.2,4.9,4.9s-2.2,4.9-4.9,4.9c-2.7,0-4.9-2.2-4.9-4.9C252,24.5,254.3,22.3,257,22.3z"/>
		<path d="M246.2,12.4h2l4.8,4.8l1.1-1.1l-5.3-5.3h-2.6c-0.4-1.6-2.1-2.6-3.7-2.2c-1.6,0.4-2.6,2.1-2.2,3.7c0.4,1.6,2.1,2.6,3.7,2.2
			C245.1,14.4,245.9,13.5,246.2,12.4z M241.7,11.7c0-0.8,0.7-1.5,1.5-1.5s1.5,0.7,1.5,1.5s-0.7,1.5-1.5,1.5S241.7,12.5,241.7,11.7z"
			/>
		<path d="M246.3,42.2c1.5,0,2.8-1.1,3-2.6h2.5l2.8-2.8l-1.1-1.1l-2.3,2.3h-2c-0.6-1.6-2.3-2.4-3.9-1.9c-1.6,0.6-2.4,2.3-1.9,3.9
			C243.8,41.4,245,42.2,246.3,42.2L246.3,42.2z M246.3,37.6c0.8,0,1.5,0.7,1.5,1.5s-0.7,1.5-1.5,1.5s-1.5-0.7-1.5-1.5
			S245.4,37.6,246.3,37.6z"/>
		<path d="M225.3,34.3l8.4-4.3v6.7l-10,5.9l0.8,1.3l12.5-7.4c1.2-0.7,2.8-0.2,3.5,1c0.6,1.2,0.3,2.6-0.9,3.4l-7.3,4.3l-0.7,0.4
			l0.5,0.7c0.7,1,0.9,2.2,0.5,3.4c-0.6,2-3,3.8-6.8,5.1l0.5,1.5c4.1-1.4,6.6-3.3,7.6-5.6c0.5,2.2,2.1,4,4.3,4.6
			c-0.3,0.8-1.1,2.1-3.6,3.1l0.6,1.4c3.2-1.3,4.2-3.2,4.5-4.3h19.4c3.4,0,6.1-2.8,6.1-6.1l0,0V38.8h-1.5v10.5c0,2.5-2,4.6-4.5,4.7
			c0,0,0,0-0.1,0h-19.3c-2.5,0-4.6-2.1-4.5-4.7l0,0v-4l5.1-3.1c1.9-1.1,2.6-3.6,1.5-5.6c-0.6-0.9-1.5-1.6-2.5-1.9
			c-1-0.3-2.1-0.1-3.1,0.4l-1,0.6V6.3c0-2.6,2-4.7,4.6-4.7l0,0h1.2c0,1.1,0.3,2.2,1,3c0.6,0.6,1.3,1,2.1,1h10.5c0.8,0,1.6-0.4,2.2-1
			c0.7-0.8,1.1-1.9,1-3h1.2c2.6,0,4.6,2.2,4.6,4.7l0,0v10h1.5v-10c0-3.4-2.7-6.2-6.1-6.3l0,0h-19.3c-3.4,0-6.2,2.8-6.1,6.3l0,0v22
			l-9.1,4.6c-4.7,2.6-5.3,5.3-5.3,10.4v16.8h1.5V43.3C220.9,38.6,221.2,36.6,225.3,34.3z M255.8,3.5c-0.3,0.3-0.7,0.5-1.1,0.5h-10.5
			c-0.4,0-0.8-0.2-1.1-0.5c-0.4-0.5-0.7-1.2-0.6-1.9h13.9C256.4,2.3,256.2,3,255.8,3.5z"/>
		<path d="M276.3,18.8H257c-4.7,0-8.5,3.8-8.5,8.5s3.8,8.5,8.5,8.5h8.2v-1.5h-3.4c0.8-0.6,1.5-1.3,2.1-2.1h4.1v-1.5h-3.3
			c0.3-0.8,0.6-1.7,0.6-2.6h9v-1.5h-9c-0.1-0.9-0.3-1.7-0.6-2.6h3.3v-1.5h-4.1c-0.6-0.8-1.3-1.5-2.1-2.1h14.5L276.3,18.8L276.3,18.8
			z M263.9,27.2c0,3.8-3.1,6.9-6.9,6.9s-6.9-3.1-6.9-6.9s3.1-6.9,6.9-6.9C260.8,20.3,263.9,23.4,263.9,27.2z"/>
		<rect x="269.5" y="22.4" width="3.1" height="1.5"/>
		<rect x="275.7" y="26.5" width="2.4" height="1.5"/>
		<rect x="270.1" y="30.5" width="5.6" height="1.5"/>
		<rect x="266.6" y="34.1" width="6.3" height="1.5"/>
		<path d="M257.9,37.4h-1.5V43l-2.7,2.7c-1.4-0.9-3.3-0.5-4.2,0.9c-0.3,0.5-0.5,1.1-0.5,1.6c0,1.7,1.4,3.1,3.1,3.1s3.1-1.4,3.1-3.1
			c0-0.5-0.1-1-0.4-1.5l3.2-3.2L257.9,37.4z M252,49.8c-0.8,0-1.5-0.7-1.5-1.5s0.7-1.5,1.5-1.5s1.5,0.7,1.5,1.5S252.9,49.8,252,49.8
			z"/>
	</g>
</g>
<g>
	<path d="M309.4,12.2c-1.8,0.7-3.1,2.4-3.1,4.5c0,0.8,0.2,1.5,0.6,2.2c-1.4,0.6-2.5,1.9-2.5,3.6s1,3,2.5,3.6
		c-0.3,0.7-0.6,1.4-0.6,2.2c0,2.1,1.3,3.8,3.1,4.5c-0.1,0.4-0.2,0.8-0.2,1.3c0,2.1,1.7,3.9,3.9,3.9c0.5,0,0.9-0.1,1.4-0.3
		c0.6,1.3,1.9,2.2,3.5,2.2c2.1,0,3.9-1.7,3.9-3.9V9c0-2.1-1.7-3.9-3.9-3.9c-1.5,0-2.8,0.9-3.5,2.2c-0.5-0.1-1-0.2-1.4-0.2
		c-2.1,0-3.9,1.7-3.9,3.9C309.2,11.4,309.3,11.8,309.4,12.2z M313.1,9c1.1,0,1.9,0.9,1.9,1.9h1.9c0-0.9-0.3-1.8-0.9-2.4
		c0.2-0.8,1-1.4,1.9-1.4c1.1,0,1.9,0.9,1.9,1.9v27c0,1.1-0.9,1.9-1.9,1.9c-0.9,0-1.6-0.6-1.9-1.4c0.5-0.7,0.9-1.5,0.9-2.4H315
		c0,1.1-0.9,1.9-1.9,1.9c-1.1,0-1.9-0.9-1.9-1.9c0-1.1,0.9-1.9,1.9-1.9v-1.9c-0.9,0-1.8,0.4-2.5,0.9c-1.3-0.3-2.4-1.4-2.4-2.8
		c0-1.6,1.3-2.9,2.9-2.9c1.6,0,2.9,1.3,2.9,2.9h1.9c0-2.7-2.2-4.8-4.8-4.8c-1.1,0-2.1,0.4-2.9,1l0,0c-1.1,0-1.9-0.9-1.9-1.9
		c0-1.1,0.9-1.9,1.9-1.9l0,0c0.8,0.6,1.8,1,2.9,1c2.7,0,4.8-2.2,4.8-4.8H314c0,1.6-1.3,2.9-2.9,2.9c-1.6,0-2.9-1.3-2.9-2.9
		c0-1.4,1-2.6,2.4-2.8c0.7,0.6,1.5,0.9,2.5,0.9v-1.9c-1.1,0-1.9-0.9-1.9-1.9C311.1,9.9,312,9,313.1,9z"/>
	<path d="M337.9,6.4c-4.5-4.2-10.4-6.4-16.6-6l0.1,1.9c5.7-0.4,11,1.6,15.2,5.4c4.1,3.9,6.4,9.1,6.4,14.7c0,6.8-3.4,13.1-9.1,16.9
		c-2,1.3-3.4,3.2-4.4,5.3h-13.7c-0.9-2.2-2.4-4-4.4-5.3c-5.9-3.9-9.2-10.4-9-17.5l-1.9-0.1c-0.2,7.7,3.4,14.9,9.9,19.1
		c1.4,0.9,2.5,2.2,3.3,3.7h-2.6v1.9h3.4c0.2,0.6,0.3,1.3,0.4,1.9H313v1.9h1.9v2.9c0,0.5,0.4,1,1,1h1c0,3.2,2.6,5.8,5.8,5.8
		s5.8-2.6,5.8-5.8h1c0.5,0,1-0.4,1-1v-2.9h1.9v-1.9h-1.9c0.1-0.7,0.2-1.3,0.4-1.9h3.4v-1.9h-2.6c0.8-1.5,1.9-2.8,3.3-3.7
		c6.2-4.1,9.9-11,9.9-18.5C344.9,16.4,342.3,10.5,337.9,6.4z M322.7,58.2c-2.1,0-3.9-1.7-3.9-3.9h7.7
		C326.6,56.4,324.8,58.2,322.7,58.2z M328.5,52.4h-11.6v-1.9h11.6V52.4z M328.5,48.5h-11.7c-0.1-0.7-0.2-1.3-0.3-1.9h12.3
		C328.7,47.2,328.6,47.9,328.5,48.5z"/>
	<path d="M303.1,5.2c1.6,0,2.9,1.3,2.9,2.9c0,0.4,0.3,0.7,0.7,0.7s0.7-0.3,0.7-0.7c0-1.6,1.3-2.9,2.9-2.9c0.4,0,0.7-0.3,0.7-0.7
		c0-0.4-0.3-0.7-0.7-0.7c-1.6,0-2.9-1.3-2.9-2.9c0-0.4-0.3-0.7-0.7-0.7S306,0.5,306,0.9c0,1.6-1.3,2.9-2.9,2.9
		c-0.4,0-0.7,0.3-0.7,0.7C302.4,4.8,302.7,5.2,303.1,5.2z M306.7,3.2c0.3,0.5,0.7,0.9,1.2,1.2c-0.5,0.3-0.9,0.7-1.2,1.2
		c-0.3-0.5-0.7-0.9-1.2-1.2C306,4.1,306.4,3.7,306.7,3.2z"/>
	<path d="M306,12.4c0.4,0,0.7-0.3,0.7-0.7S306.4,11,306,11c-1.6,0-2.9-1.3-2.9-2.9c0-0.4-0.3-0.7-0.7-0.7s-0.7,0.3-0.7,0.7
		c0,1.6-1.3,2.9-2.9,2.9c-0.4,0-0.7,0.3-0.7,0.7s0.3,0.7,0.7,0.7c1.6,0,2.9,1.3,2.9,2.9c0,0.4,0.3,0.7,0.7,0.7s0.7-0.3,0.7-0.7
		C303.1,13.7,304.4,12.4,306,12.4z M302.4,12.9c-0.3-0.5-0.7-0.9-1.2-1.2c0.5-0.3,0.9-0.7,1.2-1.2c0.3,0.5,0.7,0.9,1.2,1.2
		C303.1,12,302.7,12.4,302.4,12.9z"/>
</g>
<g>
	<g>
		<g>
			<path d="M375.4,6.6L375.4,6.6c-2.2,0-3.9,1.8-3.9,4v5.7h-5.9c-0.5,0-0.9,0.4-0.9,0.9s0.4,0.9,0.9,0.9h5.9v4.6h-5.9
				c-0.5,0-0.9,0.4-0.9,0.9s0.4,0.9,0.9,0.9h5.9v4.6h-5.9c-0.5,0-0.9,0.4-0.9,0.9s0.4,0.9,0.9,0.9h5.9v4.6h-5.9
				c-0.5,0-0.9,0.4-0.9,0.9s0.4,0.9,0.9,0.9h5.9v4.6h-5.9c-0.5,0-0.9,0.4-0.9,0.9s0.4,0.9,0.9,0.9h5.9v3c0,0.5,0.4,0.9,0.9,0.9
				s0.9-0.4,0.9-0.9V10.6c0-1.2,1-2.2,2.2-2.2c0.5,0,0.9-0.4,0.9-0.9C376.3,7,375.9,6.6,375.4,6.6z"/>
		</g>
	</g>
	<g>
		<g>
			<path d="M412.7,51.3h-37.3c-0.9,0-1.7-0.5-2.1-1.4c-0.2-0.5-0.7-0.7-1.2-0.5s-0.7,0.7-0.5,1.2c0.6,1.5,2.1,2.5,3.7,2.5h5.5v6.1
				c0,0.5,0.4,0.9,0.9,0.9s0.9-0.4,0.9-0.9v-6.1h4.6v6.1c0,0.5,0.4,0.9,0.9,0.9s0.9-0.4,0.9-0.9v-6.1h4.6v6.1c0,0.5,0.4,0.9,0.9,0.9
				s0.9-0.4,0.9-0.9v-6.1h4.6v6.1c0,0.5,0.4,0.9,0.9,0.9s0.9-0.4,0.9-0.9v-6.1h4.6v6.1c0,0.5,0.4,0.9,0.9,0.9s0.9-0.4,0.9-0.9v-6.1
				h4.4c0.5,0,0.9-0.4,0.9-0.9C413.6,51.7,413.2,51.3,412.7,51.3z"/>
		</g>
	</g>
	<g>
		<g>
			<path d="M406.6,15h-24c-1.6,0-2.8,1.3-2.8,2.8v24c0,1.6,1.3,2.8,2.8,2.8h24c1.6,0,2.8-1.3,2.8-2.8v-24
				C409.5,16.3,408.2,15,406.6,15z M381.6,17.8c0-0.6,0.5-1.1,1.1-1.1H401v9.2c-1.6,0.3-2.9,1.6-3.2,3.2h-6.5v-4.5
				c1.7-0.3,2.9-1.8,2.9-3.6c0-2-1.6-3.6-3.6-3.6c-1.8,0-3.2,1.3-3.6,2.9h-5.4L381.6,17.8L381.6,17.8z M401.8,27.7
				c1.3,0,2.4,1.1,2.4,2.4s-1.1,2.4-2.4,2.4s-2.4-1.1-2.4-2.4C399.4,28.8,400.5,27.7,401.8,27.7z M390.5,23c-1,0-1.9-0.8-1.9-1.9
				c0-1,0.8-1.9,1.9-1.9c1,0,1.9,0.8,1.9,1.9S391.6,23,390.5,23z M386.7,37.4c-0.5-0.3-0.9-0.8-0.9-1.5c0-0.9,0.8-1.7,1.7-1.7
				s1.7,0.8,1.7,1.7C389.2,37.2,387.8,38,386.7,37.4z M393.9,42.9H388v-3.5c1.7-0.2,3.1-1.7,3.1-3.4c0-1.9-1.5-3.4-3.4-3.4
				c-1.9,0-3.4,1.5-3.4,3.4c0,1.4,0.9,2.6,2.1,3.2v3.7h-3.5c-0.6,0-1.1-0.5-1.1-1.1V22.2h5.4c0,0,0.5,1.8,2.4,2.4v5.5
				c0,0.5,0.4,0.9,0.9,0.9h3.5L393.9,42.9L393.9,42.9z M407.7,41.8c0,0.6-0.5,1.1-1.1,1.1h-11v-3.8h12.1V41.8z M407.7,37.3h-12.1V31
				h2.1c0.4,1.9,2.1,3.3,4.1,3.3c2.3,0,4.2-1.9,4.2-4.2c0-2-1.4-3.7-3.3-4.1l0,0v-9.2h3.9c0.6,0,1.1,0.5,1.1,1.1L407.7,37.3
				L407.7,37.3z"/>
		</g>
	</g>
	<g>
		<g>
			<path d="M423.8,24.5c0.5,0,0.9-0.4,0.9-0.9s-0.4-0.9-0.9-0.9h-5.9v-4.6h5.9c0.5,0,0.9-0.4,0.9-0.9s-0.4-0.9-0.9-0.9h-5.9v-5.7
				c0-2.2-1.8-4-4-4h-5.5V0.9c0-0.5-0.4-0.9-0.9-0.9s-0.9,0.4-0.9,0.9v5.7H402V0.9c0-0.5-0.4-0.9-0.9-0.9s-0.9,0.4-0.9,0.9v5.7h-4.6
				V0.9c0-0.5-0.4-0.9-0.9-0.9s-0.9,0.4-0.9,0.9v5.7h-4.6V0.9c0-0.5-0.4-0.9-0.9-0.9s-0.9,0.4-0.9,0.9v5.7h-4.6V0.9
				c0-0.5-0.4-0.9-0.9-0.9S381,0.4,381,0.9v5.7h-2c-0.5,0-0.9,0.4-0.9,0.9s0.4,0.9,0.9,0.9c4.6,0,31.3,0,35,0c1.2,0,2.2,1,2.2,2.2
				v38.5c0,0.6-0.2,1.2-0.7,1.6c-0.4,0.3-0.4,0.9,0,1.2c0.2,0.2,0.4,0.3,0.6,0.3s0.4-0.1,0.6-0.2c0.8-0.8,1.2-1.8,1.2-2.9v-5.3h5.9
				c0.5,0,0.9-0.4,0.9-0.9s-0.4-0.9-0.9-0.9h-5.9v-4.6h5.9c0.5,0,0.9-0.4,0.9-0.9s-0.4-0.9-0.9-0.9h-5.9V31h5.9
				c0.5,0,0.9-0.4,0.9-0.9s-0.4-0.9-0.9-0.9h-5.9v-4.6L423.8,24.5L423.8,24.5z"/>
		</g>
	</g>
</g>
<g id="XMLID_1_">
	<path id="XMLID_17_" d="M490.6,36c-0.5,0-1,0.4-1,1v4.5c0,0.8-0.7,1.5-1.5,1.5h-12.7c-0.5,0-1,0.4-1,1s0.4,1,1,1h12.7
		c1.9,0,3.5-1.6,3.5-3.5V37C491.6,36.5,491.2,36,490.6,36z"/>
	<path id="XMLID_16_" d="M488.2,21.1v-4.2c0-2-0.6-4-1.7-5.7c-0.3-0.4-0.9-0.6-1.3-0.3c-0.4,0.3-0.6,0.9-0.3,1.3
		c0.9,1.4,1.4,2.9,1.4,4.6V21h-2.5v-4.2c0-3.2-2.6-5.8-5.8-5.8c-3.2,0-5.8,2.6-5.8,5.8V21h-2.5v-4.2c0-4.6,3.7-8.3,8.3-8.3
		c1.4,0,2.7,0.3,3.9,1c0.5,0.3,1.1,0.1,1.3-0.4c0.3-0.5,0.1-1.1-0.4-1.3c-1.5-0.8-3.1-1.2-4.8-1.2c-5.6,0-10.2,4.6-10.2,10.2V21
		c-1.9,0-3.4,1.6-3.4,3.5v16.9c0,1.9,1.6,3.5,3.5,3.5h3.1c0.5,0,1-0.4,1-1s-0.4-1-1-1h-3.1c-0.8,0-1.5-0.7-1.5-1.5v-12h23.4v3.2
		c0,0.5,0.4,1,1,1c0.5,0,1-0.4,1-1v-8C491.6,22.7,490.1,21.1,488.2,21.1z M474.1,16.9c0-2.1,1.7-3.9,3.9-3.9c2.1,0,3.9,1.7,3.9,3.9
		v4.2h-7.7L474.1,16.9L474.1,16.9z M466.3,27.4v-2.8c0-0.8,0.7-1.5,1.5-1.5h20.3c0.8,0,1.5,0.7,1.5,1.5v2.8H466.3z"/>
	<path id="XMLID_15_" d="M478,40.8c0.5,0,1-0.4,1-1V38c1.3-0.4,2.2-1.6,2.2-3.1c0-1.8-1.4-3.2-3.2-3.2c-1.8,0-3.2,1.4-3.2,3.2
		c0,1.4,0.9,2.6,2.2,3.1v1.8C477,40.3,477.5,40.8,478,40.8z M478,33.8c0.7,0,1.3,0.6,1.3,1.3s-0.6,1.3-1.3,1.3s-1.3-0.6-1.3-1.3
		C476.7,34.3,477.3,33.8,478,33.8z"/>
	<path id="XMLID_14_" d="M502.8,21.6c-0.3,0-0.5,0.1-0.7,0.3l-3.9,3.9h-3.5c-0.5,0-1,0.4-1,1s0.4,1,1,1h3.9c0.3,0,0.5-0.1,0.7-0.3
		l3.9-3.9h1.9c0.4,1.2,1.5,2.1,2.9,2.1c1.7,0,3-1.4,3-3c0-1.7-1.4-3-3-3c-1.3,0-2.5,0.9-2.9,2.1L502.8,21.6L502.8,21.6z M508,21.5
		c0.6,0,1.1,0.5,1.1,1.1s-0.5,1.1-1.1,1.1c-0.6,0-1.1-0.5-1.1-1.1C506.8,22,507.3,21.5,508,21.5z"/>
	<path id="XMLID_13_" d="M508,34.8c-1.3,0-2.5,0.9-2.9,2.1h-1.9l-3.9-3.9c-0.2-0.2-0.4-0.3-0.7-0.3h-3.9c-0.5,0-1,0.4-1,1
		c0,0.5,0.4,1,1,1h3.5l3.9,3.9c0.2,0.2,0.4,0.3,0.7,0.3h2.3c0.4,1.2,1.5,2.1,2.9,2.1c1.7,0,3-1.4,3-3.1
		C511,36.1,509.6,34.8,508,34.8z M508,39c-0.6,0-1.1-0.5-1.1-1.1s0.5-1.1,1.1-1.1c0.6,0,1.1,0.5,1.1,1.1S508.6,39,508,39z"/>
	<path id="XMLID_12_" d="M461.3,32.6h-3.9c-0.3,0-0.5,0.1-0.7,0.3l-3.9,3.9H448c-0.5,0-1,0.4-1,1c0,0.5,0.4,1,1,1h5.2
		c0.3,0,0.5-0.1,0.7-0.3l3.9-3.9h3.5c0.5,0,1-0.4,1-1S461.8,32.6,461.3,32.6z"/>
	<path id="XMLID_11_" d="M449.8,16.9h6.9l3.9,3.9c0.2,0.2,0.4,0.3,0.7,0.3c0.2,0,0.5-0.1,0.7-0.3c0.4-0.4,0.4-1,0-1.4l-4.2-4.2
		c-0.2-0.2-0.4-0.3-0.7-0.3h-7.3c-0.5,0-1,0.4-1,1C448.9,16.5,449.3,16.9,449.8,16.9z"/>
	<path id="XMLID_10_" d="M450.9,27.8h10.4c0.5,0,1-0.4,1-1c0-0.5-0.4-1-1-1h-10.4c-0.4-1.2-1.5-2.1-2.9-2.1c-1.7,0-3,1.4-3,3
		c0,1.7,1.4,3,3,3C449.4,29.8,450.5,29,450.9,27.8z M446.9,26.8c0-0.6,0.5-1.1,1.1-1.1c0.6,0,1.1,0.5,1.1,1.1s-0.5,1.1-1.1,1.1
		C447.4,27.9,446.9,27.4,446.9,26.8z"/>
	<path id="XMLID_9_" d="M462.2,44.8l-2.5,2.5c-0.2,0.2-0.3,0.4-0.3,0.7v6.2c-1.2,0.4-2.1,1.6-2.1,2.9c0,1.7,1.4,3,3,3
		c1.7,0,3-1.4,3-3c0-1.3-0.9-2.5-2.1-2.9v-5.8l2.2-2.2c0.4-0.4,0.4-1,0-1.4C463.2,44.3,462.6,44.3,462.2,44.8z M460.4,58.1
		c-0.6,0-1.1-0.5-1.1-1.1s0.5-1.1,1.1-1.1c0.6,0,1.1,0.5,1.1,1.1S461,58.1,460.4,58.1z"/>
	<path id="XMLID_8_" d="M494.3,44.8c-0.4-0.4-1-0.4-1.4,0c-0.4,0.4-0.4,1,0,1.4l2.2,2.2V57c0,0.5,0.4,1,1,1c0.5,0,1-0.4,1-1v-9
		c0-0.3-0.1-0.5-0.3-0.7L494.3,44.8z"/>
	<path id="XMLID_7_" d="M493.6,13.7c0.2,0,0.5-0.1,0.7-0.3l2.5-2.5c0.2-0.2,0.3-0.4,0.3-0.7V5.9c1.2-0.4,2.1-1.5,2.1-2.9
		c0-1.7-1.4-3-3-3c-1.6,0-3,1.4-3,3c0,1.3,0.9,2.5,2.1,2.9v3.9l-2.2,2.2c-0.4,0.4-0.4,1,0,1.4C493.1,13.6,493.4,13.7,493.6,13.7z
		 M496.1,1.9c0.6,0,1.1,0.5,1.1,1.1s-0.5,1.1-1.1,1.1c-0.6,0-1.1-0.5-1.1-1.1S495.4,1.9,496.1,1.9z"/>
	<path id="XMLID_6_" d="M461.4,9.9V2.7c0-0.5-0.4-1-1-1c-0.5,0-1,0.4-1,1v7.6c0,0.3,0.1,0.5,0.3,0.7l2.5,2.5
		c0.2,0.2,0.4,0.3,0.7,0.3c0.2,0,0.5-0.1,0.7-0.3c0.4-0.4,0.4-1,0-1.4L461.4,9.9z"/>
	<path id="XMLID_5_" d="M493.6,17.8c-0.5,0-1,0.4-1,1c0,0.5,0.4,1,1,1h4.3c0.3,0,0.5-0.1,0.7-0.3l6.2-6.2c0.2-0.2,0.3-0.4,0.3-0.7
		V7.7c0-0.5-0.4-1-1-1c-0.5,0-1,0.4-1,1v4.5l-5.6,5.6H493.6L493.6,17.8z"/>
	<path id="XMLID_4_" d="M505.9,44.6h-3.6l-6.2-6.2c-0.4-0.4-1-0.4-1.4,0c-0.4,0.4-0.4,1,0,1.4l6.5,6.5c0.2,0.2,0.4,0.3,0.7,0.3h4
		c0.5,0,1-0.4,1-1C506.8,45.1,506.4,44.6,505.9,44.6z"/>
	<path id="XMLID_3_" d="M458.2,41.1h3.1c0.5,0,1-0.4,1-1c0-0.5-0.4-1-1-1h-3.5c-0.3,0-0.5,0.1-0.7,0.3l-5.9,5.9
		c-0.4-0.2-0.8-0.3-1.3-0.3c-1.7,0-3,1.4-3,3c0,1.7,1.4,3,3,3c1.7,0,3-1.4,3-3c0-0.5-0.1-1-0.3-1.4L458.2,41.1z M449.8,49.3
		c-0.6,0-1.1-0.5-1.1-1.1s0.5-1.1,1.1-1.1c0.6,0,1.1,0.5,1.1,1.1C451,48.8,450.5,49.3,449.8,49.3z"/>
	<path id="XMLID_2_" d="M483.5,48.6h-11.1c-1.7,0-3.1,1.4-3.1,3.1s1.4,3.1,3.1,3.1h11.1c1.7,0,3.1-1.4,3.1-3.1
		S485.3,48.6,483.5,48.6z M483.5,53h-11.1c-0.7,0-1.2-0.5-1.2-1.2s0.5-1.2,1.2-1.2h11.1c0.7,0,1.2,0.5,1.2,1.2S484.2,53,483.5,53z"
		/>
</g>
<g>
	<g>
		<g>
			<rect x="539.4" y="4.1" width="2" height="2"/>
			<rect x="545.4" y="4.1" width="2" height="2"/>
			<rect x="548.4" y="53.1" width="2" height="2"/>
			<path d="M536.4,13.1v4h2v-3h3v-2h-4C536.8,12.1,536.4,12.5,536.4,13.1z"/>
			<path d="M591.4,2.1h-2v-1c0-0.6-0.4-1-1-1h-3c-1.1,0-2,0.9-2,2v2c0,1.1,0.9,2,2,2h3c0.6,0,1-0.4,1-1v-1h1v14c0,5-4,9-9,9
				s-9-4-9-9v-14h1v1c0,0.6,0.4,1,1,1h3c1.1,0,2-0.9,2-2v-2c0-1.1-0.9-2-2-2h-3c-0.6,0-1,0.4-1,1v1h-2c-0.6,0-1,0.4-1,1v15
				c0,5.7,4.3,10.4,10,10.9v1.1c0,5-4,9-9,9c-1.8,0-3.5-0.5-5-1.5V3.1c0-1.7-1.3-3-3-3h-28c-1.7,0-3,1.3-3,3v54c0,1.7,1.3,3,3,3h28
				c1.7,0,3-1.3,3-3V39.8c5.4,2.8,12,0.6,14.8-4.7c0.8-1.6,1.2-3.3,1.2-5V29c5.7-0.5,10-5.3,10-10.9v-15
				C592.4,2.5,591.9,2.1,591.4,2.1z M587.4,4.1h-2v-2h2V4.1z M575.4,2.1h2v2h-2V2.1z M564.4,35.7c-1.3-1.6-2-3.6-2-5.6v-9
				c0-3.9-3.1-7-7-7s-7,3.1-7,7v4.1c-2.7,0.6-4.5,3.2-3.9,5.9s3.2,4.5,5.9,3.9s4.5-3.2,3.9-5.9c-0.4-2-1.9-3.5-3.9-3.9v-4.1
				c0-2.8,2.2-5,5-5s5,2.2,5,5v9c0,3.3,1.5,6.4,4,8.5v9.5h-26v2h26v7c0,0.6-0.4,1-1,1h-28c-0.6,0-1-0.4-1-1v-47h26v-2h-26v-5
				c0-0.6,0.4-1,1-1h28c0.6,0,1,0.4,1,1V35.7z M549.4,27.1c1.7,0,3,1.3,3,3s-1.3,3-3,3s-3-1.3-3-3S547.7,27.1,549.4,27.1z"/>
			<rect x="551.4" y="40.1" width="2" height="2"/>
			<rect x="555.4" y="40.1" width="4" height="2"/>
			<rect x="551.4" y="44.1" width="8" height="2"/>
		</g>
	</g>
</g>
<g id="Fintech">
	<path d="M625.8,60.1c-1.6,0-3-1.3-3-3V3c0-1.6,1.3-3,3-3h30.6c1.6,0,3,1.3,3,3v12.6h15.4c0.6,0,1.1,0.5,1.1,1.1v21
		c0,0.6-0.5,1.1-1.1,1.1h-11.4l-4,4v14.3c0,1.6-1.3,3-3,3H625.8z M625.1,57.1c0,0.4,0.3,0.7,0.7,0.7h30.6c0.4,0,0.7-0.3,0.7-0.7V53
		H625L625.1,57.1L625.1,57.1z M657.2,50.8v-7.9l-4-4h-11.4c-0.6,0-1.1-0.5-1.1-1.1v-21c0-0.6,0.5-1.1,1.1-1.1h15.4V9.3h-32.1v41.4
		L657.2,50.8L657.2,50.8z M653.7,36.6c0.3,0,0.6,0.1,0.8,0.3l3.9,3.9l3.9-3.9c0.2-0.2,0.5-0.3,0.8-0.3h10.7V17.8H643v18.8H653.7z
		 M657.2,7.1V3c0-0.4-0.3-0.7-0.7-0.7h-30.6l0,0c-0.4,0-0.7,0.3-0.7,0.7v4.1H657.2z"/>
	<path d="M649.8,33.5c-0.5,0-0.9-0.4-0.9-0.9v-1l-0.2-0.2h-1.5c-0.5,0-0.9-0.4-0.9-0.9s0.4-0.9,0.9-0.9h3.2c0.5,0,1-0.4,1-1v-0.3
		l-0.2-0.2h-4c-0.5,0-0.9-0.4-0.9-0.9v-1.4c0-1.4,1-2.6,2.4-2.8l0.2-0.2v-0.9c0-0.5,0.4-0.9,0.9-0.9s0.9,0.4,0.9,0.9v0.9l0.2,0.2
		h1.5c0.5,0,0.9,0.4,0.9,0.9s-0.4,0.9-0.9,0.9h-3.2c-0.5,0-1,0.4-1,1v0.3l0.2,0.2h4c0.5,0,0.9,0.4,0.9,0.9v1.4c0,1.4-1,2.6-2.4,2.8
		l-0.2,0.2v1C650.7,33,650.3,33.5,649.8,33.5z"/>
	<path d="M658.3,23c-0.6,0-1.1-0.5-1.1-1.1s0.5-1.1,1.1-1.1h12.2c0.6,0,1.1,0.5,1.1,1.1s-0.5,1.1-1.1,1.1H658.3z"/>
	<path d="M658.3,28.3c-0.6,0-1.1-0.5-1.1-1.1s0.5-1.1,1.1-1.1h12.2c0.6,0,1.1,0.5,1.1,1.1s-0.5,1.1-1.1,1.1H658.3z"/>
	<path d="M658.3,33.6c-0.6,0-1.1-0.5-1.1-1.1c0-0.6,0.5-1.1,1.1-1.1h6.1c0.6,0,1.1,0.5,1.1,1.1c0,0.6-0.5,1.1-1.1,1.1H658.3z"/>
</g>
<g>
	<g>
		<g>
			<g>
				<rect x="703.4" y="4" width="2" height="2"/>
				<rect x="709.4" y="4" width="2" height="2"/>
				<rect x="712.4" y="54" width="2" height="2"/>
				<path d="M700.4,13v4h2v-3h3v-2h-4C700.9,12,700.4,12.5,700.4,13z"/>
				<path d="M728.4,47.2v2.9h-26v2h26v5c0,0.6-0.4,1-1,1h-28c-0.6,0-1-0.4-1-1v-47h26v-2h-26v-5c0-0.6,0.4-1,1-1h28c0.6,0,1,0.4,1,1
					v7.2h2V3.1c0-1.7-1.3-3-3-3h-28c-1.7,0-3,1.3-3,3v54c0,1.7,1.3,3,3,3h28c1.7,0,3-1.3,3-3v-9.9C730.4,47.2,728.4,47.2,728.4,47.2
					z"/>
			</g>
		</g>
	</g>
	<g>
		<g>
			<path d="M710.4,43.5h-2.7c-0.4,0-0.7-0.3-0.7-0.7V29.9c0-0.4,0.3-0.7,0.7-0.7s0.7,0.3,0.7,0.7v12.2h1.3V29.9
				c0-0.4,0.3-0.7,0.7-0.7s0.7,0.3,0.7,0.7v12.9C711.1,43.2,710.8,43.5,710.4,43.5z"/>
		</g>
		<g>
			<path d="M718,43.5h-2.7c-0.4,0-0.7-0.3-0.7-0.7V29.9c0-0.4,0.3-0.7,0.7-0.7s0.7,0.3,0.7,0.7v12.2h1.3V29.9c0-0.4,0.3-0.7,0.7-0.7
				s0.7,0.3,0.7,0.7v12.9C718.7,43.2,718.3,43.5,718,43.5z"/>
		</g>
		<g>
			<path d="M725.5,43.5h-2.7c-0.4,0-0.7-0.3-0.7-0.7V29.9c0-0.4,0.3-0.7,0.7-0.7s0.7,0.3,0.7,0.7v12.2h1.3V29.9
				c0-0.4,0.3-0.7,0.7-0.7s0.7,0.3,0.7,0.7v12.9C726.2,43.2,725.9,43.5,725.5,43.5z"/>
		</g>
		<g>
			<path d="M733.1,43.5h-2.7c-0.4,0-0.7-0.3-0.7-0.7V29.9c0-0.4,0.3-0.7,0.7-0.7s0.7,0.3,0.7,0.7v12.2h1.3V29.9
				c0-0.4,0.3-0.7,0.7-0.7s0.7,0.3,0.7,0.7v12.9C733.8,43.2,733.5,43.5,733.1,43.5z"/>
		</g>
		<g>
			<path d="M735.2,46.2h-29.7c-0.4,0-0.7-0.3-0.7-0.7v-2.7c0-0.4,0.3-0.7,0.7-0.7h29.7c0.4,0,0.7,0.3,0.7,0.7v2.7
				C735.9,45.9,735.6,46.2,735.2,46.2z M706.2,44.8h28.3v-1.3h-28.3V44.8z"/>
		</g>
		<g>
			<path d="M735.2,30.6h-29.7c-0.4,0-0.7-0.3-0.7-0.7v-2.7c0-0.4,0.3-0.7,0.7-0.7s0.7,0.3,0.7,0.7v2h28.3v-2c0-0.4,0.3-0.7,0.7-0.7
				s0.7,0.3,0.7,0.7v2.7C735.9,30.3,735.6,30.6,735.2,30.6z"/>
		</g>
		<g>
			<path d="M705.5,27.9c-0.3,0-0.6-0.2-0.7-0.5c-0.1-0.4,0.1-0.8,0.4-0.9L720,21c0.2-0.1,0.3-0.1,0.5,0l14.8,5.5
				c0.4,0.1,0.5,0.5,0.4,0.9s-0.5,0.5-0.9,0.4l-14.6-5.4l-14.6,5.4C705.7,27.9,705.6,27.9,705.5,27.9z"/>
		</g>
		<g>
			<path d="M720.4,22.4c-0.4,0-0.7-0.3-0.7-0.7v-7.1c0-0.4,0.3-0.7,0.7-0.7s0.7,0.3,0.7,0.7v7.1C721.1,22.1,720.8,22.4,720.4,22.4z"
				/>
		</g>
		<g>
			<path d="M723.6,19.1h-3.2c-0.4,0-0.7-0.3-0.7-0.7v-3.8c0-0.4,0.3-0.7,0.7-0.7h3.2c0.4,0,0.7,0.3,0.7,0.7v3.8
				C724.3,18.8,724,19.1,723.6,19.1z M721.1,17.7h1.8v-2.4h-1.8V17.7z"/>
		</g>
		<g>
			<path d="M726.9,20.2h-3.2c-0.4,0-0.7-0.3-0.7-0.7v-3.8c0-0.4,0.3-0.7,0.7-0.7h3.2c0.4,0,0.7,0.3,0.7,0.7v3.8
				C727.6,19.9,727.2,20.2,726.9,20.2z M724.3,18.8h1.8v-2.4h-1.8V18.8z"/>
		</g>
	</g>
</g>
<g>
	<g>
		<g id="platform-dafault_2_">
			<path class="st2" d="M9.9,117.2l-9.4-16.3l9.1-16.1h18.9l3.6,6.3l3.8-6.4l18.9,0.1l9.7,16.2l-9.4,16.2H36.2l-3.7-6.3l-3.8,6.4
				L9.9,117.2z M10.6,116.1h16.5l-8.2-14.4H2.4L10.6,116.1z M37.5,115.9h16.6l8.2-14.4H45.7L37.5,115.9z M20.1,100.9l8.3,14.5
				l3.1-5.7l-5-8.7l5-8.6l-3.3-5.8L20.1,100.9z M33,109.6l3.3,5.8l8.1-14.3l-8.1-14.5L33,92.4l5,8.6L33,109.6z M28.2,100.9l4.2,7.5
				l4.2-7.3l-4.2-7.5L28.2,100.9z M2.4,100.5H19l8.2-14.4H10.6L2.4,100.5z M45.7,100.2l16.6,0.1L54,86l-16.6-0.1L45.7,100.2z"/>
		</g>
		<g id="Service-hover">
			<path class="st2" d="M100.2,131c-2,0-3.6-1.7-3.6-3.6c0-0.3,0.1-0.5,0.2-0.9l0.4-1.3l-0.8-0.5c-1-0.6-1.7-1.8-1.7-3.2v-3.3l-4,4
				l-6.7-6.7l3.2-3.2l-0.5-0.8c-1.4-2.2-2.4-4.5-3-7.1l-0.2-0.9h-4.3v-9.1h4.3l0.2-0.9c0.6-2.6,1.6-4.9,3-7.1l0.5-0.8L84,82.5
				l6.7-6.7l3.1,3.2l0.8-0.5c2.2-1.4,4.5-2.4,7.1-3l0.9-0.2V71h9.3v4.3l0.9,0.2c2.6,0.6,4.9,1.6,7.1,3l0.8,0.5l3.2-3.2l6.7,6.7
				l-3.2,3.2l0.5,0.8c1.4,2.2,2.4,4.5,3,7.1l0.2,0.9h4.3v9.3h-4.3l-0.2,0.9c-0.6,2.7-1.4,4.9-3.3,6.9l-0.7,0.8l3.3,3.3l-6.7,6.7
				l-4-4v3.3c0,1.4-0.3,2.1-1.4,2.8l-0.9,0.5l0.8,0.8c0,0.1,0.2,1.1,0.2,1.6c0,2-2.2,3.7-4.2,3.7L100.2,131L100.2,131z M100.6,124.8
				c-1.2,0-2.2,0.9-2.2,2.2c0,1.3,0.9,2.2,2.2,2.2h13.6c1.3,0,2.2-0.9,2.2-2.2s-0.9-2.2-2.2-2.2H100.6z M98.7,119
				c-1.2,0-2.2,0.9-2.2,2.2c0,1.3,0.9,2.2,2.2,2.2h17.4c1.2,0,2.2-0.9,2.2-2.2c0-1.2-0.9-2.2-2.2-2.2H98.7z M86.8,115.2l4.3,4.3
				l2.8-2.8l5.6-3.6c0.5,0.5-0.3,2.3,0.1,2.5l0.2,0.9l-0.4,0.1c0.4-0.2,0.2,0.6,0.2,0.8l-0.1,0.3l-0.7-5l-0.5-0.3
				c-4.5-3.1-7.2-8.2-7.2-13.6c0-9,7.3-16.3,16.3-16.3s16.2,7.3,16.2,16.3c0,5.4-2.7,10.4-7.2,13.6l-0.5,0.3v4.4l0.6,0.3
				c0.2,0.1,0.5,0.2,0.8,0.3c0.3,0.1,0.5,0.2,0.6,0.3l-2.3-0.7l-0.3-1c0.3-0.3-0.2-1.4,0.1-1.8l0.5-1.3l7.7,6.1l4.3-4.3l-2.8-2.8
				l0.4-0.5c1.9-2.5,3.3-5.7,4-9.2v-0.8h3.9v-6.2h-4.1l-0.1-0.7c-0.7-3.3-2-6.4-3.9-9.2l-0.4-0.5l2.8-2.8l-4.3-4.3l-2.8,2.8
				l-0.5-0.4c-2.5-1.9-5.7-3.3-9.2-4l-0.8-0.1v-4.1h-6.2v4.1l-0.7,0.1c-3.3,0.7-6.4,2-9.2,3.9l-0.5,0.4l-2.4-2.3l-4.3,4.3l2.8,2.8
				L89.2,86c-1.9,2.5-3.3,5.7-4,9.2L85.1,96H81v6.2h4.1l0.1,0.7c0.7,3.3,2,6.4,3.9,9.2l0.4,0.5L86.8,115.2z M107.6,94.4
				c2.6,0,4.7,2.1,4.7,4.7c0,1.9-1.3,3.6-3.2,4.3l-0.7,0.3v13.9h6.2v-5.7l0.5-0.3c4.5-2.7,7.4-7.6,7.4-12.7
				c0-8.3-6.5-14.8-14.8-14.8c-8.1,0-14.8,6.6-14.8,14.8c0,5.2,2.8,10,7.4,12.7l0.5,0.3v5.7h6.2v-14l-0.8-0.2
				c-1.8-0.5-3.1-2.3-3.1-4.3C102.9,96.5,105,94.4,107.6,94.4z M107.4,96.1c-1.6,0-3,1.3-3,3s1.3,3,3,3c1.6,0,3-1.3,3-3
				S109.1,96.1,107.4,96.1z"/>
		</g>
		<g id="Application-dafault_1_">
			<path class="st2" d="M175.2,130.9c-0.1,0-0.3,0-0.3,0c-13.8-6.3-21.1-16.9-23.6-21.2c0-0.1-0.1-0.1-0.1-0.1
				c0-0.1-0.1-0.2-0.1-0.3c0-0.1-0.1-0.2-0.1-0.2V81.5c0-0.4,0.3-0.9,1-1c13.6-2.1,22.5-9.2,22.6-9.2c0.2-0.2,0.4-0.3,0.7-0.3
				c0.2,0,0.3,0.1,0.5,0.2l0.2,0.2h0.1c0.1,0.1,0.2,0.1,0.4,0.2c9.3,5.6,17.1,7.9,22,8.8c0.4,0.1,1,0.4,1,1.2v27.5
				c0,0.1,0,0.2-0.1,0.5c-0.1,0.2-7.2,13.9-23.5,21.3c-0.1,0-0.3,0.1-0.4,0.1C175.3,130.9,175.2,130.9,175.2,130.9z M174.7,73.6
				c-2.1,1.5-9.8,6.4-20.8,8.5l-0.7,0.1v26.3l0.1,0.2c0.7,1.3,7.4,13,21.5,19.6l0.3,0.2l0.3-0.2c14.1-6.6,20.8-18.3,21.5-19.6
				l0.1-0.2V82.3l-0.7-0.1c-10.4-2.1-18.6-7-20.8-8.5l-0.5-0.3L174.7,73.6z"/>
			<path class="st2" d="M175.2,115.8c-8.2,0-15-6.7-15-15c0-8.4,6.6-15,15-15c1.7,0,3,0.2,4.4,0.8c0.3,0.1,0.6,0.3,0.7,0.6
				c0.1,0.2,0.1,0.5,0,0.8c-0.2,0.5-0.6,0.8-1,0.8c-0.1,0-0.2,0-0.3-0.1c-1.4-0.5-2.5-0.7-3.8-0.7c-7,0-12.7,5.7-12.7,12.7
				s5.7,12.7,12.7,12.7s12.7-5.7,12.7-12.7c0-2.1-0.6-4.3-1.7-6.3l-0.6-1l-9.6,10.8c-0.3,0.3-0.5,0.3-0.8,0.3h-0.1
				c-0.4-0.2-0.7-0.3-0.8-0.5l-2.9-5.5c-0.5-0.8,0.1-1.3,0.5-1.6c0.2-0.1,0.4-0.2,0.5-0.2c0.4,0,0.7,0.3,1,0.7l2.2,4.1l9.4-10.3
				c0.2-0.2,0.5-0.5,0.8-0.5c0.1,0,0.4,0.3,0.6,0.5c2.4,2.8,3.7,6.3,3.7,9.8C190.1,109.1,183.4,115.8,175.2,115.8z"/>
		</g>
		<g>
			<path class="st2" d="M237,91.5c0,1.7,1.4,3,3.1,3c1.4,0,2.5-0.9,2.9-2.2h6.6v-1.5H243c-0.5-1.6-2.2-2.6-3.8-2.1
				C237.9,89,237,90.1,237,91.5z M241.6,91.5c0,0.8-0.7,1.5-1.5,1.5s-1.5-0.7-1.5-1.5s0.7-1.5,1.5-1.5
				C240.9,90,241.6,90.6,241.6,91.5z"/>
			<path class="st2" d="M242.7,101.8c1.4,0,2.6-1,3-2.3h2.1V98h-2.1c-0.4-1.6-2.1-2.6-3.7-2.2c-1.6,0.4-2.6,2.1-2.2,3.7
				C240.1,100.8,241.3,101.8,242.7,101.8z M242.7,97.2c0.8,0,1.5,0.7,1.5,1.5s-0.7,1.5-1.5,1.5s-1.5-0.7-1.5-1.5
				S241.8,97.2,242.7,97.2z"/>
			<g>
				<path class="st2" d="M257,104.6c3.6,0,6.5-2.9,6.5-6.5s-2.9-6.5-6.5-6.5c-3.6,0-6.5,2.9-6.5,6.5S253.4,104.6,257,104.6z
					 M257,93.2c2.7,0,4.9,2.2,4.9,4.9c0,2.7-2.2,4.9-4.9,4.9c-2.7,0-4.9-2.2-4.9-4.9C252,95.4,254.3,93.2,257,93.2z"/>
				<path class="st2" d="M246.2,83.3h2l4.8,4.8l1.1-1.1l-5.3-5.3h-2.6c-0.4-1.6-2.1-2.6-3.7-2.2c-1.6,0.4-2.6,2.1-2.2,3.7
					c0.4,1.6,2.1,2.6,3.7,2.2C245.1,85.3,245.9,84.4,246.2,83.3z M241.7,82.6c0-0.8,0.7-1.5,1.5-1.5s1.5,0.7,1.5,1.5
					s-0.7,1.5-1.5,1.5S241.7,83.4,241.7,82.6z"/>
				<path class="st2" d="M246.3,113.1c1.5,0,2.8-1.1,3-2.6h2.5l2.8-2.8l-1.1-1.1l-2.3,2.3h-2c-0.6-1.6-2.3-2.4-3.9-1.9
					c-1.6,0.6-2.4,2.3-1.9,3.9C243.8,112.3,245,113.1,246.3,113.1L246.3,113.1z M246.3,108.5c0.8,0,1.5,0.7,1.5,1.5
					s-0.7,1.5-1.5,1.5s-1.5-0.7-1.5-1.5S245.4,108.5,246.3,108.5z"/>
				<path class="st2" d="M225.3,105.2l8.4-4.3v6.7l-10,5.9l0.8,1.3l12.5-7.4c1.2-0.7,2.8-0.2,3.5,1c0.6,1.2,0.3,2.6-0.9,3.4
					l-7.3,4.3l-0.7,0.4l0.5,0.7c0.7,1,0.9,2.2,0.5,3.4c-0.6,2-3,3.8-6.8,5.1l0.5,1.5c4.1-1.4,6.6-3.3,7.6-5.6c0.5,2.2,2.1,4,4.3,4.6
					c-0.3,0.8-1.1,2.1-3.6,3.1l0.6,1.4c3.2-1.3,4.2-3.2,4.5-4.3h19.4c3.4,0,6.1-2.8,6.1-6.1l0,0v-10.5h-1.5v10.5
					c0,2.5-2,4.6-4.5,4.7c0,0,0,0-0.1,0h-19.3c-2.5,0-4.6-2.1-4.5-4.7l0,0v-4l5.1-3.1c1.9-1.1,2.6-3.6,1.5-5.6
					c-0.6-0.9-1.5-1.6-2.5-1.9s-2.1-0.1-3.1,0.4l-1,0.6V77.3c0-2.6,2-4.7,4.6-4.7l0,0h1.2c0,1.1,0.3,2.2,1,3c0.6,0.6,1.3,1,2.1,1
					h10.5c0.8,0,1.6-0.4,2.2-1c0.7-0.8,1.1-1.9,1-3h1.2c2.6,0,4.6,2.2,4.6,4.7l0,0v10h1.5v-10c0-3.4-2.7-6.2-6.1-6.3l0,0h-19.3
					c-3.4,0-6.2,2.8-6.1,6.3l0,0v22l-9.1,4.6c-4.7,2.6-5.3,5.3-5.3,10.4v16.8h1.5v-16.7C220.9,109.5,221.2,107.5,225.3,105.2z
					 M255.8,74.4c-0.3,0.3-0.7,0.5-1.1,0.5h-10.5c-0.4,0-0.8-0.2-1.1-0.5c-0.4-0.5-0.7-1.2-0.6-1.9h13.9
					C256.4,73.2,256.2,73.9,255.8,74.4z"/>
				<path class="st2" d="M276.3,89.7H257c-4.7,0-8.5,3.8-8.5,8.5s3.8,8.5,8.5,8.5h8.2v-1.5h-3.4c0.8-0.6,1.5-1.3,2.1-2.1h4.1v-1.5
					h-3.3c0.3-0.8,0.6-1.7,0.6-2.6h9v-1.5h-9c-0.1-0.9-0.3-1.7-0.6-2.6h3.3v-1.6h-4.1c-0.6-0.8-1.3-1.5-2.1-2.1h14.5L276.3,89.7
					L276.3,89.7z M263.9,98.1c0,3.8-3.1,6.9-6.9,6.9s-6.9-3.1-6.9-6.9s3.1-6.9,6.9-6.9C260.8,91.2,263.9,94.3,263.9,98.1z"/>
				<rect x="269.5" y="93.3" class="st2" width="3.1" height="1.5"/>
				<rect x="275.7" y="97.4" class="st2" width="2.4" height="1.5"/>
				<rect x="270.1" y="101.4" class="st2" width="5.6" height="1.5"/>
				<rect x="266.6" y="105" class="st2" width="6.3" height="1.5"/>
				<path class="st2" d="M257.9,108.3h-1.5v5.6l-2.7,2.7c-1.4-0.9-3.3-0.5-4.2,0.9c-0.3,0.5-0.5,1.1-0.5,1.6c0,1.7,1.4,3.1,3.1,3.1
					s3.1-1.4,3.1-3.1c0-0.5-0.1-1-0.4-1.5l3.2-3.2L257.9,108.3z M252,120.7c-0.8,0-1.5-0.7-1.5-1.5s0.7-1.5,1.5-1.5s1.5,0.7,1.5,1.5
					S252.9,120.7,252,120.7z"/>
			</g>
		</g>
		<g>
			<path class="st2" d="M309.4,83.3c-1.8,0.7-3.1,2.4-3.1,4.5c0,0.8,0.2,1.5,0.6,2.2c-1.4,0.6-2.5,1.9-2.5,3.6s1,3,2.5,3.6
				c-0.3,0.7-0.6,1.4-0.6,2.2c0,2.1,1.3,3.8,3.1,4.5c-0.1,0.4-0.2,0.8-0.2,1.3c0,2.1,1.7,3.9,3.9,3.9c0.5,0,0.9-0.1,1.4-0.3
				c0.6,1.3,1.9,2.2,3.5,2.2c2.1,0,3.9-1.7,3.9-3.9v-27c0-2.1-1.7-3.9-3.9-3.9c-1.5,0-2.8,0.9-3.5,2.2c-0.4-0.2-0.9-0.3-1.4-0.3
				c-2.1,0-3.9,1.7-3.9,3.9C309.2,82.5,309.3,82.9,309.4,83.3z M313.1,80.1c1.1,0,1.9,0.9,1.9,1.9h1.9c0-0.9-0.3-1.8-0.9-2.4
				c0.2-0.8,1-1.4,1.9-1.4c1.1,0,1.9,0.9,1.9,1.9v27c0,1.1-0.9,1.9-1.9,1.9c-0.9,0-1.6-0.6-1.9-1.4c0.5-0.7,0.9-1.5,0.9-2.4H315
				c0,1.1-0.9,1.9-1.9,1.9c-1.1,0-1.9-0.9-1.9-1.9c0-1.1,0.9-1.9,1.9-1.9v-1.9c-0.9,0-1.8,0.4-2.5,0.9c-1.3-0.3-2.4-1.4-2.4-2.8
				c0-1.6,1.3-2.9,2.9-2.9c1.6,0,2.9,1.3,2.9,2.9h1.9c0-2.7-2.2-4.8-4.8-4.8c-1.1,0-2.1,0.4-2.9,1l0,0c-1.1,0-1.9-0.9-1.9-1.9
				c0-1.1,0.9-1.9,1.9-1.9l0,0c0.8,0.6,1.8,1,2.9,1c2.7,0,4.8-2.2,4.8-4.8H314c0,1.6-1.3,2.9-2.9,2.9c-1.6,0-2.9-1.3-2.9-2.9
				c0-1.4,1-2.6,2.4-2.8c0.7,0.6,1.5,0.9,2.5,0.9v-1.9c-1.1,0-1.9-0.9-1.9-1.9C311.1,81,312,80.1,313.1,80.1z"/>
			<path class="st2" d="M337.9,77.4c-4.5-4.2-10.4-6.4-16.6-6l0.1,1.9c5.7-0.4,11,1.6,15.2,5.4c4.1,3.9,6.4,9.1,6.4,14.7
				c0,6.8-3.4,13.1-9.1,16.9c-2,1.3-3.4,3.2-4.4,5.3h-13.7c-0.9-2.2-2.4-4-4.4-5.3c-5.9-3.9-9.2-10.4-9-17.5l-1.9-0.1
				c-0.2,7.7,3.4,14.9,9.9,19.1c1.4,0.9,2.5,2.2,3.3,3.7h-2.6v1.9h3.4c0.2,0.6,0.3,1.3,0.4,1.9H313v1.9h1.9v2.9c0,0.5,0.4,1,1,1h1
				c0,3.2,2.6,5.8,5.8,5.8s5.8-2.6,5.8-5.8h1c0.5,0,1-0.4,1-1v-2.6h1.9v-1.9h-1.9c0.1-0.7,0.2-1.3,0.4-1.9h3.4v-1.9h-2.6
				c0.8-1.5,1.9-2.8,3.3-3.7c6.2-4.1,9.9-11,9.9-18.5C344.9,87.5,342.3,81.6,337.9,77.4z M322.7,129.2c-2.1,0-3.9-1.7-3.9-3.9h7.7
				C326.6,127.5,324.8,129.2,322.7,129.2z M328.5,123.5h-11.6v-2h11.6V123.5z M328.5,119.6h-11.7c-0.1-0.7-0.2-1.3-0.3-1.9h12.3
				C328.7,118.3,328.6,119,328.5,119.6z"/>
			<path class="st2" d="M303.1,76.2c1.6,0,2.9,1.3,2.9,2.9c0,0.4,0.3,0.7,0.7,0.7s0.7-0.3,0.7-0.7c0-1.6,1.3-2.9,2.9-2.9
				c0.4,0,0.7-0.3,0.7-0.7c0-0.4-0.3-0.7-0.7-0.7c-1.6,0-2.9-1.3-2.9-2.9c0-0.4-0.3-0.7-0.7-0.7s-0.7,0.3-0.7,0.7
				c0,1.6-1.3,2.9-2.9,2.9c-0.4,0-0.7,0.3-0.7,0.7S302.7,76.2,303.1,76.2z M306.7,74.3c0.3,0.5,0.7,0.9,1.2,1.2
				c-0.5,0.3-0.9,0.7-1.2,1.2c-0.3-0.5-0.7-0.9-1.2-1.2C306,75.2,306.4,74.8,306.7,74.3z"/>
			<path class="st2" d="M306,83.5c0.4,0,0.7-0.3,0.7-0.7c0-0.4-0.3-0.7-0.7-0.7c-1.6,0-2.9-1.3-2.9-2.9c0-0.4-0.3-0.7-0.7-0.7
				s-0.7,0.3-0.7,0.7c0,1.6-1.3,2.9-2.9,2.9c-0.4,0-0.7,0.3-0.7,0.7c0,0.4,0.3,0.7,0.7,0.7c1.6,0,2.9,1.3,2.9,2.9
				c0,0.4,0.3,0.7,0.7,0.7s0.7-0.3,0.7-0.7C303.1,84.8,304.4,83.5,306,83.5z M302.4,84c-0.3-0.5-0.7-0.9-1.2-1.2
				c0.5-0.3,0.9-0.7,1.2-1.2c0.3,0.5,0.7,0.9,1.2,1.2C303.1,83.1,302.7,83.5,302.4,84z"/>
		</g>
		<g>
			<g>
				<g>
					<path class="st2" d="M375.4,77.7L375.4,77.7c-2.2,0-3.9,1.8-3.9,4v5.7h-5.9c-0.5,0-0.9,0.4-0.9,0.9s0.4,0.9,0.9,0.9h5.9v4.6
						h-5.9c-0.5,0-0.9,0.4-0.9,0.9s0.4,0.9,0.9,0.9h5.9v4.6h-5.9c-0.5,0-0.9,0.4-0.9,0.9s0.4,0.9,0.9,0.9h5.9v4.6h-5.9
						c-0.5,0-0.9,0.4-0.9,0.9s0.4,0.9,0.9,0.9h5.9v4.6h-5.9c-0.5,0-0.9,0.4-0.9,0.9s0.4,0.9,0.9,0.9h5.9v3c0,0.5,0.4,0.9,0.9,0.9
						s0.9-0.4,0.9-0.9V81.7c0-1.2,1-2.2,2.2-2.2c0.5,0,0.9-0.4,0.9-0.9C376.3,78.1,375.9,77.7,375.4,77.7z"/>
				</g>
			</g>
			<g>
				<g>
					<path class="st2" d="M412.7,122.3h-37.3c-0.9,0-1.7-0.5-2.1-1.4c-0.2-0.5-0.7-0.7-1.2-0.5s-0.7,0.7-0.5,1.2
						c0.6,1.5,2.1,2.5,3.7,2.5h5.5v6.1c0,0.5,0.4,0.9,0.9,0.9s0.9-0.4,0.9-0.9v-6.1h4.6v6.1c0,0.5,0.4,0.9,0.9,0.9s0.9-0.4,0.9-0.9
						v-6.1h4.6v6.1c0,0.5,0.4,0.9,0.9,0.9s0.9-0.4,0.9-0.9v-6.1h4.6v6.1c0,0.5,0.4,0.9,0.9,0.9s0.9-0.4,0.9-0.9v-6.1h4.6v6.1
						c0,0.5,0.4,0.9,0.9,0.9s0.9-0.4,0.9-0.9v-6.1h4.4c0.5,0,0.9-0.4,0.9-0.9C413.6,122.7,413.2,122.3,412.7,122.3z"/>
				</g>
			</g>
			<g>
				<g>
					<path class="st2" d="M406.6,86.1h-24c-1.6,0-2.8,1.3-2.8,2.8v24c0,1.6,1.3,2.8,2.8,2.8h24c1.6,0,2.8-1.3,2.8-2.8v-24
						C409.5,87.4,408.2,86.1,406.6,86.1z M381.6,88.9c0-0.6,0.5-1.1,1.1-1.1H401V97c-1.6,0.3-2.9,1.6-3.2,3.2h-6.5v-4.5
						c1.7-0.3,2.9-1.8,2.9-3.6c0-2-1.6-3.6-3.6-3.6c-1.8,0-3.2,1.3-3.6,2.9h-5.4L381.6,88.9L381.6,88.9z M401.8,98.7
						c1.3,0,2.4,1.1,2.4,2.4s-1.1,2.4-2.4,2.4s-2.4-1.1-2.4-2.4S400.5,98.7,401.8,98.7z M390.5,94.1c-1,0-1.9-0.8-1.9-1.9
						c0-1,0.8-1.9,1.9-1.9c1,0,1.9,0.8,1.9,1.9C392.4,93.2,391.6,94.1,390.5,94.1z M386.7,108.5c-0.5-0.3-0.9-0.8-0.9-1.5
						c0-0.9,0.8-1.7,1.7-1.7s1.7,0.8,1.7,1.7C389.2,108.3,387.8,109.1,386.7,108.5z M393.9,113.9H388v-3.5c1.7-0.2,3.1-1.7,3.1-3.4
						c0-1.9-1.5-3.4-3.4-3.4c-1.9,0-3.4,1.5-3.4,3.4c0,1.4,0.9,2.6,2.1,3.2v3.7h-3.5c-0.6,0-1.1-0.5-1.1-1.1V93.3h5.4
						c0,0,0.5,1.8,2.4,2.4v5.5c0,0.5,0.4,0.9,0.9,0.9h3.5L393.9,113.9C394,113.9,393.9,113.9,393.9,113.9z M407.7,112.9
						c0,0.6-0.5,1.1-1.1,1.1h-11v-3.8h12.1V112.9z M407.7,108.3h-12.1V102h2.1c0.4,1.9,2.1,3.3,4.1,3.3c2.3,0,4.2-1.9,4.2-4.2
						c0-2-1.4-3.7-3.3-4.1l0,0v-9.2h3.9c0.6,0,1.1,0.5,1.1,1.1L407.7,108.3L407.7,108.3z"/>
				</g>
			</g>
			<g>
				<g>
					<path class="st2" d="M423.8,95.5c0.5,0,0.9-0.4,0.9-0.9s-0.4-0.9-0.9-0.9h-5.9v-4.6h5.9c0.5,0,0.9-0.4,0.9-0.9
						s-0.4-0.9-0.9-0.9h-5.9v-5.7c0-2.2-1.8-4-4-4h-5.5v-5.7c0-0.5-0.4-0.9-0.9-0.9s-0.9,0.4-0.9,0.9v5.7H402v-5.7
						c0-0.5-0.4-0.9-0.9-0.9s-0.9,0.4-0.9,0.9v5.7h-4.6v-5.7c0-0.5-0.4-0.9-0.9-0.9s-0.9,0.4-0.9,0.9v5.7h-4.6v-5.7
						c0-0.5-0.4-0.9-0.9-0.9s-0.9,0.4-0.9,0.9v5.7h-4.6v-5.7c0-0.5-0.4-0.9-0.9-0.9s-0.9,0.4-0.9,0.9v5.7h-2c-0.5,0-0.9,0.4-0.9,0.9
						s0.4,0.9,0.9,0.9c4.6,0,31.3,0,35,0c1.2,0,2.2,1,2.2,2.2v38.5c0,0.6-0.2,1.2-0.7,1.6c-0.4,0.3-0.4,0.9,0,1.2
						c0.2,0.2,0.4,0.3,0.6,0.3s0.4-0.1,0.6-0.2c0.8-0.8,1.2-1.8,1.2-2.9v-5.3h5.9c0.5,0,0.9-0.4,0.9-0.9s-0.4-0.9-0.9-0.9h-5.9v-4.6
						h5.9c0.5,0,0.9-0.4,0.9-0.9s-0.4-0.9-0.9-0.9h-5.9V102h5.9c0.5,0,0.9-0.4,0.9-0.9s-0.4-0.9-0.9-0.9h-5.9v-4.6L423.8,95.5
						L423.8,95.5z"/>
				</g>
			</g>
		</g>
		<g id="XMLID_18_">
			<path id="XMLID_34_" class="st2" d="M490.6,107c-0.5,0-1,0.4-1,1v4.5c0,0.8-0.7,1.5-1.5,1.5h-12.7c-0.5,0-1,0.4-1,1s0.4,1,1,1
				h12.7c1.9,0,3.5-1.6,3.5-3.5V108C491.6,107.4,491.2,107,490.6,107z"/>
			<path id="XMLID_33_" class="st2" d="M488.2,92.2V88c0-2-0.6-4-1.7-5.7c-0.3-0.4-0.9-0.6-1.3-0.3c-0.4,0.3-0.6,0.9-0.3,1.3
				c0.9,1.4,1.4,2.9,1.4,4.6v4.2h-2.5v-4.2c0-3.2-2.6-5.8-5.8-5.8c-3.2,0-5.8,2.6-5.8,5.8v4.2h-2.5v-4.2c0-4.6,3.7-8.3,8.3-8.3
				c1.4,0,2.7,0.3,3.9,1c0.5,0.3,1.1,0.1,1.3-0.4c0.3-0.5,0.1-1.1-0.4-1.3c-1.5-0.8-3.1-1.2-4.8-1.2c-5.6,0-10.2,4.6-10.2,10.2v4.2
				c-1.9,0-3.4,1.6-3.4,3.5v16.8c0,1.9,1.6,3.5,3.5,3.5h3.1c0.5,0,1-0.4,1-1s-0.4-1-1-1h-3.1c-0.8,0-1.5-0.7-1.5-1.5v-12.1h23.4v3.2
				c0,0.5,0.4,1,1,1c0.5,0,1-0.4,1-1v-8C491.6,93.7,490.1,92.2,488.2,92.2z M474.1,87.9c0-2.1,1.7-3.9,3.9-3.9
				c2.1,0,3.9,1.7,3.9,3.9v4.2h-7.7L474.1,87.9L474.1,87.9z M466.3,98.4v-2.8c0-0.8,0.7-1.5,1.5-1.5h20.3c0.8,0,1.5,0.7,1.5,1.5v2.8
				H466.3z"/>
			<path id="XMLID_32_" class="st2" d="M478,111.7c0.5,0,1-0.4,1-1v-1.8c1.3-0.4,2.2-1.6,2.2-3.1c0-1.8-1.4-3.2-3.2-3.2
				c-1.8,0-3.2,1.4-3.2,3.2c0,1.4,0.9,2.6,2.2,3.1v1.8C477,111.3,477.5,111.7,478,111.7z M478,104.7c0.7,0,1.3,0.6,1.3,1.3
				c0,0.7-0.6,1.3-1.3,1.3s-1.3-0.6-1.3-1.3C476.7,105.2,477.3,104.7,478,104.7z"/>
			<path id="XMLID_31_" class="st2" d="M502.8,92.7c-0.3,0-0.5,0.1-0.7,0.3l-3.9,3.9h-3.5c-0.5,0-1,0.4-1,1s0.4,1,1,1h3.9
				c0.3,0,0.5-0.1,0.7-0.3l3.9-3.9h1.9c0.4,1.2,1.5,2.1,2.9,2.1c1.7,0,3-1.4,3-3c0-1.7-1.4-3-3-3c-1.3,0-2.5,0.9-2.9,2.1L502.8,92.7
				L502.8,92.7z M508,92.4c0.6,0,1.1,0.5,1.1,1.1s-0.5,1.1-1.1,1.1c-0.6,0-1.1-0.5-1.1-1.1S507.3,92.4,508,92.4z"/>
			<path id="XMLID_30_" class="st2" d="M508,105.7c-1.3,0-2.5,0.9-2.9,2.1h-1.9l-3.9-3.9c-0.2-0.2-0.4-0.3-0.7-0.3h-3.9
				c-0.5,0-1,0.4-1,1c0,0.5,0.4,1,1,1h3.5l3.9,3.9c0.2,0.2,0.4,0.3,0.7,0.3h2.3c0.4,1.2,1.5,2.1,2.9,2.1c1.7,0,3-1.4,3-3.1
				C511,107,509.6,105.7,508,105.7z M508,109.8c-0.6,0-1.1-0.5-1.1-1.1s0.5-1.1,1.1-1.1c0.6,0,1.1,0.5,1.1,1.1
				S508.6,109.8,508,109.8z"/>
			<path id="XMLID_29_" class="st2" d="M461.3,103.7h-3.9c-0.3,0-0.5,0.1-0.7,0.3l-3.9,3.9H448c-0.5,0-1,0.4-1,1c0,0.5,0.4,1,1,1
				h5.2c0.3,0,0.5-0.1,0.7-0.3l3.9-3.9h3.5c0.5,0,1-0.4,1-1C462.3,104,461.8,103.7,461.3,103.7z"/>
			<path id="XMLID_28_" class="st2" d="M449.8,87.9h6.9l3.9,3.9c0.2,0.2,0.4,0.3,0.7,0.3c0.2,0,0.5-0.1,0.7-0.3c0.4-0.4,0.4-1,0-1.4
				l-4.2-4.2c-0.2-0.2-0.4-0.3-0.7-0.3h-7.3c-0.5,0-1,0.4-1,1C448.9,87.4,449.3,87.9,449.8,87.9z"/>
			<path id="XMLID_27_" class="st2" d="M450.9,98.7h10.4c0.5,0,1-0.4,1-1c0-0.5-0.4-1-1-1h-10.4c-0.4-1.2-1.5-2.1-2.9-2.1
				c-1.7,0-3,1.4-3,3c0,1.7,1.4,3,3,3C449.4,100.8,450.5,99.9,450.9,98.7z M446.9,97.8c0-0.6,0.5-1.1,1.1-1.1c0.6,0,1.1,0.5,1.1,1.1
				s-0.5,1.1-1.1,1.1C447.4,98.9,446.9,98.4,446.9,97.8z"/>
			<path id="XMLID_26_" class="st2" d="M462.2,115.7l-2.5,2.5c-0.2,0.2-0.3,0.4-0.3,0.7v6.2c-1.2,0.4-2.1,1.6-2.1,2.9
				c0,1.7,1.4,3,3,3c1.7,0,3-1.4,3-3c0-1.3-0.9-2.5-2.1-2.9v-5.8l2.2-2.2c0.4-0.4,0.4-1,0-1.4C463.2,115.3,462.6,115.3,462.2,115.7z
				 M460.4,129c-0.6,0-1.1-0.5-1.1-1.1s0.5-1.1,1.1-1.1c0.6,0,1.1,0.5,1.1,1.1S461,129,460.4,129z"/>
			<path id="XMLID_25_" class="st2" d="M494.3,115.7c-0.4-0.4-1-0.4-1.4,0c-0.4,0.4-0.4,1,0,1.4l2.2,2.2v8.7c0,0.5,0.4,1,1,1
				c0.5,0,1-0.4,1-1v-9.1c0-0.3-0.1-0.5-0.3-0.7L494.3,115.7z"/>
			<path id="XMLID_24_" class="st2" d="M493.6,84.7c0.2,0,0.5-0.1,0.7-0.3l2.5-2.5c0.2-0.2,0.3-0.4,0.3-0.7v-4.3
				c1.2-0.4,2.1-1.5,2.1-2.9c0-1.7-1.4-3-3-3c-1.6,0-3,1.4-3,3c0,1.3,0.9,2.5,2.1,2.9v3.9l-2.2,2.2c-0.4,0.4-0.4,1,0,1.4
				C493.1,84.7,493.4,84.7,493.6,84.7z M496.1,72.9c0.6,0,1.1,0.5,1.1,1.1s-0.5,1.1-1.1,1.1c-0.6,0-1.1-0.5-1.1-1.1
				C494.9,73.4,495.4,72.9,496.1,72.9z"/>
			<path id="XMLID_23_" class="st2" d="M461.4,80.8v-7.2c0-0.5-0.4-1-1-1c-0.5,0-1,0.4-1,1v7.7c0,0.3,0.1,0.5,0.3,0.7l2.5,2.5
				c0.2,0.2,0.4,0.3,0.7,0.3c0.2,0,0.5-0.1,0.7-0.3c0.4-0.4,0.4-1,0-1.4L461.4,80.8z"/>
			<path id="XMLID_22_" class="st2" d="M493.6,88.8c-0.5,0-1,0.4-1,1c0,0.5,0.4,1,1,1h4.3c0.3,0,0.5-0.1,0.7-0.3l6.2-6.2
				c0.2-0.2,0.3-0.4,0.3-0.7v-4.9c0-0.5-0.4-1-1-1c-0.5,0-1,0.4-1,1v4.5l-5.6,5.6H493.6L493.6,88.8z"/>
			<path id="XMLID_21_" class="st2" d="M505.9,115.7h-3.6l-6.2-6.2c-0.4-0.4-1-0.4-1.4,0c-0.4,0.4-0.4,1,0,1.4l6.5,6.5
				c0.2,0.2,0.4,0.3,0.7,0.3h4c0.5,0,1-0.4,1-1C506.9,116.1,506.4,115.7,505.9,115.7z"/>
			<path id="XMLID_20_" class="st2" d="M458.2,112.2h3.1c0.5,0,1-0.4,1-1c0-0.5-0.4-1-1-1h-3.5c-0.3,0-0.5,0.1-0.7,0.3l-5.9,5.9
				c-0.4-0.2-0.8-0.3-1.3-0.3c-1.7,0-3,1.4-3,3c0,1.7,1.4,3,3,3c1.7,0,3-1.4,3-3c0-0.5-0.1-1-0.3-1.4L458.2,112.2z M449.8,120.2
				c-0.6,0-1.1-0.5-1.1-1.1s0.5-1.1,1.1-1.1c0.6,0,1.1,0.5,1.1,1.1C451,119.7,450.5,120.2,449.8,120.2z"/>
			<path id="XMLID_19_" class="st2" d="M483.5,119.7h-11.1c-1.7,0-3.1,1.4-3.1,3.1s1.4,3.1,3.1,3.1h11.1c1.7,0,3.1-1.4,3.1-3.1
				C486.7,121,485.3,119.7,483.5,119.7z M483.5,123.9h-11.1c-0.7,0-1.2-0.5-1.2-1.2s0.5-1.2,1.2-1.2h11.1c0.7,0,1.2,0.5,1.2,1.2
				C484.7,123.3,484.2,123.9,483.5,123.9z"/>
		</g>
	</g>
	<g>
		<g>
			<g>
				<rect x="539.4" y="75.1" class="st2" width="2" height="2"/>
				<rect x="545.4" y="75.1" class="st2" width="2" height="2"/>
				<rect x="548.4" y="124.1" class="st2" width="2" height="2"/>
				<path class="st2" d="M536.4,84.1v4h2v-3h3v-2h-4C536.8,83.1,536.4,83.5,536.4,84.1z"/>
				<path class="st2" d="M591.4,73.1h-2v-1c0-0.6-0.4-1-1-1h-3c-1.1,0-2,0.9-2,2v2c0,1.1,0.9,2,2,2h3c0.6,0,1-0.4,1-1v-1h1v14
					c0,5-4,9-9,9s-9-4-9-9v-14h1v1c0,0.6,0.4,1,1,1h3c1.1,0,2-0.9,2-2v-2c0-1.1-0.9-2-2-2h-3c-0.6,0-1,0.4-1,1v1h-2
					c-0.6,0-1,0.4-1,1v15c0,5.7,4.3,10.4,10,10.9v1.1c0,5-4,9-9,9c-1.8,0-3.5-0.5-5-1.5V74.1c0-1.7-1.3-3-3-3h-28c-1.7,0-3,1.3-3,3
					v54c0,1.7,1.3,3,3,3h28c1.7,0,3-1.3,3-3v-17.2c5.4,2.8,12,0.6,14.8-4.7c0.8-1.6,1.2-3.3,1.2-5V100c5.7-0.5,10-5.3,10-10.9v-15
					C592.4,73.5,591.9,73.1,591.4,73.1z M587.4,75.1h-2v-2h2V75.1z M575.4,73.1h2v2h-2V73.1z M564.4,106.7c-1.3-1.6-2-3.6-2-5.6v-9
					c0-3.9-3.1-7-7-7s-7,3.1-7,7v4.1c-2.7,0.6-4.5,3.2-3.9,5.9c0.6,2.7,3.2,4.5,5.9,3.9s4.5-3.2,3.9-5.9c-0.4-2-1.9-3.5-3.9-3.9
					v-4.1c0-2.8,2.2-5,5-5s5,2.2,5,5v9c0,3.3,1.5,6.4,4,8.5v9.5h-26v2h26v7c0,0.6-0.4,1-1,1h-28c-0.6,0-1-0.4-1-1v-47h26v-2h-26v-5
					c0-0.6,0.4-1,1-1h28c0.6,0,1,0.4,1,1V106.7z M549.4,98.1c1.7,0,3,1.3,3,3s-1.3,3-3,3s-3-1.3-3-3S547.7,98.1,549.4,98.1z"/>
				<rect x="551.4" y="111.1" class="st2" width="2" height="2"/>
				<rect x="555.4" y="111.1" class="st2" width="4" height="2"/>
				<rect x="551.4" y="115.1" class="st2" width="8" height="2"/>
			</g>
		</g>
	</g>
	<g id="Fintech_1_">
		<path class="st2" d="M625.8,131.1c-1.6,0-3-1.3-3-3v-54c0-1.6,1.3-3,3-3h30.6c1.6,0,3,1.3,3,3v12.6h15.4c0.6,0,1.1,0.5,1.1,1.1v21
			c0,0.6-0.5,1.1-1.1,1.1h-11.4l-4,4v14.3c0,1.6-1.3,3-3,3L625.8,131.1L625.8,131.1z M625.1,128.1c0,0.4,0.3,0.7,0.7,0.7h30.6
			c0.4,0,0.7-0.3,0.7-0.7V124H625L625.1,128.1L625.1,128.1z M657.2,121.8v-7.9l-4-4h-11.4c-0.6,0-1.1-0.5-1.1-1.1v-21
			c0-0.6,0.5-1.1,1.1-1.1h15.4v-6.3h-32.1v41.4H657.2z M653.7,107.6c0.3,0,0.6,0.1,0.8,0.3l3.9,3.9l3.9-3.9c0.2-0.2,0.5-0.3,0.8-0.3
			h10.7V88.9H643v18.8L653.7,107.6L653.7,107.6z M657.2,78.2v-4.1c0-0.4-0.3-0.7-0.7-0.7h-30.6l0,0c-0.4,0-0.7,0.3-0.7,0.7v4.1
			H657.2z"/>
		<path class="st2" d="M649.8,104.5c-0.5,0-0.9-0.4-0.9-0.9v-1l-0.2-0.2h-1.5c-0.5,0-0.9-0.4-0.9-0.9s0.4-0.9,0.9-0.9h3.2
			c0.5,0,1-0.4,1-1v-0.3l-0.2-0.2h-4c-0.5,0-0.9-0.4-0.9-0.9v-1.4c0-1.4,1-2.6,2.4-2.8l0.2-0.2v-0.9c0-0.5,0.4-0.9,0.9-0.9
			s0.9,0.4,0.9,0.9v0.9l0.2,0.2h1.5c0.5,0,0.9,0.4,0.9,0.9s-0.4,0.9-0.9,0.9h-3.2c-0.5,0-1,0.4-1,1v0.3l0.2,0.2h4
			c0.5,0,0.9,0.4,0.9,0.9v1.4c0,1.4-1,2.6-2.4,2.8l-0.2,0.2v1C650.7,104.1,650.3,104.5,649.8,104.5z"/>
		<path class="st2" d="M658.3,94c-0.6,0-1.1-0.5-1.1-1.1s0.5-1.1,1.1-1.1h12.2c0.6,0,1.1,0.5,1.1,1.1s-0.5,1.1-1.1,1.1H658.3z"/>
		<path class="st2" d="M658.3,99.3c-0.6,0-1.1-0.5-1.1-1.1s0.5-1.1,1.1-1.1h12.2c0.6,0,1.1,0.5,1.1,1.1s-0.5,1.1-1.1,1.1H658.3z"/>
		<path class="st2" d="M658.3,104.6c-0.6,0-1.1-0.5-1.1-1.1s0.5-1.1,1.1-1.1h6.1c0.6,0,1.1,0.5,1.1,1.1s-0.5,1.1-1.1,1.1H658.3z"/>
	</g>
	<g>
		<g>
			<g>
				<g>
					<rect x="703.4" y="75.1" class="st2" width="2" height="2"/>
					<rect x="709.4" y="75.1" class="st2" width="2" height="2"/>
					<rect x="712.4" y="125.1" class="st2" width="2" height="2"/>
					<path class="st2" d="M700.4,84.1v4h2v-3h3v-2h-4C700.9,83.1,700.4,83.5,700.4,84.1z"/>
					<path class="st2" d="M728.4,118.2v2.9h-26v2h26v5c0,0.6-0.4,1-1,1h-28c-0.6,0-1-0.4-1-1v-47h26v-2h-26v-5c0-0.6,0.4-1,1-1h28
						c0.6,0,1,0.4,1,1v7.2h2v-7.2c0-1.7-1.3-3-3-3h-28c-1.7,0-3,1.3-3,3v54c0,1.7,1.3,3,3,3h28c1.7,0,3-1.3,3-3v-9.9
						C730.4,118.2,728.4,118.2,728.4,118.2z"/>
				</g>
			</g>
		</g>
		<g>
			<g>
				<path class="st2" d="M710.4,114.6h-2.7c-0.4,0-0.7-0.3-0.7-0.7V101c0-0.4,0.3-0.7,0.7-0.7s0.7,0.3,0.7,0.7v12.2h1.3V101
					c0-0.4,0.3-0.7,0.7-0.7s0.7,0.3,0.7,0.7v12.9C711.1,114.2,710.8,114.6,710.4,114.6z"/>
			</g>
			<g>
				<path class="st2" d="M718,114.6h-2.7c-0.4,0-0.7-0.3-0.7-0.7V101c0-0.4,0.3-0.7,0.7-0.7s0.7,0.3,0.7,0.7v12.2h1.3V101
					c0-0.4,0.3-0.7,0.7-0.7s0.7,0.3,0.7,0.7v12.9C718.7,114.2,718.3,114.6,718,114.6z"/>
			</g>
			<g>
				<path class="st2" d="M725.5,114.6h-2.7c-0.4,0-0.7-0.3-0.7-0.7V101c0-0.4,0.3-0.7,0.7-0.7s0.7,0.3,0.7,0.7v12.2h1.3V101
					c0-0.4,0.3-0.7,0.7-0.7s0.7,0.3,0.7,0.7v12.9C726.2,114.2,725.9,114.6,725.5,114.6z"/>
			</g>
			<g>
				<path class="st2" d="M733.1,114.6h-2.7c-0.4,0-0.7-0.3-0.7-0.7V101c0-0.4,0.3-0.7,0.7-0.7s0.7,0.3,0.7,0.7v12.2h1.3V101
					c0-0.4,0.3-0.7,0.7-0.7s0.7,0.3,0.7,0.7v12.9C733.8,114.2,733.5,114.6,733.1,114.6z"/>
			</g>
			<g>
				<path class="st2" d="M735.2,117.3h-29.7c-0.4,0-0.7-0.3-0.7-0.7v-2.7c0-0.4,0.3-0.7,0.7-0.7h29.7c0.4,0,0.7,0.3,0.7,0.7v2.7
					C735.9,116.9,735.6,117.3,735.2,117.3z M706.2,115.9h28.3v-1.3h-28.3V115.9z"/>
			</g>
			<g>
				<path class="st2" d="M735.2,101.6h-29.7c-0.4,0-0.7-0.3-0.7-0.7v-2.7c0-0.4,0.3-0.7,0.7-0.7s0.7,0.3,0.7,0.7v2h28.3v-2
					c0-0.4,0.3-0.7,0.7-0.7s0.7,0.3,0.7,0.7v2.7C735.9,101.3,735.6,101.6,735.2,101.6z"/>
			</g>
			<g>
				<path class="st2" d="M705.5,98.9c-0.3,0-0.6-0.2-0.7-0.5c-0.1-0.4,0.1-0.8,0.4-0.9L720,92c0.2-0.1,0.3-0.1,0.5,0l14.8,5.5
					c0.4,0.1,0.5,0.5,0.4,0.9s-0.5,0.5-0.9,0.4l-14.6-5.4l-14.6,5.4C705.7,98.9,705.6,98.9,705.5,98.9z"/>
			</g>
			<g>
				<path class="st2" d="M720.4,93.4c-0.4,0-0.7-0.3-0.7-0.7v-7.1c0-0.4,0.3-0.7,0.7-0.7s0.7,0.3,0.7,0.7v7.1
					C721.1,93.1,720.8,93.4,720.4,93.4z"/>
			</g>
			<g>
				<path class="st2" d="M723.6,90.1h-3.2c-0.4,0-0.7-0.3-0.7-0.7v-3.8c0-0.4,0.3-0.7,0.7-0.7h3.2c0.4,0,0.7,0.3,0.7,0.7v3.8
					C724.3,89.8,724,90.1,723.6,90.1z M721.1,88.7h1.8v-2.4h-1.8V88.7z"/>
			</g>
			<g>
				<path class="st2" d="M726.9,91.2h-3.2c-0.4,0-0.7-0.3-0.7-0.7v-3.8c0-0.4,0.3-0.7,0.7-0.7h3.2c0.4,0,0.7,0.3,0.7,0.7v3.8
					C727.6,90.9,727.2,91.2,726.9,91.2z M724.3,89.8h1.8v-2.4h-1.8V89.8z"/>
			</g>
		</g>
	</g>
</g>
<g>
	<path class="st3" d="M755.9,31.8c0.2-0.4,0.2-0.9,0.2-1.3c0.4-2.9,1.1-5.6,2.3-8.2c1.1-2.4,2.5-4.5,4.3-6.5
		c1.3-1.4,2.7-2.7,4.2-3.8c2.4-1.7,4.9-3,7.7-3.8c0.7-0.2,1.4-0.4,2-0.5c1-0.3,1.9-0.1,2.8,0.3c1.8,0.7,2.7,2.1,3,3.9
		c0.1,0.3,0.1,0.7,0,1c-0.2,1-0.6,1.9-1.2,2.6c-0.6,0.7-1.4,1.1-2.2,1.5c-0.7,0.2-1.3,0.4-2,0.6c-2.1,0.6-3.9,1.6-5.5,3
		c-0.3,0.3-0.6,0.5-0.9,0.8c-1.8,1.9-3.3,3.9-4.1,6.4c-0.5,1.3-0.7,2.7-0.9,4.1c-0.1,0.7-0.1,1.5-0.1,2.2c0.2,3.7,1.3,7,3.7,9.8
		c0.4,0.4,0.7,0.9,1.1,1.3c2.5,2.5,5.4,4.2,9,4.8c1,0.2,2,0.3,3.1,0.3c0.6,0,1.3-0.1,1.9-0.1c1.6-0.2,3.1-0.5,4.6-1.1
		s2.9-1.5,4.2-2.6c0.5-0.4,0.9-0.7,1.4-1.2c2.3-2.4,3.9-5.2,4.5-8.5c0.2-1.2,0.4-2.4,0.4-3.6c-0.1-2.6-0.6-5.2-1.9-7.5
		c-0.4-0.7-0.8-1.3-1.2-2c-0.3-0.6-0.6-1.1-0.7-1.8c-0.2-0.9-0.1-1.7,0.2-2.5c0.2-0.7,0.6-1.3,1.2-1.8c1.1-1.1,2.5-1.6,4-1.4
		c1.1,0.1,2,0.5,2.8,1.3c0.7,0.7,1.2,1.5,1.7,2.3c1.7,2.8,2.8,5.7,3.4,8.9c0.4,2,0.6,4.1,0.4,6.1c-0.2,3.4-1,6.6-2.4,9.7
		c-1.1,2.4-2.5,4.5-4.2,6.5c-1.3,1.5-2.8,2.9-4.5,4.1c-2.3,1.6-4.7,2.8-7.3,3.7c-1.6,0.5-3.3,0.9-5,1.1c-0.5,0.1-1,0-1.4,0.2
		c-1.1,0-2.1,0-3.2,0c-0.1-0.1-0.2-0.1-0.3-0.1c-0.6-0.1-1.2-0.1-1.8-0.2c-2-0.3-4-0.8-5.9-1.5c-2.3-0.9-4.4-2.1-6.3-3.5
		c-1.5-1.1-2.9-2.4-4.2-3.9c-1.2-1.4-2.2-2.9-3.1-4.5c-1.9-3.3-2.9-6.9-3.3-10.6c0-0.2,0-0.4-0.1-0.6
		C755.9,34.1,755.9,33,755.9,31.8z"/>
	<path class="st4" d="M793.6,0.1c0.5,0.2,1.1,0.3,1.6,0.5c0.9,0.5,1.6,1.1,2,2c0.4,0.8,0.7,1.7,0.6,2.6c-0.1,1.7-0.8,3.1-2.3,4
		c-0.8,0.5-1.8,0.8-2.8,0.8c-2.5-0.1-4.5-1.9-4.7-4.3c-0.3-2.3,1-4.5,3-5.3c0.4-0.2,0.7-0.2,1.1-0.3C792.6,0.1,793.1,0.1,793.6,0.1z
		"/>
	<path class="st4" d="M788.1,13.9c0.3,0,0.6,0,1,0.1c1.1,0.2,1.9,0.8,2.6,1.6c0.7,0.7,1.1,1.6,1.1,2.6c0.1,0.9,0,1.8-0.3,2.7
		c-0.2,0.6-0.4,1.2-0.7,1.8c-0.9,2.5-1.9,4.9-2.8,7.4c-0.7,1.7-1.3,3.5-2,5.2c-0.2,0.4-0.3,0.7-0.5,1.1c-0.6,0.9-1.4,1.5-2.4,2
		c-0.5,0.2-1,0.3-1.5,0.4c-0.5,0.1-0.9,0-1.4-0.2c-0.3-0.1-0.6-0.2-1-0.3c-0.7-0.2-1.1-0.7-1.5-1.2c-1-1.1-1.2-2.3-1.1-3.7
		c0-0.5,0.2-0.9,0.3-1.4c0.3-1.2,0.8-2.3,1.2-3.5c1.1-2.8,2.2-5.6,3.2-8.4c0.4-1.2,1-2.3,1.5-3.5c0.2-0.4,0.5-0.8,0.8-1.1
		c0.7-0.7,1.6-1.2,2.6-1.4C787.5,13.9,787.8,13.9,788.1,13.9z"/>
</g>
<g>
	<path class="st2" d="M755.9,102.7c0.2-0.4,0.2-0.9,0.2-1.3c0.4-2.9,1.1-5.6,2.3-8.2c1.1-2.4,2.5-4.5,4.3-6.5
		c1.3-1.4,2.7-2.7,4.2-3.8c2.4-1.7,4.9-3,7.7-3.8c0.7-0.2,1.4-0.4,2-0.5c1-0.3,1.9-0.1,2.8,0.3c1.8,0.7,2.7,2.1,3,3.9
		c0.1,0.3,0.1,0.7,0,1c-0.2,1-0.6,1.9-1.2,2.6c-0.6,0.7-1.4,1.1-2.2,1.5c-0.7,0.2-1.3,0.4-2,0.6c-2.1,0.6-3.9,1.6-5.5,3
		c-0.3,0.3-0.6,0.5-0.9,0.8c-1.8,1.9-3.3,3.9-4.1,6.4c-0.5,1.3-0.7,2.7-0.9,4.1c-0.1,0.7-0.1,1.5-0.1,2.2c0.2,3.7,1.3,7,3.7,9.8
		c0.4,0.4,0.7,0.9,1.1,1.3c2.5,2.5,5.4,4.2,9,4.8c1,0.2,2,0.3,3.1,0.3c0.6,0,1.3-0.1,1.9-0.1c1.6-0.2,3.1-0.5,4.6-1.1
		s2.9-1.5,4.2-2.6c0.5-0.4,0.9-0.7,1.4-1.2c2.3-2.4,3.9-5.2,4.5-8.5c0.2-1.2,0.4-2.4,0.4-3.6c-0.1-2.6-0.6-5.2-1.9-7.5
		c-0.4-0.7-0.8-1.3-1.2-2c-0.3-0.6-0.6-1.1-0.7-1.8c-0.2-0.9-0.1-1.7,0.2-2.5c0.2-0.7,0.6-1.3,1.2-1.8c1.1-1.1,2.5-1.6,4-1.4
		c1.1,0.1,2,0.5,2.8,1.3c0.7,0.7,1.2,1.5,1.7,2.3c1.7,2.8,2.8,5.7,3.4,8.9c0.4,2,0.6,4.1,0.4,6.1c-0.2,3.4-1,6.6-2.4,9.7
		c-1.1,2.4-2.5,4.5-4.2,6.5c-1.3,1.5-2.8,2.9-4.5,4.1c-2.3,1.6-4.7,2.8-7.3,3.7c-1.6,0.5-3.3,0.9-5,1.1c-0.5,0.1-1,0-1.4,0.2
		c-1.1,0-2.1,0-3.2,0c-0.1-0.1-0.2-0.1-0.3-0.1c-0.6-0.1-1.2-0.1-1.8-0.2c-2-0.3-4-0.8-5.9-1.5c-2.3-0.9-4.4-2.1-6.3-3.5
		c-1.5-1.1-2.9-2.4-4.2-3.9c-1.2-1.4-2.2-2.9-3.1-4.5c-1.9-3.3-2.9-6.9-3.3-10.6c0-0.2,0-0.4-0.1-0.6
		C755.9,105,755.9,103.9,755.9,102.7z"/>
	<path class="st2" d="M793.6,71c0.5,0.2,1.1,0.3,1.6,0.5c0.9,0.5,1.6,1.1,2,2c0.4,0.8,0.7,1.7,0.6,2.6c-0.1,1.7-0.8,3.1-2.3,4
		c-0.8,0.5-1.8,0.8-2.8,0.8c-2.5-0.1-4.5-1.9-4.7-4.3c-0.3-2.3,1-4.5,3-5.3c0.4-0.2,0.7-0.2,1.1-0.3C792.6,71,793.1,71,793.6,71z"/>
	<path class="st2" d="M788.1,84.8c0.3,0,0.6,0,1,0.1c1.1,0.2,1.9,0.8,2.6,1.6c0.7,0.7,1.1,1.6,1.1,2.6c0.1,0.9,0,1.8-0.3,2.7
		c-0.2,0.6-0.4,1.2-0.7,1.8c-0.9,2.5-1.9,4.9-2.8,7.4c-0.7,1.7-1.3,3.5-2,5.2c-0.2,0.4-0.3,0.7-0.5,1.1c-0.6,0.9-1.4,1.5-2.4,2
		c-0.5,0.2-1,0.3-1.5,0.4s-0.9,0-1.4-0.2c-0.3-0.1-0.6-0.2-1-0.3c-0.7-0.2-1.1-0.7-1.5-1.2c-1-1.1-1.2-2.3-1.1-3.7
		c0-0.5,0.2-0.9,0.3-1.4c0.3-1.2,0.8-2.3,1.2-3.5c1.1-2.8,2.2-5.6,3.2-8.4c0.4-1.2,1-2.3,1.5-3.5c0.2-0.4,0.5-0.8,0.8-1.1
		c0.7-0.7,1.6-1.2,2.6-1.4C787.5,84.8,787.8,84.8,788.1,84.8z"/>
</g>
<g>
	<path d="M852.8,60.1c-0.9-0.2-1.8-0.4-2.6-0.7c-1.7-0.6-3.1-1.5-3.9-3.1c-0.1-0.2-0.3-0.3-0.5-0.3c-1.1,0-2.1,0-3.2,0
		c-0.1,0-0.4,0.2-0.4,0.3c-0.6,2-2,3-4.1,3c-1.6,0-3.1,0-4.7,0c-2.5-0.1-4.2-1.7-4.2-4.2c0-2,0-3.9,0-5.9c0-0.9,0.8-1.5,1.6-1.2
		c0.5,0.2,0.7,0.7,0.7,1.2c0,1.9,0,3.8,0,5.7c0,1.3,0.6,1.9,1.9,1.9c1.5,0,3,0,4.5,0c1.3,0,1.9-0.6,1.9-1.9c0-7.4,0-14.8,0-22.3
		c0-1.3-0.6-1.9-1.9-1.9c-1.5,0-3,0-4.6,0c-1.3,0-1.9,0.6-1.9,1.9c0,1.9,0,3.8,0,5.7c0,0.7-0.3,1.1-0.8,1.3c-0.6,0.3-1.4-0.2-1.4-1
		c0-2.1,0-4.3,0-6.5c0.1-2,1.7-3.6,3.8-3.6c1.8-0.1,3.6-0.1,5.4,0c1.8,0.1,3.1,1.2,3.6,2.9c0.1,0.3,0.2,0.4,0.6,0.4
		c0.6,0,1.3,0,1.9,0c1.7,0,3.1-0.7,4.2-1.9c1.3-1.5,2.1-3.2,2.7-5.1c0.9-2.5,1.3-5.2,1.8-7.8c0.1-0.4,0.2-0.9,0.3-1.3
		c0.6-1.4,1.8-1.9,3.1-1.1c1,0.6,2,1.4,2.8,2.3c2.4,2.4,3,5.3,2.6,8.5c-0.2,2-0.7,4-1.4,5.9c0,0.1-0.1,0.3-0.2,0.5
		c0.3,0,0.5,0,0.7,0c4.5,0,8.9,0,13.4,0c2.8,0,4.8,2.1,4.7,4.8c-0.1,1.2-0.6,2.2-1.4,3c1.9,2.8,1.9,4.4,0,6.7
		c1.2,1.2,1.7,2.7,1.3,4.4c-0.4,1.7-1.6,2.8-3.1,3.3c0.1,1,0.3,1.9,0.1,2.8c-0.3,1.6-1.3,2.6-2.9,3.1c-0.1,0-0.3,0.1-0.4,0.1
		C866.2,60.1,859.5,60.1,852.8,60.1z M842.3,53.6c1.2,0,2.3,0,3.5,0c1.1,0,2,0.4,2.5,1.5c0.3,0.7,0.9,1.3,1.6,1.6
		c1.3,0.7,2.6,1.1,4,1.1c2.4,0,4.8,0,7.1,0c0.2,0,0.4,0,0.6,0c-0.7-1.7-0.4-3.2,0.8-4.6c-1-0.9-1.5-2-1.5-3.4c0-1.3,0.5-2.4,1.5-3.4
		c-0.9-1-1.4-2-1.5-3.3c0-1.3,0.5-2.4,1.4-3.3c-1.6-1.6-1.9-3.4-1-5.5c-0.7,0-1.3,0-1.9-0.1c-1-0.1-1.6-1-1.4-2
		c0.1-0.5,0.3-0.9,0.5-1.4c0.8-2.4,1.4-4.8,1.4-7.4c-0.1-3-1.7-4.9-4.1-6.6c-0.1,0.2-0.1,0.4-0.1,0.6c-0.2,1.3-0.4,2.6-0.7,3.9
		c-0.6,2.9-1.4,5.7-2.9,8.2c-1.9,3.1-4.5,4.9-8.3,4.7c-0.5,0-1,0-1.5,0C842.3,40.7,842.3,47.1,842.3,53.6z M870.1,34.2
		c-1.5,0-3.1,0-4.6,0c-0.4,0-0.9,0.1-1.3,0.3c-0.8,0.5-1.2,1.5-0.9,2.4c0.3,1,1.1,1.6,2.2,1.6c3.1,0,6.2,0,9.2,0
		c1.4,0,2.4-1,2.3-2.2c0-1.3-1-2.1-2.4-2.1C873.1,34.2,871.6,34.2,870.1,34.2z M870.1,47.6c-1.6,0-3.1,0-4.7,0
		c-1.3,0-2.3,0.9-2.3,2.2s0.9,2.2,2.2,2.2c3.1,0,6.2,0,9.3,0c1.3,0,2.3-0.9,2.3-2.2s-1-2.2-2.3-2.2
		C873.2,47.5,871.7,47.6,870.1,47.6z M870.1,40.9c-1.5,0-3.1,0-4.6,0c-1.3,0-2.3,0.9-2.3,2.1c0,1.3,0.9,2.2,2.3,2.2
		c3.1,0,6.2,0,9.3,0c1.3,0,2.3-1,2.3-2.2s-1-2.1-2.3-2.1C873.2,40.9,871.6,40.9,870.1,40.9z M868.8,57.8c1.1,0,2.2,0,3.3,0
		c1.1,0,1.9-0.8,1.9-1.8s-0.8-1.7-1.9-1.8c-2.2,0-4.5,0-6.7,0c-1.1,0-1.9,0.7-1.9,1.7s0.8,1.8,1.9,1.8
		C866.6,57.8,867.7,57.8,868.8,57.8z"/>
	<path d="M870.1,5.3c-0.1,0.2-0.2,0.4-0.3,0.7c-1.1,1.7-2.3,3.4-3.4,5.1c-0.5,0.7-1.2,0.9-1.7,0.5c-0.6-0.4-0.7-1.1-0.2-1.8
		c1.1-1.7,2.3-3.5,3.5-5.2c0.4-0.5,0.9-0.7,1.4-0.5C869.9,4.2,870.1,4.6,870.1,5.3z"/>
	<path d="M857.4,4.6c0,1,0,2.1,0,3.1c0,0.8-0.5,1.3-1.2,1.3c-0.7,0-1.2-0.5-1.2-1.3c0-2.1,0-4.3,0-6.4c0.1-0.7,0.6-1.2,1.2-1.2
		c0.7,0,1.1,0.5,1.1,1.3C857.4,2.5,857.4,3.5,857.4,4.6z"/>
	<path d="M842.3,5.2c0-0.6,0.3-1,0.7-1.2c0.5-0.2,0.9-0.1,1.3,0.3c0.2,0.2,0.4,0.5,0.5,0.8c1.1,1.6,2.1,3.2,3.2,4.8
		c0.3,0.5,0.4,1,0,1.5c-0.3,0.4-0.8,0.6-1.3,0.4c-0.3-0.1-0.5-0.3-0.7-0.5c-1.2-1.8-2.4-3.6-3.6-5.4C842.4,5.6,842.3,5.4,842.3,5.2z
		"/>
	<path d="M831.6,43.9c0,0.7-0.5,1.2-1.2,1.2c-0.6,0-1.1-0.5-1.2-1.1c0-0.7,0.5-1.2,1.2-1.2C831,42.7,831.6,43.2,831.6,43.9z"/>
	<path d="M856.1,38.5c-0.1,3.5-1.5,5.9-4.5,7.4c-1.3,0.7-2.7,1-4.2,1.2c-0.8,0.1-1.4-0.3-1.5-1c-0.1-0.7,0.4-1.2,1.2-1.4
		c1.1-0.3,2.3-0.5,3.3-1c2.4-1.1,3.5-3.3,3.2-5.9c0-0.2-0.1-0.3-0.1-0.5c0-0.6,0.4-1.1,1-1.2c0.6-0.1,1.2,0.4,1.3,1
		C856,37.7,856,38.1,856.1,38.5z"/>
</g>
<g>
	<path class="st2" d="M852.8,131c-0.9-0.2-1.8-0.4-2.6-0.7c-1.7-0.6-3.1-1.5-3.9-3.1c-0.1-0.2-0.3-0.3-0.5-0.3c-1.1,0-2.1,0-3.2,0
		c-0.1,0-0.4,0.2-0.4,0.3c-0.6,2-2,3-4.1,3c-1.6,0-3.1,0-4.7,0c-2.5-0.1-4.2-1.7-4.2-4.2c0-2,0-3.9,0-5.9c0-0.9,0.8-1.5,1.6-1.2
		c0.5,0.2,0.7,0.7,0.7,1.2c0,1.9,0,3.8,0,5.7c0,1.3,0.6,1.9,1.9,1.9c1.5,0,3,0,4.5,0c1.3,0,1.9-0.6,1.9-1.9c0-7.4,0-14.8,0-22.3
		c0-1.3-0.6-1.9-1.9-1.9c-1.5,0-3,0-4.6,0c-1.3,0-1.9,0.6-1.9,1.9c0,1.9,0,3.8,0,5.7c0,0.7-0.3,1.1-0.8,1.3c-0.6,0.3-1.4-0.2-1.4-1
		c0-2.1,0-4.3,0-6.5c0.1-2,1.7-3.6,3.8-3.6c1.8-0.1,3.6-0.1,5.4,0c1.8,0.1,3.1,1.2,3.6,2.9c0.1,0.3,0.2,0.4,0.6,0.4
		c0.6,0,1.3,0,1.9,0c1.7,0,3.1-0.7,4.2-1.9c1.3-1.5,2.1-3.2,2.7-5.1c0.9-2.5,1.3-5.2,1.8-7.8c0.1-0.4,0.2-0.9,0.3-1.3
		c0.6-1.4,1.8-1.9,3.1-1.1c1,0.6,2,1.4,2.8,2.3c2.4,2.4,3,5.3,2.6,8.5c-0.2,2-0.7,4-1.4,5.9c0,0.1-0.1,0.3-0.2,0.5
		c0.3,0,0.5,0,0.7,0c4.5,0,8.9,0,13.4,0c2.8,0,4.8,2.1,4.7,4.8c-0.1,1.2-0.6,2.2-1.4,3c1.9,2.8,1.9,4.4,0,6.7
		c1.2,1.2,1.7,2.7,1.3,4.4c-0.4,1.7-1.6,2.8-3.1,3.3c0.1,1,0.3,1.9,0.1,2.8c-0.3,1.6-1.3,2.6-2.9,3.1c-0.1,0-0.3,0.1-0.4,0.1
		C866.2,131,859.5,131,852.8,131z M842.3,124.5c1.2,0,2.3,0,3.5,0c1.1,0,2,0.4,2.5,1.5c0.3,0.7,0.9,1.3,1.6,1.6
		c1.3,0.7,2.6,1.1,4,1.1c2.4,0,4.8,0,7.1,0c0.2,0,0.4,0,0.6,0c-0.7-1.7-0.4-3.2,0.8-4.6c-1-0.9-1.5-2-1.5-3.4c0-1.3,0.5-2.4,1.5-3.4
		c-0.9-1-1.4-2-1.5-3.3c0-1.3,0.5-2.4,1.4-3.3c-1.6-1.6-1.9-3.4-1-5.5c-0.7,0-1.3,0-1.9-0.1c-1-0.1-1.6-1-1.4-2
		c0.1-0.5,0.3-0.9,0.5-1.4c0.8-2.4,1.4-4.8,1.4-7.4c-0.1-3-1.7-4.9-4.1-6.6c-0.1,0.2-0.1,0.4-0.1,0.6c-0.2,1.3-0.4,2.6-0.7,3.9
		c-0.6,2.9-1.4,5.7-2.9,8.2c-1.9,3.1-4.5,4.9-8.3,4.7c-0.5,0-1,0-1.5,0C842.3,111.6,842.3,118,842.3,124.5z M870.1,105.1
		c-1.5,0-3.1,0-4.6,0c-0.4,0-0.9,0.1-1.3,0.3c-0.8,0.5-1.2,1.5-0.9,2.4c0.3,1,1.1,1.6,2.2,1.6c3.1,0,6.2,0,9.2,0
		c1.4,0,2.4-1,2.3-2.2c0-1.3-1-2.1-2.4-2.1C873.1,105.1,871.6,105.1,870.1,105.1z M870.1,118.5c-1.6,0-3.1,0-4.7,0
		c-1.3,0-2.3,0.9-2.3,2.2c0,1.3,0.9,2.2,2.2,2.2c3.1,0,6.2,0,9.3,0c1.3,0,2.3-0.9,2.3-2.2c0-1.3-1-2.2-2.3-2.2
		C873.2,118.4,871.7,118.5,870.1,118.5z M870.1,111.8c-1.5,0-3.1,0-4.6,0c-1.3,0-2.3,0.9-2.3,2.1c0,1.3,0.9,2.2,2.3,2.2
		c3.1,0,6.2,0,9.3,0c1.3,0,2.3-1,2.3-2.2c0-1.2-1-2.1-2.3-2.1C873.2,111.8,871.6,111.8,870.1,111.8z M868.8,128.7c1.1,0,2.2,0,3.3,0
		c1.1,0,1.9-0.8,1.9-1.8s-0.8-1.7-1.9-1.8c-2.2,0-4.5,0-6.7,0c-1.1,0-1.9,0.7-1.9,1.7s0.8,1.8,1.9,1.8
		C866.6,128.7,867.7,128.7,868.8,128.7z"/>
	<path class="st2" d="M870.1,76.2c-0.1,0.2-0.2,0.4-0.3,0.7c-1.1,1.7-2.3,3.4-3.4,5.1c-0.5,0.7-1.2,0.9-1.7,0.5
		c-0.6-0.4-0.7-1.1-0.2-1.8c1.1-1.7,2.3-3.5,3.5-5.2c0.4-0.5,0.9-0.7,1.4-0.5C869.9,75.1,870.1,75.5,870.1,76.2z"/>
	<path class="st2" d="M857.4,75.5c0,1,0,2.1,0,3.1c0,0.8-0.5,1.3-1.2,1.3c-0.7,0-1.2-0.5-1.2-1.3c0-2.1,0-4.3,0-6.4
		c0.1-0.7,0.6-1.2,1.2-1.2c0.7,0,1.1,0.5,1.1,1.3C857.4,73.4,857.4,74.4,857.4,75.5z"/>
	<path class="st2" d="M842.3,76.1c0-0.6,0.3-1,0.7-1.2c0.5-0.2,0.9-0.1,1.3,0.3c0.2,0.2,0.4,0.5,0.5,0.8c1.1,1.6,2.1,3.2,3.2,4.8
		c0.3,0.5,0.4,1,0,1.5c-0.3,0.4-0.8,0.6-1.3,0.4c-0.3-0.1-0.5-0.3-0.7-0.5c-1.2-1.8-2.4-3.6-3.6-5.4
		C842.4,76.5,842.3,76.3,842.3,76.1z"/>
	<path class="st2" d="M831.6,114.8c0,0.7-0.5,1.2-1.2,1.2c-0.6,0-1.1-0.5-1.2-1.1c0-0.7,0.5-1.2,1.2-1.2
		C831,113.6,831.6,114.1,831.6,114.8z"/>
	<path class="st2" d="M856.1,109.4c-0.1,3.5-1.5,5.9-4.5,7.4c-1.3,0.7-2.7,1-4.2,1.2c-0.8,0.1-1.4-0.3-1.5-1
		c-0.1-0.7,0.4-1.2,1.2-1.4c1.1-0.3,2.3-0.5,3.3-1c2.4-1.1,3.5-3.3,3.2-5.9c0-0.2-0.1-0.3-0.1-0.5c0-0.6,0.4-1.1,1-1.2
		c0.6-0.1,1.2,0.4,1.3,1C856,108.6,856,109,856.1,109.4z"/>
</g>
</svg>
