<?xml version="1.0" encoding="utf-8"?>
<!-- Generator: Adobe Illustrator 23.0.2, SVG Export Plug-In . SVG Version: 6.00 Build 0)  -->
<svg version="1.1" id="Layer_1" xmlns="http://www.w3.org/2000/svg" xmlns:xlink="http://www.w3.org/1999/xlink" x="0px" y="0px"
	 width="133.8px" height="134px" viewBox="0 0 133.8 134" style="enable-background:new 0 0 133.8 134;" xml:space="preserve">
<style type="text/css">
	.st0{fill:#A2CD3A;}
	.st1{fill:#575757;}
</style>
<g>
	<g>
		<path class="st0" d="M67,12.2c1.2,0,2-0.8,2-2V2c0-1.2-0.8-2-2-2c-1.2,0-2,0.8-2,2v8.1C65,11.2,65.8,12.2,67,12.2z"/>
	</g>
	<g>
		<path class="st0" d="M104.6,49.7c0,1.2,0.8,2,2,2h7.9c1.2,0,2-0.8,2-2c0-1.2-0.8-2-2-2h-7.9C105.4,47.7,104.6,48.5,104.6,49.7z"/>
	</g>
	<g>
		<path class="st0" d="M19.5,51.8h7.9c1.2,0,2-0.8,2-2c0-1.2-0.8-2-2-2h-7.9c-1.2,0-2,0.8-2,2C17.5,51,18.3,51.8,19.5,51.8z"/>
	</g>
	<g>
		<path class="st0" d="M96.4,23.1l5.7-5.7c0.8-0.8,0.8-2,0-2.8c-0.8-0.8-2-0.8-2.9,0l-5.7,5.7c-0.8,0.8-0.8,2,0,2.8
			C94.4,24,95.6,24,96.4,23.1z"/>
	</g>
	<g>
		<path class="st0" d="M37.6,23.1c0.8,0.8,2,0.8,2.8,0c0.8-0.8,0.8-2,0-2.8l-5.7-5.7c-0.8-0.8-2-0.8-2.8,0c-0.8,0.8-0.8,2,0,2.8
			L37.6,23.1z"/>
	</g>
	<g>
		<path class="st0" d="M104.4,62.9c-1-0.4-2.2,0-2.6,1c-0.4,1,0,2.2,1,2.6l7.5,3c0.2,0.2,0.6,0.2,0.8,0.2c0.8,0,1.6-0.4,1.8-1.2
			c0.4-1,0-2.2-1-2.6L104.4,62.9z"/>
	</g>
	<g>
		<path class="st0" d="M22.1,33.5l7.5,3c1,0.4,2.2,0,2.6-1c0.4-1,0-2.2-1-2.6l-7.5-3c-1-0.4-2.2,0-2.6,1
			C20.7,32.1,21.1,33.1,22.1,33.5z"/>
	</g>
	<g>
		<path class="st0" d="M81.2,14.8c1,0.4,2.2,0,2.6-1l3-7.5c0.4-1,0-2.2-1-2.6c-1-0.4-2.2,0-2.6,1L80,12.2
			C79.6,13.2,80.2,14.4,81.2,14.8z"/>
	</g>
	<g>
		<path class="st0" d="M49.7,14c0.4,1,1.6,1.6,2.6,1c1-0.4,1.4-1.6,1-2.6l-3-7.3c-0.4-1-1.6-1.4-2.6-1c-1,0.2-1.4,1.4-1,2.4L49.7,14
			z"/>
	</g>
	<g>
		<path class="st0" d="M29.6,63.3l-7.3,3c-1,0.4-1.4,1.6-1,2.6c0.4,1,1.6,1.4,2.6,1l7.3-3c1-0.4,1.4-1.6,1-2.6
			C31.9,63.3,30.9,62.7,29.6,63.3z"/>
	</g>
	<g>
		<path class="st0" d="M101.5,35.1c0.4,1,1.6,1.4,2.6,1l7.3-3c1-0.4,1.4-1.6,1-2.6c-0.4-1-1.6-1.4-2.6-1l-7.1,3
			C101.7,32.9,101.1,34.1,101.5,35.1z"/>
	</g>
	<g>
		<path class="st1" d="M85.1,92.8h-3.3c0.8-7.3,3.9-14.4,9.1-20.1c6.1-6.5,9.3-14.8,9.3-23.8c0-19.3-16-34.9-35.1-33.9
			c-16.2,1-29.6,14.2-31.1,30.9c-0.8,10.1,2.6,19.9,9.5,27c5.3,5.5,8.5,12.6,9.3,19.9h-3.2c-1.8,0-3.3,1.4-3.3,3.2v12.8
			c0,1.8,1.4,3.3,3.3,3.3l0,0h8.1v4.5H54c-1.2,0-2,1-2,2c0,1.2,1,2,2,2l0,0h3.9c0.6,3.6,3.7,6.5,7.5,6.5l0,0h4.3
			c3.9,0,6.9-2.8,7.3-6.5h3.8c1.2,0,2-1,2-2c0-1.2-0.8-2-2-2h-3.7v-4.5h8.1c1.8,0,3.2-1.4,3.2-3.3V96C88.3,94.2,86.7,92.8,85.1,92.8
			z M46.3,70.3c-6.1-6.3-9.1-15-8.3-24c1.2-14.6,13-26.2,27.2-27.2C82,18.1,96,31.9,96,48.9c0,7.9-2.9,15.2-8.1,20.9
			c-5.9,6.3-9.5,14.4-10.4,22.9c-5.7,0-2.8,0-20.9,0.2C56,84.5,52.4,76.5,46.3,70.3z M72.9,119.4c0,2-1.6,3.7-3.4,3.7h-4.3v2v-2
			c-1.8,0-3.4-1.6-3.4-3.7v-7.3h11.4L72.9,119.4z M50.3,108.2V97c5.1,0,31.1-0.2,33.9-0.2V108C82,108,76.7,108,50.3,108.2z"/>
	</g>
	<g>
		<path class="st1" d="M127.5,59.5c-3.7,0-6.5,2.8-6.5,6.5v19.3l-2.4,2.8c-1-2.4-3.7-4.7-6.7-4.5c-1.8,0.2-3.4,1-4.5,2.4l-11,13.8
			c-1,1.4-1.4,2.8-1.4,4.5v12h-1.8c-1.2,0-2.4,1-2.4,2.4v12.8c0,1.2,1,2.4,2.4,2.4h29.2c1.2,0,2.4-1,2.4-2.4v-12.8
			c0-1.2-1-2.4-2.4-2.4h-2.6v-3c0-1,0.2-2,0.8-2.6L133,93.6c0.6-0.8,0.8-1.8,0.8-2.8V66C134,62.3,131.2,59.5,127.5,59.5z
			 M120.8,129.9h-26v-9.5h25.8v9.5H120.8z M129.9,90.6c0,0.2,0,0.6-0.2,0.6l-12.4,17.1c-1,1.4-1.4,3.2-1.4,5.1v3H99.1v-12
			c0-0.8,0.2-1.6,0.6-2l10.8-13.8c0.4-0.4,1-0.8,1.6-0.8c2-0.2,4.1,3,2.2,5.3l-1.8,2.2c-0.6,0.8-0.6,2,0.2,2.8
			c0.8,0.8,2,0.6,2.8-0.2l8.9-10.4c0.4-0.4,0.6-1,0.6-1.4V66.2c0-1.4,1-2.4,2.4-2.4s2.4,1,2.4,2.4L129.9,90.6z"/>
	</g>
	<g>
		<path class="st1" d="M40.8,116.3H39v-12c0-1.6-0.4-3.2-1.4-4.7L26.8,85.9c-2.2-2.8-6.5-3.3-9.3-0.6l-0.2,0.2
			c-0.8,0.8-1.4,1.6-1.8,2.6L13,85.3V66c0-3.7-2.8-6.5-6.5-6.5C2.8,59.5,0,62.3,0,66v24.6c0,1,0.2,2,1,3l12.4,16.9
			c0.6,0.8,0.8,1.8,0.8,2.9v3h-2.6c-1.2,0-2.4,1-2.4,2.4v12.8c0,1.4,1,2.4,2.4,2.4h29.2c1.2,0,2.4-1,2.4-2.4v-12.8
			C43.2,117.5,42,116.3,40.8,116.3z M16.6,108.4L4.3,91.4c-0.2-0.2-0.2-0.4-0.2-0.6V66c0-1.4,1-2.4,2.4-2.4c1.4,0,2.4,1,2.4,2.4
			v19.9c0,0.4,0.2,1.2,0.6,1.4l8.9,10.4c0.8,0.8,2,1,2.8,0.2c0.8-0.8,1-2.1,0.2-2.9l-1.8-2.2c-1-1.4-1-3.3,0.2-4.5l0.2-0.2
			c1-1,2.4-0.8,3.3,0.2l10.8,13.6c0.4,0.6,0.6,1.4,0.6,2.2v12H18.1v-3C18.1,111.7,17.7,109.8,16.6,108.4z M39.2,129.9h-26v-9.5H39
			v9.5H39.2z"/>
	</g>
	<g>
		<path class="st0" d="M76.1,65.5l3.1,2.4c0.3,0.2,0.7,0.4,1.1,0.4c0.5,0,1.1-0.2,1.3-0.5l3.3-3.3c0.7-0.7,0.7-1.6,0.2-2.4L82.6,59
			c0.7-1.5,1.5-2.9,1.8-4.4l3.8-0.5c0.9-0.2,1.6-0.9,1.6-1.8v-4.7c0-0.9-0.7-1.6-1.6-1.8l-3.8-0.5c-0.4-1.6-1.1-3.1-1.8-4.4l2.4-3.1
			c0.6-0.7,0.4-1.8-0.2-2.5l-3.3-3.5c-0.7-0.7-1.6-0.7-2.4-0.2l-3.1,2.4c-1.5-0.7-2.9-1.5-4.4-1.8l-0.5-3.8
			c-0.2-0.9-0.9-1.6-1.8-1.6h-4.7c-0.9,0-1.6,0.7-1.8,1.6l-0.5,3.8c-1.6,0.4-3.1,1.1-4.4,1.8l-3.1-2.4C54.1,31,53,31,52.5,31.8
			L49,35.2c-0.7,0.7-0.7,1.6-0.2,2.4l2.4,3.1c-0.7,1.5-1.5,2.9-1.8,4.4l-3.8,0.5c-0.9,0.2-1.6,0.9-1.6,1.8v4.7
			c0,0.9,0.7,1.6,1.6,1.8l3.8,0.5c0.4,1.6,1.1,3.1,1.8,4.4l-2.4,3.1c-0.5,0.7-0.5,1.8,0.2,2.4l3.4,3.4c0.7,0.7,1.6,0.7,2.4,0.2
			l3.1-2.4c1.4,0.7,2.9,1.5,4.4,1.8l0.5,3.8c0.2,0.9,0.9,1.6,1.8,1.6h4.7c0.9,0,1.6-0.7,1.8-1.6l0.5-3.8
			C73.2,67,74.8,66.3,76.1,65.5z M69.7,64.1c-0.7,0.2-1.3,0.7-1.5,1.6l-0.5,3.4h-1.6l-0.5-3.4c-0.2-0.7-0.7-1.5-1.5-1.6
			c-2-0.4-3.8-1.1-5.5-2.2c-0.7-0.4-1.5-0.4-2.2,0l-2.7,2.2L52.6,63l2-2.7c0.5-0.5,0.5-1.6,0-2.2c-1.1-1.6-1.8-3.5-2.2-5.5
			c-0.2-0.7-0.7-1.3-1.6-1.5l-3.4-0.5V49l3.4-0.5c0.7-0.2,1.5-0.7,1.5-1.5c0.4-2,1.1-3.8,2.2-5.4c0.4-0.7,0.4-1.5,0-2.2l-2.2-2.7
			l1.1-1.1l2.7,2.2c0.5,0.4,1.6,0.5,2.2,0c1.6-1.1,3.5-1.8,5.5-2.2c0.7-0.2,1.3-0.7,1.5-1.6l0.5-3.5h1.6l0.5,3.5
			c0.2,0.7,0.7,1.5,1.5,1.6c2,0.4,3.8,1.1,5.5,2.2c0.7,0.4,1.4,0.4,2.2,0l2.7-2.2l1.1,1.1l-2.2,2.7c-0.5,0.5-0.5,1.5,0,2.2
			c1.1,1.6,1.8,3.5,2.2,5.4c0.2,0.7,0.7,1.3,1.5,1.5l3.4,0.5v1.6l-3.4,0.5c-0.7,0.2-1.5,0.7-1.6,1.5c-0.4,2-1.1,3.8-2.2,5.5
			c-0.3,0.7-0.3,1.5,0,2.2l2.2,2.7l-1.1,1.1l-2.7-2.2c-0.6-0.5-1.5-0.5-2.2,0C73.5,63,71.7,63.7,69.7,64.1z"/>
	</g>
	<g>
		<path class="st0" d="M79,49.7c0-6.5-5.3-12-12-12c-6.7,0-12,5.3-12,12c0,6.5,5.3,12,12,12C73.7,61.7,79,56.3,79,49.7z M67,58.1
			c-4.5,0-8.4-3.6-8.4-8.4c0-4.5,3.6-8.4,8.4-8.4c4.7,0,8.4,3.6,8.4,8.4C75.3,54.3,71.5,58.1,67,58.1z"/>
	</g>
</g>
</svg>
