<?xml version="1.0" encoding="utf-8"?>
<!-- Generator: Adobe Illustrator 23.0.2, SVG Export Plug-In . SVG Version: 6.00 Build 0)  -->
<svg version="1.1" id="Layer_1" xmlns="http://www.w3.org/2000/svg" xmlns:xlink="http://www.w3.org/1999/xlink" x="0px" y="0px"
	 width="63.9px" height="64px" viewBox="0 0 63.9 64" style="enable-background:new 0 0 63.9 64;" xml:space="preserve">
<style type="text/css">
	.st0{fill:#A2CD3A;}
	.st1{fill:#575757;}
</style>
<g>
	<g>
		<path class="st0" d="M32,5.8c0.6,0,1-0.4,1-1V1c0-0.6-0.4-1-1-1c-0.6,0-1,0.4-1,1v3.9C31,5.3,31.4,5.8,32,5.8z"/>
	</g>
	<g>
		<path class="st0" d="M49.9,23.8c0,0.6,0.4,1,1,1h3.8c0.6,0,1-0.4,1-1c0-0.6-0.4-1-1-1h-3.8C50.3,22.8,49.9,23.2,49.9,23.8z"/>
	</g>
	<g>
		<path class="st0" d="M9.3,24.7h3.8c0.6,0,1-0.4,1-1c0-0.6-0.4-1-1-1H9.3c-0.6,0-1,0.4-1,1C8.3,24.3,8.7,24.7,9.3,24.7z"/>
	</g>
	<g>
		<path class="st0" d="M46.1,11.1l2.7-2.7c0.4-0.4,0.4-1,0-1.4c-0.4-0.4-1-0.4-1.4,0l-2.7,2.7c-0.4,0.4-0.4,1,0,1.4
			C45.1,11.4,45.7,11.4,46.1,11.1z"/>
	</g>
	<g>
		<path class="st0" d="M17.9,11.1c0.4,0.4,1,0.4,1.4,0c0.4-0.4,0.4-1,0-1.4L16.6,7c-0.4-0.4-1-0.4-1.4,0c-0.4,0.4-0.4,1,0,1.4
			L17.9,11.1z"/>
	</g>
	<g>
		<path class="st0" d="M49.8,30.1c-0.5-0.2-1.1,0-1.3,0.5c-0.2,0.5,0,1.1,0.5,1.3l3.6,1.5c0.1,0.1,0.3,0.1,0.4,0.1
			c0.4,0,0.8-0.2,0.9-0.6c0.2-0.5,0-1.1-0.5-1.3L49.8,30.1z"/>
	</g>
	<g>
		<path class="st0" d="M10.6,16l3.6,1.5c0.5,0.2,1.1,0,1.3-0.5c0.2-0.5,0-1.1-0.5-1.3l-3.6-1.5c-0.5-0.2-1.1,0-1.3,0.5
			C9.9,15.3,10.1,15.8,10.6,16z"/>
	</g>
	<g>
		<path class="st0" d="M38.8,7.1c0.5,0.2,1.1,0,1.3-0.5L41.5,3c0.2-0.5,0-1.1-0.5-1.3c-0.5-0.2-1.1,0-1.3,0.5l-1.6,3.6
			C38,6.3,38.3,6.9,38.8,7.1z"/>
	</g>
	<g>
		<path class="st0" d="M23.8,6.7c0.2,0.5,0.8,0.8,1.3,0.5c0.5-0.2,0.7-0.8,0.5-1.3L24,2.4c-0.2-0.5-0.8-0.7-1.3-0.5
			c-0.5,0.1-0.7,0.7-0.5,1.2L23.8,6.7z"/>
	</g>
	<g>
		<path class="st0" d="M14.2,30.3l-3.5,1.5c-0.5,0.2-0.7,0.8-0.5,1.3c0.2,0.5,0.8,0.7,1.3,0.5l3.5-1.5c0.5-0.2,0.7-0.8,0.5-1.3
			C15.2,30.3,14.7,30,14.2,30.3z"/>
	</g>
	<g>
		<path class="st0" d="M48.5,16.8c0.2,0.5,0.8,0.7,1.3,0.5l3.5-1.5c0.5-0.2,0.7-0.8,0.5-1.3c-0.2-0.5-0.8-0.7-1.3-0.5l-3.4,1.5
			C48.6,15.7,48.3,16.3,48.5,16.8z"/>
	</g>
	<g>
		<path class="st1" d="M40.6,44.3h-1.6c0.4-3.5,1.8-6.9,4.4-9.6c2.9-3.1,4.5-7.1,4.5-11.3c0-9.2-7.7-16.7-16.8-16.2
			C23.4,7.7,17,14,16.3,21.9c-0.4,4.8,1.3,9.5,4.6,12.9c2.5,2.6,4.1,6,4.5,9.5h-1.6c-0.9,0-1.6,0.7-1.6,1.5V52
			c0,0.9,0.7,1.6,1.6,1.6l0,0h3.9v2.1h-1.8c-0.6,0-1,0.5-1,1c0,0.6,0.5,1,1,1l0,0h1.8c0.3,1.7,1.7,3.1,3.6,3.1l0,0h2
			c1.8,0,3.3-1.4,3.5-3.1h1.8c0.6,0,1-0.5,1-1c0-0.6-0.4-1-1-1h-1.7v-2.1h3.9c0.9,0,1.5-0.7,1.5-1.6v-6.1
			C42.2,45,41.4,44.3,40.6,44.3z M22.1,33.6c-2.9-3-4.4-7.2-4-11.4c0.6-7,6.2-12.5,13-13c8-0.5,14.7,6.1,14.7,14.3
			c0,3.8-1.4,7.3-3.9,10c-2.8,3-4.6,6.9-4.9,11c-2.7,0-1.4,0-10,0.1C26.8,40.3,25,36.6,22.1,33.6z M34.8,57c0,1-0.8,1.7-1.6,1.7h-2
			v1v-1c-0.9,0-1.6-0.8-1.6-1.7v-3.5h5.4L34.8,57z M24,51.7v-5.3c2.4,0,14.8-0.1,16.2-0.1v5.3C39.2,51.6,36.7,51.6,24,51.7z"/>
	</g>
	<g>
		<path class="st1" d="M60.9,28.4c-1.7,0-3.1,1.4-3.1,3.1v9.2l-1.2,1.4c-0.5-1.2-1.7-2.2-3.2-2.1c-0.9,0.1-1.6,0.5-2.1,1.2l-5.2,6.6
			c-0.5,0.7-0.7,1.4-0.7,2.1v5.7h-0.9c-0.6,0-1.2,0.5-1.2,1.2v6.1c0,0.6,0.5,1.2,1.2,1.2h14c0.6,0,1.2-0.5,1.2-1.2v-6.1
			c0-0.6-0.5-1.2-1.2-1.2h-1.3v-1.4c0-0.5,0.1-1,0.4-1.3l5.9-8.1c0.3-0.4,0.4-0.9,0.4-1.4V31.5C64,29.8,62.6,28.4,60.9,28.4z
			 M57.7,62.1H45.3v-4.6h12.3L57.7,62.1L57.7,62.1z M62.1,43.2c0,0.1,0,0.3-0.1,0.3L56,51.7c-0.5,0.7-0.7,1.5-0.7,2.4v1.4h-8v-5.7
			c0-0.4,0.1-0.8,0.3-1l5.1-6.6c0.2-0.2,0.5-0.4,0.8-0.4c1-0.1,1.9,1.5,1.1,2.5l-0.9,1.1c-0.3,0.4-0.3,1,0.1,1.4
			c0.4,0.4,1,0.3,1.4-0.1l4.3-5c0.2-0.2,0.3-0.5,0.3-0.7v-9.5c0-0.7,0.5-1.2,1.2-1.2c0.7,0,1.2,0.5,1.2,1.2L62.1,43.2z"/>
	</g>
	<g>
		<path class="st1" d="M19.5,55.6h-0.9v-5.7c0-0.8-0.2-1.5-0.7-2.2L12.8,41c-1.1-1.4-3.1-1.6-4.5-0.3l-0.1,0.1
			c-0.4,0.4-0.7,0.8-0.9,1.3l-1.2-1.4v-9.2c0-1.7-1.4-3.1-3.1-3.1c-1.7,0-3.1,1.4-3.1,3.1v11.7c0,0.5,0.1,1,0.5,1.5l5.9,8
			c0.3,0.4,0.4,0.9,0.4,1.4v1.4H5.5c-0.6,0-1.2,0.5-1.2,1.2v6.1c0,0.7,0.5,1.2,1.2,1.2h14c0.6,0,1.2-0.5,1.2-1.2v-6.1
			C20.7,56.1,20.1,55.6,19.5,55.6z M8,51.8L2,43.6c-0.1-0.1-0.1-0.2-0.1-0.3V31.5c0-0.7,0.5-1.2,1.2-1.2c0.7,0,1.2,0.5,1.2,1.2V41
			c0,0.2,0.1,0.6,0.3,0.7l4.3,4.9c0.4,0.4,1,0.5,1.4,0.1c0.4-0.4,0.5-1,0.1-1.4l-0.9-1.1c-0.5-0.7-0.5-1.6,0.1-2.1l0.1-0.1
			c0.5-0.5,1.2-0.4,1.6,0.1l5.1,6.5c0.2,0.3,0.3,0.7,0.3,1.1v5.7h-8V54C8.6,53.3,8.4,52.5,8,51.8z M18.7,62.1H6.3v-4.6h12.3
			L18.7,62.1L18.7,62.1z"/>
	</g>
	<g>
		<path class="st0" d="M36.3,31.3l1.5,1.1c0.2,0.1,0.3,0.2,0.5,0.2c0.3,0,0.5-0.1,0.6-0.3l1.6-1.6c0.3-0.3,0.3-0.8,0.1-1.1l-1.1-1.5
			c0.3-0.7,0.7-1.4,0.9-2.1l1.8-0.3c0.4-0.1,0.8-0.4,0.8-0.9v-2.3c0-0.4-0.4-0.8-0.8-0.9l-1.8-0.3c-0.2-0.8-0.5-1.5-0.9-2.1l1.1-1.5
			c0.3-0.3,0.2-0.9-0.1-1.2l-1.6-1.6c-0.3-0.3-0.8-0.3-1.1-0.1l-1.5,1.1c-0.7-0.3-1.4-0.7-2.1-0.9L34,13.5c-0.1-0.4-0.4-0.8-0.9-0.8
			h-2.3c-0.4,0-0.8,0.3-0.9,0.8l-0.3,1.8c-0.8,0.2-1.5,0.5-2.1,0.9l-1.5-1.1c-0.3-0.3-0.9-0.3-1.1,0.1l-1.6,1.6
			c-0.3,0.3-0.3,0.8-0.1,1.1l1.1,1.5c-0.3,0.7-0.7,1.4-0.9,2.1l-1.8,0.3c-0.4,0.1-0.8,0.4-0.8,0.9v2.3c0,0.4,0.3,0.8,0.8,0.9
			l1.8,0.3c0.2,0.8,0.5,1.5,0.9,2.1l-1.1,1.5c-0.3,0.3-0.3,0.9,0.1,1.1l1.6,1.6c0.3,0.3,0.8,0.3,1.1,0.1l1.5-1.1
			c0.7,0.3,1.4,0.7,2.1,0.9L30,34c0.1,0.4,0.4,0.8,0.9,0.8h2.3c0.4,0,0.8-0.3,0.9-0.8l0.3-1.8C34.9,32,35.7,31.7,36.3,31.3z
			 M33.3,30.6c-0.3,0.1-0.6,0.3-0.7,0.8L32.3,33h-0.8l-0.3-1.6c-0.1-0.3-0.3-0.7-0.7-0.8c-1-0.2-1.8-0.5-2.6-1c-0.3-0.2-0.7-0.2-1,0
			l-1.3,1l-0.5-0.5l1-1.3c0.3-0.3,0.3-0.8,0-1c-0.5-0.8-0.9-1.6-1-2.6c-0.1-0.3-0.3-0.6-0.8-0.7l-1.6-0.3v-0.8l1.6-0.3
			c0.3-0.1,0.7-0.3,0.7-0.7c0.2-1,0.5-1.8,1-2.6c0.2-0.3,0.2-0.7,0-1l-1-1.3l0.5-0.5l1.3,1c0.3,0.2,0.8,0.3,1,0
			c0.8-0.5,1.7-0.9,2.6-1c0.3-0.1,0.6-0.3,0.7-0.8l0.3-1.6h0.8l0.3,1.6c0.1,0.3,0.3,0.7,0.7,0.8c1,0.2,1.8,0.5,2.6,1
			c0.3,0.2,0.7,0.2,1,0l1.3-1l0.5,0.5l-1,1.3c-0.3,0.3-0.3,0.7,0,1c0.5,0.8,0.9,1.6,1,2.6c0.1,0.3,0.3,0.6,0.7,0.7l1.6,0.3v0.8
			l-1.6,0.3c-0.3,0.1-0.7,0.3-0.8,0.7c-0.2,1-0.5,1.8-1,2.6c-0.2,0.3-0.2,0.7,0,1l1,1.3L38,30.6l-1.3-1c-0.3-0.3-0.7-0.3-1,0
			C35.1,30.1,34.2,30.4,33.3,30.6z"/>
	</g>
	<g>
		<path class="st0" d="M37.7,23.8c0-3.1-2.5-5.7-5.7-5.7c-3.2,0-5.7,2.5-5.7,5.7c0,3.1,2.5,5.7,5.7,5.7
			C35.2,29.5,37.7,26.9,37.7,23.8z M32,27.7c-2.2,0-4-1.7-4-4c0-2.2,1.7-4,4-4c2.3,0,4,1.7,4,4C36,25.9,34.2,27.7,32,27.7z"/>
	</g>
</g>
</svg>
