<?xml version="1.0" encoding="utf-8"?>
<!-- Generator: Adobe Illustrator 23.0.2, SVG Export Plug-In . SVG Version: 6.00 Build 0)  -->
<svg version="1.1" id="Layer_1" xmlns="http://www.w3.org/2000/svg" xmlns:xlink="http://www.w3.org/1999/xlink" x="0px" y="0px"
	 width="65.3px" height="55px" viewBox="0 0 65.3 55" style="enable-background:new 0 0 65.3 55;" xml:space="preserve">
<style type="text/css">
	.st0{fill:#575757;}
	.st1{fill:#A2CD3A;}
</style>
<g>
	<path class="st0" d="M65.3,11.7L53.6,0L38,15.6l0,0l-0.6,0.6l-3.6,0.8c-0.2,0-0.4,0.1-0.6,0.1c-1.2,0.3-2.5,0.5-3.7,0.9l-2.2-1
		l-0.7-0.7l0.6-0.6L11.7,0.1L0,11.8l15.6,15.6l0.6-0.6l0.7,0.7l0.9,3.8c0.4,1.6,1,3,1.8,4.4l-1,1c-0.6,0.6-0.9,1.3-0.9,2.1
		c0,0.8,0.3,1.6,0.9,2.1c0.5,0.5,1.2,0.8,1.9,0.8c-0.1,0.3-0.2,0.7-0.2,1c0,0.8,0.3,1.6,0.9,2.1c0.6,0.6,1.3,0.9,2.1,0.9
		c0.3,0,0.5,0,0.8-0.1c0,0.8,0.3,1.5,0.9,2.1c0.6,0.6,1.3,0.9,2.1,0.9c0.3,0,0.6,0,0.9-0.1c0.1,0.7,0.3,1.3,0.8,1.9
		c0.6,0.6,1.3,0.9,2.1,0.9c0.8,0,1.6-0.3,2.2-0.9l0.5-0.5c0.3,0.1,0.6,0.2,1,0.2c0.8,0,1.5-0.3,2.1-0.9c0.4-0.4,0.6-0.8,0.7-1.3
		l0.3,0.3c0.6,0.6,1.4,0.9,2.1,0.9c0.8,0,1.5-0.3,2.1-0.9c0.4-0.4,0.6-0.8,0.8-1.3c0.5,0.4,1.1,0.6,1.8,0.6c0.8,0,1.5-0.3,2.1-0.9
		c0.6-0.6,0.9-1.3,0.9-2.1c0-0.8-0.3-1.6-0.9-2.1l-0.1-0.1c0.5-0.1,0.9-0.4,1.2-0.8c0.6-0.6,0.9-1.3,0.9-2.1c0-0.8-0.3-1.5-0.8-2.1
		L46.4,36c0.7-1.3,1.3-2.7,1.7-4.1l1-3.9l0.7-0.7l0,0L65.3,11.7z M43.6,12.3l2.3,2.3l1.1-1.1l-2.4-2.3l8.9-8.9l9.5,9.5l-8.9,8.9
		l-5.4-5.4l-1.1,1.1l5.4,5.4L49.8,25l-9.5-9.5L43.6,12.3z M12.3,21.8l2.3-2.3l-1.1-1.1l-2.3,2.3l-8.9-8.9l9.5-9.5l8.9,8.9l-5.4,5.4
		l1.1,1.1l5.4-5.4l3.3,3.3l-9.5,9.5L12.3,21.8z M19.3,38.8c0-0.4,0.2-0.8,0.5-1.1l0.7-0.7c0.5,0.7,1,1.3,1.7,1.9l0.2,0.2l-0.6,0.6
		c-0.6,0.6-1.5,0.6-2.1,0.1C19.4,39.5,19.3,39.2,19.3,38.8z M22.2,43.8c-0.3-0.3-0.4-0.6-0.4-1c0-0.4,0.2-0.8,0.5-1.1l1.3-1.3
		l2.1,2.1l-1.4,1.3l0,0C23.7,44.3,22.8,44.4,22.2,43.8z M26,46.6c-0.3-0.3-0.4-0.6-0.4-1c0-0.4,0.2-0.8,0.5-1.1l0.9-0.9l2,2L28,46.6
		C27.4,47.2,26.5,47.2,26,46.6z M29.8,49.2c-0.6-0.6-0.5-1.5,0.1-2.1l0.2-0.2l2,2l-0.2,0.2C31.3,49.7,30.4,49.8,29.8,49.2z
		 M46.9,39.3c0,0.4-0.2,0.7-0.4,1c-0.3,0.3-0.6,0.4-1,0.4c-0.4,0-0.7-0.1-1-0.4l-8.2-8.2l-1.1,1.1L36,34l0,0l3.3,3.3l4.1,4.1l0,0
		l1.9,1.9c0.3,0.3,0.4,0.6,0.4,1s-0.1,0.7-0.4,1c-0.6,0.5-1.5,0.5-2,0l-1.5-1.5l0,0l-7.6-7.6l0,0l-0.6-0.6l-1.1,1.1l8.3,8.3
		c0.3,0.3,0.4,0.6,0.4,1c0,0.4-0.2,0.7-0.4,1c-0.5,0.6-1.4,0.5-2,0l-2.1-2.1l0,0l-5.8-5.8l0,0l-0.6-0.6L29,39.6l1.9,1.9l4.5,4.5
		c0.6,0.6,0.6,1.5,0,2c-0.6,0.6-1.5,0.5-2,0L23.2,37.8c-1.9-1.9-3.3-4.3-3.9-7l-1-4.2l-1-1l8.2-8.2l0.9,0.9l1.2,0.6
		c-0.6,0.3-1.2,0.8-1.7,1.3l-4.4,4.4c-0.5,0.5-0.8,1.3-0.8,2.1c0,0.8,0.3,1.5,0.9,2.1c0.6,0.6,1.4,0.9,2.2,0.9c0.7,0,1.5-0.3,2-0.8
		l2.7-2.7c1,0.4,3.5,1.2,6.5,0.8l11.6,11.5C46.8,38.6,46.9,38.9,46.9,39.3z M47.6,27.2l-1.1,4.3c-0.3,1.2-0.7,2.3-1.3,3.3l-8.4-8.3
		c0.6-0.2,1.3-0.4,2-0.7l-0.6-1.5c-5,2.2-9.5,0-9.5,0l-0.5-0.3l-3.5,3.5c-0.5,0.5-1.4,0.5-1.9-0.1c-0.3-0.3-0.4-0.6-0.4-1
		c0-0.4,0.1-0.7,0.4-0.9l4.4-4.4c1.6-1.6,4.1-2.1,6.5-2.6c0.2,0,0.4-0.1,0.6-0.1l4.1-0.9l0.9-0.9l9.5,9.5L47.6,27.2z"/>
	<g>
		<path class="st1" d="M23.1,8.5L22.4,7c0.9-0.4,1.9-0.8,2.9-1.1l0.5,1.5C24.9,7.7,24,8.1,23.1,8.5z M41.9,8.4
			c-0.9-0.4-1.8-0.7-2.8-1l0.4-1.5c1,0.3,2,0.6,2.9,1.1L41.9,8.4z M28.3,6.9L28,5.3c1-0.2,2.1-0.3,3.1-0.4l0.1,1.6
			C30.2,6.6,29.3,6.7,28.3,6.9z M36.7,6.8c-1-0.2-1.9-0.3-2.9-0.3l0.1-1.6c1,0.1,2.1,0.2,3.1,0.3L36.7,6.8z"/>
		<path class="st1" d="M32.7,55c-0.7,0-1.4-0.1-2.1-0.1c-0.3,0-0.7-0.1-1-0.1l0.2-1.6c0.3,0,0.6,0.1,1,0.1c0.7,0.1,1.3,0.1,2,0.1
			L32.7,55z M35.4,54.9l-0.1-1.6c1-0.1,1.9-0.2,2.9-0.4l0.3,1.5C37.5,54.7,36.5,54.8,35.4,54.9z M26.9,54.2c-1-0.3-2-0.6-3-1
			l0.6-1.5c0.9,0.4,1.8,0.7,2.8,0.9L26.9,54.2z M41.2,53.8l-0.5-1.5c0.9-0.3,1.8-0.7,2.7-1.1l0.7,1.4C43.1,53,42.1,53.4,41.2,53.8z
			 M21.5,52c-0.9-0.5-1.8-1-2.7-1.7l0.9-1.3c0.8,0.6,1.6,1.1,2.5,1.5L21.5,52z M46.4,51.3L45.6,50c0.8-0.5,1.6-1.1,2.4-1.7l1,1.2
			C48.2,50.1,47.3,50.8,46.4,51.3z M16.7,48.7c-0.8-0.7-1.5-1.4-2.2-2.2l1.2-1.1c0.6,0.7,1.3,1.4,2.1,2.1L16.7,48.7z M51,47.7
			l-1.1-1.1c0.7-0.7,1.3-1.4,1.9-2.2l1.2,1C52.5,46.2,51.8,46.9,51,47.7z M12.8,44.3c-0.6-0.8-1.1-1.7-1.6-2.7l1.4-0.7
			c0.5,0.9,1,1.7,1.5,2.5L12.8,44.3z M54.7,43.1l-1.3-0.8c0.5-0.8,1-1.7,1.4-2.6l1.4,0.7C55.7,41.3,55.2,42.2,54.7,43.1z M10.1,39.2
			c-0.4-1-0.7-2-1-3l1.5-0.4c0.2,0.9,0.6,1.9,0.9,2.8L10.1,39.2z M57.1,37.8l-1.5-0.5c0.3-0.9,0.6-1.9,0.7-2.8l1.6,0.3
			C57.7,35.8,57.4,36.8,57.1,37.8z M8.5,33.6c-0.1-1-0.2-2.1-0.3-3.1l1.6,0c0,1,0.1,2,0.2,2.9L8.5,33.6z M58.3,32.1L56.7,32
			c0.1-0.7,0.1-1.4,0.1-2c0-0.3,0-0.6,0-0.9l1.6-0.1c0,0.3,0,0.6,0,1C58.4,30.7,58.3,31.4,58.3,32.1z M10,27.9l-1.6-0.1
			c0-0.2,0-0.3,0.1-0.5c0.1-0.9,0.2-1.7,0.4-2.6l1.5,0.3c-0.2,0.8-0.3,1.6-0.4,2.4C10,27.6,10,27.7,10,27.9z M56.5,26.5
			c-0.1-1-0.3-1.9-0.6-2.9l1.5-0.4c0.3,1,0.5,2,0.7,3.1L56.5,26.5z"/>
	</g>
</g>
</svg>
