<?xml version="1.0" encoding="utf-8"?>
<!-- Generator: Adobe Illustrator 16.0.0, SVG Export Plug-In . SVG Version: 6.00 Build 0)  -->
<!DOCTYPE svg PUBLIC "-//W3C//DTD SVG 1.1//EN" "http://www.w3.org/Graphics/SVG/1.1/DTD/svg11.dtd">
<svg version="1.1" id="Layer_1" xmlns="http://www.w3.org/2000/svg" xmlns:xlink="http://www.w3.org/1999/xlink" x="0px" y="0px"
	 width="19.547px" height="20px" viewBox="0 0 19.547 20" enable-background="new 0 0 19.547 20" xml:space="preserve">
<path fill="#535454" d="M16.038,12.982c-0.909,0-1.734,0.349-2.357,0.916l-6.708-3.421c0.026-0.175,0.045-0.352,0.045-0.534
	c0-0.103-0.007-0.204-0.016-0.304l6.771-3.452c0.611,0.517,1.401,0.831,2.265,0.831c1.938,0,3.509-1.571,3.509-3.509
	S17.976,0,16.038,0s-3.509,1.571-3.509,3.509c0,0.107,0.007,0.212,0.017,0.317L5.782,7.273C5.17,6.751,4.377,6.435,3.509,6.435
	C1.571,6.435,0,8.005,0,9.943c0,1.938,1.571,3.509,3.509,3.509c0.782,0,1.501-0.259,2.084-0.69l6.946,3.541
	c-0.004,0.063-0.01,0.125-0.01,0.188c0,1.938,1.57,3.509,3.509,3.509c1.938,0,3.509-1.57,3.509-3.509
	C19.547,14.554,17.976,12.982,16.038,12.982z"/>
</svg>
