<?xml version="1.0" encoding="utf-8"?>
<!-- Generator: Adobe Illustrator 23.0.2, SVG Export Plug-In . SVG Version: 6.00 Build 0)  -->
<svg version="1.1" id="Layer_1" xmlns="http://www.w3.org/2000/svg" xmlns:xlink="http://www.w3.org/1999/xlink" x="0px" y="0px"
	 width="131.6px" height="38.7px" viewBox="0 0 131.6 38.7" style="enable-background:new 0 0 131.6 38.7;" xml:space="preserve">
<style type="text/css">
	.st0{fill:#ABEC08;}
	.st1{fill:#FFFFFF;}
</style>
<g>
	<path class="st0" d="M15.4,1.5H1c-0.6,0-1,0.5-1,1v1.7l8.2,3.3l8.2-3.3V2.5C16.4,2,16,1.5,15.4,1.5z M0,5.9v6.9c0,0.6,0.5,1,1,1
		h14.4c0.6,0,1-0.5,1-1V5.9L8.2,9.3L0,5.9z"/>
	<path class="st1" d="M15.4,24.9H1c-0.6,0-1,0.5-1,1v1.7l8.2,3.3l8.2-3.3v-1.7C16.4,25.3,15.9,24.9,15.4,24.9z M0,29.3v6.9
		c0,0.6,0.5,1,1,1h14.4c0.6,0,1-0.5,1-1v-6.9l-8.2,3.3L0,29.3z"/>
	<path class="st0" d="M40.8,2c-0.6,0.4-1.3,0.6-2,0.7c-0.6-0.6-1.4-1-2.2-1c-1.7,0-3.1,1.4-3.1,3.1c0,0.2,0,0.5,0.1,0.7
		C31,5.3,28.8,4,27.3,2.2c-0.3,0.5-0.4,1-0.4,1.5c0,1.1,0.5,2,1.4,2.6c-0.5,0-1-0.2-1.4-0.4l0,0c0,1.5,1.1,2.7,2.5,3
		C29.1,9,28.9,9,28.6,9c-0.2,0-0.4,0-0.6-0.1c0.4,1.2,1.5,2.1,2.9,2.1c-1.1,0.8-2.4,1.3-3.8,1.3c-0.2,0-0.5,0-0.7,0
		c1.4,0.9,3,1.4,4.7,1.4c5.7,0,8.7-4.7,8.7-8.7c0-0.1,0-0.3,0-0.4c0.6-0.4,1.1-1,1.5-1.6c-0.6,0.2-1.1,0.4-1.8,0.5
		C40,3.3,40.5,2.7,40.8,2z"/>
	<path class="st1" d="M40.8,25.3c-0.6,0.4-1.3,0.6-2,0.7c-0.6-0.6-1.4-1-2.2-1c-1.7,0-3.1,1.4-3.1,3.1c0,0.2,0,0.5,0.1,0.7
		c-2.6-0.1-4.8-1.4-6.3-3.2c-0.3,0.5-0.4,1-0.4,1.5c0,1.1,0.5,2,1.4,2.6c-0.5,0-1-0.2-1.4-0.4l0,0c0,1.5,1.1,2.7,2.5,3
		c-0.3,0.1-0.5,0.1-0.8,0.1c-0.2,0-0.4,0-0.6-0.1c0.4,1.2,1.5,2.1,2.9,2.1c-1.1,0.8-2.4,1.3-3.8,1.3c-0.2,0-0.5,0-0.7,0
		c1.4,0.9,3,1.4,4.7,1.4c5.7,0,8.7-4.7,8.7-8.7c0-0.1,0-0.3,0-0.4c0.6-0.4,1.1-1,1.5-1.6c-0.6,0.2-1.1,0.4-1.8,0.5
		C40,26.6,40.5,26,40.8,25.3z"/>
	<path class="st0" d="M51.3,4.1h3.1v11.3h-3.1V4.1z M60.6,4.1c-1.1,0-1.7,0.5-2.1,0.9V4.1h-3.1v11.3h3.1V8.3c0,0-0.1-1.4,1.6-1.4
		c1,0,1.5,0.6,1.5,1.4v7.1h3.2v-7C64.8,4.6,61.7,4.1,60.6,4.1z M51.3,1.5C51.3,2.4,52,3,52.8,3c0.9,0,1.5-0.7,1.5-1.5
		c0-0.9-0.7-1.5-1.5-1.5S51.3,0.7,51.3,1.5z"/>
	<path class="st1" d="M51.3,27.4h3.1v11.3h-3.1V27.4z M60.6,27.4c-1.1,0-1.7,0.5-2.1,0.9v-0.9h-3.1v11.3h3.1v-7.1
		c0,0-0.1-1.4,1.6-1.4c1,0,1.5,0.6,1.5,1.4v7.1h3.2v-7C64.8,27.9,61.7,27.4,60.6,27.4z M51.3,24.8c0,0.9,0.7,1.5,1.5,1.5
		c0.9,0,1.5-0.7,1.5-1.5c0-0.9-0.7-1.5-1.5-1.5S51.3,24,51.3,24.8z"/>
	<g>
		<path class="st0" d="M82.6,0.2h-1.9c-2.2,0-3.6,1.4-3.6,3.7v1.7h-2c-0.2,0-0.3,0.1-0.3,0.3v2.5c0,0.2,0.1,0.3,0.3,0.3h2v6.2
			c0,0.2,0.1,0.3,0.3,0.3H80c0.2,0,0.3-0.1,0.3-0.3V8.7h2.3c0.2,0,0.3-0.1,0.3-0.3V5.9c0-0.1,0-0.2-0.1-0.2
			c-0.1-0.1-0.1-0.1-0.2-0.1h-2.3V4.1c0-0.7,0.2-1,1.1-1h1.3C82.9,3.1,83,3,83,2.8V0.5C82.9,0.3,82.8,0.2,82.6,0.2z"/>
	</g>
	<g>
		<path class="st1" d="M82.6,23.5h-1.9c-2.2,0-3.6,1.4-3.6,3.7v1.7h-2c-0.2,0-0.3,0.1-0.3,0.3v2.5c0,0.2,0.1,0.3,0.3,0.3h2v6.2
			c0,0.2,0.1,0.3,0.3,0.3H80c0.2,0,0.3-0.1,0.3-0.3V32h2.3c0.2,0,0.3-0.1,0.3-0.3v-2.5c0-0.1,0-0.2-0.1-0.2
			c-0.1-0.1-0.1-0.1-0.2-0.1h-2.3v-1.5c0-0.7,0.2-1,1.1-1h1.3c0.2,0,0.3-0.1,0.3-0.3v-2.3C82.9,23.6,82.8,23.5,82.6,23.5z"/>
	</g>
	<g>
		<path class="st0" d="M101.9,5.4c-0.1,0.1-4.7,4.7-4.4,4.4c-0.3-0.1-0.8-0.4-0.9-0.4C96.7,9.3,101.6,5.6,101.9,5.4z"/>
		<path class="st0" d="M97.6,10.7L97.6,10.7L97.6,10.7z"/>
		<path class="st0" d="M106.6,1.9l-2.4,11.9c0,0.1-0.1,0.2-0.2,0.3s-0.3,0-0.4,0c-0.1-0.1-5.4-3.8-5.3-3.8
			C101.2,7.3,103.7,4.8,106.6,1.9z"/>
		<path class="st0" d="M96.4,10.2c0,0.1,0.4,2.7,0.6,3.5c0-0.1,0.6-3.1,0.6-3l0,0l0,0C97.5,10.7,96.3,10.1,96.4,10.2z"/>
		<polygon class="st0" points="98.3,11.2 97.8,13.9 99.6,12.1 		"/>
		<g>
			<path class="st0" d="M106.1,1.3C93.8,6.7,93.4,6.9,93.2,7C93.1,7.1,93,7.2,93,7.4c0,0.2,0.1,0.3,0.2,0.4l2.6,1.3
				C110.8-2.2,90.3,13.1,106.1,1.3z"/>
		</g>
	</g>
	<g>
		<path class="st1" d="M101.9,28.7c-0.1,0.1-4.7,4.7-4.4,4.4c-0.3-0.1-0.8-0.4-0.9-0.4C96.7,32.6,101.6,28.9,101.9,28.7z"/>
		<path class="st1" d="M97.6,34L97.6,34L97.6,34z"/>
		<path class="st1" d="M106.6,25.2l-2.4,11.9c0,0.1-0.1,0.2-0.2,0.3s-0.3,0-0.4,0c-0.1-0.1-5.4-3.8-5.3-3.8
			C101.2,30.6,103.7,28.1,106.6,25.2z"/>
		<path class="st1" d="M96.4,33.5c0,0.1,0.4,2.7,0.6,3.5c0-0.1,0.6-3.1,0.6-3l0,0l0,0C97.5,34,96.3,33.4,96.4,33.5z"/>
		<polygon class="st1" points="98.3,34.5 97.8,37.2 99.6,35.4 		"/>
		<g>
			<path class="st1" d="M106.1,24.6c-12.3,5.4-12.7,5.6-12.9,5.7c-0.1,0.1-0.2,0.2-0.2,0.4c0,0.2,0.1,0.3,0.2,0.4l2.6,1.3
				C110.8,21.1,90.3,36.4,106.1,24.6z"/>
		</g>
	</g>
	<g>
		<g>
			<path class="st0" d="M128.1,2.7c-0.5,0-0.9,0.4-0.9,0.9c0,0.5,0.4,0.9,0.9,0.9c0.5,0,0.9-0.4,0.9-0.9
				C129,3.1,128.6,2.7,128.1,2.7z"/>
			<path class="st0" d="M124.2,3.8c-2,0-3.7,1.7-3.7,3.7c0,2,1.7,3.7,3.7,3.7c2,0,3.7-1.7,3.7-3.7C127.9,5.5,126.2,3.8,124.2,3.8z
				 M124.2,9.9c-1.3,0-2.4-1.1-2.4-2.4s1.1-2.4,2.4-2.4c1.3,0,2.4,1.1,2.4,2.4S125.5,9.9,124.2,9.9z"/>
			<path class="st0" d="M127.1,15h-6c-2.5,0-4.5-2-4.5-4.5v-6c0-2.5,2-4.5,4.5-4.5h6c2.5,0,4.5,2,4.5,4.5v6
				C131.6,13,129.6,15,127.1,15z M121.1,1.4c-1.7,0-3.1,1.4-3.1,3.1v6c0,1.7,1.4,3.1,3.1,3.1h6c1.7,0,3.1-1.4,3.1-3.1v-6
				c0-1.7-1.4-3.1-3.1-3.1H121.1z"/>
		</g>
	</g>
	<g>
		<g>
			<path class="st1" d="M128.1,26.4c-0.5,0-0.9,0.4-0.9,0.9c0,0.5,0.4,0.9,0.9,0.9c0.5,0,0.9-0.4,0.9-0.9
				C129,26.8,128.6,26.4,128.1,26.4z"/>
			<path class="st1" d="M124.2,27.5c-2,0-3.7,1.7-3.7,3.7c0,2,1.7,3.7,3.7,3.7c2,0,3.7-1.7,3.7-3.7
				C127.9,29.2,126.2,27.5,124.2,27.5z M124.2,33.6c-1.3,0-2.4-1.1-2.4-2.4c0-1.3,1.1-2.4,2.4-2.4c1.3,0,2.4,1.1,2.4,2.4
				C126.5,32.5,125.5,33.6,124.2,33.6z"/>
			<path class="st1" d="M127.1,38.7h-6c-2.5,0-4.5-2-4.5-4.5v-6c0-2.5,2-4.5,4.5-4.5h6c2.5,0,4.5,2,4.5,4.5v6
				C131.6,36.7,129.6,38.7,127.1,38.7z M121.1,25.1c-1.7,0-3.1,1.4-3.1,3.1v6c0,1.7,1.4,3.1,3.1,3.1h6c1.7,0,3.1-1.4,3.1-3.1v-6
				c0-1.7-1.4-3.1-3.1-3.1H121.1z"/>
		</g>
	</g>
</g>
</svg>
