<?xml version="1.0" encoding="utf-8"?>
<!-- Generator: Adobe Illustrator 23.0.2, SVG Export Plug-In . SVG Version: 6.00 Build 0)  -->
<svg version="1.1" id="Layer_1" xmlns="http://www.w3.org/2000/svg" xmlns:xlink="http://www.w3.org/1999/xlink" x="0px" y="0px"
	 width="22.5px" height="21.6px" viewBox="0 0 22.5 21.6" style="enable-background:new 0 0 22.5 21.6;" xml:space="preserve">
<style type="text/css">
	.st0{fill:#ABEC08;}
</style>
<path class="st0" d="M22.5,8.2c-0.1-0.5-0.6-0.8-1-0.8l-6.5-0.6l-2.6-6C12.2,0.3,11.7,0,11.3,0c-0.5,0-0.9,0.3-1.1,0.7l-2.6,6
	L1.1,7.3c-0.5,0-0.9,0.4-1,0.8c-0.1,0.5,0,1,0.3,1.3l4.9,4.3l-1.4,6.4c-0.1,0.5,0.1,1,0.5,1.2c0.2,0.2,0.5,0.2,0.7,0.2
	c0.2,0,0.4-0.1,0.6-0.2l5.6-3.3l5.6,3.3c0.4,0.2,0.9,0.2,1.3-0.1c0.4-0.3,0.6-0.8,0.5-1.2l-1.4-6.4l4.9-4.3
	C22.5,9.1,22.6,8.6,22.5,8.2z"/>
</svg>
