<svg version="1.2" baseProfile="tiny-ps" xmlns="http://www.w3.org/2000/svg" viewBox="0 0 32 23" width="32" height="23">
	<title>menu-svg</title>
	<style>
		tspan { white-space:pre }
		.shp0 { fill: #535353 } 
	</style>
	<g id="Layer">
		<path id="Layer" class="shp0" d="M30.07 3.9L1.92 3.9C0.85 3.9 0 3.03 0 1.95C0 0.87 0.85 0 1.92 0L30.07 0C31.14 0 32 0.87 32 1.95C32.03 3.03 31.14 3.9 30.07 3.9Z" />
		<path id="Layer copy" class="shp0" d="M16.07 12.9L-12.08 12.9C-13.15 12.9 -14 12.03 -14 10.95C-14 9.87 -13.15 9 -12.08 9L16.07 9C17.14 9 18 9.87 18 10.95C18.03 12.03 17.14 12.9 16.07 12.9Z" />
		<path id="Layer copy 2" class="shp0" d="M23.07 22.9L-5.08 22.9C-6.15 22.9 -7 22.03 -7 20.95C-7 19.87 -6.15 19 -5.08 19L23.07 19C24.14 19 25 19.87 25 20.95C25.03 22.03 24.14 22.9 23.07 22.9Z" />
	</g>
</svg>