<?xml version="1.0" encoding="utf-8"?>
<!-- Generator: Adobe Illustrator 23.0.2, SVG Export Plug-In . SVG Version: 6.00 Build 0)  -->
<svg version="1.1" id="Layer_1" xmlns="http://www.w3.org/2000/svg" xmlns:xlink="http://www.w3.org/1999/xlink" x="0px" y="0px"
	 width="149.2px" height="127px" viewBox="0 0 149.2 127" style="enable-background:new 0 0 149.2 127;" xml:space="preserve">
<style type="text/css">
	.st0{fill:#575757;}
	.st1{fill:#A2CD3A;}
</style>
<g>
	<path class="st0" d="M8.3,105.1c-4.1,0-6.8-2-8.1-5.9c-0.1-0.2-0.2-0.3-0.2-0.5V31.1c0.1-0.2,0.2-0.4,0.2-0.6
		c0.2-0.5,0.4-1.1,0.6-1.5c1.5-2.9,4-4.3,7.4-4.3l22.2,0c0.4,0,0.8-0.2,0.9-0.6c0.2-0.4,0.1-0.8-0.2-1.1l-0.6-0.6
		c-0.4-0.4-0.6-0.7-0.9-1c-0.7-0.8-0.7-1.9,0-2.7c0.4-0.4,0.9-0.6,1.4-0.6c0.5,0,0.9,0.2,1.3,0.6c2.2,2,4.4,4.3,6.7,6.6
		c0.8,0.9,0.8,1.8,0,2.7c-2.3,2.5-4.4,4.7-6.5,6.8c-0.4,0.5-1,0.7-1.5,0.7c-0.5,0-0.9-0.2-1.3-0.6C29,34.1,29,33,29.8,32.1
		c0.3-0.3,0.6-0.7,1-1.1l0.6-0.7c0.3-0.3,0.3-0.7,0.2-1.1c-0.1-0.4-0.5-0.6-0.9-0.6l-0.7,0c-0.4,0-0.7,0-1.1,0l-11.9,0l-8.3,0
		c-3.5,0-4.9,1.4-4.9,4.9v63c0,3.5,1.4,4.9,4.9,4.9l4.8,0c1,0,2,0,3,0c1.4,0,2.3,0.8,2.3,1.9c0,1.2-0.9,1.9-2.4,1.9
		c-1.3,0-2.5,0-3.8,0l0,0L8.3,105.1z"/>
	<path class="st0" d="M147.1,52.9c-1,0-1.8-1-1.8-2.2c0-3.7,0-7.4,0-11.1l0-6.3c0-3.4-1.4-4.8-4.8-4.8l-27.5,0c-0.4,0-0.8,0-1.2-0.1
		c-0.9-0.1-1.6-0.9-1.7-1.8c0-0.9,0.6-1.7,1.5-1.9c0.5-0.1,1.1-0.1,1.7-0.1c5.5,0,10.9,0,16.4,0l9.7,0c5.8,0,7.7,1.2,9.8,6.5v20.3
		c-0.1,0.1-0.2,0.2-0.3,0.4c-0.4,0.5-0.8,0.9-1.2,1C147.5,52.9,147.3,52.9,147.1,52.9z"/>
	<path class="st0" d="M137.5,111.7c-0.5,0-1-0.2-1.4-0.6c-2.1-2-4.2-4.1-6.5-6.4c-0.9-0.9-0.9-1.9,0-2.8c2.3-2.5,4.4-4.7,6.5-6.8
		c0.4-0.4,0.9-0.7,1.4-0.7c0.4,0,0.9,0.2,1.3,0.5c0.9,0.8,0.9,1.8,0.1,2.8c-0.3,0.4-0.7,0.7-1.1,1.2c-0.2,0.2-0.4,0.5-0.7,0.7
		c-0.3,0.3-0.3,0.7-0.2,1.1c0.2,0.4,0.5,0.6,0.9,0.6c0.5,0,0.9,0,1.4,0c0.4,0,0.8,0,1.2,0c0.6,0,1.1,0,1.6-0.1
		c2.1-0.2,3.3-1.9,3.4-4.3c0-4.1,0-8.3,0-12.4l0-6.1c0-0.3,0-0.6,0-0.9c0.1-1,0.6-1.5,1.4-1.8c0.2-0.1,0.4-0.1,0.6-0.1
		c0.5,0,1,0.3,1.5,0.9c0.1,0.2,0.2,0.3,0.4,0.5l0,0v21.6c-0.1,0.3-0.3,0.7-0.4,1c-0.3,0.8-0.6,1.6-1.1,2.2c-1.4,2.2-3.6,3.3-6.5,3.3
		c-0.3,0-0.7,0-1.1,0l-2,0c-0.4,0-0.8,0.2-0.9,0.6c-0.2,0.4-0.1,0.8,0.2,1.1l0.5,0.6c0.3,0.4,0.6,0.6,0.8,0.9c0.8,1,0.9,1.9,0.1,2.8
		C138.5,111.5,138,111.7,137.5,111.7z"/>
	<path class="st0" d="M147.2,66.2c-0.1,0-0.2,0-0.3,0c-0.9-0.1-1.6-0.8-1.6-1.6c-0.1-1,0.2-1.6,1.1-2c0.2-0.1,0.5-0.2,0.8-0.2
		c0.6,0,1.1,0.2,1.4,0.7c0.2,0.2,0.3,0.4,0.4,0.6l0.1,0.1v1.2C148.5,65.8,148,66.2,147.2,66.2z"/>
	<path class="st0" d="M83.9,127c-1.8,0-2.4-0.7-2.4-2.4c0-4.2,0-8.3,0-12.5l0-6.5c0-0.6-0.5-1-1-1H67.7c-0.6,0-1,0.5-1,1l0,6.7
		c0,3.9,0,7.8,0,11.7c0,2.3-0.5,2.9-2.9,2.9H29.5c-2.2,0-2.8-0.6-2.8-2.8c0-14.4,0-28.7,0-43.1c0-2.3,0.5-2.8,2.9-2.8l14,0
		c0.5,0,1-0.4,1-1l0-0.6c0-0.4,0.1-0.8,0.1-1.2c0-1.2,0-2.3,0-3.5v-0.3c0-1.5,0-2.9,0-4.4c0-2.1,0.6-2.7,2.6-2.7l24.1,0
		c0.6,0,1-0.5,1-1v-9.5c0-0.6-0.5-1-1-1l-2.5,0c-0.5,0-1,0-1.4,0c-1.7,0-2.3-0.6-2.5-2.3c-0.1-0.6-0.1-1.2-0.2-1.9
		c-0.1-0.6-0.1-1.1-0.2-1.7c-0.3-2.4-1.9-2.7-2.5-2.7c-0.4,0-0.9,0.1-1.4,0.3c-0.6,0.2-1.2,0.5-1.7,0.7c-0.6,0.3-1.2,0.5-1.8,0.7
		c-0.5,0.2-0.9,0.3-1.2,0.3c-0.5,0-1.1-0.1-1.7-1.2c-2.3-3.9-4.5-7.8-6.6-11.5c-0.7-1.2-0.5-2,0.6-2.8c0.5-0.4,1.1-0.8,1.6-1.2
		c0.6-0.4,1.2-0.9,1.7-1.3c0.8-0.7,1.3-1.4,1.3-2.2c0-0.8-0.4-1.5-1.3-2.2c-0.5-0.4-1.1-0.8-1.6-1.2c-0.6-0.4-1.2-0.9-1.8-1.3
		c-1-0.8-1.2-1.6-0.6-2.6c2.1-3.8,4.3-7.6,6.8-11.7c0.4-0.7,0.9-1.1,1.6-1.1c0.3,0,0.7,0.1,1.1,0.2c0.6,0.2,1.3,0.5,1.9,0.8l0.1,0
		c0.5,0.2,1.1,0.5,1.6,0.7c0.6,0.2,1.1,0.3,1.5,0.3c0.8,0,2.2-0.4,2.5-2.8c0-0.4,0.1-0.8,0.1-1.2c0.1-0.8,0.2-1.6,0.3-2.4
		c0.2-1.5,0.8-2,2.3-2c2.2,0,4.4,0,6.6,0c2.2,0,4.4,0,6.5,0c1.4,0,2.1,0.6,2.2,2c0.1,0.5,0.1,0.9,0.2,1.4c0.1,1,0.2,1.9,0.4,2.8
		c0.3,2.1,1.8,2.3,2.3,2.3c0.4,0,0.8-0.1,1.2-0.3c0.7-0.3,1.4-0.5,2-0.8c0.6-0.3,1.2-0.5,1.8-0.7c0.5-0.2,0.9-0.3,1.2-0.3
		c0.5,0,1,0.1,1.7,1.2c2.2,3.7,4.4,7.5,6.6,11.4c0.7,1.3,0.5,2.1-0.7,3.1c-0.5,0.4-0.9,0.7-1.4,1c-0.6,0.4-1.2,0.9-1.8,1.3
		c-1,0.8-1.2,1.6-1.2,2.1c0,0.5,0.2,1.4,1.2,2.1c0.6,0.5,1.2,0.9,1.9,1.4c0.5,0.3,0.9,0.7,1.4,1c1.3,1,1.5,1.8,0.7,3.2
		c-2.3,4-4.4,7.7-6.5,11.2c-0.7,1.1-1.2,1.3-1.7,1.3c-0.4,0-0.8-0.1-1.3-0.3c-0.5-0.2-1-0.4-1.6-0.6c-0.7-0.3-1.3-0.6-2-0.8
		c-0.5-0.2-0.9-0.3-1.4-0.3c-0.6,0-2.1,0.2-2.5,2.4c-0.2,0.9-0.3,1.9-0.4,2.8L82.7,51c-0.2,1.5-0.8,2.1-2.3,2.2c-0.3,0-0.7,0-1,0
		l-1.8,0c-0.6,0-1,0.5-1,1v9.5c0,0.6,0.5,1,1,1l23.1,0c2.1,0,2.6,0.6,2.6,2.7c0,2.2,0,4.5,0,6.8l0,3.1c0,0.6,0.5,1,1,1l9.3,0
		c1.7,0,3.5,0,5.2,0c1.9,0,2.5,0.6,2.5,2.5c0,14.6,0,29.1,0,43.7c0,1.9-0.7,2.5-2.5,2.5c-5.8,0-11.7,0-17.5,0
		C95.6,127,89.7,127,83.9,127z M31.7,82.2c-0.6,0-1,0.5-1,1V122c0,0.6,0.5,1,1,1h30c0.6,0,1-0.5,1-1V83.2c0-0.6-0.5-1-1-1H31.7z
		 M86.5,82.2c-0.6,0-1,0.5-1,1V122c0,0.6,0.5,1,1,1h29.9c0.6,0,1-0.5,1-1V83.2c0-0.6-0.5-1-1-1H86.5z M63.8,78.2
		c2.4,0,2.9,0.5,2.9,2.9c0,3.9,0,7.9,0,11.8l0,6.6c0,0.6,0.5,1,1,1h12.8c0.6,0,1-0.5,1-1l0-18.2c0-2.7,0.4-3.1,3-3.1h13.9
		c0.6,0,1-0.5,1-1v-7.6c0-0.6-0.5-1-1-1H49.8c-0.6,0-1,0.5-1,1v7.6c0,0.6,0.5,1,1,1l8.7,0L63.8,78.2z M62.8,41.1
		c3.2,0,4.6,1.7,6,7.3c0.1,0.5,0.5,0.8,1,0.8h8.4c0.5,0,1-0.4,1-1c0.2-3.2,1.2-5.3,3.4-6.5c1-0.6,2-0.9,3.1-0.9
		c1.3,0,2.6,0.4,4.3,1.2c0.1,0.1,0.3,0.1,0.4,0.1c0.4,0,0.7-0.2,0.9-0.5l4.3-7.4c0.3-0.5,0.1-1.1-0.3-1.4c-2.9-1.8-4.1-3.7-4.2-6.3
		c0-3.1,2-4.9,4.2-6.3c0.4-0.3,0.6-0.9,0.3-1.4l-4.3-7.4c-0.2-0.3-0.5-0.5-0.9-0.5c-0.2,0-0.3,0-0.5,0.1c-1.4,0.8-2.9,1.2-4.3,1.2
		c-3.8,0-6.6-3.1-6.6-7.4c0-0.6-0.5-1-1-1h-8.5c-0.5,0-1,0.4-1,1c-0.1,3.2-1.2,5.3-3.3,6.6c-1,0.6-2,0.9-3.1,0.9
		c-1.3,0-2.7-0.4-4.5-1.2C57.6,11,57.5,11,57.3,11c-0.4,0-0.7,0.2-0.9,0.5l-4.2,7.3c-0.2,0.4-0.2,0.9,0.2,1.3
		c3.1,2.8,4.3,4.6,4.4,6.3c0,1.8-1.2,3.7-4.4,6.7c-0.3,0.3-0.4,0.8-0.2,1.2l0.7,1.2c0.4,0.8,0.9,1.6,1.4,2.4c0.5,0.9,1,1.7,1.5,2.5
		l0.6,1.1c0.2,0.3,0.5,0.5,0.9,0.5c0.1,0,0.2,0,0.3,0C59.8,41.4,61.5,41.1,62.8,41.1z"/>
	<path class="st1" d="M46.4,104.6c-2.1,0-4.3,0-6.4,0c-0.8,0-1.4-0.2-1.8-0.6c-0.3-0.3-0.5-0.8-0.5-1.3c0-1.6,1.3-1.9,2.3-1.9
		c0.8,0,1.7,0,2.5,0l4,0l4,0c0.8,0,1.7,0,2.5,0c0.9,0,2.3,0.3,2.3,1.9c0,1.7-1.5,1.9-2.3,1.9C50.8,104.6,48.6,104.6,46.4,104.6z"/>
	<path class="st1" d="M42.6,115.3c-0.9,0-1.8,0-2.7,0c-0.8,0-2.1-0.3-2.1-1.8c0-0.6,0.2-1.1,0.5-1.4c0.4-0.4,0.9-0.6,1.5-0.6
		c2.3,0,4.5,0,6.8,0c2.2,0,4.5,0,6.7,0c0.6,0,1.2,0.2,1.5,0.6c0.3,0.4,0.5,0.9,0.5,1.5c-0.1,1.5-1.4,1.8-2.2,1.8c-0.9,0-1.7,0-2.6,0
		l-4,0L42.6,115.3z"/>
	<path class="st1" d="M42.6,93.8c-0.8,0-1.7,0-2.5,0c-0.9,0-2.3-0.3-2.3-1.9c0-1.6,1.3-1.9,2.3-1.9c2.2,0,4.4,0,6.5,0
		c2.1,0,4.3,0,6.4,0c0.8,0,1.4,0.2,1.8,0.6c0.3,0.3,0.5,0.8,0.5,1.4c0,1.6-1.4,1.9-2.3,1.9c-0.8,0-1.7,0-2.5,0l-3.9,0L42.6,93.8z"/>
	<path class="st1" d="M101.4,93.8l-3.9,0c-0.8,0-1.6,0-2.4,0c-1.4,0-2.3-0.8-2.3-1.9c0-1.2,0.9-1.9,2.2-1.9c2.2,0,4.5,0,6.7,0
		c2.2,0,4.4,0,6.5,0c0.7,0,1.3,0.2,1.7,0.6c0.3,0.3,0.5,0.8,0.5,1.3c0,1.1-0.9,1.9-2.2,1.9c-0.9,0-1.8,0-2.7,0l0,0L101.4,93.8z"/>
	<path class="st1" d="M97.5,115.3c-0.9,0-1.7,0-2.6,0c-1.3,0-2.1-0.7-2.1-1.8c0-0.5,0.2-1,0.5-1.4c0.4-0.4,1-0.6,1.6-0.6
		c2.2,0,4.5,0,6.7,0c2.2,0,4.5,0,6.7,0c0.7,0,1.2,0.2,1.6,0.6c0.3,0.4,0.5,0.8,0.5,1.3c0,1.1-0.9,1.9-2.2,1.9c-0.9,0-1.7,0-2.6,0
		l-4,0L97.5,115.3z"/>
	<path class="st1" d="M101.7,104.6c-2.2,0-4.4,0-6.7,0c-1.3,0-2.2-0.8-2.2-1.9c0-1.1,0.9-1.9,2.2-1.9c0.9,0,1.7,0,2.6,0l4,0l4,0
		c0.9,0,1.7,0,2.6,0c1.3,0,2.2,0.8,2.2,1.9c0,0.5-0.2,1-0.6,1.4c-0.4,0.4-1,0.6-1.6,0.6C106.1,104.6,103.9,104.6,101.7,104.6z"/>
	<path class="st1" d="M73.9,35.9c-2.5,0-4.8-1-6.6-2.7c-1.7-1.8-2.7-4.1-2.7-6.6c0-5.1,4.2-9.3,9.3-9.3c5.2,0,9.4,4.2,9.3,9.3
		C83.2,31.7,79,35.9,73.9,35.9L73.9,35.9z M73.9,21.1c-2.9,0-5.4,2.4-5.4,5.4c0,1.5,0.5,2.8,1.5,3.9c1,1,2.4,1.6,3.8,1.6
		c3,0,5.5-2.4,5.5-5.3C79.4,23.7,76.9,21.2,73.9,21.1C74,21.1,73.9,21.1,73.9,21.1z"/>
</g>
</svg>
