<?xml version="1.0" encoding="utf-8"?>
<!-- Generator: Adobe Illustrator 23.0.2, SVG Export Plug-In . SVG Version: 6.00 Build 0)  -->
<svg version="1.1" id="Layer_1" xmlns="http://www.w3.org/2000/svg" xmlns:xlink="http://www.w3.org/1999/xlink" x="0px" y="0px"
	 width="127px" height="127px" viewBox="0 0 127 127" style="enable-background:new 0 0 127 127;" xml:space="preserve">
<style type="text/css">
	.st0{fill:#575757;}
	.st1{fill:#A2CD3A;}
</style>
<g>
	<path class="st0" d="M126.8,62.9c-0.4-0.9-1.1-1.2-2-1.2c-0.5,0-1-0.1-1.5,0c-1.2,0.2-1.6-0.4-1.5-1.5c0-1.7-0.2-3.4-0.5-5.1
		c-2.8-18-12.1-31.9-27.5-41.6c-6.9-4.3-14.4-6.9-22.5-7.9c-0.9-0.1-1.7-0.4-2.4-1.1c-1.3-1.3-2.6-2.5-3.9-3.8
		c-0.6-0.6-1.4-0.9-2.2-0.5c-0.8,0.4-1.1,1-1.1,1.9c0,0.7,0,1.3,0,2c0.1,0.9-0.3,1.1-1.1,1.1c-8.1,0.3-15.8,2.4-23.1,6
		c-2.6,1.3-5.1,2.8-7.4,4.4c-0.9,0.7-1.2,1.7-0.6,2.6c0.6,0.9,1.6,1.1,2.7,0.5c0.2-0.1,0.3-0.2,0.5-0.3c9-6.1,19-9.3,29.9-9.5
		c2.2,0,2.5-0.3,3-2.4c3.1,3,6.1,5.9,9.1,8.8c0.5,0.5,0.1,0.7-0.2,1c-1.5,1.2-3,2.4-4.5,3.7c-1.4,1.2-2.9,2.3-4.3,3.5
		c-0.3-0.3-0.2-0.5-0.2-0.8c-0.1-2.2-0.6-2.7-2.7-2.7C45.5,20,29.6,30.9,23.1,47.1c-0.7,1.8-1.3,3.6-2,5.6c-1.1-1.4-2.2-2.7-3.3-4.1
		c-1.5-1.9-2.3-1.9-4.1-0.2c-1.2,1.1-2.4,2.2-3.5,3.3c0.1-0.5,0.2-1.1,0.4-1.7c2.7-10.3,7.9-19.1,15.6-26.4c1.1-1,1.2-2.1,0.4-2.9
		c-0.8-0.8-1.9-0.8-2.9,0.2c-10,9.6-16.1,21.2-17.9,35c-0.1,0.7-0.4,1.3-0.9,1.8c-1.6,1.6-3.2,3.3-4.8,5v1.5c1.1,1.4,2.6,1.1,4,1
		c1,0,1.2,0.2,1.3,1.2c1,23.8,17.4,45.3,40.2,52.5c3.4,1.1,6.8,1.9,10.4,2.3c0.9,0.1,1.5,0.4,2.2,1c1.6,1.6,3.2,3.1,4.8,4.6H64
		c1-0.6,1.5-1.5,1.3-2.7c-0.1-0.4,0-0.8,0-1.2c-0.1-0.9,0.2-1.3,1.2-1.3c4.3-0.1,8.5-0.8,12.7-2c6.5-1.8,12.4-4.6,17.9-8.5
		c0.7-0.5,1.3-1,1.2-2c-0.1-1.6-1.8-2.2-3.3-1.1c-9.2,6.4-19.5,9.8-30.8,9.9c-2,0-2.3,0.3-2.9,2.4c-3-2.9-6-5.8-9-8.7
		c-0.5-0.5-0.2-0.7,0.2-1c1.5-1.2,3.1-2.5,4.6-3.7c1.4-1.1,2.8-2.3,4.3-3.5c0,0.4,0.1,0.6,0.1,0.8c0.1,2.4,0.5,2.8,2.9,2.8
		c17.1-0.2,33-11,39.5-27c0.7-1.8,1.3-3.7,2-5.5c0.1,0.1,0.2,0.1,0.3,0.1c1,1.2,1.9,2.4,2.9,3.6c1.7,2.1,2.4,2.1,4.3,0.2
		c1.1-1.1,2.3-2.1,3.4-3.1c0.1,0.3,0,0.7-0.1,1.1c-2.5,10.1-7.4,18.8-14.8,26c-0.4,0.4-0.7,0.7-1,1.1c-0.6,0.8-0.6,1.7,0.1,2.5
		c0.7,0.7,1.5,0.8,2.4,0.2c0.3-0.2,0.6-0.5,0.8-0.7c9.8-9.6,15.5-21.1,17.3-34.7c0.1-0.7,0.3-1.1,0.8-1.6c1.3-1.4,2.6-2.7,4-4.1
		C126.9,64.5,127.2,63.8,126.8,62.9z M112.6,73.8c-1.3,1.3-1.3,1.3-2.4-0.1c-1.9-2.4-3.8-4.8-5.8-7.1c-0.3-0.3-0.5-0.6-0.7-1
		c0.1-0.1,0.2-0.2,0.2-0.2c3.1-0.2,3.3-0.3,3.2-3.4c-0.4-18.6-13.4-35.3-31.4-40.5c-0.4-0.1-0.8-0.2-1.5-0.4
		c1.5-1.2,2.8-2.3,4.1-3.3c1.9-1.5,1.9-2.3,0.2-4.1c-1.2-1.2-2.2-2.4-3.1-3.5c0.9,0,2.1,0.4,3.3,0.8c20.9,6.8,33.7,20.9,38.5,42.3
		c0.7,3.1,0.9,6.2,1,9.4c0.1,2.2,0.2,2.4,2.3,3C117.9,68.4,115.3,71.1,112.6,73.8z M101.9,61.7c-0.7,0-1.4,0-2.1,0
		c-0.9,0-1.5,0.3-1.9,1.1c-0.4,0.8-0.1,1.5,0.4,2.2c1.3,1.5,2.4,3.1,3.8,4.6c0.7,0.7,0.8,1.4,0.5,2.4c-4.1,16-14,26.2-30,30.5
		c-2,0.5-4.1,0.7-6.2,1c-0.8,0.1-1.2-0.1-1.2-1c0.1-0.9,0-1.7,0-2.6c0-0.8-0.3-1.4-1-1.8c-0.8-0.4-1.5-0.2-2.2,0.3
		c-1.6,1.3-3.2,2.5-4.7,3.8c-0.6,0.5-1.2,0.7-2,0.5c-15.5-3.8-25.6-13.3-30.3-28.5c-0.7-2.3-1.1-4.7-1.3-7.2
		c-0.1-1.7-0.1-1.7,1.5-1.7c0.7,0,1.3,0,2,0c0.8,0,1.4-0.3,1.8-1.1c0.4-0.8,0.2-1.4-0.3-2.1c-1.3-1.6-2.6-3.3-4-4.9
		c-0.5-0.5-0.5-1-0.4-1.7C27.7,39.2,41.1,26.4,57.5,24c1.1-0.2,2.1-0.2,3.2-0.4c0.7-0.1,1.1,0.1,1,0.9c-0.1,0.8,0,1.7,0,2.5
		c0,0.9,0.2,1.6,1.1,2.1c0.9,0.4,1.6,0.1,2.3-0.4c1.5-1.3,3.1-2.5,4.6-3.8c0.7-0.6,1.3-0.7,2.1-0.5C83.9,27.2,93,34,98.9,45
		c2.6,4.7,4,9.9,4.5,15.2C103.5,61.7,103.5,61.7,101.9,61.7z M48.4,116c-21.1-6.8-34-21.1-38.7-42.8c-0.6-2.9-0.8-6-0.9-9
		c0-1.9-0.4-2.4-2.5-2.8c3-3.1,5.9-6.1,8.8-9.1c0.3-0.3,0.5-0.4,0.9,0c2.4,3,4.9,6,7.3,9c-0.2,0.1-0.2,0.2-0.3,0.2
		c-3,0.2-3.2,0.5-3.1,3.5c0.6,18.6,13.5,35.2,31.4,40.4c0.4,0.1,0.8,0.2,1.4,0.4c-1.5,1.2-2.9,2.3-4.2,3.4c-1.7,1.4-1.8,2.3-0.2,3.8
		c1.2,1.1,2.3,2.2,3.5,3.4c0,0,0,0.2,0.1,0.3C50.6,116.8,49.5,116.4,48.4,116z"/>
	<path class="st1" d="M90,58.2c-0.7-0.1-1.5-0.3-2.2-0.3c-0.7,0-1-0.4-1.2-1c-0.4-1.7-1-3.2-1.9-4.7c-0.5-0.9-0.4-1.4,0.2-2.2
		c0.8-1,1.8-2,1.9-3.4c0.3-2.6-3.7-6.7-6.4-6.4c-1.1,0.1-2,0.8-2.8,1.5c-1.1,1-2.1,1.4-3.4,0.3c-0.4-0.3-0.9-0.5-1.3-0.6
		c-1.2-0.4-2.6-0.5-3.4-1.3c-0.9-0.8-0.5-2.4-0.8-3.7c-0.4-1.6-1.6-2.6-3.3-2.7c-1.2,0-2.5,0-3.7,0c-1.7,0.1-3,1.2-3.4,2.9
		c-0.1,0.6-0.3,1.2-0.3,1.8c0,1.2-0.4,2-1.8,2.2c-0.7,0.1-1.3,0.4-2,0.7c-1,0.5-2.1,1.4-3.1,1.4c-1.1,0-1.9-1.3-2.9-1.9
		c-1.6-1-3.2-0.9-4.5,0.4c-0.9,0.8-1.7,1.7-2.5,2.5c-1.2,1.3-1.3,2.9-0.3,4.4c0.5,0.8,1,1.5,1.6,2.2c0.5,0.5,0.4,1,0.1,1.5
		c-0.8,1.3-1.5,2.6-1.8,4.1c-0.3,1.6-1.2,2-2.6,2.1c-0.9,0-1.9,0.2-2.7,0.7c-2.6,1.6-2.5,8,0,9.5c0.8,0.5,1.8,0.6,2.7,0.7
		c1.4,0.1,2.4,0.4,2.5,2c0,0.6,0.3,1.2,0.6,1.7c1.6,2.2,1.5,4.2-0.5,6.2c-1.2,1.2-0.9,3,0.3,4.3c0.8,0.9,1.7,1.8,2.6,2.6
		c1.4,1.2,3,1.3,4.5,0.3c0.7-0.5,1.4-1,2.1-1.5c0.5-0.4,0.9-0.5,1.5-0.1c1.5,0.9,3,1.6,4.7,2c1,0.2,1.4,0.7,1.4,1.6
		c0.4,4.6,1.7,5.4,6,5.2c0.8,0,1.6,0.1,2.3-0.1c1.9-0.6,2.5-2.1,2.6-3.9c0.1-1.6,0.5-2.8,2.4-3c0.5,0,1.1-0.3,1.5-0.6
		c2.2-1.6,4-1.4,6,0.5c1.3,1.3,3.2,1,4.6-0.3c0.6-0.5,1.1-1.1,1.7-1.7c2.2-2.3,2.4-3.7,0.5-6.1c-1.1-1.4-1.6-2.6-0.4-4.1
		c0.3-0.3,0.5-0.8,0.6-1.2c0.4-2.8,1.9-4,4.8-4c1.6,0,2.6-1.4,2.8-3c0.1-0.7,0-1.4,0-2.1h0.1c0-0.5,0-0.9,0-1.4
		C93.3,59.8,92.4,58.6,90,58.2z M87.6,65.4c-3.8,0.6-3.6,0.1-4.6,3.9c-0.4,1.8-1.3,3.5-2.3,5c-0.9,1.5-0.9,1.9,0.1,3.3
		c0.3,0.5,0.7,0.9,1,1.4c1.3,1.8,1.2,2.4-0.6,3.6c-0.4,0.3-0.7,0.1-1-0.1c-0.9-0.7-1.9-1.3-2.8-2.1c-0.9-0.7-1.8-0.7-2.7-0.1
		c-2.2,1.5-4.6,2.5-7.2,3c-1.1,0.2-1.7,0.9-1.8,2c-0.1,1.1-0.4,2.2-0.5,3.3c-0.1,0.7-0.4,0.9-1,0.9c-2.2,0-2.4,0.1-2.5-2.1
		c-0.1-2.8-1.3-4.3-4.1-4.7c-1.9-0.3-3.6-1.3-5.1-2.4c-1-0.7-2-0.7-2.9,0.1c-0.8,0.7-1.7,1.3-2.6,1.9c-0.6,0.5-0.9,0.4-1.4-0.1
		c-1.6-1.6-1.7-1.7-0.2-3.4c1.7-1.9,2.2-3.6,0.4-5.9c-1.2-1.6-1.7-3.6-2.1-5.5c-0.2-1.2-0.9-1.9-2.1-2c-0.9-0.1-1.8-0.3-2.7-0.4
		c-0.5-0.1-1.3,0.2-1.3-0.5c-0.1-0.9-0.2-1.8,0.1-2.7c0-0.2,0.5-0.2,0.8-0.3c1.1-0.2,2.3-0.4,3.4-0.5c1-0.1,1.6-0.7,1.8-1.7
		c0.5-2.6,1.5-5.1,3-7.3c0.6-0.9,0.6-1.8-0.1-2.6c-0.7-0.9-1.3-1.9-2.1-2.8c-0.4-0.5-0.4-0.9,0.1-1.3c0.5-0.5,1-1.1,1.4-1.7
		c0.5,0.3,0.7,0.4,0.9,0.6c0.9,0.7,1.9,1.4,2.8,2.1c0.8,0.6,1.7,0.6,2.5,0.1c2.2-1.5,4.6-2.5,7.3-3c1-0.2,1.7-0.8,1.8-1.9
		c0.1-1.1,0.3-2.2,0.5-3.3c0.1-0.7,0.3-1,1.1-1c2.3,0,2.3,0,2.6,2.2c0,0.1,0,0.2,0,0.2c0.5,3,0,3.3,3.6,4.1c2,0.4,3.8,1.3,5.5,2.5
		c1.1,0.7,2,0.8,3-0.1c0.5-0.4,1.1-0.8,1.6-1.2c1.8-1.3,2.3-1.2,3.6,0.6c0.3,0.5,0,0.7-0.2,0.9c-0.7,0.9-1.3,1.9-2.1,2.8
		c-0.7,0.9-0.7,1.8-0.1,2.7c1.4,2.2,2.4,4.5,2.9,7c0.2,1.2,0.9,1.9,2.2,2c1,0.1,2,0.3,3.1,0.4c0.7,0.1,1,0.3,1,1.1
		C89.7,65.1,89.8,65.1,87.6,65.4z"/>
	<path class="st1" d="M63,50.5c-7.2,0.5-12.5,6-12.5,13c0,1.5,0.2,3,0.8,4.5c0.4,1,1.2,1.4,2.2,1.2c1-0.2,1.5-1.1,1.3-2.2
		c-0.1-0.4-0.2-0.9-0.3-1.3c-1.6-6.7,4.6-12.9,11.3-11.1c3.7,1,6,3.4,6.8,7.1c0.8,3.8-0.4,7-3.5,9.3c-3.1,2.4-6.5,2.6-10,0.8
		c-1.4-0.7-2.5-0.5-3,0.5c-0.5,1-0.1,2.1,1.3,2.8c2.7,1.5,5.6,1.9,8.6,1.3c6.6-1.3,11.4-7.7,10.5-14.1C75.6,55.1,69.7,50,63,50.5z"
		/>
</g>
</svg>
