<?xml version="1.0" encoding="utf-8"?>
<!-- Generator: Adobe Illustrator 23.0.2, SVG Export Plug-In . SVG Version: 6.00 Build 0)  -->
<svg version="1.1" id="Layer_1" xmlns="http://www.w3.org/2000/svg" xmlns:xlink="http://www.w3.org/1999/xlink" x="0px" y="0px"
	 width="141.5px" height="127px" viewBox="0 0 141.5 127" style="enable-background:new 0 0 141.5 127;" xml:space="preserve">
<style type="text/css">
	.st0{fill:#575757;}
	.st1{fill:#A2CD3A;}
</style>
<g>
	<g>
		<path class="st0" d="M70.8,126.6c-0.4,0-0.8-0.1-1.2-0.3c-3-2-18.6-12.5-34.6-27.1C11.8,77.8,0,58.9,0,42.9
			c0-10.5,4.2-21.2,11.4-29.4C19.1,4.8,29.1,0,39.5,0c12,0,23.1,5.1,30.4,14.1l1.8,0C79.2,5.1,90.2,0,102,0c10.3,0,20.3,4.8,28,13.4
			c7.3,8.2,11.5,19,11.5,29.5c0,16.2-11.8,35.2-35,56.5c-15.8,14.5-31.5,24.9-34.5,26.9C71.6,126.5,71.2,126.6,70.8,126.6z
			 M70.1,121.3l1.3,0c5.2-3.5,18.7-12.9,32.2-25.3c21.9-20.1,33.5-38.5,33.5-53.1c0-20.1-16.7-38.4-35.1-38.4
			c-12,0-23,5.9-29.4,15.8c-0.4,0.6-1.1,1-1.9,1c-0.8,0-1.5-0.4-1.9-1C62.7,10.3,51.7,4.4,39.5,4.4C19.4,4.4,4.4,24.7,4.4,42.9
			c0,14.5,11.6,32.8,33.6,53"/>
	</g>
	<g>
		<g>
			<path class="st0" d="M71.4,127l-25.2-20c-0.3,0.2-0.7,0.4-1,0.4c-0.4,0-0.8-0.2-1.2-0.5l-6.5-6.5c-0.6-0.5-0.7-1.5-0.2-2.2
				l5.3-6.9c-1.9-3-3.3-6.4-4.3-10.3l-8.6-1.1c-0.9-0.2-1.5-0.9-1.5-1.7V69c0-0.8,0.6-1.5,1.5-1.7l8.6-1.1c0.9-3.5,2.3-7,4.3-10.3
				l-5.3-6.9c-0.5-0.7-0.5-1.6,0.2-2.2l6.5-6.5c0.2-0.3,0.7-0.5,1.1-0.5c0.4,0,0.8,0.1,1.1,0.4l6.8,5.3c3-1.9,6.4-3.3,10.3-4.3
				l1.1-8.6c0.2-0.9,0.9-1.5,1.7-1.5h9.2c0.8,0,1.5,0.6,1.7,1.5l1.1,8.6c3.5,0.9,7,2.3,10.3,4.3l6.9-5.3c0.3-0.2,0.7-0.4,1-0.4
				c0.4,0,0.8,0.2,1.2,0.5l6.4,6.4c0.6,0.6,0.7,1.6,0.2,2.4l-5.2,6.8c1.9,3,3.3,6.4,4.3,10.3l8.6,1.1c0.8,0.2,1.5,0.8,1.6,1.6l0,9.2
				c0,0.8-0.6,1.5-1.5,1.7l-8.6,1.1c-0.9,3.5-2.3,7-4.3,10.3l5.3,6.9c0.5,0.7,0.5,1.6-0.2,2.2l-6.4,6.4c-0.3,0.3-0.8,0.5-1.3,0.5
				c-0.3,0-0.8-0.2-1.1-0.3l-6.8,6 M87.6,109.5c0.3-0.2,0.7-0.4,1-0.4c0.4,0,0.7,0.1,1,0.4l6.6-6.1l4.9-3.7l-5.7-7.4
				c-0.4-0.7-0.4-1.3,0-2c2.4-3.6,3.9-7.3,4.7-11.2c0.2-0.7,0.9-1.2,1.5-1.4l8.5-1.1v-6.1l-8.3-1.1c-0.8-0.2-1.3-0.6-1.5-1.3
				c-0.7-3.9-2.3-7.7-4.6-11.2c-0.5-0.7-0.5-1.5,0.1-2.1l5.1-6.5l-4.4-4.4L89.6,49c-0.4,0.2-0.7,0.3-1,0.3c-0.3,0-0.6-0.1-1-0.2
				c-3.6-2.4-7.3-3.9-11.2-4.7c-0.7-0.2-1.2-0.9-1.4-1.5L74,34.6h-6.3l-1.2,8.2c-0.2,0.8-0.6,1.3-1.3,1.5c-4,0.8-7.6,2.2-11.1,4.5
				c-0.2,0.2-0.7,0.3-1,0.3c-0.4,0-0.8,0-1.2-0.4l-6.5-5l-4.4,4.4l5.2,6.6c0.4,0.7,0.4,1.3,0,2c-2.4,3.6-3.9,7.3-4.7,11.2
				c-0.2,0.7-0.9,1.2-1.5,1.3l-8.3,1.1v6.3l8.2,1.2c0.8,0.2,1.3,0.6,1.5,1.3c0.8,4,2.2,7.6,4.5,11.1c0.5,0.6,0.5,1.5,0,2.1l-5,6.6
				l4.4,4.4l24.9,20.1c0.4-0.2,0.7-0.3,1-0.3s0.6,0.1,1,0.2"/>
		</g>
		<g>
			<path class="st1" d="M70.8,99.5c-14.3,0-25.9-11.6-25.9-25.9c0-14.3,11.6-25.9,25.9-25.9c14.3,0,25.9,11.6,25.9,25.9
				C96.6,87.9,85,99.5,70.8,99.5z M70.8,51.4c-12.2,0-22.2,10-22.2,22.2c0,12.2,10,22.2,22.2,22.2C83,95.8,93,85.8,93,73.6
				C93,61.3,83,51.4,70.8,51.4z"/>
		</g>
		<g>
			<path class="st1" d="M59.4,83.3c-1,0-1.8-0.5-2.3-1.3c-0.5-0.8-0.6-1.8-0.1-2.7l11.3-21.6c0.5-1,1.4-1.5,2.4-1.5
				c1,0,1.9,0.6,2.4,1.5l11.5,21.6c0.4,0.8,0.4,1.8-0.1,2.7c-0.4,0.8-1.3,1.3-2.3,1.3L59.4,83.3z M81.8,80.4l-11-21l-11,21H81.8z"/>
		</g>
		<g>
			<path class="st1" d="M70.8,78.3c-0.4,0-0.8-0.2-1.1-0.5c-0.3-0.3-0.5-0.7-0.5-1.1c0-0.4,0.2-0.8,0.5-1.1c0.3-0.3,0.7-0.5,1.1-0.5
				c0.4,0,0.8,0.2,1.1,0.5c0.3,0.3,0.5,0.7,0.5,1.1c0,0.4-0.2,0.8-0.5,1.1C71.6,78.1,71.2,78.3,70.8,78.3z"/>
		</g>
		<g>
			<polygon class="st1" points="69.9,73.9 69.7,73.7 69.2,68.4 69.2,66.5 69.5,66.3 72.1,66.3 72.3,66.5 72.3,68.4 71.9,73.7 
				71.6,73.9 			"/>
		</g>
	</g>
</g>
</svg>
