<?xml version="1.0" encoding="utf-8"?>
<!-- Generator: Adobe Illustrator 23.0.2, SVG Export Plug-In . SVG Version: 6.00 Build 0)  -->
<svg version="1.1" id="Layer_1" xmlns="http://www.w3.org/2000/svg" xmlns:xlink="http://www.w3.org/1999/xlink" x="0px" y="0px"
	 width="22px" height="22px" viewBox="0 0 22 22" style="enable-background:new 0 0 22 22;" xml:space="preserve">
<style type="text/css">
	.st0{fill:#0077B7;}
	.st1{fill:#FFFFFF;}
</style>
<g>
	<path class="st0" d="M20,0H2C0.9,0,0,0.9,0,2v18c0,1.1,0.9,2,2,2h18c1.1,0,2-0.9,2-2V2C22,0.9,21.1,0,20,0z"/>
	<path class="st1" d="M6.8,19c0,0.3-0.3,0.6-0.6,0.6H3.8c-0.3,0-0.6-0.3-0.6-0.6V8.7c0-0.3,0.3-0.6,0.6-0.6h2.5
		c0.3,0,0.6,0.3,0.6,0.6V19z"/>
	<circle class="st1" cx="5" cy="4.8" r="2.3"/>
	<path class="st1" d="M19.7,19c0,0.3-0.2,0.5-0.5,0.5h-2.6c-0.3,0-0.5-0.2-0.5-0.5v-4.8c0-0.7,0.2-3.2-1.9-3.2c-1.6,0-2,1.7-2,2.4
		V19c0,0.3-0.2,0.5-0.5,0.5H9c-0.3,0-0.5-0.2-0.5-0.5V8.6c0-0.3,0.2-0.5,0.5-0.5h2.6c0.3,0,0.5,0.2,0.5,0.5v0.9
		c0.6-0.9,1.5-1.6,3.4-1.6c4.2,0,4.2,4,4.2,6.1L19.7,19L19.7,19z"/>
</g>
</svg>
