<?xml version="1.0" encoding="utf-8"?>
<!-- Generator: Adobe Illustrator 23.0.2, SVG Export Plug-In . SVG Version: 6.00 Build 0)  -->
<svg version="1.1" xmlns="http://www.w3.org/2000/svg" xmlns:xlink="http://www.w3.org/1999/xlink" x="0px" y="0px" width="153.2px"
	 height="129px" viewBox="0 0 153.2 129" style="enable-background:new 0 0 153.2 129;" xml:space="preserve">
<style type="text/css">
	.st0{fill:#585858;}
	.st1{fill:#ADCB4A;}
</style>
<g id="BACKGROUND">
</g>
<g id="OBJECTS">
	<g>
		<path class="st0" d="M153.2,27.5L125.7,0L89.2,36.5l0,0l-1.4,1.4l-8.5,1.8c-0.5,0.1-1,0.2-1.4,0.3c-2.8,0.6-5.8,1.2-8.7,2.2
			l-5.1-2.4l-1.6-1.6l1.5-1.5L27.5,0.2L0,27.7l36.5,36.5l1.5-1.5l1.6,1.6l2.2,8.9c0.9,3.7,2.3,7.1,4.2,10.3l-2.3,2.3
			c-1.4,1.4-2.1,3.1-2.2,5c0,1.9,0.7,3.7,2,5c1.2,1.2,2.8,1.9,4.4,2c-0.3,0.8-0.5,1.6-0.5,2.4c0,1.9,0.7,3.7,2,5
			c1.3,1.4,3.1,2,4.9,2c0.6,0,1.3-0.1,1.9-0.3c0,1.9,0.7,3.6,2,4.9c1.3,1.3,3.1,2,4.9,2c0.7,0,1.4-0.1,2.1-0.3
			c0.1,1.6,0.8,3.1,2,4.4c1.3,1.4,3.1,2,4.9,2c1.9,0,3.7-0.7,5.2-2.2l1.1-1.1c0.7,0.3,1.5,0.4,2.3,0.4c1.8,0,3.6-0.7,4.9-2.1
			c0.9-0.8,1.4-1.9,1.8-2.9l0.6,0.6c1.4,1.4,3.2,2.1,5,2.1c1.8,0,3.6-0.7,4.9-2c0.9-0.8,1.5-1.9,1.8-3c1.2,0.9,2.7,1.4,4.1,1.4
			c1.8,0,3.6-0.7,5-2.1c1.3-1.3,2.1-3.1,2.1-5c0-1.9-0.7-3.7-2.1-5l-0.3-0.3c1.1-0.3,2.1-1,2.9-1.8c1.3-1.3,2-3.1,2.1-4.9
			c0-1.9-0.7-3.6-2-4.9l-3-2.9c1.7-3,3-6.2,3.9-9.6l2.4-9.1l1.7-1.7l0,0L153.2,27.5z M102.2,28.8l5.5,5.5l2.6-2.6l-5.5-5.5
			l20.9-20.9l22.2,22.2L127,48.4l-12.6-12.6l-2.6,2.6L124.4,51l-7.7,7.7L94.5,36.5L102.2,28.8z M28.8,51.2l5.5-5.5l-2.6-2.6
			l-5.5,5.5L5.2,27.7L27.5,5.4l20.9,20.9L35.8,39l2.6,2.6L51,29l7.7,7.7L36.5,58.9L28.8,51.2z M45.2,90.9c0-0.9,0.4-1.8,1.1-2.5
			l1.7-1.7c1.2,1.6,2.5,3.1,3.9,4.5l0.5,0.5L51,93.1c-1.4,1.4-3.5,1.4-4.8,0.1C45.6,92.7,45.2,91.8,45.2,90.9z M52.1,102.7
			c-0.6-0.6-0.9-1.4-0.9-2.3c0-0.9,0.4-1.8,1.1-2.5l3.1-3.1l4.8,4.8l-3.2,2.9l-0.1,0.1C55.6,104,53.4,104,52.1,102.7z M60.9,109.4
			c-0.6-0.6-0.9-1.5-0.9-2.3c0-0.9,0.4-1.8,1.1-2.5l2.1-2.1l4.7,4.7l-2.1,2.1C64.4,110.6,62.2,110.7,60.9,109.4z M69.9,115.4
			c-1.3-1.3-1.2-3.5,0.1-4.8l0.6-0.6l4.7,4.7l-0.6,0.6C73.4,116.6,71.2,116.7,69.9,115.4z M109.9,92.2c0,0.9-0.4,1.7-1,2.3
			c-0.6,0.6-1.5,1-2.3,1c-0.8,0-1.6-0.3-2.2-0.9L85,75.3l-2.6,2.6l1.9,1.9l0,0l7.8,7.8l9.7,9.7l0,0l4.5,4.5c0.6,0.6,1,1.5,1,2.3
			c0,0.9-0.3,1.7-1,2.3c-1.3,1.3-3.4,1.3-4.7,0l-3.6-3.6l0,0L80.1,84.9l0,0l-1.5-1.5L76,86.1l19.4,19.4c0.6,0.6,1,1.5,1,2.4
			c0,0.9-0.4,1.7-1,2.3c-1.3,1.3-3.4,1.3-4.7,0l-5-5l0,0L72.2,91.7l0,0l-1.5-1.5l-2.6,2.6l4.5,4.5l10.5,10.5c1.3,1.3,1.3,3.4,0,4.7
			c-1.3,1.3-3.4,1.3-4.7,0L54.5,88.6c-4.5-4.5-7.6-10.1-9.2-16.3l-2.4-9.9l-2.3-2.3l19.3-19.3l2.1,2.1l2.8,1.3c-1.5,0.8-2.8,1.8-4,3
			L50.5,57.4c-1.3,1.3-2,3-1.9,4.9c0.1,1.8,0.8,3.5,2.1,4.9c1.4,1.4,3.2,2.1,5.1,2.1c1.7,0,3.4-0.6,4.7-1.9l6.4-6.4
			c2.4,1,8.1,2.8,15.2,2l27.1,27C109.7,90.5,110,91.3,109.9,92.2z M111.6,63.8L109,73.9c-0.7,2.7-1.7,5.3-3,7.8L86.4,62.1
			c1.5-0.4,3-0.9,4.6-1.6l-1.5-3.4c-11.7,5.1-22.2,0-22.3,0L66,56.5l-8.2,8.2c-1.2,1.2-3.2,1.1-4.5-0.2c-0.6-0.6-1-1.5-1-2.3
			c0-0.8,0.3-1.6,0.8-2.2l10.2-10.2c3.7-3.7,9.6-5,15.3-6.2c0.5-0.1,1-0.2,1.5-0.3l9.6-2.1l2.2-2.2l22.2,22.2L111.6,63.8z"/>
		<g>
			<path class="st1" d="M54.1,19.9l-1.5-3.4c2.2-1,4.5-1.9,6.9-2.6l1.1,3.6C58.4,18.2,56.2,19,54.1,19.9z M98.3,19.6
				c-2.1-0.9-4.3-1.7-6.5-2.3l1-3.6c2.3,0.7,4.7,1.5,6.9,2.5L98.3,19.6z M66.4,16.1l-0.7-3.6c2.4-0.4,4.8-0.7,7.3-0.9l0.2,3.7
				C70.9,15.4,68.6,15.7,66.4,16.1z M86,16c-2.3-0.4-4.5-0.6-6.8-0.7l0.2-3.7c2.4,0.1,4.9,0.4,7.3,0.8L86,16z"/>
			<path class="st1" d="M76.7,129c-1.6-0.1-3.3-0.2-4.9-0.3c-0.8-0.1-1.6-0.2-2.4-0.3l0.5-3.7c0.7,0.1,1.5,0.2,2.2,0.3
				c1.5,0.2,3.1,0.3,4.6,0.3L76.7,129z M83.1,128.8l-0.3-3.7c2.3-0.2,4.6-0.5,6.8-1l0.8,3.6C88,128.3,85.5,128.6,83.1,128.8z
				 M63.2,127.1c-2.4-0.6-4.7-1.4-7-2.3l1.4-3.4c2.1,0.8,4.3,1.6,6.5,2.2L63.2,127.1z M96.5,126.1l-1.2-3.5c2.2-0.7,4.3-1.6,6.4-2.5
				l1.6,3.3C101.1,124.4,98.8,125.3,96.5,126.1z M50.4,122.1c-2.1-1.1-4.2-2.5-6.2-3.9l2.1-3c1.9,1.3,3.8,2.5,5.8,3.6L50.4,122.1z
				 M108.9,120.3l-1.9-3.2c1.9-1.2,3.8-2.5,5.6-4l2.3,2.9C113,117.6,111,119,108.9,120.3z M39.2,114.2c-1.8-1.6-3.6-3.4-5.2-5.2
				l2.8-2.5c1.5,1.7,3.1,3.4,4.8,4.9L39.2,114.2z M119.7,111.8l-2.6-2.6c1.6-1.6,3.1-3.3,4.5-5.1l2.9,2.3
				C123,108.3,121.4,110.1,119.7,111.8z M30.1,104c-1.4-2-2.7-4.1-3.8-6.3l3.3-1.7c1.1,2,2.3,4,3.6,5.9L30.1,104z M128.2,101.1
				l-3.1-1.9c1.2-1.9,2.3-4,3.2-6.1l3.4,1.5C130.6,96.8,129.5,99,128.2,101.1z M23.6,92c-0.9-2.3-1.7-4.6-2.3-7l3.6-0.9
				c0.6,2.2,1.3,4.4,2.1,6.5L23.6,92z M134,88.7l-3.5-1.2c0.7-2.2,1.3-4.4,1.7-6.6l3.6,0.7C135.3,84,134.7,86.4,134,88.7z
				 M20.1,78.7c-0.3-2.4-0.5-4.9-0.6-7.3l3.7-0.1c0,2.3,0.2,4.6,0.6,6.8L20.1,78.7z M136.7,75.3L133,75c0.1-1.6,0.2-3.2,0.2-4.8
				c0-0.7,0-1.4,0-2.1l3.7-0.1c0,0.7,0,1.5,0,2.3C136.9,71.9,136.8,73.6,136.7,75.3z M23.4,65.4l-3.7-0.3c0-0.4,0.1-0.8,0.1-1.2
				c0.2-2.1,0.5-4.1,1-6.1l3.6,0.8c-0.4,1.9-0.7,3.8-0.9,5.7C23.4,64.7,23.4,65,23.4,65.4z M132.6,62.1c-0.3-2.3-0.8-4.5-1.4-6.7
				l3.6-1c0.7,2.3,1.2,4.8,1.5,7.2L132.6,62.1z"/>
		</g>
	</g>
</g>
</svg>
