<?xml version="1.0" encoding="utf-8"?>
<!-- Generator: Adobe Illustrator 23.0.2, SVG Export Plug-In . SVG Version: 6.00 Build 0)  -->
<svg version="1.1" id="Layer_1" xmlns="http://www.w3.org/2000/svg" xmlns:xlink="http://www.w3.org/1999/xlink" x="0px" y="0px"
	 width="80px" height="80px" viewBox="0 0 80 80" style="enable-background:new 0 0 80 80;" xml:space="preserve">
<style type="text/css">
	.st0{fill:#FFFFFF;}
</style>
<path class="st0" d="M-45.4,64.5c0,0.3,0,0.4,0,0.5C-45.4,64.9-45.4,64.8-45.4,64.5z"/>
<path class="st0" d="M70.3,47.6c-3.2,0-6.1,1.6-7.9,4l-11.6-6.6c0.7-1.5,1.1-3.2,1.1-4.9c0-1.8-0.4-3.4-1.1-4.9l11.6-6.6
	c1.8,2.4,4.6,4,7.9,4c5.4,0,9.7-4.4,9.7-9.7S75.6,13,70.3,13c-5.4,0-9.7,4.4-9.7,9.7c0,1.4,0.3,2.7,0.8,3.9l-11.6,6.6
	c-2-2.8-5.1-4.7-8.6-5v-8.8c4.9-0.5,8.6-4.7,8.6-9.7C49.7,4.4,45.4,0,40,0c-5.4,0-9.7,4.4-9.7,9.7c0,5,3.8,9.1,8.6,9.7v8.8
	c-3.6,0.3-6.7,2.2-8.7,5l-11.6-6.6c0.5-1.2,0.8-2.5,0.8-3.9c0-5.4-4.4-9.7-9.7-9.7C4.4,13,0,17.3,0,22.7s4.4,9.7,9.7,9.7
	c3.2,0,6.1-1.6,7.8-4l11.6,6.6c-0.7,1.5-1.1,3.2-1.1,4.9c0,1.8,0.4,3.4,1.1,4.9l-11.6,6.6c-1.8-2.4-4.6-4-7.8-4
	c-5.4,0-9.7,4.4-9.7,9.7S4.4,67,9.7,67c5.4,0,9.7-4.4,9.7-9.7c0-1.4-0.3-2.7-0.8-3.9l11.6-6.6c2,2.8,5.1,4.7,8.7,5v8.8
	c-4.9,0.5-8.6,4.7-8.6,9.7c0,5.4,4.4,9.7,9.7,9.7c5.4,0,9.7-4.4,9.7-9.7c0-5-3.8-9.1-8.6-9.7v-8.8c3.6-0.3,6.7-2.2,8.6-5l11.6,6.6
	c-0.5,1.2-0.8,2.5-0.8,3.9c0,5.4,4.4,9.7,9.7,9.7c5.4,0,9.7-4.4,9.7-9.7S75.6,47.6,70.3,47.6z"/>
</svg>
