<?xml version="1.0" encoding="utf-8"?>
<!-- Generator: Adobe Illustrator 16.0.0, SVG Export Plug-In . SVG Version: 6.00 Build 0)  -->
<!DOCTYPE svg PUBLIC "-//W3C//DTD SVG 1.1//EN" "http://www.w3.org/Graphics/SVG/1.1/DTD/svg11.dtd">
<svg version="1.1" id="Layer_1" xmlns="http://www.w3.org/2000/svg" xmlns:xlink="http://www.w3.org/1999/xlink" x="0px" y="0px"
	 width="20px" height="19.531px" viewBox="0 0 20 19.531" enable-background="new 0 0 20 19.531" xml:space="preserve">
<g>
	<g>
		<path fill="#848484" d="M2.269,2.272c-3.025,3.025-3.025,7.952,0,10.977c2.801,2.775,7.176,3,10.227,0.651l1.374,1.374
			l0.052,0.475l3.625,3.602c0.374,0.374,1.225,0.1,1.625-0.226c0.025-0.024,0.05-0.05,0.074-0.05V19.05l0,0l0.276-0.251
			c0.35-0.349,0.699-1.25,0.299-1.675l-3.551-3.602l-0.024-0.049l-0.5-0.075l-1.475-1.476c1.925-3,1.574-7.051-1.051-9.676
			C10.195-0.753,5.294-0.753,2.269,2.272z M11.47,4.022c2.051,2.05,2.051,5.401,0,7.451c-2.05,2.05-5.4,2.05-7.45,0
			c-2.05-2.05-2.05-5.375,0-7.451C6.069,1.972,9.42,1.972,11.47,4.022z"/>
		<g>
			<path fill="#848484" d="M10.101,7.952L10.005,7.33c-0.19-1.241-1.39-2.141-2.688-1.925L6.69,5.5L6.454,3.965l0.623-0.096
				c2.146-0.347,4.125,1.123,4.463,3.222l0.099,0.625L10.101,7.952z"/>
		</g>
	</g>
</g>
</svg>
