<?xml version="1.0" encoding="iso-8859-1"?>
<!-- Generator: Adobe Illustrator 16.0.0, SVG Export Plug-In . SVG Version: 6.00 Build 0)  -->
<!DOCTYPE svg PUBLIC "-//W3C//DTD SVG 1.1//EN" "http://www.w3.org/Graphics/SVG/1.1/DTD/svg11.dtd">
<svg version="1.1" id="Layer_1" xmlns="http://www.w3.org/2000/svg" xmlns:xlink="http://www.w3.org/1999/xlink" x="0px" y="0px"
	 width="26px" height="26px" viewBox="0 0 26 26" style="enable-background:new 0 0 26 26;" xml:space="preserve">
	<defs>
		<style>
		<![CDATA[
			.sprite { display: none; }
			.sprite:target { display: inline;			    			
				x: 0px;
				y: 0px;
			}
		]]>
		</style>
	</defs> 
	<g id="facebook" class="sprite">
		<path style="fill:#376AB3;" d="M13,0C5.82,0,0,5.82,0,13s5.82,13,13,13c7.18,0,13-5.82,13-13S20.18,0,13,0z
			 M17.96,7.62l-1.798,0.001c-1.411,0-1.684,0.67-1.684,1.652v2.168h3.361l-0.001,3.395h-3.36v6.713h-3.507v-6.713H8.04v-3.395h2.932
			V8.938c0-2.906,1.775-4.488,4.367-4.488l2.621,0.004V7.62L17.96,7.62z"/>
	</g>		
	<g id="twitter" class="sprite">
		<path style="fill:#28ACDE;" d="M13,0C5.82,0,0,5.82,0,13s5.82,13,13,13c7.18,0,13-5.82,13-13S20.18,0,13,0z M19.328,10.3
			c0.005,0.122,0.007,0.246,0.007,0.37c0,4.451-3.387,9.055-9.056,9.055c-1.732,0-3.42-0.494-4.879-1.43
			c-0.03-0.02-0.043-0.057-0.031-0.092c0.013-0.033,0.047-0.055,0.082-0.049c0.245,0.029,0.495,0.043,0.743,0.043
			c1.349,0,2.625-0.418,3.704-1.207c-1.294-0.109-2.406-0.986-2.806-2.234c-0.009-0.025-0.003-0.055,0.016-0.074
			c0.018-0.021,0.046-0.029,0.072-0.024c0.358,0.067,0.723,0.071,1.074,0.016c-1.335-0.414-2.272-1.664-2.272-3.088v-0.041
			c0.001-0.026,0.016-0.053,0.039-0.065c0.023-0.015,0.053-0.015,0.076,0c0.348,0.192,0.732,0.316,1.128,0.364
			c-0.767-0.61-1.218-1.538-1.218-2.528c0-0.572,0.152-1.135,0.438-1.625C6.458,7.667,6.48,7.652,6.506,7.65
			c0.025-0.002,0.05,0.01,0.066,0.029c1.568,1.924,3.878,3.108,6.347,3.262c-0.041-0.207-0.062-0.42-0.062-0.637
			c0-1.781,1.45-3.231,3.233-3.231c0.875,0,1.723,0.36,2.329,0.989c0.685-0.14,1.337-0.392,1.938-0.748
			C20.385,7.298,20.42,7.3,20.445,7.32c0.023,0.021,0.035,0.055,0.025,0.084c-0.205,0.639-0.603,1.195-1.137,1.598
			c0.503-0.088,0.991-0.236,1.455-0.441c0.031-0.016,0.068-0.006,0.092,0.021c0.021,0.026,0.023,0.063,0.004,0.094
			C20.464,9.305,19.939,9.854,19.328,10.3z"/>
	</g>
	<g id="google" class="sprite"> 
		<g>
			<path style="fill:#E14C33;" d="M13.311,9.396c0-1.304-0.777-3.328-2.275-3.328c-0.471,0-0.975,0.233-1.264,0.597
				c-0.308,0.38-0.396,0.868-0.396,1.34c0,1.211,0.703,3.22,2.256,3.22c0.451,0,0.938-0.217,1.228-0.506
				C13.273,10.301,13.311,9.723,13.311,9.396z"/>
			<path style="fill:#E14C33;" d="M12.094,15.381c-0.152-0.018-0.249-0.018-0.441-0.018c-0.174,0-1.214,0.037-2.022,0.309
				c-0.423,0.154-1.655,0.617-1.655,1.986c0,1.373,1.328,2.357,3.389,2.357c1.85,0,2.83-0.892,2.83-2.084
				C14.193,16.943,13.559,16.424,12.094,15.381z"/>
			<path style="fill:#E14C33;" d="M13,0C5.82,0,0,5.82,0,13s5.82,13,13,13c7.18,0,13-5.82,13-13S20.18,0,13,0z M10.596,21.082
				c-3.052,0-4.523-1.453-4.523-3.014c0-0.76,0.377-1.834,1.619-2.572c1.304-0.801,3.072-0.906,4.02-0.971
				c-0.296-0.379-0.631-0.781-0.631-1.435c0-0.356,0.105-0.567,0.209-0.821c-0.232,0.021-0.463,0.041-0.673,0.041
				c-2.229,0-3.491-1.666-3.491-3.312c0-0.97,0.441-2.045,1.346-2.824c1.199-0.991,2.839-1.26,3.977-1.26h4.145l-1.367,0.858H13.92
				c0.484,0.4,1.492,1.244,1.492,2.848c0,1.561-0.883,2.299-1.766,2.993c-0.273,0.274-0.59,0.569-0.59,1.034
				c0,0.463,0.316,0.716,0.547,0.906l0.758,0.59c0.926,0.777,1.768,1.496,1.768,2.951C16.129,19.08,14.213,21.082,10.596,21.082z
				 M19.674,12.742v2.121h-1.041v-2.121h-2.105v-1.053h2.105V9.581h1.041v2.108h2.115v1.053H19.674z"/>
		</g>
	</g>
	<g id="linkedin" class="sprite">
		<path style="fill:#0778B6;" d="M13,0C5.82,0,0,5.82,0,13s5.82,13,13,13s13-5.82,13-13S20.18,0,13,0z M9.637,19.078H7.113v-8.119
			h2.523V19.078z M8.375,9.85c-0.807,0-1.463-0.656-1.463-1.465c0-0.807,0.656-1.461,1.463-1.461s1.463,0.654,1.463,1.461
			C9.838,9.193,9.182,9.85,8.375,9.85z M19.088,19.078h-2.521v-3.949c0-0.941-0.018-2.152-1.313-2.152
			c-1.313,0-1.514,1.025-1.514,2.084v4.017h-2.52V10.96h2.418v1.108h0.034c0.336-0.639,1.16-1.312,2.388-1.312
			c2.555,0,3.026,1.681,3.026,3.868L19.088,19.078L19.088,19.078z"/>
	</g>
	<g id="pinterest" class="sprite">
		<path style="fill:#CF2329;" d="M13,0C5.82,0,0,5.82,0,12.999C0,20.18,5.82,26,13,26s13-5.82,13-13.001C26,5.82,20.18,0,13,0z
			 M14.197,16.455c-0.963,0-1.867-0.521-2.178-1.111c0,0-0.519,2.053-0.625,2.449c-0.388,1.4-1.521,2.801-1.609,2.916
			c-0.063,0.08-0.199,0.055-0.211-0.051c-0.025-0.18-0.314-1.945,0.025-3.387c0.17-0.724,1.146-4.855,1.146-4.855
			s-0.285-0.568-0.285-1.41c0-1.32,0.767-2.307,1.72-2.307c0.811,0,1.2,0.607,1.2,1.338c0,0.814-0.519,2.033-0.784,3.162
			c-0.224,0.945,0.473,1.717,1.405,1.717c1.688,0,2.824-2.168,2.824-4.738c0-1.953-1.313-3.414-3.707-3.414
			c-2.703,0-4.388,2.016-4.388,4.269c0,0.774,0.229,1.323,0.588,1.745c0.164,0.195,0.188,0.273,0.127,0.496
			c-0.043,0.166-0.139,0.562-0.182,0.718c-0.059,0.225-0.242,0.307-0.447,0.223c-1.241-0.508-1.821-1.871-1.821-3.403
			c0-2.531,2.133-5.566,6.366-5.566c3.402,0,5.642,2.462,5.642,5.105C19.004,13.844,17.061,16.455,14.197,16.455z"/>
	</g>
	<g id="mail" class="sprite">
	<path style="fill:#D83A28;" d="M13,0C5.82,0,0,5.82,0,13c0,7.18,5.82,13,13,13c7.18,0,13-5.82,13-13C26,5.82,20.18,0,13,0z M8,8h10
		c0.289,0,0.557,0.08,0.794,0.21L13,13.281l-5.794-5.07C7.443,8.081,7.711,8,8,8z M6.333,16.333V9.667
		c0-0.327,0.098-0.628,0.26-0.885l4.164,3.642l-4.209,4.711C6.415,16.896,6.333,16.625,6.333,16.333z M18,18H8
		c-0.324,0-0.624-0.096-0.879-0.256l4.263-4.771l1.342,1.174c0.078,0.067,0.176,0.104,0.274,0.104s0.196-0.035,0.274-0.104
		l1.342-1.174l4.263,4.771C18.624,17.904,18.324,18,18,18z M19.667,16.333c0,0.293-0.082,0.563-0.214,0.803l-4.21-4.71l4.165-3.643
		c0.162,0.257,0.259,0.559,0.259,0.885V16.333z"/>
</g>
<g id="skype" class="sprite">
	<path style="fill:#31ABE2;" d="M15.852,13.061c-0.162-0.152-0.367-0.291-0.617-0.416c-0.248-0.123-0.48-0.22-0.697-0.287
		s-0.465-0.133-0.741-0.194l-0.879-0.203c-0.17-0.04-0.294-0.069-0.373-0.089c-0.078-0.02-0.178-0.053-0.297-0.098
		c-0.117-0.045-0.203-0.09-0.254-0.135c-0.05-0.046-0.097-0.104-0.14-0.179c-0.041-0.073-0.063-0.158-0.063-0.254
		c0-0.435,0.405-0.651,1.219-0.651c0.243,0,0.46,0.034,0.652,0.103c0.192,0.067,0.345,0.147,0.457,0.241
		c0.112,0.093,0.221,0.188,0.321,0.283c0.102,0.094,0.215,0.178,0.338,0.245c0.125,0.068,0.26,0.103,0.406,0.103
		c0.266,0,0.479-0.09,0.641-0.271c0.16-0.181,0.24-0.396,0.24-0.65c0-0.312-0.158-0.592-0.475-0.842
		c-0.314-0.252-0.716-0.442-1.201-0.572c-0.484-0.129-0.998-0.194-1.541-0.194c-0.383,0-0.757,0.044-1.117,0.132
		c-0.359,0.087-0.697,0.221-1.01,0.398c-0.314,0.177-0.564,0.422-0.755,0.736c-0.188,0.313-0.282,0.674-0.282,1.086
		c0,0.344,0.053,0.646,0.16,0.901c0.106,0.259,0.266,0.472,0.475,0.64c0.209,0.17,0.434,0.306,0.677,0.412
		c0.243,0.103,0.532,0.194,0.872,0.273l1.236,0.305c0.508,0.125,0.822,0.227,0.946,0.305c0.181,0.113,0.271,0.283,0.271,0.508
		c0,0.222-0.111,0.402-0.338,0.546c-0.226,0.146-0.521,0.217-0.889,0.217c-0.289,0-0.546-0.045-0.773-0.135
		c-0.229-0.091-0.412-0.199-0.551-0.326c-0.14-0.127-0.267-0.254-0.386-0.381c-0.118-0.127-0.248-0.236-0.39-0.326
		c-0.143-0.09-0.294-0.136-0.456-0.136c-0.283,0-0.496,0.085-0.642,0.255c-0.143,0.168-0.215,0.381-0.215,0.635
		c0,0.521,0.344,0.963,1.033,1.332c0.688,0.369,1.508,0.556,2.462,0.556c0.411,0,0.808-0.054,1.187-0.156
		c0.378-0.105,0.724-0.256,1.035-0.453c0.313-0.197,0.563-0.461,0.75-0.791c0.186-0.33,0.278-0.701,0.278-1.113
		c0-0.281-0.054-0.542-0.165-0.775C16.152,13.404,16.018,13.213,15.852,13.061z"/>
	<path style="fill:#31ABE2;" d="M13,0C5.82,0,0,5.82,0,13s5.82,13,13,13s13-5.82,13-13S20.18,0,13,0z M18.548,18.549
		c-0.634,0.635-1.399,0.951-2.297,0.951c-0.733,0-1.394-0.225-1.979-0.676c-0.437,0.09-0.859,0.135-1.271,0.135
		c-0.809,0-1.579-0.156-2.314-0.471c-0.736-0.313-1.371-0.736-1.904-1.271s-0.955-1.168-1.271-1.903
		C7.198,14.579,7.042,13.809,7.042,13c0-0.412,0.045-0.835,0.135-1.27C6.727,11.145,6.5,10.484,6.5,9.75
		c0-0.896,0.316-1.663,0.952-2.298C8.087,6.818,8.854,6.5,9.751,6.5c0.731,0,1.394,0.227,1.979,0.677
		c0.435-0.091,0.857-0.136,1.271-0.136c0.808,0,1.578,0.157,2.313,0.47c0.735,0.313,1.371,0.736,1.903,1.271
		c0.533,0.533,0.958,1.168,1.271,1.904c0.313,0.735,0.47,1.508,0.47,2.314c0,0.412-0.045,0.835-0.134,1.27
		c0.449,0.588,0.676,1.248,0.676,1.98C19.5,17.148,19.184,17.915,18.548,18.549z"/>
</g>
</svg>
