<?xml version="1.0" encoding="utf-8"?>
<!-- Generator: Adobe Illustrator 23.0.2, SVG Export Plug-In . SVG Version: 6.00 Build 0)  -->
<svg version="1.1" id="Layer_1" xmlns="http://www.w3.org/2000/svg" xmlns:xlink="http://www.w3.org/1999/xlink" x="0px" y="0px"
	 viewBox="0 0 634.6 457" style="enable-background:new 0 0 634.6 457;" xml:space="preserve">
<style type="text/css">
	.st0{fill:#EAEAEA;}
	.st1{fill:url(#XMLID_25_);}
	.st2{fill:url(#XMLID_26_);}
	.st3{fill:url(#XMLID_27_);}
	.st4{fill:url(#XMLID_28_);}
	.st5{fill:url(#XMLID_29_);}
	.st6{fill:url(#XMLID_30_);}
	.st7{fill:url(#SVGID_1_);}
	.st8{fill:url(#XMLID_31_);}
	.st9{fill:url(#XMLID_32_);}
	.st10{fill:#191919;}
	.st11{fill:url(#XMLID_33_);}
	.st12{fill:url(#XMLID_34_);}
	.st13{fill:url(#XMLID_35_);}
	.st14{fill:url(#XMLID_36_);}
	.st15{fill:url(#XMLID_37_);}
	.st16{fill:url(#XMLID_38_);}
	.st17{fill:url(#XMLID_39_);}
	.st18{fill:url(#XMLID_40_);}
	.st19{fill:url(#XMLID_41_);}
	.st20{fill:url(#XMLID_42_);}
	.st21{fill:url(#XMLID_43_);}
	.st22{fill:url(#XMLID_44_);}
	.st23{fill:url(#XMLID_45_);}
	.st24{fill:#D9E0F3;}
	.st25{fill:url(#XMLID_46_);}
	.st26{fill:url(#XMLID_47_);}
	.st27{fill:url(#XMLID_48_);}
	.st28{fill:url(#XMLID_49_);}
	.st29{fill:#535353;}
	.st30{fill:#B7EB00;}
</style>
<g>
	<circle id="XMLID_24_" class="st0" cx="319.5" cy="345.2" r="99.4"/>
	<g id="XMLID_233_">
		<linearGradient id="XMLID_25_" gradientUnits="userSpaceOnUse" x1="0" y1="345.1502" x2="205.6132" y2="345.1502">
			<stop  offset="0" style="stop-color:#696969"/>
			<stop  offset="1" style="stop-color:#494949"/>
		</linearGradient>
		<path id="XMLID_237_" class="st1" d="M117.7,413.8H10.2L0,370.4l115.2-137.1h62.2v134.5h28.2v46h-28.2V457h-59.7V413.8z
			 M117.7,368.2v-63.8l-53,63.8H117.7z"/>
		<linearGradient id="XMLID_26_" gradientUnits="userSpaceOnUse" x1="428.9765" y1="345.1502" x2="634.5897" y2="345.1502">
			<stop  offset="0" style="stop-color:#696969"/>
			<stop  offset="1" style="stop-color:#494949"/>
		</linearGradient>
		<path id="XMLID_234_" class="st2" d="M546.7,413.8H439.1L429,370.4l115.2-137.1h62.2v134.5h28.2v46h-28.2V457h-59.7V413.8z
			 M546.7,368.2v-63.8l-53,63.8H546.7z"/>
	</g>
	<g id="XMLID_23_">
		<linearGradient id="XMLID_27_" gradientUnits="userSpaceOnUse" x1="319.5463" y1="103.8763" x2="319.5463" y2="286.2615">
			<stop  offset="4.741732e-07" style="stop-color:#A6E004"/>
			<stop  offset="0.1166" style="stop-color:#A8E108;stop-opacity:0.8834"/>
			<stop  offset="0.242" style="stop-color:#ACE215;stop-opacity:0.758"/>
			<stop  offset="0.3716" style="stop-color:#B4E52B;stop-opacity:0.6284"/>
			<stop  offset="0.5041" style="stop-color:#BEE949;stop-opacity:0.4959"/>
			<stop  offset="0.6388" style="stop-color:#CCED70;stop-opacity:0.3612"/>
			<stop  offset="0.7755" style="stop-color:#DDF39F;stop-opacity:0.2245"/>
			<stop  offset="0.911" style="stop-color:#F1FAD7;stop-opacity:8.896375e-02"/>
			<stop  offset="1" style="stop-color:#FFFFFF;stop-opacity:0"/>
		</linearGradient>
		<polygon id="XMLID_12_" class="st3" points="357.2,103.9 326.5,103.9 281,104 223.6,286.3 326.5,286.3 415.5,286.3 		"/>
		<linearGradient id="XMLID_28_" gradientUnits="userSpaceOnUse" x1="259.0621" y1="83.5559" x2="380.0305" y2="83.5559">
			<stop  offset="0" style="stop-color:#696969"/>
			<stop  offset="1" style="stop-color:#494949"/>
		</linearGradient>
		<circle id="XMLID_2_" class="st4" cx="319.5" cy="83.6" r="60.5"/>
		<linearGradient id="XMLID_29_" gradientUnits="userSpaceOnUse" x1="319.213" y1="64.7475" x2="319.213" y2="148.3458">
			<stop  offset="0" style="stop-color:#ABEC08"/>
			<stop  offset="1" style="stop-color:#A0D300"/>
		</linearGradient>
		<path id="XMLID_8_" class="st5" d="M379.9,83.6c0,0-20.1,12.4-60.8,12.4s-60.3-12.4-60.3-12.4s-69.9,20.1-69.9,34.1
			c0,13.9,78.4,26.4,130.2,26.4s130.5-12.5,130.5-26.4C449.6,103.7,379.9,83.6,379.9,83.6z"/>
		<linearGradient id="XMLID_30_" gradientUnits="userSpaceOnUse" x1="255.9428" y1="102.3632" x2="381.7265" y2="102.3632">
			<stop  offset="0" style="stop-color:#696969"/>
			<stop  offset="1" style="stop-color:#494949"/>
		</linearGradient>
		<path id="XMLID_17_" class="st6" d="M255.9,84.3c0,0,6.9,36.1,51,36.1s74.8-33.9,74.8-33.9s-19.1,6-62.6,6S255.9,84.3,255.9,84.3z
			"/>
		<g id="XMLID_6_">
			<linearGradient id="SVGID_1_" gradientUnits="userSpaceOnUse" x1="316.2677" y1="14.8505" x2="318.4476" y2="14.8505">
				<stop  offset="0" style="stop-color:#696969"/>
				<stop  offset="1" style="stop-color:#494949"/>
			</linearGradient>
			<rect x="316.3" y="6.2" class="st7" width="2.2" height="17.3"/>
		</g>
		<linearGradient id="XMLID_31_" gradientUnits="userSpaceOnUse" x1="311.2886" y1="6.407" x2="324.1026" y2="6.407">
			<stop  offset="0" style="stop-color:#ABEC08"/>
			<stop  offset="1" style="stop-color:#A0D300"/>
		</linearGradient>
		<circle id="XMLID_5_" class="st8" cx="317.7" cy="6.4" r="6.4"/>
		<g id="XMLID_58_">
			<linearGradient id="XMLID_32_" gradientUnits="userSpaceOnUse" x1="286.1413" y1="205.1893" x2="360.4711" y2="205.1893">
				<stop  offset="0" style="stop-color:#696969"/>
				<stop  offset="1" style="stop-color:#494949"/>
			</linearGradient>
			<path id="XMLID_4_" class="st9" d="M359.5,211.5l-37.6,28.2c-1.1,0.8-2.6,0.6-3.4-0.5l-31.9-42.4c-0.8-1.1-0.6-2.6,0.5-3.4
				l30.9-23.2l15.5,2.7L360,208C360.8,209.1,360.6,210.6,359.5,211.5z"/>
			<path id="XMLID_9_" class="st10" d="M318,170.2l15.5,2.7l-6.7,5.5c-0.9,0.7-2.2,0.6-2.9-0.3L318,170.2z"/>
			<g id="XMLID_10_">
				<linearGradient id="XMLID_33_" gradientUnits="userSpaceOnUse" x1="306.3944" y1="201.5494" x2="312.6411" y2="201.5494">
					<stop  offset="0" style="stop-color:#ABEC08"/>
					<stop  offset="1" style="stop-color:#A0D300"/>
				</linearGradient>
				<circle id="XMLID_7_" class="st11" cx="309.5" cy="201.5" r="3.1"/>
				<linearGradient id="XMLID_34_" gradientUnits="userSpaceOnUse" x1="323.4102" y1="188.7648" x2="329.6569" y2="188.7648">
					<stop  offset="0" style="stop-color:#ABEC08"/>
					<stop  offset="1" style="stop-color:#A0D300"/>
				</linearGradient>
				<circle id="XMLID_11_" class="st12" cx="326.5" cy="188.8" r="3.1"/>
			</g>
			<linearGradient id="XMLID_35_" gradientUnits="userSpaceOnUse" x1="320.4896" y1="205.7322" x2="331.1749" y2="205.7322">
				<stop  offset="0" style="stop-color:#ABEC08"/>
				<stop  offset="1" style="stop-color:#A0D300"/>
			</linearGradient>
			<path id="XMLID_13_" class="st13" d="M328.6,203.6c2.5,3.3,3.3,7,1.7,8.2c-1.6,1.2-4.8-0.6-7.4-3.9c-2.5-3.3-3.3-7-1.7-8.2
				S326.1,200.3,328.6,203.6z"/>
		</g>
		<linearGradient id="XMLID_36_" gradientUnits="userSpaceOnUse" x1="373.9203" y1="173.1143" x2="399.8233" y2="173.1143">
			<stop  offset="0" style="stop-color:#696969"/>
			<stop  offset="1" style="stop-color:#494949"/>
		</linearGradient>
		<path id="XMLID_14_" class="st14" d="M389,187.9l-14.3,1.6c-0.7,0.1-1.1-0.9-0.5-1.3c2.7-1.8,6.5-5.3,9.1-11.8
			c2.7-6.6,2.2-10.5,1.8-11.8c-0.1-0.3,0.1-0.6,0.3-0.8l13-7.1c0.4-0.2,0.9,0,1,0.5c0.3,2.3,0.8,8.4-2,15.8
			c-3,7.9-7.1,13.4-8.1,14.5C389.4,187.8,389.2,187.9,389,187.9z"/>
		<linearGradient id="XMLID_37_" gradientUnits="userSpaceOnUse" x1="224.7936" y1="253.2728" x2="254.6982" y2="253.2728">
			<stop  offset="0" style="stop-color:#696969"/>
			<stop  offset="1" style="stop-color:#494949"/>
		</linearGradient>
		<path id="XMLID_15_" class="st15" d="M227.2,241.2c-1.7,4.2-6.6,19.3,5.6,29c0.7,0.5,1.6,0.7,2.4,0.3l18.2-8.3
			c1.3-0.6,1.8-2.3,0.9-3.5c-2.9-3.8-7.9-11.9-5.9-20.2c0.4-1.7-1.1-3.2-2.7-2.8l-16.9,4C228.1,240.1,227.5,240.6,227.2,241.2z"/>
		<linearGradient id="XMLID_38_" gradientUnits="userSpaceOnUse" x1="246.6846" y1="113.9266" x2="278.588" y2="113.9266">
			<stop  offset="0" style="stop-color:#696969"/>
			<stop  offset="1" style="stop-color:#494949"/>
		</linearGradient>
		<circle id="XMLID_61_" class="st16" cx="262.6" cy="113.9" r="16"/>
		<linearGradient id="XMLID_39_" gradientUnits="userSpaceOnUse" x1="360.5046" y1="113.9266" x2="392.408" y2="113.9266">
			<stop  offset="0" style="stop-color:#696969"/>
			<stop  offset="1" style="stop-color:#494949"/>
		</linearGradient>
		<circle id="XMLID_60_" class="st17" cx="376.5" cy="113.9" r="16"/>
		<linearGradient id="XMLID_40_" gradientUnits="userSpaceOnUse" x1="364.2062" y1="113.9266" x2="388.7064" y2="113.9266">
			<stop  offset="0" style="stop-color:#ABEC08"/>
			<stop  offset="1" style="stop-color:#A0D300"/>
		</linearGradient>
		<circle id="XMLID_18_" class="st18" cx="376.5" cy="113.9" r="12.3"/>
		<linearGradient id="XMLID_41_" gradientUnits="userSpaceOnUse" x1="303.4726" y1="120.4042" x2="335.3751" y2="120.4042">
			<stop  offset="0" style="stop-color:#696969"/>
			<stop  offset="1" style="stop-color:#494949"/>
		</linearGradient>
		<circle id="XMLID_59_" class="st19" cx="319.4" cy="120.4" r="16"/>
		<linearGradient id="XMLID_42_" gradientUnits="userSpaceOnUse" x1="335.3751" y1="48.227" x2="354.1693" y2="48.227">
			<stop  offset="0" style="stop-color:#ABEC08"/>
			<stop  offset="1" style="stop-color:#A0D300"/>
		</linearGradient>
		<circle id="XMLID_70_" class="st20" cx="344.8" cy="48.2" r="9.4"/>
		<linearGradient id="XMLID_43_" gradientUnits="userSpaceOnUse" x1="358.3636" y1="66.4366" x2="367.6001" y2="66.4366">
			<stop  offset="0" style="stop-color:#ABEC08"/>
			<stop  offset="1" style="stop-color:#A0D300"/>
		</linearGradient>
		<circle id="XMLID_72_" class="st21" cx="363" cy="66.4" r="4.6"/>
		<g id="XMLID_22_">
			<linearGradient id="XMLID_44_" gradientUnits="userSpaceOnUse" x1="305.5422" y1="81.5424" x2="329.1729" y2="81.5424">
				<stop  offset="0" style="stop-color:#ABEC08"/>
				<stop  offset="1" style="stop-color:#A0D300"/>
			</linearGradient>
			<path id="XMLID_21_" class="st22" d="M317.4,67.4c-8.6,0-11.8,4.4-11.8,13.2s8.7,15,11.8,15s11.8-6.2,11.8-15
				S326,67.4,317.4,67.4z"/>
			<g id="XMLID_20_">
				<path id="XMLID_16_" class="st10" d="M319.5,83.4c0,0-0.2-3.6,2.2-5.2c2.3-1.6,5.8-0.5,5.8-0.5s0.1,4.6-2.5,5.7
					C321.7,84.8,319.5,83.4,319.5,83.4z"/>
				<path id="XMLID_19_" class="st10" d="M315.3,83.4c0,0,0.2-3.6-2.2-5.2c-2.3-1.6-5.8-0.5-5.8-0.5s-0.1,4.6,2.5,5.7
					C313.1,84.8,315.3,83.4,315.3,83.4z"/>
			</g>
		</g>
		<g id="XMLID_71_">
			<linearGradient id="XMLID_45_" gradientUnits="userSpaceOnUse" x1="255.3086" y1="89.7534" x2="383.3732" y2="89.7534">
				<stop  offset="0" style="stop-color:#ABEC08"/>
				<stop  offset="1" style="stop-color:#A0D300"/>
			</linearGradient>
			<path id="XMLID_74_" class="st23" d="M319.1,99.4c-41.2,0-61.3-12.4-62.2-12.9c-1.6-1-2.1-3.2-1.1-4.8c1-1.6,3.2-2.1,4.8-1.1
				c0.2,0.1,19.4,11.9,58.5,11.9c39.1,0,58.8-11.8,59-11.9c1.6-1,3.8-0.5,4.8,1.1c1,1.6,0.5,3.8-1.1,4.8
				C380.9,87,360.3,99.4,319.1,99.4z"/>
		</g>
		<path id="XMLID_82_" class="st24" d="M376.5,101.7c-0.6,0-1.2,0.1-1.8,0.1l-10,15.7c0.8,2.6,2.4,4.9,4.6,6.4l13.1-20.6
			C380.7,102.3,378.6,101.7,376.5,101.7z"/>
		<path id="XMLID_81_" class="st24" d="M385.1,105.2l-12.8,20.2c1.3,0.5,2.8,0.8,4.2,0.8c0.2,0,0.4,0,0.5,0l10.8-16.9
			C387.1,107.7,386.2,106.3,385.1,105.2z"/>
		<g id="XMLID_73_">
			<linearGradient id="XMLID_46_" gradientUnits="userSpaceOnUse" x1="306.9758" y1="120.4042" x2="331.476" y2="120.4042">
				<stop  offset="0" style="stop-color:#ABEC08"/>
				<stop  offset="1" style="stop-color:#A0D300"/>
			</linearGradient>
			<circle id="XMLID_84_" class="st25" cx="319.2" cy="120.4" r="12.3"/>
			<path id="XMLID_80_" class="st24" d="M319.2,108.2c-0.6,0-1.2,0.1-1.8,0.1l-10,15.7c0.8,2.6,2.4,4.9,4.6,6.4l13.1-20.6
				C323.5,108.7,321.4,108.2,319.2,108.2z"/>
			<path id="XMLID_75_" class="st24" d="M327.8,111.7L315,131.9c1.3,0.5,2.8,0.8,4.2,0.8c0.2,0,0.4,0,0.5,0l10.8-16.9
				C329.9,114.2,329,112.8,327.8,111.7z"/>
		</g>
		<g id="XMLID_89_">
			<linearGradient id="XMLID_47_" gradientUnits="userSpaceOnUse" x1="250.3863" y1="113.9266" x2="274.8864" y2="113.9266">
				<stop  offset="0" style="stop-color:#ABEC08"/>
				<stop  offset="1" style="stop-color:#A0D300"/>
			</linearGradient>
			<circle id="XMLID_93_" class="st26" cx="262.6" cy="113.9" r="12.3"/>
			<path id="XMLID_92_" class="st24" d="M262.6,101.7c-0.6,0-1.2,0.1-1.8,0.1l-10,15.7c0.8,2.6,2.4,4.9,4.6,6.4l13.1-20.6
				C266.9,102.3,264.8,101.7,262.6,101.7z"/>
			<path id="XMLID_90_" class="st24" d="M271.2,105.2l-12.8,20.2c1.3,0.5,2.8,0.8,4.2,0.8c0.2,0,0.4,0,0.5,0l10.8-16.9
				C273.3,107.7,272.4,106.3,271.2,105.2z"/>
		</g>
		<path id="XMLID_114_" class="st10" d="M319.5,23.1c-10.6,0-20.5,2.7-29.2,7.5c0.8-0.3,28.5-11.2,56.2,4.2
			c27.6,15.4,33.2,44.2,33.4,45.2C378.1,48.3,351.8,23.1,319.5,23.1z"/>
		<linearGradient id="XMLID_48_" gradientUnits="userSpaceOnUse" x1="382.4832" y1="109.4182" x2="449.562" y2="109.4182">
			<stop  offset="0" style="stop-color:#696969"/>
			<stop  offset="1" style="stop-color:#494949"/>
		</linearGradient>
		<path id="XMLID_115_" class="st27" d="M449.6,117.6c0-12.3-54.5-29.5-67.1-33.3l0,0c0,0,54.7,20.7,56,31.3
			c1.3,10.5-28,18.9-28,18.9c0,0,0,0,0,0l19.9-4.9C442.2,125.9,449.6,121.9,449.6,117.6z"/>
		<linearGradient id="XMLID_49_" gradientUnits="userSpaceOnUse" x1="188.864" y1="109.4182" x2="255.9428" y2="109.4182">
			<stop  offset="0" style="stop-color:#696969"/>
			<stop  offset="1" style="stop-color:#494949"/>
		</linearGradient>
		<path id="XMLID_1_" class="st28" d="M188.9,117.6c0-12.3,54.5-29.5,67.1-33.3l0,0c0,0-54.7,20.7-56,31.3
			c-1.3,10.5,28,18.9,28,18.9h0l-19.9-4.9C196.3,125.9,188.9,121.9,188.9,117.6z"/>
	</g>
	<g>
		<path class="st29" d="M245.4,341.4c0.5-1.2,0.4-2.4,0.6-3.7c1-8,3.1-15.7,6.5-23c3.1-6.6,7.1-12.6,11.9-18.1
			c3.5-4,7.5-7.5,11.8-10.5c6.6-4.7,13.7-8.3,21.4-10.7c1.9-0.6,3.8-1,5.7-1.5c2.8-0.7,5.4-0.2,7.9,0.8c4.9,2,7.4,5.9,8.4,11
			c0.2,0.9,0.2,1.9,0,2.8c-0.5,2.7-1.6,5.2-3.4,7.4c-1.7,2-3.9,3.2-6.3,4.1c-1.9,0.7-3.8,1.2-5.7,1.7c-5.8,1.7-10.9,4.5-15.4,8.5
			c-0.8,0.7-1.8,1.3-2.5,2.1c-5,5.2-9.1,10.9-11.5,17.8c-1.3,3.7-2,7.6-2.5,11.5c-0.2,2.1-0.3,4.2-0.2,6.2
			c0.5,10.2,3.6,19.5,10.2,27.4c1,1.2,1.9,2.5,2.9,3.5c7.1,6.9,15.2,11.8,25.1,13.4c2.8,0.5,5.7,0.8,8.6,0.9c1.8,0,3.6-0.2,5.3-0.4
			c4.4-0.5,8.7-1.5,12.8-3.2c4.2-1.8,8.1-4.1,11.6-7.1c1.3-1.1,2.6-2.1,3.8-3.3c6.3-6.8,10.9-14.4,12.5-23.7c0.6-3.3,1.1-6.6,1-10
			c-0.3-7.4-1.7-14.5-5.3-21c-1.1-1.9-2.3-3.7-3.4-5.6c-0.9-1.5-1.6-3.2-2-4.9c-0.7-2.5-0.2-4.8,0.6-7.1c0.7-1.9,1.7-3.6,3.2-5.1
			c3.2-3.2,7-4.4,11.3-3.9c3,0.3,5.7,1.5,7.9,3.7c1.9,1.9,3.3,4.2,4.6,6.5c4.6,7.7,7.7,16,9.4,24.9c1.1,5.7,1.6,11.4,1.2,17.1
			c-0.6,9.4-2.7,18.5-6.7,27.2c-3,6.6-6.9,12.6-11.7,18.1c-3.7,4.3-7.9,8-12.6,11.3c-6.3,4.4-13.1,7.9-20.4,10.2
			c-4.6,1.4-9.2,2.4-14,3c-1.3,0.2-2.7,0.1-4,0.6c-3,0-6,0-9,0c-0.3-0.1-0.6-0.2-0.8-0.2c-1.6-0.2-3.3-0.4-4.9-0.6
			c-5.6-0.8-11.1-2.2-16.4-4.2c-6.3-2.4-12.2-5.8-17.7-9.7c-4.3-3.1-8.1-6.8-11.6-10.7c-3.3-3.8-6.2-8-8.7-12.5
			c-5.2-9.2-8.2-19.2-9.2-29.7c-0.1-0.5-0.1-1.1-0.4-1.6C245.4,347.8,245.4,344.6,245.4,341.4z"/>
		<path class="st30" d="M350.5,252.9c1.5,0.5,3,0.8,4.4,1.5c2.5,1.3,4.4,3.1,5.6,5.6c1.1,2.3,1.9,4.7,1.8,7.2
			c-0.3,4.8-2.4,8.5-6.4,11.1c-2.3,1.5-4.9,2.2-7.7,2.2c-6.9-0.2-12.5-5.4-13.2-11.9c-0.7-6.5,2.9-12.4,8.3-14.8c1-0.4,2-0.6,3-0.9
			C347.8,252.9,349.1,252.9,350.5,252.9z"/>
		<path class="st30" d="M335.1,291.4c0.9,0,1.8,0,2.7,0.1c3.1,0.5,5.3,2.2,7.4,4.4c1.9,2,3,4.4,3.2,7.2c0.2,2.5-0.1,5-0.9,7.4
			c-0.6,1.7-1.2,3.4-1.8,5c-2.6,6.9-5.2,13.7-7.9,20.6c-1.9,4.8-3.6,9.6-5.6,14.4c-0.4,1-0.9,2.1-1.5,3c-1.6,2.6-4,4.3-6.7,5.5
			c-1.4,0.6-2.8,0.8-4.2,1.1c-1.3,0.3-2.6-0.1-3.9-0.4c-0.9-0.2-1.8-0.6-2.7-0.9c-1.9-0.6-3-2.1-4.3-3.5c-2.7-3-3.4-6.5-3.2-10.4
			c0.1-1.3,0.6-2.6,0.9-3.8c1-3.3,2.2-6.5,3.4-9.7c3.1-7.8,6-15.6,9-23.4c1.2-3.3,2.7-6.5,4.1-9.7c0.6-1.2,1.4-2.1,2.4-3
			c2.1-1.9,4.3-3.5,7.2-3.9C333.5,291.4,334.3,291.4,335.1,291.4z"/>
	</g>
</g>
</svg>
