<?xml version="1.0" encoding="utf-8"?>
<!-- Generator: Adobe Illustrator 23.0.2, SVG Export Plug-In . SVG Version: 6.00 Build 0)  -->
<svg version="1.1" id="Layer_1" xmlns="http://www.w3.org/2000/svg" xmlns:xlink="http://www.w3.org/1999/xlink" x="0px" y="0px"
	 width="69.1px" height="62px" viewBox="0 0 69.1 62" style="enable-background:new 0 0 69.1 62;" xml:space="preserve">
<style type="text/css">
	.st0{fill:#575757;}
	.st1{fill:#A2CD3A;}
</style>
<g>
	<g>
		<path class="st0" d="M34.5,61.8c-0.2,0-0.4-0.1-0.6-0.2c-1.5-1-9.1-6.1-16.9-13.2C5.7,38,0,28.7,0,20.9c0-5.1,2-10.4,5.6-14.4
			C9.3,2.3,14.2,0,19.3,0c5.9,0,11.3,2.5,14.9,6.9l0.9,0C38.6,2.5,44,0,49.8,0c5,0,9.9,2.3,13.6,6.5c3.6,4,5.6,9.3,5.6,14.4
			c0,7.9-5.7,17.2-17.1,27.6c-7.7,7.1-15.4,12.2-16.8,13.1C35,61.7,34.8,61.8,34.5,61.8z M34.2,59.2l0.6,0
			c2.5-1.7,9.1-6.3,15.7-12.3c10.7-9.8,16.4-18.8,16.4-25.9c0-9.8-8.2-18.8-17.1-18.8C44,2.2,38.6,5,35.5,9.9
			c-0.2,0.3-0.5,0.5-0.9,0.5c-0.4,0-0.7-0.2-0.9-0.5c-3-4.8-8.4-7.7-14.4-7.7c-9.8,0-17.1,9.9-17.1,18.8c0,7.1,5.7,16,16.4,25.9"/>
	</g>
	<g>
		<g>
			<path class="st0" d="M34.9,62l-12.3-9.8c-0.2,0.1-0.3,0.2-0.5,0.2c-0.2,0-0.4-0.1-0.6-0.3L18.3,49c-0.3-0.2-0.4-0.7-0.1-1.1
				l2.6-3.4c-0.9-1.5-1.6-3.1-2.1-5L14.5,39c-0.4-0.1-0.7-0.4-0.7-0.8v-4.5c0-0.4,0.3-0.7,0.7-0.8l4.2-0.5c0.4-1.7,1.1-3.4,2.1-5
				L18.2,24c-0.3-0.3-0.2-0.8,0.1-1.1l3.2-3.2c0.1-0.2,0.3-0.3,0.6-0.3c0.2,0,0.4,0.1,0.5,0.2l3.3,2.6c1.5-0.9,3.1-1.6,5-2.1
				l0.5-4.2c0.1-0.4,0.4-0.7,0.8-0.7h4.5c0.4,0,0.7,0.3,0.8,0.7l0.5,4.2c1.7,0.4,3.4,1.1,5,2.1l3.4-2.6c0.2-0.1,0.3-0.2,0.5-0.2
				c0.2,0,0.4,0.1,0.6,0.3l3.1,3.1c0.3,0.3,0.3,0.8,0.1,1.2l-2.5,3.3c0.9,1.5,1.6,3.1,2.1,5l4.2,0.5c0.4,0.1,0.7,0.4,0.8,0.8l0,4.5
				c0,0.4-0.3,0.7-0.7,0.8l-4.2,0.5c-0.4,1.7-1.1,3.4-2.1,5l2.6,3.4c0.3,0.3,0.2,0.8-0.1,1.1l-3.1,3.1c-0.2,0.2-0.4,0.2-0.6,0.2
				c-0.2,0-0.4-0.1-0.5-0.1l-3.3,3 M42.7,53.5c0.1-0.1,0.3-0.2,0.5-0.2c0.2,0,0.4,0.1,0.5,0.2l3.2-3l2.4-1.8L46.5,45
				c-0.2-0.3-0.2-0.7,0-1c1.2-1.7,1.9-3.6,2.3-5.5c0.1-0.4,0.4-0.6,0.7-0.7l4.1-0.5v-3l-4-0.5c-0.4-0.1-0.6-0.3-0.7-0.7
				c-0.4-1.9-1.1-3.7-2.3-5.5c-0.2-0.3-0.2-0.7,0-1l2.5-3.2l-2.2-2.2l-3.2,2.5c-0.2,0.1-0.3,0.1-0.5,0.1s-0.3,0-0.5-0.1
				c-1.7-1.2-3.6-1.9-5.5-2.3c-0.4-0.1-0.6-0.4-0.7-0.7l-0.5-4.1H33l-0.6,4c-0.1,0.4-0.3,0.6-0.7,0.7c-2,0.4-3.7,1.1-5.4,2.2
				c-0.1,0.1-0.3,0.2-0.5,0.2c-0.2,0-0.4,0-0.6-0.2l-3.2-2.4L20,23.5l2.6,3.2c0.2,0.3,0.2,0.7,0,1c-1.2,1.7-1.9,3.6-2.3,5.5
				c-0.1,0.4-0.4,0.6-0.7,0.7l-4.1,0.5v3.1l4,0.6c0.4,0.1,0.6,0.3,0.7,0.7c0.4,2,1.1,3.7,2.2,5.4c0.2,0.3,0.2,0.7,0,1L20,48.3
				l2.2,2.2l12.1,9.8c0.2-0.1,0.3-0.1,0.5-0.1c0.2,0,0.3,0,0.5,0.1"/>
		</g>
		<g>
			<path class="st1" d="M34.5,48.6c-7,0-12.6-5.7-12.6-12.6c0-7,5.7-12.6,12.6-12.6c7,0,12.6,5.7,12.6,12.6
				C47.2,42.9,41.5,48.6,34.5,48.6z M34.5,25.1c-6,0-10.8,4.9-10.8,10.8c0,6,4.9,10.8,10.8,10.8c6,0,10.8-4.9,10.8-10.8
				C45.4,29.9,40.5,25.1,34.5,25.1z"/>
		</g>
		<g>
			<path class="st1" d="M29,40.6c-0.5,0-0.9-0.2-1.1-0.6c-0.3-0.4-0.3-0.9-0.1-1.3l5.5-10.5c0.2-0.5,0.7-0.7,1.2-0.7
				c0.5,0,0.9,0.3,1.2,0.7l5.6,10.6c0.2,0.4,0.2,0.9-0.1,1.3c-0.2,0.4-0.6,0.6-1.1,0.6L29,40.6z M39.9,39.3L34.5,29l-5.4,10.3H39.9z
				"/>
		</g>
		<g>
			<path class="st1" d="M34.6,38.2c-0.2,0-0.4-0.1-0.5-0.2c-0.1-0.1-0.2-0.3-0.2-0.5c0-0.2,0.1-0.4,0.2-0.5c0.1-0.1,0.3-0.2,0.5-0.2
				s0.4,0.1,0.5,0.2c0.1,0.1,0.2,0.3,0.2,0.5c0,0.2-0.1,0.4-0.2,0.5C34.9,38.1,34.8,38.2,34.6,38.2z"/>
		</g>
		<g>
			<polygon class="st1" points="34.1,36.1 34,36 33.8,33.4 33.8,32.5 33.9,32.4 35.2,32.4 35.3,32.5 35.3,33.4 35.1,36 35,36.1 			
				"/>
		</g>
	</g>
</g>
</svg>
