<?xml version="1.0" encoding="utf-8"?>
<!-- Generator: Adobe Illustrator 23.0.2, SVG Export Plug-In . SVG Version: 6.00 Build 0)  -->
<svg version="1.1" id="Layer_1" xmlns="http://www.w3.org/2000/svg" xmlns:xlink="http://www.w3.org/1999/xlink" x="0px" y="0px"
	 viewBox="0 0 300 300" style="enable-background:new 0 0 300 300;" xml:space="preserve">
<style type="text/css">
	.st0{fill-rule:evenodd;clip-rule:evenodd;fill:#E23237;}
	.st1{fill-rule:evenodd;clip-rule:evenodd;fill:#B52E31;}
	.st2{fill-rule:evenodd;clip-rule:evenodd;fill:#FFFFFF;}
</style>
<g>
	<path class="st0" d="M8.5,49.8L148.2,0l143.3,48.9l-23.2,184.6L148.2,300L30,234.4L8.5,49.8L8.5,49.8z"/>
	<path class="st1" d="M291.5,48.9L148.2,0v300l120.1-66.5L291.5,48.9L291.5,48.9z"/>
	<path class="st2" d="M148.4,35.1L148.4,35.1l-87,193.5l32.5-0.6l17.5-43.7h37h40.7l19,44.2l31,0.6L148.4,35.1L148.4,35.1z
		 M148.6,97.2l29.4,61.5h-28.1h-1.5h-25.5L148.6,97.2L148.6,97.2z"/>
</g>
</svg>
