<?xml version="1.0" encoding="utf-8"?>
<!-- Generator: Adobe Illustrator 23.0.2, SVG Export Plug-In . SVG Version: 6.00 Build 0)  -->
<svg version="1.1" id="Layer_1" xmlns="http://www.w3.org/2000/svg" xmlns:xlink="http://www.w3.org/1999/xlink" x="0px" y="0px"
	 viewBox="0 0 300 300" style="enable-background:new 0 0 300 300;" xml:space="preserve">
<style type="text/css">
	.st0{fill:#049BD4;}
</style>
<g id="g3" transform="translate(0,-464.2)">
	<g id="g5">
		<path id="path7" class="st0" d="M21.5,613.5c2.7-1.2,4.8-3.3,4.8-6.9v-0.1c0-2.1-0.8-3.7-2-5c-1.8-1.8-4.5-2.8-8.4-2.8H0v30.9
			h15.9c7.4,0,11.7-3.2,11.7-8.5v-0.1C27.6,616.9,25.2,614.7,21.5,613.5L21.5,613.5L21.5,613.5z M8.4,605.6h5.6c2.5,0,3.9,1,3.9,2.7
			v0.1c0,1.8-1.5,2.7-4.1,2.7H8.4L8.4,605.6C8.4,605.6,8.4,605.6,8.4,605.6z M19.1,619.9c0,1.8-1.5,2.8-4.1,2.8H8.3v-5.7h6.5
			C17.7,617.1,19,618.2,19.1,619.9L19.1,619.9L19.1,619.9L19.1,619.9z"/>
	</g>
	<g id="g9">
		<polygon id="polygon11" class="st0" points="40,598.8 31.4,598.8 31.4,629.6 54.9,629.6 54.9,622.2 40,622.2 		"/>
	</g>
	<g id="g13">
		<path id="path15" class="st0" d="M72.5,598.1c-9.5,0-16.7,7.2-16.7,16.1v0.1c0,8.9,7,16,16.6,16S89,623.1,89,614.2v-0.1
			C89,605.2,82,598.1,72.5,598.1L72.5,598.1z M80.3,614.3c0,4.5-3.1,8.3-7.9,8.3c-4.7,0-7.9-3.9-7.9-8.3v-0.1c0-4.5,3.1-8.3,7.8-8.3
			c4.7,0,7.9,3.9,7.9,8.3L80.3,614.3L80.3,614.3L80.3,614.3z"/>
	</g>
	<g id="g17">
		<path id="path19" class="st0" d="M108.6,622.4c-4.3,0-7.3-3.6-7.3-8.3v-0.1c0-4.5,3.1-8.2,7.3-8.2c3,0,5,1.4,6.8,3.6l6.4-5
			c-2.7-3.8-6.8-6.4-13.1-6.4c-9.4,0-16.3,7-16.3,16.1v0.1c0,9.2,7.1,16,15.9,16c6.8,0,10.8-3,13.7-7l-6.5-4.6
			C113.8,620.9,111.9,622.4,108.6,622.4"/>
	</g>
	<g id="g21">
		<path id="path23" class="st0" d="M170.6,622.4c-4.3,0-7.4-3.6-7.4-8.3v-0.1c0-4.5,3.1-8.2,7.4-8.2c3,0,5,1.4,6.8,3.6l6.4-5
			c-2.7-3.8-6.8-6.4-13.1-6.4c-9.4,0-16.3,7-16.3,16.1v0.1c0,1.4,0.2,2.7,0.5,3.9l0,0c1.7,7.1,7.9,12,15.4,12c6.8,0,10.8-3,13.7-7
			l-6.4-4.6C175.8,620.9,173.8,622.4,170.6,622.4"/>
	</g>
	<g id="g25">
		<polygon id="polygon27" class="st0" points="196.3,617.9 207.3,617.9 207.3,629.6 215.8,629.6 215.8,598.8 207.3,598.8 
			207.3,610.3 196.3,610.3 196.3,598.8 187.7,598.8 187.7,629.6 196.3,629.6 		"/>
	</g>
	<g id="g29">
		<path id="path31" class="st0" d="M240.2,598.5H232l-13.1,31.1h9l2.2-5.5H242l2.3,5.5h9.2L240.2,598.5L240.2,598.5L240.2,598.5z
			 M232.6,617.5l3.5-8.8l3.5,8.8H232.6z"/>
	</g>
	<g id="g33">
		<rect id="rect35" x="256.6" y="598.8" class="st0" width="8.6" height="30.9"/>
	</g>
	<g id="g37">
		<polygon id="polygon39" class="st0" points="278.8,598.8 270.8,598.8 270.8,629.6 279.3,629.6 279.3,612.7 292.5,629.6 300,629.6 
			300,598.8 291.5,598.8 291.5,615.1 		"/>
	</g>
	<g id="g41">
		<polygon id="polygon43" class="st0" points="145.2,629.6 145.2,629.6 153.7,629.6 142.1,613 155.1,598.7 153.5,598.7 150.9,598.7 
			147.6,598.7 144.9,598.7 144.9,598.7 144.9,598.7 134.3,611.3 134.3,598.7 125.7,598.7 125.7,629.6 134.3,629.6 134.3,621.6 
			137.4,618.2 		"/>
	</g>
</g>
</svg>
