<svg id="svg" version="1.1" xmlns="http://www.w3.org/2000/svg" xmlns:xlink="http://www.w3.org/1999/xlink" width="400" height="400" viewBox="0, 0, 400,400"><g id="svgg"><path id="path0" d="M317.813 25.685 C 316.352 26.881,314.875 28.097,314.531 28.388 C 314.188 28.679,313.344 29.335,312.656 29.847 C 311.969 30.359,311.336 30.859,311.250 30.958 C 311.164 31.057,310.297 31.721,309.324 32.434 C 308.350 33.147,307.198 34.051,306.762 34.443 C 306.327 34.835,305.566 35.469,305.071 35.851 C 304.576 36.233,303.788 36.901,303.320 37.336 C 302.851 37.770,302.370 38.128,302.250 38.132 C 302.129 38.136,301.515 38.593,300.883 39.148 C 300.251 39.702,299.337 40.461,298.852 40.833 C 298.366 41.205,297.631 41.802,297.218 42.161 C 296.805 42.519,296.383 42.814,296.280 42.815 C 296.178 42.817,295.598 43.274,294.992 43.831 C 293.821 44.908,292.012 46.250,291.731 46.250 C 291.639 46.250,291.563 43.536,291.563 40.219 C 291.563 35.944,291.453 34.078,291.187 33.812 C 290.911 33.536,288.097 33.438,280.469 33.438 C 272.840 33.438,270.027 33.536,269.750 33.812 C 269.469 34.094,269.375 37.978,269.373 49.359 L 269.371 64.531 266.951 66.328 C 265.620 67.316,264.083 68.511,263.536 68.984 C 262.988 69.457,262.144 70.150,261.661 70.524 C 259.744 72.007,259.341 72.526,259.564 73.228 C 259.768 73.873,263.289 77.501,263.707 77.499 C 264.283 77.495,266.922 75.565,268.299 74.141 C 268.672 73.754,269.073 73.438,269.190 73.438 C 269.306 73.438,269.712 73.141,270.091 72.779 C 270.471 72.417,271.273 71.801,271.875 71.412 C 272.477 71.022,273.425 70.264,273.982 69.727 C 274.539 69.189,275.117 68.750,275.266 68.750 C 275.415 68.750,275.801 68.398,276.124 67.969 C 276.447 67.539,276.823 67.188,276.960 67.188 C 277.097 67.188,278.456 66.168,279.980 64.922 C 281.504 63.676,283.644 61.955,284.735 61.097 C 285.826 60.240,287.925 58.552,289.400 57.347 C 290.874 56.142,292.549 54.805,293.121 54.375 C 293.693 53.945,294.315 53.446,294.503 53.266 C 294.690 53.086,295.617 52.336,296.563 51.600 C 297.508 50.864,298.703 49.926,299.219 49.516 C 299.734 49.106,301.367 47.812,302.846 46.640 C 304.325 45.468,305.776 44.268,306.071 43.973 C 306.366 43.679,306.703 43.435,306.819 43.433 C 306.936 43.430,307.523 42.992,308.125 42.459 C 308.727 41.926,310.027 40.853,311.016 40.074 C 312.004 39.295,312.813 38.538,312.813 38.391 C 312.813 38.245,313.002 38.125,313.233 38.125 C 313.464 38.125,313.921 37.824,314.248 37.455 C 314.576 37.087,315.208 36.560,315.652 36.283 C 316.553 35.724,318.318 34.350,319.803 33.052 C 320.978 32.026,321.077 32.014,321.875 32.813 C 322.219 33.156,322.500 33.340,322.500 33.222 C 322.500 33.103,322.676 33.221,322.891 33.485 C 323.281 33.964,328.831 38.493,330.105 39.373 C 330.477 39.629,331.203 40.226,331.719 40.699 C 332.234 41.172,332.768 41.560,332.906 41.561 C 333.043 41.562,333.481 41.914,333.879 42.344 C 334.277 42.773,334.708 43.125,334.836 43.125 C 335.074 43.125,336.094 43.985,337.340 45.234 C 337.725 45.621,338.139 45.938,338.260 45.938 C 338.380 45.938,338.997 46.428,339.630 47.029 C 340.263 47.629,340.865 48.121,340.967 48.122 C 341.069 48.124,341.561 48.488,342.061 48.931 C 342.560 49.374,343.461 50.069,344.063 50.474 C 344.664 50.880,345.602 51.607,346.147 52.090 C 346.691 52.573,347.657 53.391,348.292 53.906 C 348.927 54.422,349.704 55.055,350.018 55.313 C 350.333 55.570,350.985 56.086,351.467 56.458 C 351.949 56.830,352.652 57.401,353.028 57.728 C 353.404 58.054,354.796 59.156,356.121 60.176 C 357.447 61.197,358.761 62.247,359.042 62.511 C 359.323 62.775,360.111 63.408,360.792 63.917 C 361.474 64.427,362.172 64.995,362.344 65.180 C 362.516 65.365,363.289 65.991,364.063 66.570 C 364.836 67.150,365.680 67.807,365.938 68.031 C 366.195 68.255,367.461 69.291,368.750 70.334 C 370.039 71.376,371.495 72.571,371.985 72.989 C 372.476 73.408,372.931 73.750,372.997 73.750 C 373.125 73.750,373.828 74.304,375.476 75.703 C 376.033 76.176,376.631 76.562,376.805 76.563 C 376.978 76.563,377.199 76.767,377.295 77.016 C 377.609 77.834,378.812 77.249,380.624 75.398 C 383.190 72.778,383.191 72.808,380.381 70.617 C 379.054 69.583,377.688 68.478,377.344 68.161 C 377.000 67.845,375.724 66.828,374.508 65.902 C 373.293 64.976,371.324 63.420,370.133 62.445 C 368.943 61.469,366.633 59.606,365.000 58.305 C 363.367 57.004,361.555 55.553,360.973 55.079 C 360.391 54.606,359.688 54.089,359.410 53.931 C 359.133 53.773,358.695 53.412,358.438 53.129 C 358.180 52.846,357.182 52.038,356.220 51.333 C 355.258 50.628,354.273 49.863,354.032 49.633 C 353.791 49.404,352.820 48.584,351.875 47.811 C 350.930 47.038,350.109 46.301,350.052 46.172 C 349.995 46.043,349.813 45.938,349.648 45.938 C 349.295 45.938,349.061 45.763,347.153 44.082 C 346.360 43.384,345.632 42.813,345.534 42.813 C 345.437 42.813,344.835 42.320,344.197 41.719 C 343.559 41.117,342.931 40.625,342.802 40.625 C 342.672 40.625,342.148 40.238,341.636 39.766 C 339.904 38.165,338.910 37.335,337.813 36.572 C 337.211 36.154,336.648 35.731,336.563 35.632 C 336.477 35.533,335.773 34.970,335.000 34.381 C 334.227 33.791,333.260 32.988,332.852 32.595 C 332.443 32.203,331.499 31.478,330.752 30.983 C 330.006 30.489,329.484 29.995,329.593 29.886 C 329.702 29.777,329.663 29.687,329.505 29.687 C 329.348 29.687,328.810 29.335,328.311 28.906 C 327.811 28.476,327.313 28.125,327.204 28.125 C 327.095 28.125,326.308 27.493,325.456 26.720 C 324.603 25.947,323.807 25.315,323.686 25.314 C 323.565 25.313,323.093 24.940,322.638 24.485 C 321.308 23.155,320.729 23.299,317.813 25.685 M64.643 28.047 C 63.635 29.113,62.193 31.692,61.996 32.781 C 61.952 33.022,61.731 33.336,61.505 33.480 C 61.279 33.623,61.186 33.743,61.299 33.745 C 61.412 33.748,61.099 34.699,60.604 35.859 C 60.109 37.020,59.701 38.215,59.696 38.516 C 59.691 38.816,59.539 39.063,59.357 39.063 C 59.175 39.063,59.092 39.170,59.173 39.302 C 59.255 39.433,58.990 40.242,58.585 41.099 C 58.180 41.955,57.840 42.876,57.831 43.144 C 57.808 43.742,56.679 44.999,56.160 45.003 C 55.952 45.004,55.081 45.345,54.226 45.759 C 52.761 46.468,52.607 46.484,51.570 46.040 C 50.964 45.780,50.327 45.542,50.154 45.511 C 49.980 45.480,49.256 45.151,48.544 44.780 C 47.832 44.408,47.165 44.189,47.062 44.292 C 46.959 44.395,46.875 44.292,46.875 44.063 C 46.875 43.833,46.788 43.733,46.681 43.840 C 46.574 43.947,45.803 43.688,44.968 43.265 C 44.133 42.842,43.342 42.518,43.209 42.546 C 43.077 42.574,42.446 42.364,41.807 42.080 C 41.168 41.795,40.453 41.563,40.218 41.563 C 39.984 41.563,39.686 41.457,39.557 41.328 C 39.428 41.199,39.229 41.082,39.115 41.067 C 39.000 41.052,38.695 40.954,38.438 40.849 C 36.534 40.077,34.344 40.003,33.523 40.683 C 33.304 40.865,33.125 40.907,33.125 40.777 C 33.125 40.550,32.150 41.474,24.714 48.754 L 21.358 52.039 21.406 53.598 C 21.432 54.455,21.604 55.438,21.789 55.781 C 21.974 56.125,22.117 56.477,22.107 56.563 C 22.059 56.952,22.988 59.379,23.797 60.976 C 24.287 61.943,24.687 62.830,24.687 62.948 C 24.687 63.066,25.226 64.314,25.884 65.722 C 28.420 71.145,28.289 70.419,27.167 72.810 C 26.234 74.799,26.083 74.954,24.418 75.636 C 23.449 76.034,22.553 76.510,22.427 76.695 C 22.300 76.880,22.195 76.909,22.192 76.759 C 22.190 76.609,21.977 76.661,21.719 76.875 C 21.461 77.089,21.250 77.159,21.250 77.031 C 21.250 76.903,21.039 76.974,20.781 77.188 C 20.523 77.401,20.313 77.486,20.313 77.376 C 20.312 77.265,19.756 77.459,19.075 77.806 C 18.394 78.153,17.690 78.437,17.509 78.437 C 17.023 78.437,14.236 79.774,14.114 80.065 C 14.056 80.203,13.881 80.237,13.723 80.140 C 13.566 80.043,13.437 80.120,13.437 80.313 C 13.437 80.505,13.296 80.574,13.123 80.467 C 12.950 80.360,12.401 80.563,11.903 80.918 C 11.405 81.272,10.872 81.563,10.718 81.563 C 10.565 81.563,9.923 82.091,9.293 82.737 L 8.147 83.911 8.147 92.258 C 8.147 99.815,8.197 100.636,8.683 100.918 C 8.978 101.090,9.086 101.235,8.924 101.240 C 8.431 101.256,10.665 102.780,12.176 103.458 C 12.956 103.808,14.156 104.364,14.844 104.693 C 15.955 105.226,20.908 107.123,21.719 107.327 C 25.102 108.177,28.011 110.635,27.564 112.266 C 27.529 112.395,27.641 112.500,27.812 112.500 C 28.381 112.500,28.130 113.879,27.216 115.781 C 26.720 116.813,26.379 117.762,26.457 117.891 C 26.535 118.020,26.466 118.125,26.302 118.125 C 26.139 118.125,25.915 118.512,25.804 118.984 C 25.694 119.457,25.411 120.266,25.176 120.781 C 24.941 121.297,24.439 122.422,24.059 123.281 C 23.680 124.141,23.244 125.088,23.091 125.386 C 22.938 125.685,22.812 126.133,22.812 126.382 C 22.812 126.631,22.650 127.230,22.452 127.714 C 21.929 128.991,21.768 129.988,21.840 131.502 C 21.871 132.138,29.907 140.510,32.928 143.054 C 33.948 143.913,36.212 144.283,37.414 143.787 C 37.891 143.590,38.622 143.364,39.040 143.284 C 39.457 143.205,39.878 143.031,39.977 142.898 C 40.076 142.765,40.438 142.607,40.781 142.548 C 41.454 142.431,43.849 141.457,46.963 140.033 C 48.032 139.544,49.680 138.817,50.625 138.417 C 51.570 138.017,52.447 137.541,52.573 137.360 C 52.724 137.144,52.805 137.165,52.808 137.422 C 52.810 137.637,53.129 137.817,53.516 137.822 C 53.902 137.828,54.492 138.039,54.825 138.291 C 55.159 138.544,55.696 138.750,56.020 138.750 C 56.883 138.750,58.368 140.786,58.566 142.240 C 58.581 142.354,58.699 142.553,58.828 142.682 C 58.957 142.811,59.062 143.174,59.063 143.490 C 59.063 143.805,59.203 144.063,59.375 144.063 C 59.547 144.063,59.688 144.311,59.688 144.614 C 59.688 144.917,59.969 145.691,60.313 146.333 C 60.657 146.975,60.840 147.500,60.719 147.500 C 60.599 147.500,60.669 147.669,60.875 147.875 C 61.081 148.081,61.250 148.486,61.250 148.774 C 61.250 149.063,61.459 149.472,61.715 149.685 C 61.971 149.897,62.104 150.196,62.009 150.348 C 61.915 150.500,61.987 150.625,62.169 150.625 C 62.351 150.625,62.500 150.906,62.500 151.250 C 62.500 151.594,62.649 151.875,62.831 151.875 C 63.013 151.875,63.085 152.000,62.991 152.152 C 62.896 152.304,63.029 152.603,63.285 152.815 C 63.541 153.028,63.750 153.395,63.750 153.632 C 63.750 153.869,63.899 154.063,64.081 154.063 C 64.263 154.063,64.324 154.204,64.217 154.377 C 64.110 154.550,64.243 154.776,64.511 154.879 C 64.780 154.983,65.000 155.199,65.000 155.361 C 65.000 156.897,66.339 157.143,74.844 157.169 C 84.183 157.199,84.288 157.173,85.635 154.499 C 86.059 153.657,86.512 152.922,86.641 152.865 C 86.770 152.807,86.875 152.618,86.875 152.443 C 86.875 152.269,87.105 151.612,87.385 150.985 C 87.666 150.357,88.148 149.281,88.457 148.594 C 89.169 147.012,90.162 143.980,90.070 143.672 C 90.031 143.543,90.118 143.438,90.262 143.438 C 90.609 143.438,91.250 142.008,91.250 141.235 C 91.250 140.900,91.391 140.625,91.563 140.625 C 91.734 140.625,91.875 140.361,91.875 140.039 C 91.875 139.602,92.476 139.207,94.233 138.491 C 96.542 137.551,96.843 137.530,98.438 138.195 C 98.867 138.374,99.500 138.634,99.844 138.772 C 100.188 138.909,101.137 139.305,101.953 139.650 C 102.770 139.995,103.438 140.221,103.438 140.152 C 103.438 140.083,104.326 140.425,105.413 140.912 C 108.288 142.202,112.160 143.491,112.510 143.275 C 112.676 143.172,112.813 143.251,112.813 143.450 C 112.813 143.935,115.608 143.659,115.927 143.142 C 116.057 142.931,116.265 142.784,116.390 142.813 C 116.752 142.900,127.229 132.594,127.699 131.688 C 128.390 130.355,127.096 125.053,125.655 123.318 C 125.425 123.040,125.327 122.813,125.438 122.813 C 125.549 122.813,125.395 122.440,125.097 121.984 C 124.798 121.529,124.529 120.984,124.498 120.773 C 124.467 120.563,123.864 119.175,123.158 117.689 C 122.453 116.203,121.875 114.787,121.875 114.541 C 121.875 114.295,121.649 113.967,121.374 113.813 C 120.988 113.597,120.947 113.396,121.198 112.938 C 121.376 112.611,121.883 111.570,122.323 110.624 C 122.918 109.345,123.384 108.792,124.140 108.470 C 128.188 106.743,130.010 106.015,130.920 105.759 C 133.283 105.095,138.909 102.096,140.034 100.901 L 141.250 99.610 141.250 91.548 L 141.250 83.485 140.431 82.513 C 139.733 81.683,137.932 80.622,137.295 80.665 C 137.188 80.672,137.011 80.533,136.901 80.355 C 136.681 79.998,131.183 77.731,127.500 76.478 C 123.389 75.079,122.942 74.818,122.240 73.398 C 121.882 72.675,121.662 71.967,121.751 71.823 C 121.839 71.680,121.740 71.562,121.529 71.563 C 121.318 71.563,121.238 71.470,121.351 71.357 C 121.465 71.244,121.383 70.940,121.169 70.681 C 120.860 70.306,120.861 70.184,121.174 70.079 C 121.390 70.006,121.487 69.818,121.390 69.661 C 121.293 69.504,121.362 69.375,121.544 69.375 C 121.726 69.375,121.875 69.150,121.875 68.875 C 121.875 68.601,122.069 67.933,122.307 67.391 C 122.545 66.849,122.924 65.914,123.149 65.313 C 123.374 64.711,123.645 64.148,123.752 64.063 C 123.934 63.915,125.409 60.429,125.503 59.922 C 125.527 59.793,125.582 59.617,125.625 59.531 C 125.668 59.445,125.733 59.270,125.769 59.141 C 125.887 58.722,126.300 57.671,126.597 57.031 C 127.224 55.684,127.638 53.091,127.386 52.088 C 127.252 51.553,121.793 45.625,121.435 45.625 C 121.405 45.625,120.095 44.368,118.524 42.831 C 114.901 39.286,113.760 39.055,109.219 40.948 C 108.875 41.091,108.066 41.387,107.422 41.605 C 106.777 41.822,106.250 42.121,106.250 42.269 C 106.250 42.416,106.131 42.464,105.986 42.374 C 105.841 42.284,103.649 43.127,101.115 44.246 L 96.506 46.281 94.113 45.370 C 92.796 44.869,91.707 44.335,91.692 44.183 C 91.656 43.812,91.325 42.969,90.481 41.094 C 90.094 40.234,89.582 38.969,89.343 38.281 C 89.105 37.594,88.831 36.961,88.736 36.875 C 88.640 36.789,88.298 36.016,87.976 35.157 C 86.997 32.549,85.203 29.269,84.084 28.039 L 83.025 26.875 74.388 26.875 L 65.752 26.875 64.643 28.047 M79.347 34.922 C 79.548 35.137,79.639 35.313,79.549 35.313 C 79.459 35.313,79.651 35.840,79.977 36.484 C 80.712 37.939,81.911 40.643,82.646 42.500 C 85.194 48.940,86.509 51.062,88.148 51.374 C 88.623 51.464,90.104 52.066,91.028 52.544 C 91.336 52.703,91.723 52.750,91.888 52.648 C 92.053 52.546,92.188 52.577,92.189 52.716 C 92.190 53.072,94.598 54.006,96.123 54.242 C 97.131 54.397,97.767 54.267,99.122 53.626 C 100.068 53.179,100.914 52.812,101.002 52.813 C 101.090 52.813,102.342 52.267,103.784 51.601 C 105.226 50.935,106.483 50.408,106.576 50.429 C 106.670 50.451,107.127 50.219,107.592 49.915 C 108.057 49.610,108.438 49.426,108.438 49.506 C 108.438 49.586,109.410 49.251,110.599 48.761 L 112.760 47.869 115.911 51.003 C 117.645 52.726,119.061 54.225,119.059 54.334 C 119.046 55.089,117.908 58.283,117.002 60.103 C 116.760 60.590,116.563 61.188,116.563 61.432 C 116.563 61.675,116.438 61.875,116.286 61.875 C 116.135 61.875,115.938 62.191,115.849 62.578 C 115.636 63.510,114.890 65.428,114.665 65.625 C 114.417 65.841,114.036 66.878,113.860 67.813 C 113.779 68.242,113.580 68.727,113.419 68.891 C 112.914 69.401,113.097 71.700,113.750 73.051 C 114.094 73.763,114.375 74.563,114.375 74.829 C 114.375 75.095,114.516 75.313,114.688 75.313 C 114.859 75.313,115.001 75.488,115.002 75.703 C 115.003 75.918,115.192 76.455,115.422 76.896 C 115.653 77.337,115.932 78.059,116.042 78.500 C 116.401 79.931,118.950 82.174,119.694 81.715 C 119.862 81.611,120.000 81.658,120.000 81.820 C 120.000 81.982,120.316 82.192,120.703 82.286 C 121.416 82.460,125.700 83.991,127.256 84.629 C 127.723 84.820,129.109 85.404,130.335 85.926 C 131.562 86.448,132.762 86.875,133.001 86.875 C 133.356 86.875,133.438 87.779,133.438 91.694 L 133.438 96.513 132.422 96.730 C 131.863 96.849,131.055 97.132,130.625 97.359 C 129.346 98.032,121.853 101.111,120.025 101.714 C 118.455 102.232,116.305 103.903,116.211 104.677 C 116.189 104.855,116.154 105.129,116.133 105.286 C 116.111 105.444,115.988 105.678,115.859 105.807 C 115.730 105.936,115.625 106.299,115.625 106.615 C 115.625 106.930,115.484 107.188,115.313 107.188 C 115.141 107.188,115.000 107.460,115.000 107.794 C 115.000 108.128,114.879 108.476,114.730 108.567 C 114.582 108.659,114.282 109.374,114.063 110.156 C 113.843 110.939,113.543 111.654,113.395 111.745 C 112.965 112.011,113.083 114.800,113.552 115.477 C 113.786 115.816,114.086 116.439,114.218 116.860 C 114.350 117.282,114.651 117.821,114.888 118.057 C 115.125 118.294,115.238 118.617,115.141 118.775 C 115.043 118.933,115.112 119.062,115.294 119.063 C 115.476 119.063,115.625 119.272,115.625 119.529 C 115.625 120.180,116.659 122.500,116.949 122.500 C 117.080 122.500,117.188 122.713,117.188 122.973 C 117.188 123.233,117.316 123.690,117.474 123.989 C 117.631 124.287,117.986 125.094,118.263 125.781 C 118.540 126.469,118.974 127.429,119.227 127.916 C 119.721 128.864,119.836 129.733,119.453 129.616 C 119.324 129.577,117.974 130.766,116.454 132.259 C 114.933 133.753,113.516 135.118,113.305 135.292 C 113.037 135.515,112.276 135.349,110.758 134.736 C 109.568 134.255,107.750 133.540,106.719 133.148 C 105.688 132.755,104.248 132.168,103.519 131.842 C 102.790 131.516,102.056 131.250,101.886 131.250 C 101.717 131.250,100.682 130.840,99.588 130.338 C 97.314 129.297,95.901 129.272,93.721 130.236 C 92.245 130.889,91.144 131.307,91.012 131.264 C 90.968 131.249,90.475 131.480,89.919 131.777 C 89.362 132.075,88.812 132.323,88.698 132.331 C 88.583 132.338,88.384 132.449,88.255 132.578 C 88.126 132.707,87.780 132.812,87.485 132.813 C 86.695 132.813,85.071 135.101,84.993 136.323 C 84.985 136.449,84.561 137.433,84.052 138.510 C 83.542 139.588,83.125 140.687,83.125 140.953 C 83.125 141.220,83.007 141.571,82.863 141.734 C 82.718 141.898,82.417 142.523,82.193 143.125 C 81.679 144.507,80.347 147.747,79.912 148.672 C 79.592 149.354,79.446 149.375,74.983 149.375 C 69.800 149.375,70.184 149.553,68.902 146.563 C 68.570 145.789,68.177 145.070,68.029 144.965 C 67.880 144.860,67.778 144.649,67.802 144.496 C 67.893 143.907,66.418 140.677,66.137 140.851 C 65.974 140.952,65.936 140.881,66.051 140.694 C 66.257 140.361,65.867 139.360,63.976 135.365 C 63.220 133.768,62.822 133.295,61.911 132.913 C 61.289 132.652,60.383 132.241,59.897 132.001 C 59.410 131.760,58.845 131.562,58.642 131.563 C 58.438 131.563,57.762 131.289,57.139 130.955 C 56.516 130.621,55.921 130.433,55.817 130.537 C 55.714 130.640,55.342 130.466,54.991 130.148 C 53.843 129.109,50.940 129.409,49.110 130.755 C 48.879 130.925,48.392 131.110,48.028 131.165 C 47.665 131.221,46.897 131.544,46.322 131.883 C 45.747 132.222,45.084 132.500,44.848 132.500 C 44.612 132.500,44.199 132.721,43.929 132.991 C 43.658 133.261,43.438 133.409,43.438 133.320 C 43.438 133.157,41.933 133.710,40.156 134.524 C 38.485 135.290,36.940 135.938,36.784 135.938 C 35.952 135.938,29.968 129.393,30.276 128.819 C 30.468 128.460,30.625 127.876,30.625 127.521 C 30.625 127.165,30.789 126.875,30.990 126.875 C 31.190 126.875,31.266 126.787,31.158 126.679 C 31.051 126.571,31.195 126.044,31.480 125.507 C 31.764 124.970,32.040 124.278,32.093 123.968 C 32.145 123.659,32.470 122.824,32.813 122.113 C 33.156 121.402,33.438 120.636,33.438 120.410 C 33.438 120.185,33.550 120.000,33.687 120.000 C 33.883 120.000,34.618 118.427,34.856 117.500 C 34.918 117.257,35.606 115.539,35.919 114.844 C 36.540 113.466,36.028 111.739,33.114 105.386 C 31.972 102.896,30.859 102.095,27.327 101.219 C 26.477 101.009,25.695 100.706,25.590 100.548 C 25.485 100.389,25.312 100.265,25.205 100.272 C 25.099 100.279,24.521 100.081,23.922 99.830 C 23.323 99.580,22.662 99.375,22.452 99.375 C 22.243 99.375,21.430 99.084,20.646 98.729 C 19.861 98.374,18.617 97.812,17.882 97.479 C 17.147 97.147,16.374 96.875,16.164 96.875 C 15.877 96.875,15.796 95.725,15.842 92.272 L 15.902 87.668 17.561 86.910 C 18.473 86.493,19.641 85.974,20.156 85.756 C 20.672 85.538,21.906 84.998,22.899 84.555 C 23.892 84.112,24.789 83.750,24.892 83.750 C 25.261 83.750,30.796 81.488,31.478 81.058 C 31.861 80.817,32.465 79.952,32.819 79.138 C 33.173 78.323,33.677 77.269,33.937 76.796 C 34.198 76.323,34.334 75.812,34.240 75.660 C 34.146 75.508,34.277 75.211,34.531 75.000 C 34.785 74.789,34.916 74.492,34.822 74.340 C 34.728 74.187,34.800 74.063,34.982 74.063 C 35.164 74.063,35.312 73.868,35.312 73.629 C 35.312 73.391,35.512 72.812,35.756 72.341 C 36.222 71.444,36.171 69.373,35.656 68.281 C 35.494 67.938,34.616 66.109,33.706 64.219 C 32.796 62.328,32.084 60.624,32.124 60.432 C 32.163 60.240,31.983 59.907,31.723 59.691 C 31.463 59.475,31.250 59.103,31.250 58.864 C 31.250 58.625,31.127 58.185,30.976 57.886 C 29.363 54.697,29.201 55.186,33.203 51.177 C 36.321 48.053,35.918 48.200,38.587 49.205 C 39.708 49.627,40.625 49.906,40.625 49.824 C 40.625 49.743,41.293 50.013,42.109 50.423 C 42.926 50.833,43.945 51.274,44.375 51.402 C 44.805 51.531,45.899 51.971,46.806 52.380 C 47.714 52.790,48.530 53.125,48.620 53.125 C 48.710 53.125,49.376 53.394,50.099 53.724 C 52.136 54.652,55.165 54.203,57.681 52.599 C 58.039 52.372,58.425 52.280,58.541 52.395 C 58.656 52.510,58.750 52.464,58.750 52.292 C 58.750 52.120,58.938 51.979,59.169 51.979 C 61.315 51.979,65.523 47.815,64.456 46.747 C 64.354 46.646,64.420 46.563,64.602 46.563 C 64.868 46.563,65.304 45.585,65.443 44.677 C 65.457 44.586,65.732 43.883,66.053 43.115 C 66.374 42.347,66.747 41.438,66.881 41.094 C 67.015 40.750,67.420 39.802,67.781 38.988 C 68.142 38.173,68.438 37.453,68.438 37.387 C 68.438 37.321,68.710 36.651,69.043 35.899 L 69.648 34.531 74.315 34.531 C 77.646 34.531,79.087 34.643,79.347 34.922 M320.798 38.681 C 320.674 38.805,320.469 38.906,320.341 38.906 C 320.213 38.906,319.257 39.645,318.215 40.547 C 317.174 41.449,316.231 42.188,316.121 42.188 C 316.011 42.188,315.467 42.606,314.913 43.118 C 314.359 43.629,312.641 45.044,311.094 46.261 C 309.547 47.477,308.000 48.726,307.656 49.036 C 307.313 49.346,306.047 50.351,304.844 51.270 C 303.641 52.188,301.742 53.692,300.625 54.612 C 297.785 56.950,296.983 57.584,294.844 59.182 C 293.813 59.953,292.518 61.000,291.968 61.511 C 291.417 62.021,290.836 62.487,290.677 62.547 C 290.395 62.654,287.545 65.006,286.569 65.938 C 286.299 66.195,285.308 66.933,284.367 67.577 C 283.426 68.221,282.041 69.311,281.289 69.999 C 280.536 70.687,279.833 71.252,279.726 71.254 C 279.619 71.257,278.898 71.816,278.125 72.496 C 276.043 74.328,275.989 74.373,274.418 75.563 C 273.621 76.168,272.922 76.780,272.865 76.925 C 272.807 77.069,272.553 77.187,272.299 77.188 C 272.046 77.188,271.925 77.328,272.031 77.500 C 272.137 77.672,272.033 77.813,271.798 77.813 C 271.564 77.813,270.923 78.276,270.374 78.843 L 269.375 79.874 269.375 112.999 C 269.375 138.347,269.463 146.213,269.750 146.500 C 270.033 146.783,274.557 146.875,288.195 146.875 L 306.265 146.875 306.570 146.073 C 306.756 145.584,306.875 137.682,306.875 125.761 L 306.875 106.250 321.091 106.250 L 335.308 106.250 335.388 126.484 L 335.469 146.719 353.566 146.794 C 366.491 146.847,371.782 146.769,372.081 146.521 C 372.427 146.234,372.500 140.317,372.500 112.796 L 372.500 79.418 371.484 78.708 C 370.926 78.318,370.398 77.922,370.313 77.828 C 370.161 77.661,367.348 75.398,366.719 74.936 C 366.333 74.653,362.302 71.439,360.057 69.624 C 359.143 68.886,358.088 67.995,357.713 67.645 C 357.338 67.294,356.117 66.306,355.000 65.449 C 352.126 63.244,347.998 59.954,347.813 59.723 C 347.727 59.616,346.813 58.903,345.781 58.140 C 344.750 57.377,343.766 56.585,343.594 56.381 C 343.422 56.177,341.875 54.947,340.156 53.649 C 338.438 52.350,336.670 50.963,336.228 50.566 C 335.786 50.169,334.952 49.492,334.375 49.063 C 333.798 48.633,332.980 47.966,332.558 47.581 C 332.135 47.196,330.309 45.719,328.498 44.300 C 326.688 42.880,324.703 41.288,324.088 40.761 C 322.313 39.241,321.042 38.437,320.798 38.681 M284.678 46.345 C 284.668 52.044,284.477 53.125,283.481 53.125 C 283.285 53.125,283.125 53.235,283.125 53.370 C 283.125 53.505,282.699 53.867,282.178 54.175 C 281.657 54.482,280.989 54.975,280.694 55.270 C 280.398 55.564,279.611 56.221,278.945 56.731 C 278.279 57.240,277.435 57.888,277.070 58.172 L 276.406 58.688 276.480 49.579 C 276.520 44.568,276.555 40.469,276.557 40.469 C 276.559 40.469,278.390 40.512,280.624 40.564 L 284.688 40.660 284.678 46.345 M322.525 48.433 C 323.285 49.118,323.986 49.681,324.084 49.683 C 324.182 49.686,324.814 50.190,325.490 50.804 C 326.166 51.418,328.336 53.163,330.313 54.682 C 332.289 56.201,334.247 57.808,334.664 58.253 C 335.081 58.698,335.536 59.063,335.677 59.063 C 335.926 59.063,337.053 59.940,338.153 60.990 C 338.452 61.276,338.780 61.428,338.880 61.328 C 338.980 61.228,339.063 61.285,339.063 61.454 C 339.063 61.721,342.904 65.000,343.217 65.000 C 343.280 65.000,344.094 65.702,345.025 66.561 C 345.957 67.419,346.811 68.122,346.924 68.123 C 347.036 68.124,347.739 68.629,348.486 69.244 C 349.233 69.859,350.390 70.809,351.058 71.353 C 351.726 71.898,352.429 72.491,352.621 72.671 C 352.812 72.851,353.638 73.457,354.457 74.017 C 355.275 74.577,356.259 75.356,356.644 75.750 C 357.224 76.342,358.439 77.300,361.719 79.749 C 362.077 80.016,363.242 81.017,364.653 82.268 L 365.625 83.130 365.625 111.409 L 365.625 139.688 353.750 139.688 L 341.875 139.688 341.875 119.531 L 341.875 99.375 321.105 99.375 C 300.890 99.375,300.326 99.391,300.011 99.979 C 299.798 100.378,299.688 107.256,299.688 120.136 L 299.688 139.688 288.047 139.688 L 276.406 139.688 276.406 111.342 L 276.406 82.997 277.116 82.287 C 277.507 81.896,277.905 81.586,278.001 81.598 C 278.097 81.610,278.738 81.114,279.426 80.497 C 280.113 79.880,280.735 79.375,280.807 79.375 C 280.879 79.375,281.204 79.129,281.530 78.828 C 282.290 78.126,283.447 77.198,284.547 76.406 C 285.025 76.063,285.568 75.636,285.755 75.457 C 285.941 75.279,286.656 74.722,287.344 74.219 C 288.031 73.715,289.174 72.806,289.884 72.199 C 292.106 70.296,292.813 69.731,292.813 69.855 C 292.813 69.971,293.698 69.217,295.645 67.446 C 296.149 66.986,296.563 66.681,296.563 66.767 C 296.563 66.965,300.120 63.988,300.260 63.672 C 300.318 63.543,300.495 63.438,300.654 63.438 C 300.813 63.438,301.328 63.096,301.800 62.678 C 302.758 61.829,303.671 61.083,304.889 60.156 C 305.340 59.813,306.077 59.176,306.527 58.741 C 306.976 58.306,307.457 57.929,307.595 57.903 C 307.970 57.831,310.016 56.194,310.734 55.391 C 311.080 55.004,311.537 54.688,311.749 54.688 C 311.962 54.688,312.182 54.575,312.240 54.437 C 312.297 54.300,313.750 53.070,315.469 51.705 C 317.188 50.340,318.664 49.147,318.750 49.054 C 318.888 48.904,321.055 47.200,321.119 47.191 C 321.133 47.189,321.765 47.748,322.525 48.433 M70.313 68.771 C 68.175 69.195,64.688 70.392,64.688 70.700 C 64.688 70.851,64.564 70.898,64.413 70.805 C 64.061 70.587,60.220 73.104,59.398 74.091 C 59.053 74.505,58.766 74.727,58.760 74.585 C 58.725 73.695,54.443 79.030,53.412 81.250 C 53.212 81.680,52.787 82.538,52.468 83.157 C 52.148 83.776,51.978 84.374,52.089 84.485 C 52.201 84.596,52.104 84.688,51.875 84.688 C 51.646 84.688,51.547 84.776,51.654 84.883 C 51.762 84.991,51.668 85.519,51.445 86.055 C 50.606 88.078,50.596 95.569,51.430 97.645 C 51.709 98.339,51.989 99.188,52.053 99.531 C 52.679 102.913,57.753 109.239,61.881 111.784 C 66.534 114.652,73.974 116.074,78.750 115.008 C 79.523 114.835,80.635 114.616,81.221 114.521 C 84.045 114.064,89.703 110.635,92.122 107.914 C 93.641 106.205,95.625 103.577,95.625 103.272 C 95.625 103.161,96.043 102.166,96.554 101.062 C 97.065 99.958,97.494 98.988,97.507 98.907 C 97.520 98.826,97.750 98.021,98.018 97.119 C 98.884 94.204,98.460 85.000,97.460 85.000 C 97.321 85.000,97.288 84.789,97.387 84.531 C 97.486 84.273,97.411 84.063,97.221 84.063 C 97.031 84.063,96.874 83.816,96.873 83.516 C 96.872 83.215,96.591 82.547,96.250 82.031 C 95.909 81.516,95.628 80.881,95.627 80.622 C 95.626 80.362,95.273 79.771,94.844 79.307 C 94.414 78.844,94.063 78.378,94.063 78.273 C 94.063 78.167,93.887 77.895,93.672 77.667 C 90.833 74.666,89.719 73.622,88.920 73.213 C 88.397 72.946,87.856 72.536,87.719 72.301 C 87.581 72.067,87.195 71.875,86.859 71.875 C 86.524 71.875,86.250 71.731,86.250 71.556 C 86.250 71.380,85.863 71.079,85.391 70.887 C 84.918 70.694,83.952 70.283,83.245 69.974 C 80.298 68.685,73.793 68.080,70.313 68.771 M77.188 76.405 C 78.305 76.530,79.359 76.738,79.531 76.867 C 79.703 76.996,80.222 77.192,80.684 77.302 C 82.558 77.749,87.473 81.570,87.495 82.597 C 87.498 82.736,87.662 82.749,87.861 82.626 C 88.081 82.490,88.137 82.540,88.004 82.756 C 87.884 82.950,88.073 83.354,88.424 83.655 C 88.775 83.955,89.063 84.428,89.063 84.705 C 89.063 84.982,89.159 85.305,89.277 85.423 C 89.627 85.773,90.303 87.913,90.308 88.690 C 90.310 89.087,90.418 89.347,90.547 89.267 C 90.856 89.076,90.718 93.870,90.368 95.469 C 89.664 98.685,87.138 102.467,84.328 104.510 C 82.998 105.477,79.636 107.240,79.459 107.063 C 79.392 106.996,78.678 107.114,77.872 107.324 C 77.066 107.534,75.914 107.680,75.313 107.648 C 71.562 107.449,70.733 107.368,70.313 107.160 C 69.751 106.881,67.721 106.107,67.500 106.087 C 67.119 106.053,64.551 104.250,63.394 103.205 C 61.822 101.785,60.125 99.165,59.194 96.719 C 58.353 94.514,58.437 87.922,59.319 86.755 C 59.464 86.563,59.773 85.914,60.006 85.313 C 61.891 80.439,69.881 75.431,74.688 76.111 C 74.945 76.147,76.070 76.280,77.188 76.405 " stroke="none" fill="#b4ec04" fill-rule="evenodd"></path><path id="path1" d="M8.125 172.618 C 8.125 178.175,8.204 179.364,8.594 179.688 C 8.880 179.925,9.063 180.610,9.063 181.445 C 9.063 182.197,9.203 182.813,9.375 182.813 C 9.547 182.813,9.688 183.360,9.688 184.029 C 9.688 184.822,9.851 185.308,10.156 185.426 C 10.414 185.524,10.625 185.971,10.625 186.419 C 10.625 186.866,10.823 187.431,11.066 187.673 C 11.308 187.916,11.433 188.398,11.342 188.745 C 11.227 189.185,11.329 189.375,11.682 189.375 C 12.010 189.375,12.188 189.644,12.188 190.138 C 12.188 190.557,12.328 190.988,12.500 191.094 C 12.672 191.200,12.813 191.500,12.813 191.760 C 12.813 192.019,13.032 192.451,13.299 192.719 C 13.567 192.987,13.712 193.398,13.622 193.634 C 13.528 193.877,13.656 194.063,13.916 194.063 C 14.200 194.063,14.375 194.367,14.375 194.862 C 14.375 195.316,14.510 195.578,14.688 195.469 C 14.865 195.359,15.000 195.622,15.000 196.075 C 15.000 196.578,15.174 196.875,15.469 196.875 C 15.727 196.875,15.938 197.086,15.938 197.344 C 15.938 197.602,16.078 197.813,16.250 197.813 C 16.422 197.813,16.563 198.094,16.563 198.438 C 16.563 198.781,16.703 199.063,16.875 199.063 C 17.047 199.063,17.188 199.352,17.188 199.706 C 17.188 200.060,17.329 200.262,17.502 200.155 C 17.675 200.048,17.914 200.212,18.032 200.520 C 18.150 200.828,18.571 201.380,18.967 201.748 C 19.363 202.115,19.688 202.575,19.688 202.770 C 19.688 202.965,19.828 203.125,20.000 203.125 C 20.172 203.125,20.313 203.344,20.313 203.612 C 20.313 203.880,20.428 204.028,20.569 203.941 C 20.857 203.763,21.875 204.836,21.875 205.316 C 21.875 205.486,22.016 205.625,22.188 205.625 C 22.359 205.625,22.500 205.836,22.500 206.094 C 22.500 206.352,22.609 206.527,22.743 206.484 C 22.877 206.441,23.489 206.898,24.104 207.500 C 26.162 209.513,28.121 211.233,28.986 211.787 C 29.458 212.089,30.035 212.518,30.268 212.741 C 30.762 213.214,34.242 215.619,35.156 216.118 C 35.500 216.306,36.906 217.066,38.281 217.806 C 39.656 218.546,40.915 219.272,41.078 219.419 C 41.241 219.567,41.567 219.688,41.801 219.688 C 42.187 219.688,44.990 220.861,46.324 221.582 C 46.622 221.743,47.075 221.875,47.329 221.875 C 47.754 221.875,49.382 222.497,50.699 223.163 C 50.997 223.314,51.550 223.438,51.927 223.438 C 52.586 223.438,53.792 223.751,55.781 224.440 C 56.713 224.762,58.953 225.185,61.478 225.514 L 62.800 225.687 62.884 239.133 C 62.958 250.856,62.909 252.601,62.500 252.744 C 62.242 252.834,61.363 253.379,60.546 253.954 C 59.729 254.529,59.014 255.000,58.956 255.000 C 58.781 255.000,55.625 258.132,55.625 258.305 C 55.625 258.394,55.273 258.793,54.844 259.191 C 54.414 259.590,54.063 260.075,54.063 260.270 C 54.063 260.465,53.922 260.625,53.750 260.625 C 53.578 260.625,53.438 260.840,53.438 261.104 C 53.438 261.367,53.227 261.663,52.969 261.762 C 52.711 261.861,52.500 262.208,52.500 262.533 C 52.500 262.859,52.359 263.125,52.188 263.125 C 52.016 263.125,51.875 263.406,51.875 263.750 C 51.875 264.097,51.667 264.375,51.406 264.375 C 51.094 264.375,50.938 264.688,50.938 265.313 C 50.938 265.828,50.797 266.250,50.625 266.250 C 50.453 266.250,50.313 266.672,50.313 267.188 C 50.313 267.703,50.172 268.125,50.000 268.125 C 49.828 268.125,49.688 268.606,49.688 269.193 C 49.687 270.498,49.405 271.306,49.030 271.074 C 48.869 270.974,48.750 273.095,48.750 276.042 C 48.750 280.324,48.828 281.213,49.219 281.363 C 49.540 281.486,49.688 281.989,49.688 282.959 C 49.688 283.738,49.828 284.375,50.000 284.375 C 50.172 284.375,50.313 284.875,50.313 285.487 C 50.312 286.149,50.439 286.521,50.625 286.406 C 50.807 286.294,50.937 286.611,50.937 287.169 C 50.937 287.758,51.085 288.095,51.321 288.047 C 51.531 288.004,51.752 288.285,51.811 288.672 C 51.870 289.059,52.049 289.375,52.209 289.375 C 52.369 289.375,52.500 289.593,52.500 289.859 C 52.500 290.125,52.852 290.668,53.281 291.066 C 53.711 291.465,54.063 291.969,54.063 292.186 C 54.063 292.404,54.555 293.047,55.156 293.614 C 55.758 294.181,56.250 294.772,56.250 294.926 C 56.250 295.081,56.586 295.387,56.997 295.607 C 57.408 295.826,57.924 296.342,58.143 296.753 C 58.363 297.164,58.720 297.500,58.937 297.500 C 59.153 297.500,59.534 297.704,59.783 297.952 C 60.671 298.841,64.899 301.110,66.199 301.395 C 66.742 301.514,67.188 301.727,67.188 301.867 C 67.187 302.131,68.105 302.300,72.344 302.815 C 75.050 303.144,81.787 302.895,82.058 302.457 C 82.149 302.309,82.627 302.188,83.118 302.188 C 83.610 302.188,84.410 301.991,84.897 301.751 C 85.383 301.510,86.906 300.772,88.281 300.110 C 89.656 299.448,90.922 298.758,91.094 298.578 C 91.266 298.397,92.109 297.694,92.969 297.016 C 94.890 295.499,96.250 294.141,96.250 293.739 C 96.250 293.573,96.391 293.438,96.563 293.438 C 96.734 293.438,96.875 293.290,96.875 293.110 C 96.875 292.930,97.227 292.457,97.656 292.059 C 98.086 291.660,98.438 291.096,98.438 290.805 C 98.438 290.514,98.578 290.363,98.750 290.469 C 98.922 290.575,99.063 290.374,99.063 290.021 L 99.063 289.381 130.469 289.300 L 161.875 289.219 161.875 290.078 C 161.875 290.551,162.016 290.938,162.188 290.938 C 162.359 290.938,162.500 291.209,162.500 291.540 C 162.500 291.872,162.711 292.354,162.969 292.612 C 163.227 292.869,163.438 293.372,163.438 293.728 C 163.438 294.084,163.578 294.375,163.750 294.375 C 163.922 294.375,164.063 294.596,164.063 294.866 C 164.063 295.136,164.238 295.553,164.453 295.793 C 165.425 296.877,165.625 297.192,165.625 297.643 C 165.625 297.908,165.766 298.125,165.938 298.125 C 166.109 298.125,166.250 298.340,166.250 298.604 C 166.250 298.867,166.461 299.163,166.719 299.262 C 166.977 299.361,167.188 299.638,167.188 299.877 C 167.188 300.117,167.328 300.313,167.500 300.313 C 167.672 300.313,167.813 300.523,167.813 300.781 C 167.813 301.039,168.023 301.250,168.281 301.250 C 168.539 301.250,168.750 301.461,168.750 301.719 C 168.750 301.977,168.891 302.188,169.063 302.188 C 169.234 302.188,169.375 302.318,169.375 302.478 C 169.375 302.984,174.294 307.465,176.261 308.750 C 176.655 309.008,177.236 309.465,177.552 309.766 C 177.867 310.066,178.319 310.313,178.555 310.313 C 178.792 310.313,179.142 310.500,179.332 310.730 C 180.026 311.566,186.786 314.544,188.832 314.916 C 189.307 315.002,189.772 315.196,189.866 315.349 C 189.960 315.501,190.552 315.625,191.181 315.625 C 193.911 315.625,196.411 316.665,195.313 317.344 C 195.141 317.450,195.000 317.955,195.000 318.466 C 195.000 319.003,194.802 319.470,194.531 319.574 C 194.242 319.685,194.063 320.160,194.063 320.815 C 194.063 321.398,193.922 321.875,193.750 321.875 C 193.578 321.875,193.438 322.217,193.438 322.634 C 193.437 323.051,193.227 323.604,192.969 323.862 C 192.711 324.119,192.500 324.762,192.500 325.290 C 192.500 325.818,192.359 326.250,192.188 326.250 C 192.016 326.250,191.875 326.742,191.875 327.344 C 191.875 327.945,191.741 328.438,191.577 328.438 C 191.413 328.438,191.186 328.930,191.073 329.531 C 190.960 330.133,190.743 330.625,190.590 330.625 C 190.437 330.625,190.313 331.047,190.313 331.563 C 190.313 332.078,190.172 332.500,190.000 332.500 C 189.828 332.500,189.688 332.932,189.688 333.460 C 189.687 333.988,189.477 334.631,189.219 334.888 C 188.961 335.146,188.750 335.777,188.750 336.291 C 188.750 336.834,188.619 337.144,188.438 337.031 C 188.252 336.916,188.125 337.288,188.125 337.950 C 188.125 338.562,187.984 339.063,187.813 339.063 C 187.641 339.063,187.500 339.555,187.500 340.156 C 187.500 340.920,187.359 341.250,187.031 341.250 C 186.704 341.250,186.563 341.580,186.563 342.344 C 186.563 342.945,186.422 343.438,186.250 343.438 C 186.078 343.438,185.938 343.930,185.938 344.531 C 185.938 345.133,185.806 345.625,185.645 345.625 C 185.484 345.625,185.308 346.082,185.254 346.641 C 185.196 347.249,184.999 347.625,184.766 347.578 C 184.504 347.526,184.375 347.920,184.375 348.768 C 184.375 349.534,184.251 349.960,184.063 349.844 C 183.874 349.727,183.750 350.153,183.750 350.919 C 183.750 351.617,183.618 352.188,183.457 352.188 C 183.296 352.188,183.121 352.645,183.067 353.203 C 183.013 353.762,182.828 354.179,182.656 354.130 C 182.484 354.082,182.272 354.574,182.183 355.224 C 182.095 355.874,181.871 356.379,181.686 356.345 C 181.501 356.311,181.331 356.802,181.307 357.436 C 181.283 358.070,181.120 358.637,180.944 358.696 C 180.769 358.754,180.625 359.291,180.625 359.888 C 180.625 360.533,180.498 360.896,180.313 360.781 C 180.127 360.666,180.000 361.038,180.000 361.700 C 180.000 362.481,179.860 362.813,179.531 362.813 C 179.192 362.813,179.063 363.162,179.063 364.081 C 179.063 364.847,178.939 365.273,178.750 365.156 C 178.564 365.041,178.438 365.413,178.438 366.075 C 178.438 366.687,178.297 367.188,178.125 367.188 C 177.953 367.188,177.813 367.614,177.813 368.135 C 177.813 368.689,177.618 369.157,177.344 369.262 C 177.055 369.373,176.875 369.848,176.875 370.502 C 176.875 371.085,176.734 371.563,176.563 371.563 C 176.391 371.563,176.250 372.070,176.250 372.690 C 176.250 373.552,176.142 373.776,175.792 373.641 C 175.434 373.504,175.372 373.657,175.508 374.338 C 175.623 374.910,175.512 375.381,175.185 375.708 C 174.911 375.981,174.688 376.571,174.688 377.019 C 174.688 377.466,174.477 377.913,174.219 378.012 C 173.952 378.115,173.750 378.581,173.750 379.096 L 173.750 380.000 199.688 380.000 L 225.625 380.000 225.625 379.081 C 225.625 378.575,225.484 378.075,225.313 377.969 C 225.141 377.863,225.000 377.362,225.000 376.857 C 225.000 376.351,224.859 375.938,224.688 375.938 C 224.516 375.938,224.375 375.460,224.375 374.877 C 224.375 374.223,224.195 373.748,223.906 373.637 C 223.632 373.532,223.438 373.064,223.438 372.510 C 223.438 371.989,223.297 371.563,223.125 371.563 C 222.953 371.563,222.813 371.070,222.813 370.469 C 222.813 369.867,222.672 369.375,222.500 369.375 C 222.328 369.375,222.188 368.883,222.188 368.281 C 222.188 367.517,222.046 367.188,221.719 367.188 C 221.391 367.188,221.250 366.858,221.250 366.094 C 221.250 365.492,221.109 365.000,220.938 365.000 C 220.766 365.000,220.625 364.508,220.625 363.906 C 220.625 363.109,220.489 362.813,220.122 362.813 C 219.731 362.813,219.648 362.569,219.747 361.719 C 219.835 360.964,219.748 360.625,219.468 360.625 C 219.213 360.625,219.063 360.220,219.063 359.531 C 219.063 358.823,218.925 358.465,218.672 358.516 C 218.428 358.564,218.245 358.155,218.184 357.422 C 218.131 356.777,217.955 356.250,217.794 356.250 C 217.632 356.250,217.500 355.750,217.500 355.138 C 217.500 354.476,217.373 354.104,217.188 354.219 C 217.002 354.333,216.875 353.973,216.875 353.333 C 216.875 352.663,216.698 352.186,216.406 352.074 C 216.110 351.961,215.938 351.482,215.938 350.773 C 215.937 350.104,215.811 349.729,215.625 349.844 C 215.442 349.957,215.313 349.631,215.313 349.059 C 215.313 348.521,215.102 347.869,214.844 347.612 C 214.586 347.354,214.375 346.801,214.375 346.384 C 214.375 345.967,214.234 345.625,214.063 345.625 C 213.891 345.625,213.750 345.133,213.750 344.531 C 213.750 343.930,213.609 343.438,213.438 343.438 C 213.266 343.438,213.125 342.945,213.125 342.344 C 213.125 341.580,212.984 341.250,212.656 341.250 C 212.329 341.250,212.188 340.920,212.188 340.156 C 212.188 339.555,212.047 339.063,211.875 339.063 C 211.703 339.063,211.563 338.636,211.563 338.115 C 211.562 337.561,211.368 337.093,211.094 336.988 C 210.830 336.887,210.625 336.421,210.625 335.923 C 210.625 335.435,210.484 334.950,210.313 334.844 C 210.141 334.738,210.000 334.158,210.000 333.557 C 210.000 332.907,209.873 332.542,209.688 332.656 C 209.506 332.768,209.375 332.464,209.375 331.932 C 209.375 331.427,209.164 330.839,208.906 330.625 C 208.648 330.411,208.438 329.753,208.438 329.162 C 208.438 328.526,208.310 328.167,208.125 328.281 C 207.936 328.398,207.813 327.966,207.813 327.188 C 207.812 326.409,207.689 325.977,207.500 326.094 C 207.324 326.203,207.187 325.948,207.188 325.510 C 207.188 325.082,206.977 324.521,206.719 324.263 C 206.461 324.006,206.250 323.363,206.250 322.835 C 206.250 322.307,206.109 321.875,205.938 321.875 C 205.766 321.875,205.625 321.383,205.625 320.781 C 205.625 320.180,205.500 319.688,205.347 319.688 C 205.195 319.688,204.977 319.195,204.864 318.594 C 204.752 317.992,204.525 317.500,204.361 317.500 C 204.197 317.500,204.063 317.237,204.063 316.916 C 204.063 316.313,204.420 316.194,207.969 315.621 C 210.454 315.220,214.525 313.925,215.938 313.087 C 216.195 312.934,216.617 312.724,216.875 312.621 C 217.350 312.431,218.943 311.661,220.030 311.098 C 220.357 310.928,220.625 310.682,220.625 310.551 C 220.625 310.420,220.906 310.313,221.250 310.313 C 221.594 310.313,221.875 310.195,221.875 310.052 C 221.875 309.909,222.613 309.282,223.516 308.660 C 224.418 308.037,226.070 306.684,227.188 305.652 C 228.305 304.620,229.324 303.770,229.453 303.763 C 229.582 303.756,229.688 303.598,229.688 303.411 C 229.688 303.225,230.180 302.595,230.781 302.011 C 231.383 301.427,231.875 300.805,231.875 300.631 C 231.875 300.456,232.016 300.313,232.188 300.313 C 232.359 300.313,232.500 300.102,232.500 299.844 C 232.500 299.586,232.641 299.375,232.813 299.375 C 232.984 299.375,233.125 299.160,233.125 298.896 C 233.125 298.633,233.336 298.337,233.594 298.238 C 233.852 298.139,234.063 297.792,234.063 297.467 C 234.063 297.141,234.203 296.875,234.375 296.875 C 234.547 296.875,234.688 296.609,234.688 296.283 C 234.688 295.958,234.898 295.611,235.156 295.512 C 235.414 295.413,235.625 295.038,235.625 294.679 C 235.625 294.320,235.766 294.113,235.938 294.219 C 236.109 294.325,236.250 294.130,236.250 293.785 C 236.250 293.440,236.602 292.497,237.031 291.689 C 237.461 290.881,237.812 289.994,237.812 289.719 C 237.812 288.845,300.306 289.127,300.535 290.003 C 300.625 290.345,300.822 290.625,300.974 290.625 C 301.126 290.625,301.250 290.836,301.250 291.094 C 301.250 291.352,301.391 291.563,301.563 291.563 C 301.734 291.563,301.875 291.691,301.875 291.848 C 301.875 292.484,307.074 297.813,307.695 297.813 C 307.889 297.813,308.232 298.034,308.456 298.304 C 308.681 298.574,309.366 299.068,309.979 299.401 C 310.592 299.734,311.305 300.134,311.563 300.290 C 311.820 300.446,312.594 300.805,313.281 301.089 C 313.969 301.373,314.813 301.725,315.156 301.873 C 318.622 303.358,331.202 303.218,332.743 301.677 C 332.977 301.442,333.428 301.250,333.744 301.250 C 334.996 301.250,339.484 298.527,341.599 296.484 C 342.266 295.840,342.953 295.312,343.125 295.313 C 343.297 295.313,343.438 295.160,343.438 294.974 C 343.437 294.788,343.930 294.157,344.531 293.573 C 345.133 292.989,345.625 292.289,345.625 292.018 C 345.625 291.747,345.766 291.613,345.938 291.719 C 346.109 291.825,346.250 291.622,346.250 291.268 C 346.250 290.905,346.454 290.625,346.719 290.625 C 346.979 290.625,347.188 290.347,347.188 290.000 C 347.188 289.656,347.328 289.375,347.500 289.375 C 347.672 289.375,347.813 289.023,347.813 288.594 C 347.813 288.164,347.953 287.813,348.125 287.813 C 348.297 287.813,348.438 287.527,348.438 287.178 C 348.438 286.829,348.648 286.462,348.906 286.363 C 349.195 286.252,349.375 285.777,349.375 285.123 C 349.375 284.540,349.501 284.063,349.656 284.063 C 350.360 284.062,350.936 272.259,350.291 271.054 C 350.090 270.678,349.982 269.881,350.052 269.283 C 350.144 268.489,350.070 268.238,349.777 268.350 C 349.497 268.458,349.375 268.174,349.375 267.411 C 349.375 266.727,349.199 266.249,348.906 266.137 C 348.648 266.038,348.438 265.671,348.438 265.322 C 348.438 264.973,348.297 264.688,348.125 264.688 C 347.953 264.688,347.813 264.336,347.813 263.906 C 347.813 263.477,347.672 263.125,347.500 263.125 C 347.328 263.125,347.188 262.844,347.188 262.500 C 347.188 262.153,346.979 261.875,346.719 261.875 C 346.454 261.875,346.250 261.595,346.250 261.232 C 346.250 260.878,346.109 260.675,345.938 260.781 C 345.766 260.887,345.625 260.748,345.625 260.472 C 345.625 260.196,345.273 259.644,344.844 259.246 C 344.414 258.848,344.062 258.354,344.063 258.149 C 344.063 257.944,343.922 257.863,343.750 257.969 C 343.578 258.075,343.438 257.943,343.438 257.675 C 343.438 257.407,343.311 257.188,343.156 257.188 C 343.002 257.188,342.404 256.726,341.828 256.162 C 341.252 255.597,340.043 254.601,339.141 253.947 L 337.500 252.759 337.500 239.226 L 337.500 225.693 338.672 225.495 C 339.316 225.385,340.547 225.190,341.406 225.060 C 342.266 224.931,343.128 224.726,343.323 224.604 C 343.518 224.483,344.221 224.299,344.885 224.197 C 345.550 224.094,346.227 223.881,346.391 223.724 C 346.554 223.566,347.143 223.438,347.700 223.438 C 348.257 223.438,348.800 223.297,348.906 223.125 C 349.012 222.953,349.416 222.813,349.802 222.813 C 350.189 222.812,350.779 222.606,351.112 222.354 C 351.446 222.101,352.027 221.890,352.403 221.885 C 352.780 221.879,353.175 221.734,353.281 221.562 C 353.387 221.391,353.800 221.250,354.199 221.250 C 354.597 221.250,355.099 221.039,355.313 220.781 C 355.526 220.523,355.860 220.313,356.054 220.314 C 356.525 220.317,364.190 216.481,364.323 216.176 C 364.380 216.045,364.615 215.938,364.844 215.938 C 365.073 215.938,365.307 215.829,365.365 215.697 C 365.422 215.565,366.172 215.007,367.031 214.457 C 367.891 213.906,369.002 213.100,369.502 212.665 C 370.001 212.231,370.501 211.875,370.613 211.875 C 370.824 211.875,372.114 210.737,374.981 208.018 C 375.916 207.132,376.795 206.441,376.935 206.484 C 377.074 206.527,377.188 206.352,377.188 206.094 C 377.188 205.836,377.298 205.625,377.433 205.625 C 377.567 205.625,377.928 205.201,378.235 204.682 C 378.541 204.163,378.923 203.820,379.083 203.919 C 379.244 204.018,379.375 203.880,379.375 203.612 C 379.375 203.344,379.516 203.125,379.688 203.125 C 379.859 203.125,380.000 202.914,380.000 202.656 C 380.000 202.398,380.211 202.188,380.469 202.188 C 380.727 202.188,380.938 201.977,380.938 201.719 C 380.938 201.461,381.078 201.250,381.250 201.250 C 381.422 201.250,381.563 200.969,381.563 200.625 C 381.563 200.281,381.703 200.000,381.875 200.000 C 382.047 200.000,382.188 199.789,382.188 199.531 C 382.188 199.273,382.398 199.063,382.656 199.063 C 382.925 199.063,383.125 198.781,383.125 198.404 C 383.125 197.987,383.276 197.804,383.537 197.904 C 383.803 198.006,383.941 197.823,383.928 197.390 C 383.916 197.012,384.077 196.753,384.297 196.797 C 384.526 196.843,384.687 196.552,384.688 196.094 C 384.688 195.664,384.828 195.313,385.000 195.313 C 385.172 195.313,385.313 195.097,385.313 194.834 C 385.312 194.571,385.515 194.278,385.762 194.183 C 386.008 194.088,386.141 193.830,386.056 193.608 C 385.971 193.387,386.121 192.987,386.388 192.719 C 386.656 192.451,386.875 191.941,386.875 191.585 C 386.875 191.229,387.016 190.938,387.188 190.938 C 387.359 190.938,387.500 190.652,387.500 190.303 C 387.500 189.954,387.711 189.587,387.969 189.488 C 388.236 189.385,388.438 188.919,388.438 188.404 C 388.438 187.907,388.578 187.500,388.750 187.500 C 388.922 187.500,389.063 187.008,389.063 186.406 C 389.063 185.805,389.203 185.313,389.375 185.313 C 389.547 185.313,389.688 184.816,389.688 184.209 C 389.687 183.516,389.862 183.038,390.156 182.926 C 390.483 182.800,390.625 182.290,390.625 181.243 C 390.625 180.416,390.779 179.688,390.966 179.626 C 391.462 179.461,391.846 175.502,391.861 170.391 L 391.875 165.938 323.750 165.938 L 255.625 165.938 255.625 170.625 C 255.625 173.542,255.743 175.313,255.938 175.313 C 256.116 175.313,256.250 176.256,256.250 177.518 C 256.250 178.737,256.375 179.647,256.530 179.551 C 256.905 179.319,257.187 180.127,257.188 181.432 C 257.188 182.019,257.328 182.500,257.500 182.500 C 257.672 182.500,257.813 183.141,257.813 183.925 C 257.813 184.795,257.934 185.274,258.125 185.156 C 258.314 185.040,258.438 185.466,258.438 186.232 C 258.438 187.080,258.567 187.474,258.828 187.422 C 259.054 187.377,259.263 187.738,259.324 188.281 C 259.382 188.797,259.628 189.331,259.871 189.469 C 260.114 189.606,260.312 189.985,260.313 190.310 C 260.313 190.635,260.453 190.988,260.625 191.094 C 260.797 191.200,260.937 191.560,260.938 191.893 C 260.938 192.227,261.078 192.500,261.250 192.500 C 261.422 192.500,261.563 192.852,261.563 193.281 C 261.563 193.767,261.740 194.063,262.031 194.063 C 262.292 194.063,262.500 194.340,262.500 194.688 C 262.500 195.031,262.641 195.313,262.813 195.313 C 262.984 195.313,263.125 195.594,263.125 195.938 C 263.125 196.281,263.266 196.563,263.438 196.563 C 263.609 196.563,263.750 196.829,263.750 197.154 C 263.750 197.479,263.961 197.827,264.219 197.926 C 264.477 198.024,264.688 198.321,264.688 198.584 C 264.688 198.847,264.828 199.063,265.000 199.063 C 265.172 199.063,265.313 199.273,265.313 199.531 C 265.313 199.789,265.453 200.000,265.625 200.000 C 265.797 200.000,265.938 200.290,265.938 200.643 C 265.937 200.997,266.079 201.199,266.252 201.092 C 266.425 200.985,266.661 201.153,266.776 201.465 C 266.891 201.776,267.452 202.479,268.024 203.026 C 268.595 203.573,269.063 204.115,269.063 204.230 C 269.063 204.678,275.324 210.603,277.335 212.058 C 280.708 214.501,282.855 215.938,283.130 215.938 C 283.271 215.938,283.432 216.049,283.490 216.185 C 283.547 216.321,284.859 217.059,286.406 217.825 C 287.953 218.592,289.266 219.324,289.323 219.453 C 289.380 219.582,289.688 219.688,290.008 219.688 C 290.327 219.688,290.675 219.828,290.781 220.000 C 290.887 220.172,291.230 220.313,291.543 220.313 C 291.855 220.313,292.286 220.523,292.500 220.781 C 292.714 221.039,293.215 221.250,293.614 221.250 C 294.012 221.250,294.425 221.391,294.531 221.563 C 294.637 221.734,295.032 221.879,295.409 221.885 C 295.786 221.890,296.367 222.101,296.700 222.354 C 297.034 222.606,297.623 222.813,298.010 222.813 C 298.397 222.813,298.800 222.953,298.906 223.125 C 299.012 223.297,299.515 223.438,300.023 223.438 C 300.530 223.438,301.190 223.562,301.489 223.713 C 302.749 224.354,306.921 225.230,310.078 225.517 L 311.875 225.681 311.875 238.941 L 311.875 252.201 311.016 252.576 C 308.316 253.752,301.875 259.350,301.875 260.519 C 301.875 260.749,301.734 260.938,301.563 260.938 C 301.391 260.938,301.250 261.148,301.250 261.406 C 301.250 261.664,301.126 261.875,300.974 261.875 C 300.822 261.875,300.625 262.155,300.535 262.497 C 300.278 263.482,237.818 263.640,237.803 262.656 C 237.797 262.313,237.586 261.758,237.334 261.425 C 237.081 261.091,236.875 260.564,236.875 260.253 C 236.875 259.942,236.734 259.688,236.563 259.688 C 236.391 259.688,236.250 259.336,236.250 258.906 C 236.250 258.477,236.109 258.125,235.938 258.125 C 235.766 258.125,235.625 257.910,235.625 257.646 C 235.625 257.383,235.414 257.087,235.156 256.988 C 234.898 256.889,234.688 256.463,234.688 256.042 C 234.688 255.611,234.551 255.360,234.375 255.469 C 234.203 255.575,234.063 255.387,234.063 255.052 C 234.063 254.716,233.852 254.361,233.594 254.262 C 233.336 254.163,233.125 253.867,233.125 253.604 C 233.125 253.340,232.984 253.125,232.813 253.125 C 232.641 253.125,232.500 252.914,232.500 252.656 C 232.500 252.398,232.359 252.188,232.188 252.188 C 232.016 252.188,231.875 252.060,231.875 251.904 C 231.875 251.181,225.060 244.375,224.336 244.375 C 224.186 244.375,224.063 244.244,224.063 244.084 C 224.063 243.923,223.806 243.711,223.493 243.611 C 223.179 243.512,222.650 243.186,222.316 242.887 C 221.600 242.246,219.451 240.971,218.672 240.725 C 218.371 240.630,218.125 240.428,218.125 240.276 C 218.125 240.124,217.925 240.000,217.682 240.000 C 217.438 240.000,216.840 239.802,216.353 239.560 C 215.867 239.318,215.117 238.986,214.688 238.822 C 214.258 238.658,213.374 238.294,212.724 238.012 C 212.073 237.730,211.203 237.500,210.789 237.500 C 210.375 237.500,209.950 237.359,209.844 237.188 C 209.738 237.016,209.087 236.875,208.399 236.875 C 207.710 236.875,206.896 236.741,206.591 236.578 C 205.674 236.087,198.512 235.870,195.625 236.245 C 194.164 236.435,192.336 236.668,191.563 236.763 C 190.789 236.858,190.023 237.063,189.859 237.218 C 189.696 237.373,189.196 237.500,188.747 237.500 C 188.299 237.500,187.659 237.706,187.325 237.959 C 186.992 238.211,186.411 238.422,186.034 238.428 C 185.657 238.433,185.262 238.578,185.156 238.750 C 185.050 238.922,184.700 239.063,184.379 239.063 C 184.058 239.063,183.584 239.273,183.326 239.531 C 183.068 239.789,182.719 240.000,182.551 240.000 C 182.084 240.000,178.049 242.234,177.363 242.873 C 177.030 243.184,176.653 243.438,176.526 243.438 C 176.399 243.438,176.109 243.616,175.882 243.835 C 175.655 244.053,175.047 244.557,174.531 244.954 C 174.016 245.351,173.082 246.148,172.455 246.726 C 171.829 247.303,171.232 247.690,171.127 247.586 C 171.023 247.481,170.938 247.579,170.938 247.803 C 170.938 248.026,170.586 248.535,170.156 248.934 C 169.727 249.332,169.375 249.805,169.375 249.985 C 169.375 250.165,169.234 250.313,169.063 250.313 C 168.891 250.313,168.750 250.523,168.750 250.781 C 168.750 251.039,168.539 251.250,168.281 251.250 C 168.023 251.250,167.813 251.461,167.813 251.719 C 167.813 251.977,167.672 252.188,167.500 252.188 C 167.328 252.188,167.188 252.383,167.188 252.623 C 167.188 252.862,166.977 253.139,166.719 253.238 C 166.461 253.337,166.250 253.633,166.250 253.896 C 166.250 254.160,166.145 254.377,166.016 254.379 C 165.887 254.381,165.513 254.943,165.184 255.629 C 164.856 256.314,164.469 256.875,164.325 256.875 C 164.181 256.875,164.063 257.156,164.063 257.500 C 164.063 257.844,163.922 258.125,163.750 258.125 C 163.578 258.125,163.438 258.416,163.438 258.772 C 163.438 259.128,163.227 259.631,162.969 259.888 C 162.711 260.146,162.500 260.637,162.500 260.978 C 162.500 261.320,162.359 261.512,162.188 261.406 C 162.003 261.292,161.875 261.637,161.875 262.247 L 161.875 263.281 130.469 263.200 C 99.348 263.120,99.063 263.113,99.063 262.497 C 99.063 262.155,98.922 261.875,98.750 261.875 C 98.578 261.875,98.438 261.724,98.438 261.540 C 98.438 261.356,98.262 261.009,98.047 260.770 C 97.219 259.847,96.875 259.395,96.875 259.232 C 96.875 258.521,91.650 254.145,89.430 252.997 L 88.438 252.484 88.438 239.085 L 88.437 225.685 89.922 225.516 C 92.667 225.202,94.841 224.827,95.198 224.604 C 95.393 224.483,96.096 224.299,96.760 224.197 C 97.425 224.094,98.102 223.881,98.266 223.724 C 98.429 223.566,99.018 223.438,99.575 223.438 C 100.132 223.438,100.675 223.297,100.781 223.125 C 100.887 222.953,101.291 222.813,101.677 222.813 C 102.064 222.813,102.654 222.606,102.987 222.354 C 103.321 222.101,103.849 221.890,104.160 221.885 C 104.471 221.879,105.526 221.512,106.504 221.069 C 107.481 220.625,108.633 220.116,109.063 219.938 C 109.963 219.565,109.998 219.548,113.476 217.763 C 114.916 217.025,116.141 216.312,116.198 216.179 C 116.255 216.046,116.438 215.938,116.604 215.938 C 116.888 215.938,120.362 213.648,121.108 212.969 C 121.297 212.797,121.968 212.305,122.599 211.875 C 123.229 211.445,123.747 210.988,123.748 210.859 C 123.749 210.730,123.878 210.625,124.034 210.625 C 124.434 210.625,130.625 204.442,130.625 204.042 C 130.625 203.861,130.766 203.800,130.938 203.906 C 131.109 204.012,131.250 203.880,131.250 203.612 C 131.250 203.344,131.381 203.125,131.541 203.125 C 131.702 203.125,131.923 202.842,132.033 202.495 C 132.143 202.149,132.347 201.937,132.487 202.023 C 132.627 202.110,132.818 201.887,132.912 201.528 C 133.006 201.168,133.233 200.967,133.416 201.081 C 133.612 201.201,133.750 201.020,133.750 200.643 C 133.750 200.290,133.891 200.000,134.063 200.000 C 134.234 200.000,134.375 199.789,134.375 199.531 C 134.375 199.273,134.516 199.063,134.688 199.063 C 134.859 199.063,135.000 198.781,135.000 198.438 C 135.000 198.090,135.208 197.813,135.469 197.813 C 135.729 197.813,135.938 197.535,135.938 197.188 C 135.938 196.844,136.078 196.563,136.250 196.563 C 136.422 196.563,136.563 196.281,136.563 195.938 C 136.563 195.594,136.769 195.313,137.021 195.313 C 137.300 195.313,137.410 195.129,137.302 194.846 C 137.199 194.580,137.338 194.298,137.624 194.188 C 137.899 194.082,138.125 193.659,138.125 193.248 C 138.125 192.837,138.266 192.500,138.438 192.500 C 138.609 192.500,138.750 192.148,138.750 191.719 C 138.750 191.233,138.927 190.938,139.219 190.938 C 139.533 190.938,139.688 190.623,139.688 189.982 C 139.688 189.424,139.818 189.106,140.000 189.219 C 140.183 189.332,140.313 189.010,140.313 188.446 C 140.312 187.876,140.505 187.407,140.781 187.301 C 141.070 187.190,141.250 186.715,141.250 186.060 C 141.250 185.477,141.391 185.000,141.563 185.000 C 141.734 185.000,141.875 184.503,141.875 183.896 C 141.875 183.289,142.054 182.724,142.273 182.640 C 142.530 182.542,142.631 182.062,142.558 181.294 C 142.482 180.497,142.609 179.936,142.941 179.604 C 143.295 179.250,143.438 178.512,143.437 177.035 C 143.437 175.733,143.554 175.035,143.750 175.156 C 143.953 175.282,144.062 173.701,144.063 170.643 L 144.063 165.938 76.094 165.938 L 8.125 165.938 8.125 172.618 M337.956 239.531 C 337.956 246.922,337.997 249.901,338.047 246.151 C 338.096 242.401,338.096 236.354,338.046 232.713 C 337.997 229.073,337.956 232.141,337.956 239.531 " stroke="none" fill="#444444" fill-rule="evenodd"></path><path id="path2" d="M113.448 68.104 C 113.053 68.844,113.034 69.155,113.400 68.930 C 113.676 68.759,114.106 67.500,113.888 67.500 C 113.824 67.500,113.626 67.772,113.448 68.104 M342.022 119.844 C 342.022 130.844,342.061 135.298,342.109 129.743 C 342.157 124.188,342.157 115.188,342.109 109.743 C 342.061 104.298,342.022 108.844,342.022 119.844 " stroke="none" fill="#bcec04" fill-rule="evenodd"></path><path id="path3" d="" stroke="none" fill="#846c24" fill-rule="evenodd"></path><path id="path4" d="" stroke="none" fill="#447024" fill-rule="evenodd"></path></g></svg>