<svg id="svg" version="1.1" xmlns="http://www.w3.org/2000/svg" xmlns:xlink="http://www.w3.org/1999/xlink" width="400" height="400" viewBox="0, 0, 400,400"><g id="svgg"><path id="path0" d="M168.125 22.636 C 164.622 23.516,164.162 23.674,162.060 24.716 C 158.712 26.377,153.750 31.833,153.750 33.853 C 153.750 34.064,153.527 34.555,153.253 34.945 C 152.980 35.335,152.833 35.854,152.927 36.098 C 153.021 36.343,152.951 36.633,152.772 36.744 C 152.592 36.855,152.515 37.211,152.600 37.535 C 152.684 37.859,152.624 38.205,152.464 38.303 C 152.305 38.402,152.222 39.102,152.279 39.860 C 152.338 40.644,152.239 41.285,152.050 41.349 C 151.842 41.419,151.893 41.677,152.188 42.040 C 152.500 42.426,152.519 42.537,152.246 42.373 C 151.925 42.180,151.874 42.388,152.012 43.329 C 152.109 43.990,152.254 45.340,152.333 46.328 C 152.413 47.316,152.605 48.371,152.761 48.672 C 152.916 48.973,153.004 49.464,152.956 49.764 C 152.908 50.064,152.996 50.389,153.153 50.486 C 153.309 50.583,153.438 50.943,153.438 51.287 C 153.438 51.680,153.572 51.829,153.798 51.689 C 154.024 51.549,154.074 51.603,153.932 51.834 C 153.807 52.036,154.137 53.088,154.665 54.172 C 155.193 55.256,155.625 56.286,155.625 56.461 C 155.625 56.635,155.921 57.046,156.283 57.373 C 156.645 57.701,157.202 58.461,157.520 59.063 C 158.016 59.999,161.250 63.688,161.250 63.317 C 161.250 63.246,161.721 63.630,162.296 64.172 C 164.257 66.017,164.932 66.562,165.252 66.563 C 165.429 66.563,165.620 66.671,165.677 66.803 C 165.804 67.096,168.975 69.172,169.844 69.532 C 170.655 69.867,170.833 69.914,171.458 69.961 C 171.745 69.982,171.901 70.078,171.806 70.173 C 171.711 70.268,161.834 70.334,149.856 70.321 C 135.047 70.304,128.142 70.399,128.276 70.617 C 128.385 70.793,128.325 70.937,128.141 70.938 C 127.908 70.938,127.832 77.556,127.889 93.047 L 127.969 115.156 132.031 115.243 L 136.094 115.330 136.018 165.634 L 135.941 215.938 225.002 215.938 L 314.063 215.938 314.063 165.625 L 314.063 115.313 317.969 115.313 L 321.875 115.313 321.875 92.975 L 321.875 70.637 321.172 70.461 C 320.785 70.365,310.906 70.327,299.219 70.377 L 277.969 70.469 280.313 69.282 C 281.602 68.629,282.832 67.864,283.047 67.582 C 283.262 67.299,283.438 67.171,283.438 67.296 C 283.437 67.422,283.745 67.238,284.121 66.887 C 284.498 66.537,284.962 66.250,285.154 66.250 C 285.811 66.250,292.813 59.103,292.813 58.432 C 292.813 57.772,292.872 57.648,293.307 57.404 C 293.925 57.059,295.260 54.319,295.072 53.785 C 294.987 53.544,295.060 53.438,295.236 53.546 C 295.410 53.654,295.697 53.357,295.874 52.887 C 296.581 51.008,296.859 49.915,296.697 49.652 C 296.603 49.499,296.651 49.375,296.804 49.375 C 296.958 49.375,297.055 49.059,297.022 48.672 C 296.988 48.285,297.117 47.771,297.308 47.530 C 297.767 46.952,297.865 38.740,297.419 38.192 C 297.240 37.972,297.105 37.374,297.119 36.864 C 297.134 36.355,297.014 35.938,296.854 35.938 C 296.694 35.937,296.581 35.832,296.604 35.703 C 296.697 35.182,296.154 33.438,295.898 33.438 C 295.748 33.438,295.625 33.221,295.625 32.956 C 295.625 32.468,294.414 30.556,293.984 30.365 C 293.855 30.307,293.750 30.057,293.750 29.808 C 293.750 29.559,293.539 29.274,293.281 29.176 C 293.023 29.077,292.813 28.819,292.813 28.604 C 292.813 28.389,292.444 27.947,291.993 27.622 C 291.542 27.297,290.944 26.806,290.665 26.531 C 290.023 25.900,286.140 23.780,285.399 23.656 C 285.094 23.605,284.563 23.408,284.219 23.219 C 281.108 21.504,270.512 22.099,265.313 24.281 C 265.055 24.389,264.773 24.499,264.688 24.527 C 263.910 24.772,262.813 25.475,262.813 25.727 C 262.813 25.900,262.728 25.957,262.624 25.853 C 262.091 25.320,252.500 33.648,252.500 34.644 C 252.500 34.778,252.078 35.360,251.563 35.938 C 251.047 36.515,250.625 37.151,250.625 37.352 C 250.625 37.552,250.344 37.970,250.000 38.281 C 249.656 38.592,249.375 38.972,249.375 39.124 C 249.375 39.276,249.085 39.712,248.730 40.091 C 248.109 40.755,246.108 44.030,246.098 44.397 C 246.096 44.496,245.846 44.823,245.544 45.126 C 245.242 45.428,245.074 45.805,245.172 45.963 C 245.269 46.121,245.232 46.250,245.090 46.250 C 244.947 46.250,244.552 46.777,244.212 47.422 C 243.873 48.066,243.419 48.779,243.204 49.006 C 242.989 49.233,242.728 49.760,242.623 50.178 C 242.518 50.596,242.313 50.938,242.168 50.938 C 242.023 50.938,241.659 51.465,241.359 52.109 C 241.059 52.754,240.732 53.352,240.631 53.438 C 240.267 53.749,238.438 56.781,238.438 57.074 C 238.438 57.239,237.870 57.965,237.176 58.687 C 236.482 59.409,236.025 60.001,236.160 60.003 C 236.296 60.005,235.352 60.998,234.063 62.211 C 230.155 65.889,226.423 67.105,222.188 66.081 C 221.586 65.935,221.023 65.802,220.938 65.784 C 219.533 65.493,214.063 61.272,214.063 60.480 C 214.063 60.061,212.897 58.770,212.698 58.969 C 212.589 59.078,212.500 58.953,212.500 58.691 C 212.500 58.430,212.184 57.875,211.797 57.458 C 211.410 57.040,211.094 56.602,211.094 56.485 C 211.094 56.367,210.817 55.949,210.478 55.557 C 210.140 55.165,209.834 54.653,209.798 54.419 C 209.762 54.186,209.441 53.685,209.085 53.305 C 208.729 52.926,208.438 52.468,208.438 52.288 C 208.438 52.107,208.121 51.557,207.734 51.065 C 207.348 50.574,207.087 50.118,207.155 50.053 C 207.281 49.932,206.672 48.955,206.075 48.321 C 205.892 48.127,205.541 47.512,205.295 46.953 C 205.049 46.395,204.733 45.938,204.593 45.938 C 204.453 45.938,204.413 45.816,204.505 45.667 C 204.597 45.518,204.398 45.148,204.063 44.844 C 203.727 44.540,203.514 44.191,203.590 44.068 C 203.666 43.945,203.452 43.548,203.114 43.185 C 202.776 42.823,202.500 42.387,202.500 42.217 C 202.500 42.046,202.148 41.528,201.719 41.064 C 201.289 40.601,200.938 40.085,200.938 39.918 C 200.938 39.579,198.850 36.580,198.276 36.094 C 198.073 35.922,197.888 35.674,197.865 35.544 C 197.760 34.951,196.778 33.773,196.521 33.932 C 196.363 34.029,196.273 33.982,196.320 33.826 C 196.427 33.475,190.134 27.310,189.063 26.715 C 188.633 26.477,187.789 26.028,187.188 25.719 C 186.586 25.409,186.004 25.033,185.894 24.882 C 185.785 24.731,185.517 24.717,185.299 24.852 C 185.042 25.011,184.981 24.971,185.126 24.736 C 185.249 24.537,185.236 24.364,185.097 24.351 C 184.349 24.280,183.680 24.073,182.829 23.649 C 182.308 23.389,181.493 23.092,181.019 22.989 C 180.544 22.886,179.805 22.720,179.375 22.621 C 177.555 22.199,169.823 22.209,168.125 22.636 M180.025 31.875 C 181.644 32.427,183.259 33.144,183.614 33.470 C 183.969 33.796,184.391 34.064,184.551 34.066 C 184.712 34.068,185.318 34.557,185.898 35.154 C 186.478 35.751,187.111 36.149,187.304 36.038 C 187.498 35.928,187.554 35.950,187.430 36.088 C 187.306 36.225,187.763 36.864,188.446 37.508 C 189.129 38.151,189.688 38.826,189.688 39.008 C 189.688 39.191,189.943 39.523,190.255 39.748 C 190.568 39.972,191.090 40.613,191.417 41.172 C 191.743 41.730,192.088 42.188,192.184 42.188 C 192.280 42.188,192.623 42.680,192.947 43.281 C 193.271 43.883,193.654 44.375,193.799 44.375 C 193.944 44.375,194.063 44.586,194.063 44.844 C 194.063 45.102,194.211 45.313,194.393 45.313 C 194.575 45.313,194.643 45.443,194.545 45.603 C 194.446 45.763,194.496 45.976,194.657 46.075 C 194.818 46.174,195.477 47.204,196.121 48.362 C 196.766 49.521,197.516 50.680,197.787 50.938 C 198.059 51.195,198.287 51.547,198.293 51.719 C 198.312 52.212,199.467 54.375,199.712 54.375 C 199.833 54.375,200.020 54.727,200.128 55.156 C 200.236 55.586,200.462 55.938,200.631 55.938 C 200.800 55.938,200.938 56.148,200.938 56.406 C 200.938 56.664,201.043 56.877,201.172 56.879 C 201.301 56.881,201.684 57.462,202.023 58.170 C 202.363 58.878,202.876 59.605,203.164 59.784 C 203.452 59.964,203.631 60.262,203.561 60.446 C 203.451 60.737,203.802 61.256,205.319 63.047 C 205.501 63.262,205.569 63.438,205.470 63.438 C 205.372 63.438,205.723 63.859,206.250 64.375 C 206.777 64.891,207.124 65.313,207.020 65.313 C 206.916 65.313,207.060 65.543,207.342 65.824 C 207.657 66.139,207.741 66.446,207.562 66.625 C 207.108 67.080,189.303 66.642,187.188 66.125 C 186.758 66.020,186.125 65.886,185.781 65.828 C 185.438 65.770,184.805 65.634,184.375 65.526 C 183.945 65.418,183.172 65.263,182.656 65.182 C 180.944 64.910,178.614 64.161,176.911 63.333 C 175.985 62.883,175.106 62.591,174.958 62.682 C 174.809 62.774,174.688 62.710,174.688 62.540 C 174.688 62.369,174.406 62.140,174.063 62.031 C 172.994 61.692,168.469 58.517,167.388 57.347 C 167.068 57.002,166.671 56.757,166.505 56.805 C 166.339 56.852,166.290 56.751,166.395 56.580 C 166.501 56.410,166.300 56.091,165.950 55.873 C 165.599 55.654,165.313 55.293,165.313 55.071 C 165.313 54.849,165.114 54.592,164.871 54.498 C 164.350 54.298,161.506 48.911,161.778 48.639 C 161.880 48.537,161.805 48.260,161.610 48.026 C 161.415 47.791,161.343 47.511,161.451 47.403 C 161.559 47.296,161.485 46.816,161.287 46.338 C 160.822 45.212,160.662 41.405,161.020 40.000 C 161.174 39.398,161.316 38.590,161.337 38.203 C 161.358 37.816,161.476 37.500,161.600 37.500 C 161.724 37.500,161.912 37.103,162.019 36.619 C 162.433 34.731,166.235 31.563,168.085 31.563 C 168.451 31.563,168.750 31.438,168.750 31.287 C 168.750 31.135,169.327 31.003,170.033 30.993 C 170.739 30.984,171.360 30.932,171.413 30.879 C 171.938 30.352,177.411 30.985,180.025 31.875 M279.688 31.068 C 281.563 31.295,283.033 31.855,284.703 32.979 C 285.588 33.575,286.448 34.063,286.612 34.063 C 286.777 34.063,286.832 34.192,286.734 34.350 C 286.637 34.508,286.782 34.862,287.057 35.137 C 287.332 35.412,287.583 35.810,287.615 36.022 C 287.648 36.233,287.791 36.593,287.933 36.822 C 288.895 38.363,289.226 44.628,288.476 47.109 C 288.307 47.668,288.234 48.125,288.314 48.125 C 288.394 48.125,288.284 48.441,288.069 48.828 C 287.854 49.215,287.656 49.637,287.628 49.766 C 287.601 49.895,287.544 50.105,287.502 50.234 C 287.460 50.363,287.443 50.574,287.463 50.703 C 287.483 50.832,287.371 50.938,287.212 50.938 C 287.054 50.938,286.832 51.359,286.719 51.875 C 286.605 52.391,286.414 52.813,286.293 52.813 C 286.171 52.813,285.835 53.214,285.545 53.705 C 285.255 54.196,284.311 55.351,283.446 56.271 C 282.582 57.192,281.875 58.079,281.875 58.243 C 281.875 58.407,281.789 58.456,281.684 58.350 C 281.578 58.245,281.052 58.570,280.514 59.073 C 279.977 59.575,279.150 60.147,278.679 60.342 C 278.207 60.538,277.903 60.831,278.004 60.995 C 278.105 61.158,277.998 61.254,277.766 61.207 C 277.221 61.098,275.313 62.110,275.313 62.508 C 275.313 62.675,275.207 62.790,275.078 62.763 C 274.949 62.736,274.563 62.819,274.219 62.948 C 273.875 63.078,273.213 63.326,272.748 63.499 C 272.282 63.673,271.847 63.765,271.780 63.704 C 271.713 63.643,271.426 63.787,271.142 64.023 C 270.858 64.259,270.625 64.359,270.625 64.246 C 270.625 64.133,270.309 64.211,269.922 64.419 C 269.292 64.757,267.871 65.136,266.094 65.439 C 265.750 65.497,265.469 65.578,265.469 65.619 C 265.469 65.659,265.117 65.723,264.688 65.761 C 264.258 65.799,263.695 65.922,263.438 66.034 C 262.247 66.552,243.177 67.111,242.360 66.652 C 242.021 66.461,242.203 66.091,243.172 65.000 C 243.859 64.227,244.641 63.172,244.910 62.656 C 245.180 62.141,245.490 61.648,245.601 61.563 C 246.058 61.207,249.375 55.811,249.375 55.422 C 249.375 55.190,249.493 55.000,249.637 55.000 C 249.782 55.000,250.064 54.684,250.266 54.297 C 250.467 53.910,250.893 53.172,251.212 52.656 C 251.531 52.141,251.732 51.613,251.659 51.484 C 251.586 51.355,251.657 51.250,251.819 51.250 C 251.980 51.250,252.299 50.793,252.527 50.234 C 252.755 49.676,253.124 49.033,253.346 48.806 C 253.568 48.579,254.132 47.735,254.600 46.931 C 255.526 45.340,256.718 43.464,257.119 42.969 C 257.258 42.797,257.717 42.172,258.139 41.581 C 259.422 39.783,259.761 39.386,262.061 36.994 C 263.280 35.725,264.378 34.688,264.501 34.688 C 264.624 34.688,265.243 34.284,265.878 33.791 C 266.869 33.020,268.164 32.422,271.094 31.379 C 271.438 31.257,272.914 31.094,274.375 31.016 C 275.836 30.939,277.087 30.822,277.156 30.756 C 277.224 30.690,277.576 30.704,277.937 30.786 C 278.298 30.868,279.086 30.995,279.688 31.068 M313.204 92.734 C 313.162 100.426,313.056 106.684,312.970 106.641 C 312.883 106.598,298.609 106.563,281.250 106.563 L 249.688 106.563 249.688 92.814 L 249.688 79.065 281.484 78.984 C 298.973 78.940,313.281 78.869,313.281 78.827 C 313.281 78.784,313.247 85.043,313.204 92.734 M200.384 92.812 L 200.300 106.563 168.353 106.563 L 136.406 106.563 136.491 92.813 L 136.575 79.063 168.522 79.062 L 200.469 79.062 200.384 92.812 M240.781 143.281 L 240.781 207.500 224.922 207.500 L 209.063 207.500 209.063 143.281 L 209.063 79.063 224.922 79.063 L 240.781 79.063 240.781 143.281 M200.296 115.598 C 200.391 115.752,200.433 136.493,200.389 161.689 L 200.308 207.500 172.500 207.500 L 144.692 207.500 144.611 161.484 C 144.567 136.176,144.553 115.398,144.579 115.313 C 144.668 115.026,200.118 115.311,200.296 115.598 M305.304 160.547 C 305.306 185.598,305.222 206.410,305.117 206.797 L 304.927 207.500 277.307 207.500 L 249.688 207.500 249.688 161.408 L 249.688 115.316 277.422 115.234 C 292.676 115.190,305.189 115.118,305.228 115.076 C 305.268 115.034,305.302 135.496,305.304 160.547 " stroke="none" fill="#b4ec04" fill-rule="evenodd"></path><path id="path1" d="M24.453 221.116 C 23.723 221.861,23.125 222.618,23.125 222.798 C 23.125 222.978,22.975 223.125,22.791 223.125 C 22.577 223.125,22.489 223.955,22.544 225.447 C 22.592 226.724,22.721 227.713,22.831 227.645 C 22.941 227.577,23.201 227.840,23.409 228.229 C 24.383 230.047,26.423 230.305,40.000 230.322 C 56.620 230.343,61.024 230.789,61.471 232.496 C 61.561 232.842,61.724 233.125,61.833 233.124 C 61.942 233.124,61.984 234.198,61.927 235.512 C 61.862 237.006,61.950 237.978,62.163 238.110 C 62.625 238.395,62.649 347.919,62.187 348.073 C 62.013 348.131,61.950 348.306,62.046 348.462 C 62.359 348.968,60.699 350.292,59.317 350.638 C 58.523 350.836,51.547 351.083,42.344 351.237 C 25.039 351.528,24.051 351.648,23.342 353.535 C 23.225 353.847,23.009 354.028,22.862 353.937 C 22.714 353.846,22.584 354.962,22.571 356.417 C 22.558 357.990,22.675 359.063,22.861 359.063 C 23.033 359.063,23.748 359.625,24.449 360.313 L 25.724 361.563 43.587 361.563 C 63.259 361.563,63.284 361.560,66.352 359.612 C 67.957 358.593,69.687 357.006,69.688 356.554 C 69.688 356.404,69.894 356.166,70.146 356.025 C 70.398 355.883,71.242 354.649,72.021 353.282 L 73.438 350.796 73.438 291.016 L 73.438 231.236 72.220 228.821 C 71.182 226.760,67.675 222.500,67.016 222.500 C 66.924 222.500,66.559 222.230,66.206 221.901 C 64.181 220.015,60.444 219.685,41.563 219.727 L 25.781 219.763 24.453 221.116 M90.313 240.292 C 85.517 240.531,85.345 240.582,84.178 242.112 C 82.779 243.946,82.823 248.015,84.247 248.561 C 84.489 248.654,84.689 248.911,84.690 249.131 C 84.698 250.475,92.161 250.885,117.247 250.919 L 131.212 250.938 134.122 252.395 C 137.305 253.989,140.097 255.633,140.260 256.010 C 140.318 256.142,140.500 256.250,140.665 256.250 C 141.024 256.250,145.646 259.293,146.094 259.824 C 146.266 260.028,147.004 260.529,147.734 260.936 C 148.465 261.344,149.063 261.783,149.063 261.911 C 149.063 262.040,149.319 262.227,149.632 262.326 C 149.946 262.426,150.473 262.757,150.804 263.063 C 151.135 263.369,152.215 264.155,153.203 264.809 C 154.191 265.463,155.000 266.099,155.000 266.223 C 155.000 266.346,155.492 266.681,156.094 266.968 C 156.695 267.255,157.188 267.611,157.188 267.758 C 157.188 267.906,157.680 268.292,158.281 268.616 C 158.883 268.940,159.375 269.296,159.375 269.408 C 159.375 269.520,159.782 269.780,160.280 269.986 C 160.777 270.193,161.445 270.602,161.764 270.897 C 162.500 271.577,165.207 273.438,165.460 273.438 C 165.565 273.438,165.917 273.684,166.242 273.984 C 166.568 274.285,167.511 274.883,168.339 275.313 C 169.166 275.742,169.914 276.186,170.000 276.299 C 170.087 276.412,171.423 277.111,172.969 277.853 C 174.516 278.594,175.852 279.286,175.938 279.391 C 176.757 280.384,178.300 280.583,186.643 280.766 C 221.589 281.535,220.912 281.483,224.488 283.670 C 229.412 286.682,231.939 286.689,234.156 283.695 C 235.982 281.229,233.994 275.000,231.381 275.000 C 231.137 275.000,230.938 274.893,230.938 274.761 C 230.938 274.479,227.770 272.933,227.425 273.047 C 227.294 273.090,227.188 273.005,227.188 272.858 C 227.188 272.528,221.894 270.815,221.644 271.064 C 221.545 271.163,221.254 271.070,220.997 270.857 C 220.639 270.559,216.039 270.446,201.316 270.373 L 182.102 270.277 179.879 269.160 C 176.567 267.496,172.670 265.260,172.552 264.955 C 172.495 264.808,172.313 264.688,172.147 264.688 C 171.828 264.688,167.353 261.762,166.563 261.036 C 166.305 260.799,164.758 259.670,163.125 258.526 C 161.492 257.382,160.044 256.261,159.906 256.035 C 159.769 255.810,159.488 255.624,159.281 255.624 C 159.075 255.623,158.457 255.201,157.908 254.686 C 157.358 254.171,156.761 253.750,156.579 253.750 C 156.398 253.750,156.250 253.635,156.250 253.495 C 156.250 253.355,155.758 253.006,155.156 252.719 C 154.555 252.432,154.063 252.055,154.063 251.880 C 154.063 251.705,153.877 251.563,153.651 251.563 C 153.424 251.563,152.686 251.070,152.010 250.469 C 151.334 249.868,150.605 249.375,150.391 249.375 C 150.176 249.375,150.000 249.234,150.000 249.063 C 150.000 248.891,149.804 248.750,149.565 248.750 C 149.325 248.750,149.048 248.539,148.949 248.281 C 148.851 248.023,148.554 247.813,148.291 247.813 C 148.028 247.813,147.813 247.687,147.813 247.534 C 147.813 247.381,147.461 247.167,147.031 247.059 C 146.602 246.951,146.250 246.725,146.250 246.557 C 146.250 246.388,146.039 246.250,145.781 246.250 C 145.523 246.250,145.313 246.132,145.313 245.987 C 145.313 245.843,144.609 245.342,143.750 244.874 C 142.891 244.406,142.188 244.108,142.188 244.211 C 142.188 244.315,141.874 244.107,141.491 243.750 C 141.107 243.393,140.439 243.016,140.006 242.913 C 139.573 242.810,139.078 242.642,138.906 242.540 C 138.734 242.437,138.523 242.339,138.438 242.322 C 138.352 242.305,137.859 242.113,137.344 241.895 C 133.590 240.310,107.651 239.425,90.313 240.292 M300.350 260.786 C 298.800 261.221,295.822 262.590,286.719 267.050 C 281.805 269.458,272.176 274.063,272.055 274.063 C 271.999 274.063,267.963 276.012,263.086 278.395 C 258.209 280.778,252.391 283.603,250.156 284.673 C 247.922 285.742,244.406 287.430,242.344 288.424 C 240.281 289.417,238.031 290.477,237.344 290.778 C 235.458 291.605,232.723 292.849,232.130 293.150 C 225.234 296.651,194.975 296.417,164.688 292.627 C 151.382 290.962,147.205 290.655,146.076 291.259 C 144.367 292.174,143.416 295.468,144.104 298.097 C 144.349 299.036,146.447 300.663,147.969 301.095 C 151.186 302.009,169.416 304.545,178.750 305.377 C 185.170 305.950,224.389 305.947,228.125 305.374 C 231.051 304.925,234.669 304.103,235.156 303.777 C 235.328 303.662,236.031 303.379,236.719 303.147 C 238.181 302.655,240.803 301.481,245.156 299.371 C 246.875 298.538,252.359 295.879,257.344 293.463 C 262.328 291.047,268.656 287.958,271.406 286.597 C 277.339 283.662,282.595 281.117,282.813 281.073 C 283.282 280.978,284.792 280.258,285.514 279.786 C 285.970 279.486,286.517 279.216,286.728 279.185 C 286.940 279.154,288.430 278.498,290.041 277.726 C 304.402 270.846,305.687 270.458,309.161 271.943 C 311.111 272.776,311.706 273.212,312.969 274.732 C 317.383 280.044,315.848 285.125,308.344 290.041 C 305.903 291.639,303.859 293.058,303.802 293.193 C 303.745 293.327,303.559 293.438,303.390 293.438 C 303.221 293.438,301.802 294.281,300.236 295.313 C 298.671 296.344,297.274 297.188,297.133 297.188 C 296.991 297.188,296.875 297.328,296.875 297.500 C 296.875 297.672,296.736 297.813,296.567 297.813 C 296.171 297.813,293.002 299.741,292.865 300.066 C 292.807 300.201,292.561 300.313,292.318 300.313 C 292.074 300.313,291.875 300.437,291.875 300.589 C 291.875 300.740,291.629 300.950,291.328 301.054 C 290.576 301.315,287.922 302.892,287.212 303.500 C 286.891 303.775,286.333 304.093,285.971 304.208 C 285.609 304.323,285.312 304.513,285.311 304.630 C 285.311 304.748,284.537 305.261,283.593 305.770 C 282.648 306.280,281.875 306.807,281.875 306.942 C 281.875 307.077,281.664 307.188,281.406 307.188 C 281.148 307.188,280.938 307.295,280.938 307.426 C 280.938 307.557,280.669 307.803,280.340 307.973 C 277.975 309.195,275.938 310.442,275.938 310.669 C 275.938 310.816,275.754 310.938,275.529 310.938 C 275.305 310.938,274.637 311.296,274.045 311.734 C 273.453 312.172,272.387 312.822,271.676 313.178 C 270.965 313.534,269.994 314.160,269.518 314.569 C 269.042 314.978,268.464 315.313,268.233 315.313 C 268.002 315.313,267.813 315.431,267.813 315.575 C 267.813 315.720,267.074 316.236,266.172 316.723 C 265.270 317.209,264.461 317.688,264.375 317.788 C 264.156 318.041,263.114 318.683,262.188 319.137 C 261.758 319.347,261.336 319.607,261.250 319.714 C 261.164 319.822,260.180 320.467,259.063 321.148 C 257.945 321.828,255.414 323.371,253.438 324.575 C 238.456 333.703,236.110 334.815,227.188 337.021 C 211.249 340.962,196.025 341.934,183.594 339.803 C 176.210 338.538,160.771 334.157,155.781 331.910 C 155.438 331.755,154.453 331.384,153.594 331.085 C 152.734 330.786,151.289 330.209,150.381 329.802 C 149.474 329.395,148.674 329.063,148.605 329.063 C 148.535 329.063,148.082 328.899,147.598 328.698 C 147.115 328.498,146.648 328.310,146.563 328.280 C 146.477 328.251,146.125 328.121,145.781 327.991 C 145.438 327.860,144.734 327.603,144.219 327.420 C 143.703 327.236,142.016 326.489,140.469 325.759 C 138.922 325.030,136.531 323.917,135.156 323.286 C 133.781 322.654,129.773 320.691,126.250 318.922 C 115.843 313.697,110.443 312.182,98.939 311.260 C 86.292 310.247,83.125 311.204,83.125 316.036 C 83.125 320.004,85.055 321.202,92.086 321.595 C 105.518 322.346,110.520 323.571,120.938 328.661 C 128.181 332.200,135.429 335.589,137.813 336.551 C 138.758 336.932,139.918 337.450,140.391 337.702 C 140.863 337.954,141.250 338.078,141.250 337.978 C 141.250 337.878,141.707 338.038,142.266 338.334 C 142.824 338.630,143.422 338.898,143.594 338.930 C 143.844 338.976,149.031 340.989,152.031 342.205 C 178.815 353.059,206.054 354.531,233.646 346.614 C 238.634 345.183,244.475 342.977,245.022 342.317 C 245.224 342.074,245.573 341.875,245.797 341.875 C 246.022 341.875,246.391 341.690,246.618 341.464 C 246.845 341.238,247.869 340.594,248.894 340.032 C 249.918 339.471,251.135 338.742,251.598 338.412 C 252.061 338.082,252.516 337.813,252.610 337.813 C 252.932 337.813,256.719 335.517,256.823 335.259 C 256.880 335.117,257.126 335.000,257.370 335.000 C 257.613 335.000,257.813 334.862,257.813 334.693 C 257.813 334.525,258.164 334.299,258.594 334.191 C 259.023 334.083,259.375 333.869,259.375 333.716 C 259.375 333.563,259.576 333.438,259.821 333.438 C 260.067 333.438,260.456 333.262,260.686 333.047 C 260.915 332.832,261.628 332.388,262.270 332.060 C 262.912 331.732,263.438 331.346,263.438 331.201 C 263.438 331.056,263.627 330.938,263.858 330.938 C 264.090 330.938,264.604 330.656,265.001 330.311 C 265.398 329.967,266.486 329.299,267.417 328.827 C 268.349 328.356,269.376 327.723,269.699 327.422 C 270.022 327.121,270.423 326.875,270.590 326.875 C 270.756 326.875,271.079 326.691,271.306 326.465 C 271.778 325.997,276.014 323.313,277.188 322.739 C 277.617 322.528,278.039 322.268,278.125 322.160 C 278.418 321.793,284.000 318.438,284.318 318.438 C 284.493 318.438,284.682 318.317,284.740 318.170 C 284.869 317.838,289.884 314.688,290.283 314.688 C 290.442 314.688,290.620 314.574,290.677 314.436 C 290.734 314.298,293.031 312.794,295.781 311.093 C 303.272 306.462,317.809 297.232,319.117 296.277 C 321.432 294.585,325.308 288.752,324.871 287.615 C 324.789 287.402,324.890 287.172,325.096 287.104 C 325.631 286.926,325.811 276.544,325.308 274.849 C 322.331 264.811,310.250 258.004,300.350 260.786 M38.594 321.127 C 37.325 321.437,35.454 322.341,34.963 322.881 C 34.685 323.187,34.290 323.438,34.086 323.438 C 33.881 323.438,33.807 323.589,33.921 323.774 C 34.035 323.959,33.838 324.382,33.481 324.714 C 33.124 325.047,32.914 325.526,33.013 325.783 C 33.111 326.040,33.031 326.250,32.834 326.250 C 32.404 326.250,32.428 331.168,32.859 331.435 C 33.011 331.529,33.055 331.735,32.957 331.893 C 32.690 332.327,36.052 335.574,37.314 336.102 C 40.332 337.362,47.188 335.100,47.188 332.843 C 47.188 332.683,47.331 332.504,47.507 332.446 C 47.682 332.387,47.858 331.884,47.897 331.327 C 47.937 330.770,48.074 330.313,48.203 330.313 C 48.560 330.312,48.483 327.565,48.120 327.341 C 47.945 327.233,47.878 327.022,47.971 326.872 C 48.226 326.458,47.096 324.063,46.645 324.063 C 46.428 324.063,46.250 323.852,46.250 323.594 C 46.250 323.336,46.119 323.125,45.960 323.125 C 45.800 323.125,45.481 322.949,45.251 322.734 C 43.908 321.481,40.504 320.659,38.594 321.127 " stroke="none" fill="#545454" fill-rule="evenodd"></path><path id="path2" d="M196.502 66.796 C 198.618 66.850,201.993 66.850,204.002 66.796 C 206.012 66.741,204.281 66.697,200.156 66.697 C 196.031 66.697,194.387 66.742,196.502 66.796 M246.190 66.796 C 248.305 66.850,251.680 66.850,253.690 66.796 C 255.699 66.741,253.969 66.697,249.844 66.697 C 245.719 66.697,244.074 66.742,246.190 66.796 M305.152 161.406 C 305.152 186.328,305.189 196.477,305.234 183.960 C 305.280 171.443,305.280 151.052,305.234 138.647 C 305.189 126.243,305.152 136.484,305.152 161.406 " stroke="none" fill="#bcec04" fill-rule="evenodd"></path><path id="path3" d="" stroke="none" fill="#b8c430" fill-rule="evenodd"></path><path id="path4" d="" stroke="none" fill="#b8c430" fill-rule="evenodd"></path></g></svg>