<svg id="svg" version="1.1" xmlns="http://www.w3.org/2000/svg" xmlns:xlink="http://www.w3.org/1999/xlink" width="400" height="400" viewBox="0, 0, 400,400"><g id="svgg"><path id="path0" d="M364.219 99.574 C 363.875 99.657,363.383 99.809,363.125 99.913 C 362.867 100.017,362.586 100.119,362.500 100.140 C 358.418 101.135,355.536 108.599,357.584 112.872 C 360.029 117.974,366.812 119.904,371.406 116.804 C 373.449 115.426,373.519 115.350,374.918 112.969 C 377.076 109.296,374.806 102.550,370.665 100.334 C 369.336 99.622,365.768 99.202,364.219 99.574 M87.236 101.154 C 80.099 103.677,79.378 114.368,86.081 118.289 C 92.062 121.788,99.767 117.657,100.250 110.691 C 100.387 108.729,99.849 105.938,99.334 105.938 C 99.185 105.938,99.063 105.687,99.063 105.381 C 99.063 104.697,95.738 101.456,95.309 101.721 C 95.139 101.826,95.000 101.780,95.000 101.618 C 95.000 100.682,89.502 100.353,87.236 101.154 M186.345 123.751 C 185.796 124.266,185.215 124.688,185.053 124.688 C 184.664 124.688,182.556 127.036,182.155 127.915 C 181.864 128.554,180.059 129.375,178.946 129.375 C 176.973 129.375,173.059 134.091,172.958 136.589 C 172.904 137.950,172.633 138.438,171.931 138.438 C 171.639 138.438,171.021 138.789,170.557 139.219 C 170.094 139.648,169.568 140.000,169.389 140.000 C 169.209 140.000,169.062 140.105,169.062 140.234 C 169.062 140.363,168.700 140.889,168.258 141.403 C 167.816 141.917,167.376 142.729,167.281 143.207 C 167.185 143.685,166.984 144.151,166.835 144.244 C 166.685 144.336,166.563 145.156,166.563 146.065 C 166.563 147.535,166.458 147.799,165.625 148.438 C 165.109 148.833,164.688 149.286,164.688 149.444 C 164.688 149.603,164.486 149.934,164.240 150.180 C 163.755 150.665,163.662 160.469,164.142 160.469 C 164.658 160.469,165.501 162.645,165.085 162.906 C 164.866 163.044,164.688 163.343,164.688 163.571 C 164.688 163.799,164.489 164.151,164.245 164.353 C 163.687 164.817,163.509 175.313,164.060 175.313 C 164.244 175.313,164.485 175.559,164.596 175.859 C 164.962 176.852,167.183 179.678,167.192 179.163 C 167.195 179.022,167.333 179.117,167.500 179.375 C 167.667 179.633,167.805 180.905,167.808 182.203 C 167.810 183.501,167.931 184.696,168.075 184.859 C 168.219 185.023,168.530 185.648,168.766 186.250 C 169.297 187.604,171.685 190.058,173.047 190.649 C 173.605 190.892,174.063 191.182,174.063 191.293 C 174.063 191.405,174.625 191.582,175.313 191.686 C 176.000 191.790,177.136 191.961,177.838 192.066 C 178.604 192.182,179.451 192.588,179.960 193.085 C 180.425 193.541,181.479 194.465,182.302 195.139 L 183.799 196.365 188.496 196.373 C 192.307 196.380,193.261 196.293,193.550 195.914 C 193.746 195.656,194.374 195.117,194.946 194.715 C 197.445 192.961,198.827 190.976,199.319 188.438 C 199.793 185.993,199.561 129.270,199.074 128.438 C 198.823 128.008,198.639 127.574,198.667 127.473 C 198.789 127.018,195.779 124.273,194.156 123.359 C 192.352 122.343,187.592 122.582,186.345 123.751 M206.346 123.325 C 206.257 123.559,205.983 123.750,205.738 123.750 C 205.493 123.750,205.212 123.960,205.114 124.217 C 205.015 124.474,204.820 124.613,204.681 124.527 C 204.321 124.305,201.563 127.536,201.563 128.179 C 201.563 128.473,201.425 128.798,201.256 128.902 C 201.060 129.024,200.947 139.722,200.941 158.749 L 200.931 188.406 201.727 190.204 C 202.532 192.025,205.571 195.313,206.449 195.313 C 206.683 195.313,206.875 195.509,206.875 195.748 C 206.875 196.584,216.366 196.713,217.016 195.887 C 217.196 195.657,217.753 195.258,218.254 195.000 C 218.755 194.742,219.682 194.004,220.315 193.359 C 220.993 192.668,221.764 192.188,222.195 192.188 C 222.596 192.188,223.391 192.047,223.962 191.875 C 224.533 191.703,225.527 191.402,226.172 191.205 C 227.606 190.769,230.120 188.874,230.674 187.813 C 230.898 187.383,231.394 186.539,231.776 185.938 C 232.351 185.033,232.466 184.420,232.442 182.391 C 232.421 180.537,232.536 179.813,232.914 179.422 C 233.189 179.139,233.841 178.484,234.363 177.969 C 234.885 177.453,235.312 176.855,235.312 176.641 C 235.312 176.426,235.426 176.250,235.565 176.250 C 236.732 176.250,237.740 165.757,236.608 165.380 C 236.411 165.314,236.250 165.138,236.250 164.988 C 236.250 164.838,235.905 164.207,235.484 163.587 L 234.718 162.458 235.850 160.883 L 236.982 159.308 236.989 155.778 C 236.997 152.325,236.385 149.688,235.578 149.688 C 235.432 149.688,235.313 149.554,235.313 149.391 C 235.313 149.228,234.961 148.715,234.531 148.252 C 234.002 147.681,233.748 147.045,233.744 146.282 C 233.729 143.539,231.269 139.063,229.777 139.063 C 229.556 139.063,229.375 138.922,229.375 138.750 C 229.375 138.578,229.129 138.433,228.828 138.428 C 227.843 138.410,227.346 137.693,227.235 136.128 C 227.115 134.423,226.278 132.701,225.131 131.799 C 224.713 131.471,224.194 131.037,223.977 130.835 C 223.307 130.213,221.529 129.304,221.344 129.490 C 221.247 129.586,220.874 129.459,220.514 129.208 C 220.155 128.956,219.541 128.750,219.149 128.750 C 218.715 128.750,218.438 128.561,218.438 128.266 C 218.438 128.000,218.065 127.438,217.611 127.016 C 217.156 126.595,216.892 126.250,217.025 126.250 C 217.158 126.250,216.660 125.695,215.918 125.018 C 215.177 124.340,214.466 123.850,214.338 123.929 C 214.210 124.008,213.914 123.800,213.680 123.465 C 213.138 122.692,206.637 122.567,206.346 123.325 M192.734 128.691 C 193.293 128.973,193.750 129.437,193.750 129.720 C 193.750 130.004,193.961 130.411,194.219 130.625 C 194.629 130.965,194.688 134.494,194.688 158.906 C 194.688 183.318,194.629 186.847,194.219 187.188 C 193.961 187.401,193.750 187.812,193.750 188.101 C 193.750 188.389,193.581 188.794,193.375 189.000 C 193.169 189.206,193.098 189.375,193.219 189.375 C 193.339 189.375,193.156 189.656,192.813 190.000 C 192.469 190.344,192.050 190.625,191.883 190.625 C 191.715 190.625,191.117 190.906,190.554 191.249 C 189.478 191.905,187.360 192.094,187.031 191.563 C 186.925 191.391,186.487 191.250,186.057 191.250 C 185.627 191.250,185.344 191.139,185.428 191.004 C 185.511 190.868,185.202 190.590,184.741 190.386 C 184.274 190.179,183.556 189.375,183.122 188.574 C 182.120 186.720,181.839 186.591,179.174 186.762 C 176.646 186.924,174.601 186.149,173.985 184.798 C 173.800 184.393,173.567 184.063,173.465 184.063 C 173.294 184.063,173.162 183.257,173.118 181.953 C 173.083 180.923,173.528 179.240,173.945 178.823 C 174.174 178.594,174.470 178.238,174.602 178.031 C 174.946 177.498,176.139 176.875,176.819 176.875 C 177.136 176.875,177.500 176.771,177.626 176.645 C 177.857 176.414,177.990 176.386,179.297 176.298 C 179.684 176.271,180.000 176.054,180.000 175.815 C 180.000 175.575,180.211 175.298,180.469 175.199 C 181.255 174.898,180.941 172.188,180.120 172.188 C 179.882 172.188,179.688 172.047,179.688 171.875 C 179.688 171.487,175.821 171.458,175.074 171.840 C 174.775 171.993,173.993 172.380,173.334 172.700 C 172.676 173.020,171.701 173.668,171.169 174.141 L 170.200 175.000 169.628 174.141 C 169.314 173.668,168.970 172.754,168.863 172.109 C 168.757 171.465,168.547 170.938,168.398 170.938 C 168.039 170.938,168.044 169.150,168.403 168.928 C 168.556 168.833,168.771 168.368,168.882 167.894 C 169.391 165.716,169.719 165.261,170.436 165.731 C 171.508 166.433,178.725 166.344,178.287 165.634 C 178.205 165.502,178.390 165.412,178.697 165.432 C 179.519 165.486,183.053 162.794,183.468 161.797 C 183.665 161.324,183.930 160.938,184.058 160.938 C 184.443 160.938,185.242 158.394,185.432 156.563 C 185.639 154.557,185.416 153.438,184.807 153.438 C 184.570 153.438,184.375 153.306,184.375 153.146 C 184.375 152.547,183.080 152.475,181.873 153.007 C 180.731 153.511,180.625 153.659,180.625 154.752 C 180.625 155.409,180.501 156.190,180.350 156.489 C 180.199 156.787,179.809 157.586,179.484 158.265 C 178.804 159.685,175.935 161.426,174.355 161.378 C 172.114 161.311,168.750 158.622,168.750 156.898 C 168.750 156.562,168.609 156.200,168.438 156.094 C 167.561 155.552,169.098 152.044,170.770 150.768 C 171.863 149.935,171.875 149.901,171.882 147.541 C 171.891 144.407,173.587 142.500,176.365 142.500 C 177.949 142.500,178.421 141.569,178.322 138.641 C 178.237 136.145,178.255 136.077,179.196 135.239 C 180.628 133.965,184.375 134.318,184.375 135.727 C 184.375 135.946,184.550 136.300,184.765 136.515 C 184.979 136.729,185.174 137.404,185.197 138.014 C 185.275 140.008,188.110 140.959,189.697 139.523 C 190.541 138.759,190.232 134.647,189.247 133.532 C 188.365 132.534,188.125 132.193,188.125 131.941 C 188.125 131.791,187.773 131.480,187.344 131.250 C 186.340 130.713,186.360 130.467,187.504 129.323 C 189.049 127.778,190.567 127.594,192.734 128.691 M211.133 128.121 C 211.573 128.126,213.750 130.098,213.749 130.491 C 213.749 130.651,213.189 131.309,212.504 131.953 C 211.819 132.598,211.343 133.125,211.446 133.125 C 211.550 133.125,211.416 133.458,211.150 133.864 C 210.517 134.831,210.167 138.045,210.579 139.112 C 211.309 141.001,214.817 140.520,214.950 138.512 C 214.993 137.870,215.162 137.297,215.326 137.240 C 215.491 137.182,215.625 136.889,215.625 136.588 C 215.625 134.869,219.051 133.739,220.796 134.882 C 222.122 135.751,222.888 138.154,222.091 138.950 C 221.121 139.921,222.493 142.500,223.981 142.500 C 224.387 142.500,225.146 142.721,225.670 142.992 C 226.193 143.262,226.699 143.405,226.794 143.310 C 227.064 143.040,228.125 144.405,228.125 145.022 C 228.125 145.325,228.299 145.631,228.512 145.702 C 228.805 145.799,228.816 146.015,228.559 146.587 C 228.013 147.802,228.307 149.695,229.131 150.262 C 230.357 151.105,231.563 152.541,231.563 153.158 C 231.563 153.484,231.703 153.750,231.875 153.750 C 232.427 153.750,232.209 156.212,231.528 157.660 C 231.165 158.431,230.753 159.063,230.612 159.063 C 230.470 159.063,230.265 159.344,230.156 159.688 C 230.047 160.031,229.749 160.313,229.495 160.313 C 229.240 160.313,228.581 160.547,228.031 160.834 C 226.606 161.577,225.081 161.458,223.281 160.466 C 220.866 159.134,221.055 159.450,219.731 154.525 C 219.294 152.901,218.070 152.335,216.313 152.945 L 215.156 153.346 215.190 155.814 C 215.229 158.705,215.500 159.893,216.320 160.769 C 216.648 161.119,217.200 161.863,217.546 162.422 C 217.893 162.980,218.279 163.438,218.404 163.438 C 218.530 163.438,218.941 163.725,219.318 164.076 C 221.228 165.856,228.745 167.210,229.543 165.918 C 229.643 165.757,229.962 165.627,230.253 165.630 C 231.400 165.642,232.857 171.112,231.875 171.719 C 231.703 171.825,231.563 172.185,231.563 172.518 C 231.563 172.852,231.422 173.125,231.250 173.125 C 231.078 173.125,230.938 173.346,230.938 173.616 C 230.938 174.867,230.138 174.983,228.929 173.907 C 228.286 173.334,227.314 172.702,226.770 172.501 C 226.226 172.300,225.537 172.006,225.239 171.849 C 224.206 171.304,221.087 171.504,220.500 172.153 C 219.910 172.804,219.885 176.082,220.469 176.107 C 222.920 176.215,226.563 177.979,226.563 179.059 C 226.563 179.253,226.725 179.312,226.923 179.189 C 227.144 179.052,227.199 179.103,227.065 179.320 C 226.945 179.515,227.019 179.994,227.230 180.384 C 228.832 183.344,225.344 187.152,221.417 186.731 C 218.963 186.469,218.168 186.830,217.181 188.657 C 216.457 189.997,215.960 190.382,213.364 191.617 C 211.677 192.419,208.373 191.017,207.008 188.920 C 205.621 186.791,205.635 187.083,205.630 158.824 C 205.627 143.622,205.747 131.630,205.904 131.324 C 206.057 131.025,206.339 130.388,206.529 129.906 C 206.923 128.912,209.153 127.717,210.156 127.963 C 210.500 128.047,210.939 128.118,211.133 128.121 M19.030 193.562 C 14.083 194.604,10.601 200.257,11.984 205.000 C 12.160 205.602,12.313 206.164,12.325 206.250 C 12.818 209.869,18.830 212.960,23.558 212.025 C 25.102 211.720,29.994 208.438,28.905 208.438 C 28.830 208.438,29.109 207.936,29.524 207.324 C 33.857 200.940,26.957 191.893,19.030 193.562 M315.097 201.271 C 312.495 202.625,309.444 206.660,310.154 207.808 C 310.261 207.983,310.225 208.125,310.073 208.125 C 309.587 208.125,309.857 211.973,310.423 213.125 C 311.523 215.365,311.903 215.885,313.201 216.926 C 317.676 220.515,325.142 219.496,327.306 215.000 C 327.430 214.742,327.793 214.039,328.112 213.438 C 329.180 211.424,328.931 207.596,327.574 205.154 C 326.962 204.052,326.353 203.218,326.222 203.299 C 326.090 203.380,325.902 203.193,325.803 202.882 C 325.090 200.636,318.286 199.612,315.097 201.271 " stroke="none" fill="#b4ec04" fill-rule="evenodd"></path><path id="path1" d="M194.063 93.649 C 173.023 95.801,154.857 106.540,142.617 124.063 C 140.463 127.145,138.986 129.820,139.277 130.110 C 139.388 130.221,139.315 130.313,139.115 130.313 C 138.914 130.313,138.750 130.516,138.750 130.766 C 138.750 131.015,138.504 131.362,138.203 131.537 C 137.902 131.713,137.825 131.860,138.032 131.865 C 138.243 131.871,138.106 132.208,137.719 132.634 C 136.688 133.771,133.340 142.484,132.457 146.328 C 132.309 146.973,132.049 148.098,131.880 148.828 C 130.502 154.772,129.959 166.898,130.867 171.437 C 131.077 172.486,131.314 173.991,131.394 174.783 C 131.972 180.489,136.547 193.324,139.714 198.125 C 139.998 198.555,140.975 200.102,141.886 201.563 C 142.797 203.023,143.624 204.289,143.724 204.375 C 143.824 204.461,144.397 205.164,144.996 205.938 C 145.595 206.711,146.298 207.618,146.558 207.953 C 146.818 208.288,148.600 210.187,150.518 212.172 C 164.702 226.854,169.119 237.800,169.566 259.375 C 169.657 263.758,169.876 267.836,170.052 268.438 C 171.961 274.943,177.461 279.946,183.981 281.108 C 187.491 281.734,212.869 281.726,216.395 281.097 C 223.347 279.859,228.848 274.595,230.462 267.637 C 230.814 266.117,230.938 263.729,230.938 258.411 C 230.938 251.359,231.577 243.667,232.220 242.984 C 232.374 242.821,232.500 242.326,232.500 241.884 C 232.500 241.115,234.175 235.551,234.996 233.594 C 236.084 230.999,238.358 226.493,239.491 224.688 C 240.659 222.825,241.367 221.830,243.707 218.762 C 244.160 218.167,246.381 215.777,248.642 213.450 C 250.904 211.123,253.558 208.237,254.541 207.036 C 259.317 201.202,266.104 189.077,264.179 189.816 C 263.586 190.043,262.774 189.691,263.010 189.309 C 263.131 189.112,262.941 189.079,262.500 189.219 C 261.973 189.386,261.859 189.342,262.043 189.043 C 262.219 188.759,262.140 188.701,261.770 188.843 C 261.090 189.104,260.259 188.777,260.522 188.352 C 260.651 188.143,260.534 188.093,260.208 188.218 C 259.922 188.328,259.688 188.286,259.688 188.125 C 259.688 187.964,259.453 187.922,259.167 188.032 C 258.787 188.177,258.717 188.118,258.906 187.813 C 259.095 187.507,259.025 187.448,258.645 187.593 C 257.965 187.854,257.134 187.527,257.397 187.102 C 257.523 186.897,257.414 186.841,257.113 186.957 C 256.794 187.079,256.569 186.934,256.466 186.541 C 256.380 186.209,256.436 185.938,256.592 185.938 C 256.748 185.938,256.875 185.753,256.875 185.528 C 256.875 184.769,257.649 184.019,258.210 184.234 C 258.505 184.348,258.654 184.590,258.541 184.773 C 258.412 184.982,258.529 185.032,258.855 184.907 C 259.535 184.646,260.366 184.973,260.103 185.398 C 259.974 185.607,260.091 185.657,260.417 185.532 C 261.083 185.276,261.931 185.594,261.678 186.004 C 261.556 186.200,261.746 186.234,262.187 186.094 C 262.629 185.954,262.819 185.987,262.697 186.184 C 262.444 186.593,263.292 186.911,263.958 186.656 C 264.284 186.531,264.401 186.580,264.272 186.789 C 264.022 187.193,264.826 187.547,265.449 187.308 C 265.696 187.213,266.253 185.987,266.687 184.583 C 267.409 182.247,267.656 181.338,268.442 178.125 C 270.074 171.455,270.402 158.889,269.119 152.188 C 268.135 147.050,267.479 144.239,266.858 142.500 C 266.644 141.898,266.196 140.633,265.864 139.688 C 264.694 136.362,263.938 134.937,263.192 134.653 C 262.211 134.281,261.591 134.302,262.188 134.688 C 262.589 134.947,262.579 134.991,262.115 134.995 C 261.778 134.998,261.502 134.677,261.383 134.141 C 261.278 133.668,261.129 133.046,261.051 132.758 C 260.954 132.396,261.132 132.203,261.627 132.133 C 262.316 132.035,262.499 131.047,261.906 130.625 C 261.785 130.539,261.444 129.977,261.147 129.375 C 259.926 126.899,256.180 121.452,253.948 118.906 C 253.496 118.391,253.126 117.891,253.125 117.796 C 253.124 117.271,245.398 110.016,242.344 107.671 C 229.143 97.539,210.102 92.009,194.063 93.649 M205.938 106.881 C 222.610 108.608,237.242 117.354,247.089 131.478 C 248.263 133.162,249.328 134.377,249.633 134.379 C 249.921 134.382,250.508 134.464,250.938 134.563 C 251.571 134.708,251.630 134.674,251.250 134.383 C 250.881 134.101,251.014 134.066,251.875 134.219 C 252.724 134.370,252.864 134.335,252.500 134.063 C 252.136 133.790,252.276 133.755,253.125 133.906 C 253.974 134.057,254.114 134.022,253.750 133.750 C 253.386 133.478,253.518 133.446,254.336 133.608 C 255.071 133.754,255.326 133.712,255.177 133.471 C 254.923 133.060,255.599 133.019,256.213 133.408 C 257.129 133.988,256.939 136.274,255.992 136.069 C 255.317 135.922,255.246 135.956,255.625 136.248 C 255.993 136.532,255.826 136.568,254.844 136.418 C 253.893 136.273,253.706 136.309,254.063 136.570 C 254.422 136.833,254.275 136.867,253.438 136.719 C 252.588 136.568,252.449 136.603,252.813 136.875 C 253.176 137.147,253.037 137.182,252.188 137.031 C 251.326 136.878,251.193 136.913,251.563 137.196 C 251.948 137.490,251.903 137.526,251.310 137.395 C 250.914 137.308,250.636 137.331,250.693 137.446 C 251.336 138.755,252.328 140.911,252.513 141.406 C 252.642 141.750,253.055 142.786,253.430 143.709 C 257.211 153.011,257.893 166.909,255.090 177.500 C 254.320 180.408,253.109 184.103,252.561 185.219 C 252.409 185.528,251.669 187.047,250.917 188.594 C 248.172 194.240,245.191 198.240,238.922 204.688 C 234.189 209.555,228.125 217.254,228.125 218.395 C 228.125 218.562,228.020 218.745,227.891 218.802 C 227.474 218.987,224.487 224.816,223.435 227.499 C 223.064 228.444,222.656 229.358,222.529 229.530 C 222.401 229.703,222.125 230.477,221.915 231.250 C 221.705 232.023,221.414 232.938,221.268 233.281 C 219.197 238.148,217.813 247.903,217.813 257.619 C 217.813 269.049,219.365 268.125,200.156 268.125 C 180.859 268.125,182.625 269.398,182.386 255.313 C 182.230 246.115,181.998 244.259,180.026 236.406 C 179.371 233.797,176.351 225.899,175.306 224.063 C 175.160 223.805,174.680 222.878,174.240 222.003 C 171.614 216.780,166.986 210.557,161.338 204.656 C 157.581 200.731,154.629 197.280,153.594 195.602 C 153.422 195.324,152.818 194.406,152.252 193.564 C 149.137 188.926,146.131 181.472,144.670 174.766 C 144.373 173.403,144.199 173.126,143.641 173.130 C 143.082 173.134,143.048 173.190,143.438 173.461 C 143.785 173.703,143.623 173.738,142.813 173.594 C 141.963 173.443,141.824 173.478,142.188 173.750 C 142.551 174.022,142.412 174.057,141.563 173.906 C 140.713 173.755,140.574 173.790,140.938 174.063 C 141.301 174.334,141.169 174.366,140.352 174.204 C 139.624 174.060,139.362 174.102,139.508 174.337 C 139.651 174.569,139.390 174.621,138.687 174.500 C 137.871 174.359,137.754 174.397,138.125 174.680 C 138.494 174.961,138.360 174.996,137.500 174.844 C 136.690 174.700,136.528 174.734,136.875 174.976 C 137.278 175.257,137.266 175.304,136.789 175.308 C 136.193 175.313,135.625 174.176,135.625 172.978 C 135.625 172.382,135.755 172.275,136.328 172.400 C 136.908 172.527,136.949 172.491,136.563 172.196 C 136.193 171.913,136.326 171.878,137.188 172.031 C 138.037 172.182,138.176 172.147,137.813 171.875 C 137.449 171.603,137.588 171.568,138.438 171.719 C 139.287 171.870,139.426 171.835,139.063 171.563 C 138.699 171.291,138.831 171.259,139.648 171.421 C 140.376 171.565,140.638 171.523,140.492 171.288 C 140.349 171.056,140.610 171.004,141.313 171.125 C 142.129 171.266,142.246 171.228,141.875 170.945 C 141.506 170.664,141.640 170.629,142.500 170.781 C 143.361 170.934,143.494 170.899,143.125 170.617 C 142.732 170.316,142.760 170.281,143.298 170.396 C 143.900 170.526,143.925 170.439,143.711 168.939 C 143.255 165.747,143.427 159.326,144.076 155.313 C 144.424 153.164,144.793 150.875,144.896 150.227 C 145.000 149.578,145.206 148.972,145.355 148.880 C 145.503 148.788,145.625 148.403,145.625 148.024 C 145.625 147.645,145.917 146.563,146.273 145.621 C 146.630 144.678,147.034 143.549,147.170 143.112 C 147.365 142.491,149.589 137.662,150.221 136.488 C 150.289 136.361,150.104 136.350,149.809 136.463 C 149.414 136.615,149.341 136.559,149.531 136.250 C 149.720 135.944,149.650 135.885,149.270 136.031 C 148.590 136.292,147.759 135.965,148.022 135.539 C 148.151 135.330,148.034 135.281,147.708 135.406 C 147.042 135.661,146.194 135.343,146.447 134.934 C 146.569 134.737,146.379 134.704,145.938 134.844 C 145.496 134.984,145.306 134.950,145.428 134.754 C 145.681 134.344,144.833 134.026,144.167 134.282 C 143.787 134.427,143.717 134.368,143.906 134.062 C 144.097 133.754,144.024 133.698,143.629 133.850 C 143.310 133.972,143.170 133.930,143.283 133.746 C 143.388 133.577,143.316 133.438,143.122 133.438 C 142.899 133.438,142.853 133.181,142.997 132.734 C 143.121 132.348,143.225 131.855,143.226 131.641 C 143.228 131.426,143.335 131.250,143.464 131.250 C 143.593 131.250,143.944 131.156,144.244 131.041 C 144.592 130.907,144.715 130.952,144.584 131.164 C 144.373 131.506,145.271 132.020,145.566 131.726 C 145.656 131.636,145.542 131.563,145.312 131.563 C 145.083 131.563,144.969 131.489,145.059 131.399 C 145.354 131.105,146.252 131.619,146.041 131.961 C 145.912 132.170,146.029 132.219,146.355 132.094 C 147.035 131.833,147.866 132.160,147.603 132.586 C 147.474 132.795,147.591 132.844,147.917 132.719 C 148.583 132.464,149.431 132.782,149.178 133.191 C 149.056 133.388,149.246 133.421,149.688 133.281 C 150.167 133.129,150.323 133.168,150.177 133.404 C 150.059 133.594,150.077 133.768,150.216 133.790 C 151.294 133.960,151.836 133.940,151.709 133.734 C 151.626 133.600,151.672 133.444,151.811 133.386 C 151.950 133.328,152.753 132.297,153.597 131.094 C 154.440 129.891,155.372 128.625,155.668 128.281 C 155.964 127.938,156.862 126.883,157.663 125.938 C 169.161 112.374,187.829 105.005,205.938 106.881 M279.844 159.141 C 280.392 161.084,281.563 162.727,281.563 161.553 C 281.563 161.386,281.431 161.250,281.271 161.250 C 281.025 161.250,280.656 160.518,280.445 159.609 C 280.415 159.480,280.356 159.270,280.315 159.141 C 280.273 159.012,280.255 158.801,280.275 158.672 C 280.296 158.543,280.162 158.438,279.979 158.438 C 279.783 158.438,279.727 158.727,279.844 159.141 M256.377 214.733 C 255.784 215.400,255.785 215.401,256.484 215.034 C 256.871 214.832,257.188 214.530,257.188 214.364 C 257.188 213.920,257.038 213.988,256.377 214.733 M177.813 287.534 C 173.920 289.098,173.744 294.646,177.526 296.576 C 179.476 297.571,221.975 297.387,223.337 296.378 C 226.599 293.960,226.599 290.415,223.337 287.997 C 222.338 287.258,179.584 286.823,177.813 287.534 M177.447 302.817 C 173.820 304.744,173.976 310.201,177.702 311.758 C 179.684 312.586,222.184 312.232,223.337 311.378 C 226.599 308.960,226.599 305.415,223.337 302.997 C 221.993 302.002,179.298 301.834,177.447 302.817 M188.125 317.628 C 184.439 318.951,183.964 323.913,187.288 326.378 C 188.184 327.042,208.459 327.588,211.503 327.029 C 212.723 326.806,215.000 324.862,215.000 324.045 C 215.000 323.731,215.141 323.387,215.313 323.281 C 216.710 322.418,214.160 318.155,211.849 317.493 C 210.210 317.022,189.482 317.141,188.125 317.628 M66.016 369.903 C 66.316 369.982,66.809 369.982,67.109 369.903 C 67.410 369.824,67.164 369.760,66.563 369.760 C 65.961 369.760,65.715 369.824,66.016 369.903 " stroke="none" fill="#4c4c4c" fill-rule="evenodd"></path><path id="path2" d="M351.406 110.782 C 350.547 111.009,348.488 111.502,346.831 111.878 L 343.818 112.561 343.983 113.859 C 344.074 114.572,344.177 115.192,344.211 115.236 C 344.286 115.331,353.461 113.206,353.608 113.059 C 353.786 112.881,353.364 110.311,353.162 110.341 C 353.056 110.357,352.266 110.555,351.406 110.782 M334.844 114.701 C 332.953 115.187,331.077 115.593,330.676 115.605 C 330.011 115.623,329.873 117.725,330.493 118.400 C 330.638 118.557,339.466 116.536,339.757 116.279 C 339.882 116.169,339.899 115.555,339.795 114.914 C 339.565 113.498,339.531 113.497,334.844 114.701 M103.356 116.648 C 103.058 117.346,102.849 117.941,102.891 117.969 C 102.934 117.998,104.867 118.761,107.188 119.665 C 109.508 120.570,111.552 121.370,111.730 121.444 C 111.907 121.517,112.272 120.978,112.539 120.244 L 113.025 118.911 109.559 117.582 C 107.653 116.850,105.600 116.055,104.996 115.815 L 103.899 115.377 103.356 116.648 M321.406 117.831 C 319.344 118.336,317.322 118.827,316.914 118.922 C 316.244 119.077,316.025 121.129,316.614 121.719 C 316.672 121.776,318.860 121.318,321.476 120.700 C 326.731 119.459,326.361 119.745,325.731 117.422 C 325.551 116.758,325.934 116.722,321.406 117.831 M306.406 121.358 L 302.344 122.344 302.442 123.533 C 302.575 125.144,302.653 125.149,307.772 123.920 C 313.021 122.659,312.569 122.914,312.125 121.468 C 311.693 120.060,311.755 120.061,306.406 121.358 M116.681 121.760 C 116.083 123.193,115.953 123.092,120.803 124.976 C 125.660 126.863,125.123 126.812,125.772 125.443 C 126.427 124.064,126.835 124.377,121.729 122.342 C 116.618 120.305,117.258 120.379,116.681 121.760 M293.594 124.393 C 291.531 124.898,289.517 125.387,289.118 125.480 C 288.377 125.652,288.358 127.169,289.088 127.946 C 289.284 128.154,297.734 126.535,298.649 126.113 C 298.871 126.011,297.925 123.442,297.670 123.456 C 297.490 123.467,295.656 123.888,293.594 124.393 M129.809 127.065 C 129.550 127.685,129.382 128.235,129.435 128.287 C 129.667 128.513,137.667 131.563,138.028 131.563 C 138.370 131.563,139.537 129.407,139.301 129.211 C 139.114 129.055,130.759 125.938,130.530 125.938 C 130.393 125.938,130.069 126.445,129.809 127.065 M279.267 127.776 L 274.627 128.881 274.802 129.960 C 275.080 131.675,275.385 131.661,284.017 129.529 C 284.676 129.366,284.730 129.228,284.539 128.189 C 284.238 126.549,284.373 126.560,279.267 127.776 M265.883 130.895 C 264.048 131.348,262.443 131.824,262.315 131.953 C 262.188 132.082,261.823 132.188,261.504 132.188 C 261.036 132.188,260.961 132.351,261.114 133.047 C 261.426 134.472,261.546 134.734,261.812 134.570 C 261.952 134.484,262.621 134.343,263.299 134.258 C 265.034 134.039,270.423 132.783,270.695 132.535 C 271.099 132.167,270.246 129.997,269.713 130.036 C 269.441 130.056,267.718 130.442,265.883 130.895 M143.156 132.234 C 142.967 132.775,142.813 133.249,142.813 133.287 C 142.813 133.577,151.683 136.879,151.895 136.668 C 152.664 135.898,152.360 134.263,151.406 134.044 C 150.891 133.926,149.000 133.249,147.205 132.539 C 143.302 130.997,143.579 131.018,143.156 132.234 M252.656 134.231 C 251.109 134.629,249.397 134.965,248.850 134.977 C 247.364 135.011,246.877 135.647,247.301 137.000 C 247.685 138.229,247.615 138.226,250.993 137.162 C 251.970 136.854,253.625 136.434,254.673 136.228 C 256.839 135.802,257.000 135.655,256.717 134.367 C 256.475 133.266,256.414 133.264,252.656 134.231 M156.284 137.367 C 156.062 137.982,155.964 138.569,156.067 138.672 C 156.287 138.891,160.722 140.640,160.800 140.538 C 162.153 138.767,161.816 137.988,159.297 137.072 C 156.511 136.058,156.767 136.033,156.284 137.367 M238.796 137.289 L 236.186 137.947 236.348 139.156 C 236.567 140.788,236.403 140.755,239.985 139.892 C 243.749 138.985,243.504 139.158,243.062 137.718 C 242.645 136.357,242.532 136.346,238.796 137.289 M279.688 157.969 C 279.688 158.227,279.828 158.438,280.000 158.438 C 280.172 158.438,280.313 158.227,280.313 157.969 C 280.313 157.711,280.172 157.500,280.000 157.500 C 279.828 157.500,279.688 157.711,279.688 157.969 M281.096 161.879 C 281.201 162.049,281.478 162.188,281.711 162.188 C 281.944 162.188,282.207 162.332,282.294 162.508 C 282.382 162.684,282.421 162.662,282.382 162.460 C 282.343 162.257,281.995 161.974,281.609 161.831 C 281.163 161.666,280.975 161.684,281.096 161.879 M151.202 168.691 L 149.122 169.188 149.289 170.297 C 149.531 171.905,149.671 171.956,152.218 171.387 C 155.009 170.764,155.113 170.681,154.767 169.339 C 154.441 168.073,154.069 168.005,151.202 168.691 M143.750 170.590 C 143.492 170.732,141.545 171.247,139.422 171.734 L 135.563 172.620 135.737 173.693 C 135.832 174.282,135.956 174.810,136.012 174.866 C 136.068 174.922,137.846 174.553,139.964 174.046 C 142.082 173.540,144.227 173.125,144.731 173.125 C 145.540 173.125,145.609 173.054,145.323 172.521 C 145.146 172.188,145.000 171.555,145.000 171.114 C 145.000 170.298,144.591 170.126,143.750 170.590 M129.688 173.753 C 129.258 173.900,127.239 174.398,125.201 174.861 L 121.495 175.702 121.699 176.980 C 121.812 177.683,121.947 178.301,122.001 178.355 C 122.054 178.408,124.231 177.943,126.839 177.322 L 131.580 176.192 131.374 175.049 C 131.056 173.286,131.057 173.286,129.688 173.753 M112.031 177.936 C 108.006 178.917,107.968 178.934,107.887 179.854 C 107.724 181.712,107.944 181.747,112.858 180.635 C 118.065 179.457,117.903 179.549,117.440 178.039 C 117.016 176.656,117.260 176.661,112.031 177.936 M98.438 181.144 C 95.945 181.749,93.879 182.271,93.845 182.303 C 93.761 182.384,94.295 184.712,94.428 184.845 C 94.530 184.947,103.801 182.826,103.998 182.656 C 104.142 182.532,103.304 179.997,103.127 180.022 C 103.040 180.034,100.930 180.539,98.438 181.144 M246.368 180.866 C 246.255 181.335,246.023 181.898,245.850 182.117 C 245.442 182.634,245.298 182.550,248.878 183.881 C 251.916 185.010,252.475 185.023,252.495 183.966 C 252.498 183.827,252.629 183.793,252.786 183.890 C 252.953 183.993,252.976 183.708,252.842 183.207 C 252.669 182.561,252.268 182.218,251.228 181.829 C 250.467 181.544,249.107 181.019,248.208 180.662 L 246.571 180.013 246.368 180.866 M84.142 184.494 C 79.709 185.538,79.588 185.629,80.363 187.329 C 80.802 188.294,80.215 188.323,85.552 187.074 C 90.755 185.856,90.362 186.080,89.900 184.606 C 89.460 183.199,89.624 183.202,84.142 184.494 M256.865 185.500 C 256.423 186.838,255.964 186.497,260.625 188.288 C 262.773 189.113,264.690 189.910,264.885 190.058 C 265.122 190.239,265.405 189.912,265.744 189.064 C 266.372 187.494,266.373 187.500,265.679 187.500 C 265.365 187.500,264.205 187.131,263.101 186.680 C 261.997 186.229,260.224 185.530,259.161 185.128 L 257.229 184.396 256.865 185.500 M70.691 187.650 C 65.895 188.828,66.113 188.702,66.383 190.142 C 66.640 191.511,66.566 191.509,71.875 190.271 C 76.860 189.108,76.438 189.361,75.975 187.815 C 75.536 186.349,75.938 186.362,70.691 187.650 M269.905 190.547 C 269.308 192.022,269.079 191.845,274.040 193.736 C 278.570 195.461,278.768 195.459,279.188 193.665 C 279.343 193.001,279.261 192.753,278.836 192.601 C 278.531 192.493,276.543 191.723,274.419 190.890 C 272.294 190.057,270.517 189.375,270.468 189.375 C 270.419 189.375,270.166 189.902,269.905 190.547 M57.109 190.901 C 52.613 191.958,52.500 192.005,52.500 192.808 C 52.500 194.717,52.836 194.768,57.767 193.600 C 63.025 192.356,62.565 192.625,62.096 191.069 L 61.719 189.818 57.109 190.901 M43.043 194.194 C 40.678 194.756,38.679 195.280,38.600 195.358 C 38.346 195.612,39.157 197.812,39.506 197.813 C 39.844 197.814,48.505 195.868,48.694 195.749 C 48.943 195.591,47.988 193.128,47.685 193.148 C 47.497 193.161,45.409 193.631,43.043 194.194 M283.127 195.619 C 282.579 196.942,282.811 197.260,284.883 198.029 C 285.893 198.405,287.844 199.141,289.219 199.667 C 290.594 200.193,291.748 200.623,291.784 200.624 C 291.929 200.626,292.591 198.113,292.472 198.012 C 292.254 197.827,284.031 194.688,283.764 194.688 C 283.626 194.688,283.340 195.107,283.127 195.619 M296.249 200.939 C 296.022 201.627,295.894 202.240,295.965 202.300 C 296.241 202.535,304.444 205.625,304.791 205.625 C 305.085 205.625,306.044 203.434,305.836 203.234 C 305.767 203.167,296.840 199.688,296.738 199.688 C 296.697 199.688,296.477 200.251,296.249 200.939 M309.769 205.847 C 309.556 206.301,309.439 206.731,309.509 206.801 C 309.697 206.989,310.370 205.639,310.255 205.305 C 310.201 205.149,309.982 205.392,309.769 205.847 " stroke="none" fill="#050505" fill-rule="evenodd"></path><path id="path3" d="" stroke="none" fill="#545454" fill-rule="evenodd"></path><path id="path4" d="" stroke="none" fill="#bcec04" fill-rule="evenodd"></path></g></svg>