<?xml version="1.0" encoding="utf-8"?>
<!-- Generator: Adobe Illustrator 23.0.2, SVG Export Plug-In . SVG Version: 6.00 Build 0)  -->
<svg version="1.1" id="Layer_1" xmlns="http://www.w3.org/2000/svg" xmlns:xlink="http://www.w3.org/1999/xlink" x="0px" y="0px"
	 viewBox="0 0 300 300" style="enable-background:new 0 0 300 300;" xml:space="preserve">
<style type="text/css">
	.st0{fill:url(#SVGID_1_);}
	.st1{fill:url(#SVGID_2_);}
	.st2{fill:url(#SVGID_3_);}
	.st3{fill:#231F1F;}
</style>
<g>
	<g transform="matrix(.569 0 0 .569 199.451 -82.735)">
		
			<linearGradient id="SVGID_1_" gradientUnits="userSpaceOnUse" x1="-19887.8867" y1="-16716.8281" x2="-19786.9922" y2="-16776.4453" gradientTransform="matrix(0.1187 0 0 0.1187 2244.4512 2442.7976)">
			<stop  offset="0" style="stop-color:#909CA9"/>
			<stop  offset="1" style="stop-color:#EDEDEE"/>
		</linearGradient>
		<path class="st0" d="M6.9,331.6l-58.2,19L-102,373l-14.2,3.7c-3.6,3.4-7.4,6.9-11.5,10.4c-4.5,3.9-8.7,7.4-11.9,9.9
			c-3.6,2.8-8.8,8.1-11.5,11.4c-4,5-7.2,10.3-8.5,14.4c-2.4,7.4-1.2,14.9,3.4,21.8c6,8.8,17.9,17.8,31.8,23.9c7.1,3.1,19,7.1,28,9.4
			c14.9,3.8,43.8,7.9,59.7,8.5c3.2,0.1,7.5,0.1,7.7,0c0.4-0.2,2.8-4.9,5.7-10.8c9.8-19.9,16.8-38.6,20.6-54.6
			c2.3-9.7,4.1-22.6,5.3-37.8c0.3-4.3,0.4-18.6,0.2-23.4c-0.4-7.9-1.1-14.3-2.2-20.6c-0.2-0.9-0.2-1.8-0.1-1.8
			c0.2-0.1,0.7-0.3,7.9-2.4L6.9,331.6L6.9,331.6L6.9,331.6L6.9,331.6z M-6.4,339.4c0.5,0,1.9,13.5,2.3,22c0.1,1.8,0,3,0,3
			c-0.4,0-7.4-4.2-12.5-7.3c-4.4-2.8-12.8-8.3-14.1-9.4c-0.4-0.3-0.4-0.4,3.2-1.6C-21.4,344.1-6.8,339.4-6.4,339.4z M-36,349.2
			c0.4,0,1.4,0.6,3.8,2.1c9.1,5.7,21.4,12.5,26.7,14.8c1.6,0.7,1.8,0.4-1.9,3c-8,5.5-18,10.8-30.2,16.2c-2.2,1-4,1.7-4,1.7
			c-0.1,0,0.2-1.1,0.5-2.4c2.9-11,4.6-22,4.7-30.9C-36.4,349.3-36.4,349.3-36,349.2C-36.1,349.2-36.1,349.2-36,349.2L-36,349.2z
			 M-42.1,351.5c0.3,0.3,0.1,10.1-0.3,12.8c-0.8,6.4-2,12.4-4,19.1c-0.5,1.6-0.9,3-1,3.1c-0.2,0.2-6.2-5.7-8.2-8
			c-3.4-4-6.1-7.9-8.1-11.8c-1-2-2.6-5.9-2.5-6C-65.5,360.3-42.3,351.3-42.1,351.5L-42.1,351.5z M-70.9,362.8c0,0,0.1,0,0.1,0
			c0.1,0.1,0.4,0.8,0.7,1.6c1.4,3.8,4.6,9.5,7.3,13.1c3,4,6.9,8.2,10.2,11c1.1,0.9,2,1.7,2.2,1.8c0.3,0.3,0.4,0.2-6.8,2.9
			c-8.3,3.2-17.4,6.3-27.8,9.7c-2.5,0.8-5,1.6-7.4,2.4c-0.4,0.1-0.3-0.1,0.9-1.9c5.1-8.1,13-23.9,17.4-35c0.7-1.9,1.5-3.9,1.6-4.3
			c0.2-0.6,0.4-0.8,1-1.1C-71.4,362.9-71.1,362.8-70.9,362.8L-70.9,362.8z M-79.7,366.5c0.1,0.1-2.1,4.8-4.3,9.1
			c-4.3,8.3-8.9,16.5-15.2,26.5c-1.1,1.7-2.1,3.3-2.2,3.5c-0.2,0.3-0.3,0.2-1-1.1c-1.5-2.9-2.7-6.7-3.4-10.2
			c-0.7-3.4-0.5-9.4,0.2-13.1c0.6-2.7,0.5-2.7,1.8-3.3C-98.1,374.8-79.9,366.3-79.7,366.5L-79.7,366.5z M-3.8,369.6v1.8
			c0,9.8-1.1,23.3-2.6,33.1c-0.3,1.7-0.5,3.1-0.5,3.2c0,0-1.3-0.4-2.8-0.8c-6.6-2.1-13.8-5.1-20.2-8.7c-4.3-2.3-10.5-6.2-10.3-6.3
			c0,0,1.9-1,4-2.2c8.6-4.5,16.9-9.3,24.1-14.1c2.7-1.8,6.7-4.7,7.6-5.5L-3.8,369.6L-3.8,369.6z M-113,382.6c0.2,0,0.1,0.4-0.1,1.9
			c-0.2,1.1-0.4,3.3-0.5,4.7c-0.4,6.4,0.7,11.2,3.9,17.7c0.9,1.8,1.6,3.3,1.5,3.3c-0.3,0.3-29.4,8.8-38.6,11.3
			c-2.7,0.7-5.1,1.4-5.3,1.5c-0.3,0.1-0.4,0-0.2-0.7c1-6.5,5.9-14.9,12.8-22c4.6-4.8,8.2-7.5,14.5-11.1
			C-120.5,386.6-113.6,382.8-113,382.6C-113,382.6-113,382.6-113,382.6L-113,382.6z M-44.3,394.9c0,0,1.1,0.5,2.4,1.3
			c9.4,5.5,22.5,10.5,33.7,13.1l1,0.2l-1.4,0.8c-5.9,3.3-25.1,11.3-44.8,18.6c-2.9,1.1-5.7,2.1-6.2,2.3c-0.5,0.2-1,0.4-1,0.3
			c0,0,0.8-1.6,1.8-3.5c5.5-10.3,11-22.8,13.9-31.6C-44.6,395.7-44.3,394.9-44.3,394.9L-44.3,394.9z M-51.3,397.2c0,0-0.3,1-0.7,2
			c-3.8,9.3-8.8,19.4-15.3,30.8c-1.6,2.9-3,5.2-3,5.2c0,0-1.4-0.8-2.9-1.8c-9.3-5.7-17.6-12.8-23-19.6l-0.8-1l4-1.1
			c14.3-3.9,26.5-8.1,38.6-13.3C-52.8,397.7-51.3,397.2-51.3,397.2z M-7.8,412.3C-7.8,412.3-7.8,412.4-7.8,412.3
			c0,1-2.2,10.1-4,16.6c-1.5,5.5-2.9,9.8-5.3,17.4c-1.1,3.3-2,6.1-2,6.1c0,0-0.3,0-0.6-0.1c-13.1-2.4-24.8-5.7-35.8-10.1
			c-3.1-1.2-7.5-3.2-7.7-3.4c-0.1-0.1,2.6-1.3,5.9-2.8c20-8.8,40.8-18.7,47.9-23C-8.6,412.6-8,412.3-7.8,412.3L-7.8,412.3z
			 M-108.2,415.8c0.1,0.1-5.5,8.1-13.3,19.1c-2.7,3.8-5.9,8.3-7.1,10c-1.2,1.7-3,4.3-4,5.9l-1.8,2.9l-2-1.7
			c-2.3-1.9-6.4-6.1-8.2-8.4c-3.8-4.7-6.3-9.7-7.3-14.2c-0.5-2.1-0.5-3.2,0-3.3c0.7-0.2,12.4-2.9,23.4-5.5
			c6.1-1.4,13.2-3.1,15.8-3.7C-110.3,416.3-108.2,415.8-108.2,415.8L-108.2,415.8z M-102.6,417.9l1.4,1.6
			c6.3,7.1,12.8,12.3,20.6,16.9c1.4,0.8,2.5,1.5,2.4,1.5c-0.3,0.2-27.2,9.8-39.7,14.1c-7,2.5-12.8,4.4-12.8,4.4c0,0-0.4-0.3-0.9-0.6
			l-0.8-0.6l1.3-1.8c4.1-6,9.3-12.5,20.6-26.2L-102.6,417.9L-102.6,417.9z M-67.5,443.1c0,0,2,0.7,4.4,1.5
			c5.7,2.2,10.3,3.5,16.3,5.1c7.5,1.9,18.3,3.7,24.7,4.3c1,0.1,1.5,0.2,1.3,0.3c-0.3,0.2-6.8,2.3-11.5,3.8
			c-7.6,2.4-30.7,9.2-49.5,14.6c-3.5,1-6.5,1.8-6.6,1.9c-0.4,0.1-1.9-0.3-1.9-0.5c0-0.1,1.1-1.5,2.3-2.9c6.3-7.6,12.6-16,17.9-24
			C-68.7,444.9-67.5,443.1-67.5,443.1L-67.5,443.1z M-75.2,443.3c0,0-3.1,5.1-8.5,13.7c-2.3,3.7-4.9,7.8-5.9,9.2
			c-0.9,1.4-2.2,3.6-2.9,4.8l-1.3,2.2l-0.7-0.2c-1.6-0.4-12.7-4.4-15.7-5.5c-3.7-1.5-7.4-3.2-10.3-4.7c-3.5-1.9-7.9-4.7-7.6-4.8
			c0.1,0,6.1-1.7,13.4-3.7c19.3-5.2,30-8.3,37-10.5C-76.3,443.5-75.2,443.2-75.2,443.3L-75.2,443.3z M-20.4,456.1L-20.4,456.1
			c0.2,0.4-6.9,20.2-9.5,26.5c-0.6,1.4-0.8,1.8-1.1,1.7c-0.7,0-11.1-1.5-17.4-2.4c-11-1.7-29.4-4.9-34-5.9l-1.1-0.2l6.6-1.5
			c14.1-3.2,20.9-4.9,27.7-7c8.7-2.6,17.3-5.9,25.9-10C-21.9,456.7-20.7,456.2-20.4,456.1L-20.4,456.1z"/>
		
			<linearGradient id="SVGID_2_" gradientUnits="userSpaceOnUse" x1="-19883.9063" y1="-18691.5625" x2="-19802.7227" y2="-18691.5625" gradientTransform="matrix(0.1187 0 0 0.1187 2244.4512 2442.7976)">
			<stop  offset="0" style="stop-color:#939FAB"/>
			<stop  offset="1" style="stop-color:#DCDEE1"/>
		</linearGradient>
		<path class="st1" d="M-53.1,195.9c-1-0.1-16.6,5.5-26.7,9.6c-13.6,5.5-24.2,10.8-30.7,15.4c-2.4,1.7-5.5,4.8-5.9,5.9
			c-0.2,0.4-0.3,1-0.3,1.5l5.9,5.6l14,4.5l33.4,6l38.2,6.6l0.4-3.3c-0.1,0-0.2,0-0.4,0l-5-0.8l-1-1.8c-5.2-9.2-10.9-20.5-14.3-28.2
			c-2.6-5.9-5.1-12.8-6.4-17.7C-52.5,196.1-52.6,195.9-53.1,195.9L-53.1,195.9L-53.1,195.9L-53.1,195.9z M-53.8,198.1L-53.8,198.1
			c0.1,0,0.3,1.3,0.4,2.7c0.7,6.2,2.1,12.1,4.3,18.5c1.6,4.8,1.6,4.6-0.3,4c-4.5-1.2-24.6-4.7-39.2-6.7c-2.3-0.3-4.3-0.6-4.3-0.7
			c-0.2-0.2,10.5-5.8,15.2-8C-71.6,205.3-55,198.4-53.8,198.1L-53.8,198.1z M-96.2,217.9l1.7,0.6c9.3,3.2,32.8,7.7,45.7,8.7
			c1.5,0.1,2.7,0.3,2.7,0.3c0,0-1.2,0.7-2.8,1.5c-6.2,3.1-13.1,7-17.9,9.9c-1.4,0.9-2.7,1.6-2.9,1.6c-0.2,0-1.1-0.2-2.1-0.3
			l-1.8-0.3l-4.4-4.3c-7.7-7.5-13.8-13.3-16.2-15.5L-96.2,217.9z M-98,219.2l6.2,7.7c3.4,4.3,6.8,8.4,7.6,9.4
			c0.7,0.9,1.4,1.7,1.3,1.7c-0.2,0.1-9-1.6-13.6-2.6c-4.8-1.1-6.8-1.6-9.7-2.6l-2.4-0.8v-0.6c0-2.9,3.8-7.3,10.1-11.8L-98,219.2
			L-98,219.2z M-45.3,229.8c0.2,0,0.4,0.4,0.9,1.6c1.5,3.3,6.2,12.2,7.3,13.9c0.4,0.6,1,0.6-5.2-0.4c-14.9-2.4-19.7-3.2-19.7-3.3
			c0,0,0.4-0.4,1-0.7c4.6-2.6,9.3-5.8,13.4-9.3c1-0.8,1.9-1.6,2.1-1.8C-45.4,229.8-45.3,229.7-45.3,229.8L-45.3,229.8z"/>
		
			<radialGradient id="SVGID_3_" cx="-4289.1802" cy="-10529.6543" r="107.7864" gradientTransform="matrix(-0.114 -1.712736e-02 3.463960e-02 -0.228 -155.335 -2173.655)" gradientUnits="userSpaceOnUse">
			<stop  offset="0" style="stop-color:#EE352C"/>
			<stop  offset="1" style="stop-color:#A91D22"/>
		</radialGradient>
		<path class="st2" d="M-116.1,226.2c0,0-1,1.5,0,3.8c0.6,1.4,2.2,3.1,4.1,4.9c0,0,19.6,19.1,22,21.8c10.8,12.5,15.5,24.8,16,41.8
			c0.3,10.9-1.8,20.5-7,31.6c-9.2,20-28.5,42-58.3,66.5l4.4-1.5c2.8-2.1,6.6-4.4,15.6-9.3c20.7-11.4,44.1-21.8,72.7-32.5
			c41.2-15.5,108.9-33.6,147.5-39.5l4-0.6l-0.6-1c-3.5-5.5-5.9-8.8-8.8-12.5c-8.4-10.5-18.7-19-31.2-26
			c-17.3-9.6-39.6-17.2-67.8-22.8c-5.3-1.1-17-3.1-26.5-4.5c-20.2-3.1-33.2-5.3-47.5-7.7c-5.1-0.9-12.9-2.2-18-3.3
			c-2.6-0.6-7.7-1.8-11.7-3.1C-110.5,231.2-115.1,230-116.1,226.2L-116.1,226.2z M-104.7,237.2c0,0,0.7,0.2,1.7,0.5
			c1.7,0.6,3.8,1.2,6.4,1.9c1.9,0.5,3.9,1,5.8,1.5c2.6,0.7,4.8,1.3,4.9,1.3c0.3,0.3,4.8,14.5,6.3,20c0.6,2.1,1,3.8,1,3.8
			c0,0-0.5-0.7-1.1-1.7c-5.1-9.1-13.3-18.3-22.7-25.7C-103.8,238.1-104.7,237.3-104.7,237.2L-104.7,237.2z M-83.1,243.2
			c0.2,0,1.2,0.1,2.4,0.4c7.5,1.7,20.9,4.2,29.5,5.7c1.5,0.2,2.6,0.5,2.6,0.6c0,0.1-0.5,0.4-1.2,0.7c-1.5,0.7-7.3,4.2-9.2,5.5
			c-4.9,3.3-9.3,6.8-12.5,9.9c-1.3,1.3-2.4,2.3-2.4,2.3s-0.3-0.7-0.5-1.7c-1.6-6.1-4.9-15.2-7.9-21.6
			C-82.7,244.2-83.1,243.2-83.1,243.2C-83.1,243.2-83.1,243.2-83.1,243.2L-83.1,243.2z M-45,250.5c0.3,0.1,0.7,1.6,1.6,4.9
			c1.6,6.4,2.4,13.5,2.1,20.2c-0.1,1.8-0.2,3.6-0.3,3.8l-0.1,0.4L-44,279c-4.7-1.5-12.4-3.7-18.9-5.6c-3.7-1-6.8-1.9-6.8-2
			c0-0.3,5.5-5.7,7.8-7.8C-57.4,259.7-45.4,250.3-45,250.5L-45,250.5z M-41.9,250.9c0.1-0.1,18.2,3,26.5,4.6c6.1,1.2,15,3,15.5,3.3
			c0.3,0.1-0.7,0.6-3.6,1.9c-11.6,5.2-20.2,9.9-28.8,15.7c-2.2,1.5-4.1,2.7-4.2,2.7c0,0-0.1-1.3-0.1-2.8c0-8.4-1.7-16.8-4.8-23.9
			C-41.7,251.6-42,251-41.9,250.9z M4.9,260.1c0.1,0.1-0.4,3.7-1,5.8c-1.6,6.6-5.9,16.3-11.1,25.4c-0.9,1.6-1.8,2.9-1.8,3
			c-0.1,0-1.3-0.6-2.6-1.4c-5.1-3-10.9-5.8-17.3-8.5c-1.8-0.7-3.3-1.4-3.3-1.5c-0.3-0.3,13.9-9.6,21.3-14.1
			C-5,265.3,4.7,260,4.9,260.1L4.9,260.1z M8.2,260.7c0.4,0,8.4,2.2,12.6,3.4c10.3,3.1,22.2,7.4,30,11l3.2,1.5l-2.2,0.5
			c-18.9,4.4-35.1,9.4-50.7,15.7c-1.3,0.5-2.4,1-2.5,1c-0.1,0,0.4-1,0.9-2.2c4.7-10,7.7-20.4,8.5-29.3
			C7.9,261.3,8.1,260.7,8.2,260.7L8.2,260.7z M-71.5,279c0.1-0.1,6.2,1.3,9.6,2.2c5,1.4,15.7,5,15.7,5.2c0,0-1.2,1.1-2.6,2.3
			c-5.8,4.8-11.3,9.9-18,16.3c-2,1.9-3.7,3.4-3.7,3.4c-0.1,0-0.1-0.3-0.1-0.6c1-7.4,0.8-16.9-0.6-26.5
			C-71.5,280.1-71.6,279-71.5,279z M57,279.1c0.1,0.1-2.8,4.7-4.7,7.3c-2.6,3.8-6.5,8.8-15.3,19.8c-4.6,5.8-9.8,12.4-11.5,14.6
			c-1.8,2.2-3.2,4-3.3,4c0,0-0.6-0.8-1.2-1.8c-4.9-7.4-10.8-13.9-17.8-19.7c-1.3-1.1-2.8-2.3-3.3-2.6c-0.5-0.4-0.9-0.7-0.9-0.7
			c0-0.1,7.5-3.3,13.2-5.6c9.9-4,23.5-8.9,33.7-12C51.2,280.7,56.9,279,57,279.1L57,279.1z M60.4,280c0.2,0,1.2,0.5,2.5,1.2
			c10.7,6.1,21.2,14,29.4,22.1c2.3,2.3,8.1,8.3,8,8.3c0,0-2,0.2-4.4,0.4c-18.5,1.4-42.2,5.3-65,10.8c-1.5,0.4-2.9,0.7-3,0.7
			c-0.1,0,1.6-1.7,3.8-3.8c13.4-12.9,19.5-21,26.7-35.6C59.4,282,60.3,280.1,60.4,280C60.4,280,60.4,280,60.4,280L60.4,280z
			 M-37.6,290c0.6,0.1,6.3,2.8,10.7,5c4,2,9.9,5.1,10.2,5.4c0,0-2.1,1.1-4.7,2.4c-8.3,4.1-15.4,8.1-22.8,12.5
			c-2.1,1.3-3.9,2.3-3.9,2.3c-0.2,0-0.1-0.2,1.1-2.3c4-7.2,7.1-15.8,8.9-24.2C-37.9,290.5-37.7,290-37.6,290L-37.6,290z
			 M-43.3,291.1c0.1,0.1-1.4,5.5-2.3,8.5c-1.8,5.6-4.8,12.6-7.8,17.9c-0.7,1.2-1.8,3-2.3,4l-1.1,1.8l-2.5-2.4
			c-2.9-2.8-5.2-4.5-8.2-6c-1.2-0.6-2.1-1.1-2.1-1.2c0-0.4,7.5-7.2,13.3-12.1C-52.2,298-43.5,291-43.3,291.1L-43.3,291.1z
			 M-8.3,305.5l2.2,1.4c4.9,3.2,10.7,7.5,15.2,11.2c2.5,2.1,7.3,6.4,8.3,7.5l0.5,0.6l-3.6,1c-20.2,5.6-35.7,10.6-53.9,17.3
			c-2,0.7-3.7,1.4-3.9,1.4c-0.3,0-0.5,0.2,4-4c11.6-10.7,21.9-22.5,29.6-34L-8.3,305.5L-8.3,305.5z M-17.5,307.8
			c0.1,0.1-5.9,8.6-9.6,13.4c-4.3,5.7-12,15.3-17.3,21.6c-2.2,2.6-4.1,4.8-4.2,4.8c-0.1,0-0.2-0.6-0.2-1.6c0-5.3-1.4-11-3.7-15.8
			c-1-2-1.2-2.5-1-2.7c0.8-0.7,13.6-8.1,21.7-12.4C-26.2,312-17.7,307.7-17.5,307.8L-17.5,307.8z M-73.2,321.4
			c0.1,0,1.1,0.5,2.3,1.1c2.8,1.5,5.3,3.3,7.6,5.1c0.1,0.1-1.1,1-2.6,2.1c-4.2,3-10.5,7.8-14.2,10.7c-3.9,3.1-4,3.2-3.6,2.5
			c2.9-4.4,4.4-7,5.9-10.2c1.4-2.9,2.7-6.2,3.7-9.2C-73.7,322.4-73.3,321.4-73.2,321.4L-73.2,321.4z M-58.3,333
			c0.2,0,0.5,0.4,1.7,2.1c2.5,3.7,4.4,8.8,4.9,12.8l0.1,0.9l-6,2.3c-10.8,4.2-20.7,8.3-27.5,11.4c-1.9,0.9-5.2,2.5-7.3,3.5
			c-2.2,1.1-3.9,1.9-3.9,1.9c0,0,1.4-1.1,3-2.3c13.2-9.5,24.6-20,33.1-30.5C-59.4,334.1-58.5,333.1-58.3,333L-58.3,333L-58.3,333z
			 M-65.2,334.7c0.2,0.2-4.8,5.9-8.3,9.3c-8.5,8.7-16.9,15.4-27.3,22.1c-1.3,0.8-2.5,1.6-2.6,1.7c-0.3,0.2,0.1-0.3,4.7-5.2
			c2.9-3.1,5.1-5.8,7.6-9c1.7-2.2,2-2.5,4.4-4.2C-80.3,344.6-65.3,334.5-65.2,334.7z"/>
	</g>
	<path class="st3" d="M53.9,211.4c-0.5,0-0.9,0-1.4,0c-9.3,0.5-15.6,4.6-19.3,12.6c-3.1,7.3-2.8,16.7,0,24
		c3.3,7.1,8.6,10.9,17.5,12.3c1.9,0.3,3.1,1.3,6.8,5.6l4.5,5.3h8.1l-5.4-5.5c-3-3-5.4-5.6-5.4-5.8c0-0.2,1.1-0.7,2.5-1.2
		c4.6-1.4,8.4-4.9,11-10.3c2.1-4.3,2.5-5.7,2.8-11.1C76.5,221.3,68.1,211.3,53.9,211.4L53.9,211.4L53.9,211.4z M61.1,253.5
		c-4,1.9-9.7,2.3-13.5,0.9c-3.9-1.4-7.6-5.5-9.3-10c-1.9-5-1.6-14.2,0.5-18.3c3.5-6.6,8-9.6,14.7-9.6c9.9,0,15.5,6.1,16.3,17.5
		C70.4,243.4,67.2,250.5,61.1,253.5L61.1,253.5z M201.7,225.1c-3.4,0-6,1.4-7.8,4.1l-1.4,2.2v-5.6h-5.9v33.6h5.9v-10.7
		c0-9.8,0.1-11,1.5-13.7c1.9-3.7,5.1-5.5,8.3-4.6l2.1,0.6v-5.8L201.7,225.1L201.7,225.1L201.7,225.1z M167,224.8
		c-1.2,0-2.4,0.2-3.6,0.4c-7.9,2.1-12.4,9.6-12.1,17.4c0,6.5,1.3,9.8,4.4,13.2c6.4,5.3,12.3,5.7,20.1,2.9c1.3-0.6,2.8-1.2,2.8-1.2
		v-5.3l-2.8,1.5c-6.4,2.8-11.2,2.8-15-0.5c-2.5-2.5-3.5-5.5-4-8.9h23.8v-4.5C180.7,230.5,175.1,224.7,167,224.8L167,224.8L167,224.8
		z M157.4,239.6c0,0,0.9-5.8,4.1-8c1.6-1.1,3.4-1.6,5.1-1.6c1.8,0,3.5,0.6,5,1.7c3,2.3,3.5,7.9,3.5,7.9L157.4,239.6L157.4,239.6
		L157.4,239.6L157.4,239.6z M14.9,233.5c-6.4-3.9-9.3-6.7-8.9-10c1-9.1,12.3-7.9,18.5-4.4l0-6.1c0,0-3.5-1.5-8.4-1.6
		c-7.6-0.1-12.5,2.4-14.8,7.4c-3.4,7.5-0.4,13.1,10.4,19.4c6.1,3.5,8.8,6.6,8.8,9.9c0,6.9-8.3,9.3-16.9,5c-1.8-0.9-3.3-1.6-3.3-1.6
		c-0.3,2-0.1,6.6-0.1,6.6s2.6,1.1,6.6,1.9c9.8,2,18.8-2.6,19.6-10.1C27,242.9,24.5,239.3,14.9,233.5L14.9,233.5L14.9,233.5z
		 M254,224.8c-1.2,0-2.4,0.2-3.7,0.4c-7.9,2.1-12.3,9.6-12,17.4c0,6.5,1.3,9.7,4.4,13.2c6.4,5.3,12.3,5.7,20.2,2.9
		c1.3-0.6,2.8-1.2,2.8-1.2v-5.3l-2.8,1.5c-6.4,2.8-11.2,2.8-15-0.5c-2.5-2.5-3.5-5.4-4-8.9h23.8v-4.5
		C267.7,230.5,262.1,224.6,254,224.8L254,224.8L254,224.8z M244.4,239.5c0,0,0.9-5.8,4.2-8.1c1.6-1.1,3.4-1.7,5.1-1.7
		c1.8,0,3.5,0.6,5,1.7c3,2.3,3.5,8,3.5,8L244.4,239.5L244.4,239.5L244.4,239.5z M136.1,233.6c-6.4-3.9-9.2-6.7-8.9-10
		c1-9.1,12.3-7.9,18.5-4.4l0-6.1c0,0-3.5-1.5-8.4-1.6c-7.6-0.1-12.5,2.4-14.8,7.4c-3.4,7.5-0.3,13.1,10.4,19.4
		c6.1,3.5,8.7,6.6,8.7,9.9c0,6.9-8.3,9.4-16.9,5c-1.8-0.9-3.3-1.6-3.3-1.6c-0.3,2-0.1,6.6-0.1,6.6s2.6,1.1,6.6,1.9
		c9.8,2,18.8-2.6,19.6-10.1C148.2,243,145.7,239.4,136.1,233.6L136.1,233.6L136.1,233.6z M288.8,225.1c-3.4,0-6.1,1.4-7.8,4.1
		l-1.4,2.1v-5.6h-5.9v33.6h5.9v-10.7c0-9.8,0.1-11,1.5-13.7c1.9-3.7,5.1-5.5,8.3-4.6l2.1,0.6v-5.8L288.8,225.1L288.8,225.1z
		 M89.1,233.4V212h-6v47.4h25.1v-5.6H89.1L89.1,233.4L89.1,233.4z M226.9,240.1l-4.9,12.8l-4.7-12.9l-4.8-14.2h-6.1
		c4,11.2,8.3,22.6,12.6,33.7c1.9,0,3.8,0,5.6,0l6.6-16.7l6.8-17h-5.8C232.1,225.8,229.5,232.5,226.9,240.1L226.9,240.1L226.9,240.1z
		 M102.8,199.1c1,0,1.8-0.3,2.4-1c0.7-0.7,1-1.4,1-2.4c0-1-0.3-1.8-1-2.4c-0.7-0.6-1.4-0.9-2.4-0.9c-1,0-1.8,0.3-2.4,1
		c-0.7,0.7-1,1.5-1,2.4c0,1,0.3,1.8,1,2.4C101,198.7,101.8,199,102.8,199.1L102.8,199.1L102.8,199.1z M100.7,193.6
		c0.6-0.6,1.3-0.8,2.2-0.8c0.8,0,1.5,0.3,2.1,0.8c0.6,0.6,0.9,1.3,0.9,2.1c0,0.8-0.3,1.6-0.9,2.1c-0.6,0.6-1.3,0.8-2.1,0.8
		c-0.8,0-1.5-0.3-2.1-0.8c-0.6-0.6-0.9-1.3-0.9-2.1C99.8,194.9,100.1,194.2,100.7,193.6z M102.1,196h0.4c0.3,0,0.5,0.3,0.8,0.8
		l0.5,1h0.7l-0.6-1.2c-0.2-0.5-0.5-0.7-0.7-0.8c0.3-0.1,0.6-0.2,0.8-0.4c0.2-0.2,0.3-0.5,0.3-0.8c0-0.4-0.1-0.6-0.3-0.8
		c-0.3-0.2-0.7-0.3-1.2-0.3h-1.2v4.3h0.6L102.1,196L102.1,196L102.1,196z M102.1,194h0.5c0.4,0,0.7,0.1,0.8,0.2
		c0.1,0.1,0.2,0.3,0.2,0.5c0,0.5-0.3,0.7-0.9,0.7h-0.7L102.1,194L102.1,194L102.1,194z M3.7,195.6c0-1.5,0-2.6-0.1-3.3h0
		c0.2,0.8,0.3,1.4,0.5,1.7l5.7,12.8h1l5.7-12.9c0.2-0.4,0.3-0.9,0.5-1.6h0c-0.1,1.3-0.2,2.4-0.2,3.3v11.3h2v-16.8h-2.5l-5.3,11.7
		c-0.2,0.5-0.5,1.2-0.8,2.1h-0.1c-0.1-0.5-0.4-1.1-0.8-2l-5.1-11.8H1.7v16.8h1.9L3.7,195.6L3.7,195.6L3.7,195.6z M23.2,195.7h1.7
		v10.4h-1.7V195.7z M24,191.8c0.4,0,0.7-0.1,0.9-0.4c0.2-0.2,0.4-0.5,0.4-0.9c0-0.3-0.1-0.7-0.4-0.9c-0.2-0.2-0.5-0.4-0.9-0.4
		c-0.3,0-0.7,0.1-0.9,0.4c-0.2,0.2-0.4,0.5-0.4,0.9c0,0.4,0.1,0.7,0.4,0.9C23.4,191.7,23.6,191.8,24,191.8L24,191.8L24,191.8z
		 M36.9,206.3v-1.8c-0.9,0.7-1.9,1-2.9,1c-1.2,0-2.2-0.4-3-1.2c-0.7-0.8-1.1-1.9-1.1-3.3c0-1.5,0.4-2.6,1.2-3.5
		c0.8-0.8,1.8-1.3,3-1.3c1,0,2,0.3,2.8,0.9v-2c-0.8-0.4-1.7-0.6-2.8-0.6c-1.9,0-3.4,0.6-4.5,1.8c-1.1,1.2-1.7,2.8-1.7,4.8
		c0,1.7,0.5,3.2,1.5,4.3c1.1,1.1,2.5,1.7,4.1,1.7C34.9,207.1,36,206.9,36.9,206.3L36.9,206.3z M41.7,200.8c0-1.4,0.3-2.5,0.9-3.3
		c0.5-0.7,1.2-1,2-1c0.7,0,1.1,0.1,1.5,0.4v-2c-0.3-0.1-0.6-0.2-1.1-0.2c-0.7,0-1.3,0.2-1.8,0.7c-0.6,0.5-1,1.1-1.3,2h0v-2.5h-1.9
		v12h1.9L41.7,200.8L41.7,200.8z M52.7,207.2c1.8,0,3.3-0.6,4.3-1.7c1.1-1.1,1.6-2.7,1.6-4.6c0-2-0.5-3.5-1.5-4.6
		c-1-1.1-2.4-1.7-4.2-1.7s-3.3,0.5-4.3,1.6c-1.2,1.1-1.8,2.8-1.8,4.8c0,1.8,0.5,3.3,1.5,4.4C49.5,206.6,50.9,207.1,52.7,207.2
		L52.7,207.2L52.7,207.2z M50,197.4c0.7-0.8,1.7-1.2,2.9-1.2c1.2,0,2.2,0.4,2.8,1.2c0.7,0.8,1,2,1,3.5c0,1.5-0.3,2.6-1,3.4
		c-0.7,0.8-1.6,1.2-2.9,1.2c-1.2,0-2.2-0.4-2.9-1.2c-0.7-0.8-1.1-1.9-1.1-3.4C48.9,199.4,49.3,198.2,50,197.4L50,197.4z M67.1,206.1
		c0.7-0.7,1.1-1.5,1.1-2.5c0-0.9-0.3-1.6-0.9-2.2c-0.5-0.5-1.2-0.9-2.2-1.3c-0.9-0.4-1.5-0.7-1.8-1c-0.3-0.3-0.5-0.7-0.5-1.2
		c0-0.5,0.2-0.9,0.6-1.2c0.4-0.3,0.9-0.5,1.5-0.5c1,0,1.9,0.3,2.7,0.8v-1.9c-0.8-0.4-1.6-0.6-2.6-0.6c-1.2,0-2.3,0.3-3,1
		c-0.8,0.7-1.2,1.5-1.2,2.5c0,0.9,0.3,1.6,0.8,2.1c0.4,0.5,1.1,0.9,2.1,1.3c1,0.4,1.6,0.8,2,1.1c0.3,0.3,0.5,0.7,0.5,1.1
		c0,1.1-0.8,1.7-2.3,1.7c-1.2,0-2.2-0.4-3.1-1.1v2.1c0.8,0.5,1.8,0.7,2.9,0.7C65.2,207.2,66.3,206.8,67.1,206.1L67.1,206.1
		L67.1,206.1z M76.2,194.6c-1.8,0-3.3,0.5-4.3,1.6c-1.1,1.1-1.8,2.8-1.8,4.8c0,1.8,0.5,3.3,1.5,4.4c1.1,1.2,2.5,1.7,4.3,1.7
		c1.8,0,3.3-0.6,4.3-1.7c1.1-1.1,1.6-2.7,1.6-4.6c0-2-0.5-3.5-1.5-4.6C79.4,195.1,78,194.6,76.2,194.6L76.2,194.6L76.2,194.6z
		 M80,200.9c0,1.5-0.3,2.6-1,3.4c-0.7,0.8-1.6,1.2-2.9,1.2c-1.2,0-2.2-0.4-2.9-1.2c-0.7-0.8-1.1-1.9-1.1-3.4c0-1.5,0.4-2.7,1.2-3.5
		c0.7-0.8,1.7-1.2,2.9-1.2c1.2,0,2.1,0.4,2.8,1.2C79.6,198.2,79.9,199.4,80,200.9L80,200.9L80,200.9z M85.1,206.9h1.9v-10.4h2.8
		v-1.6h-2.8v-1.8c0-1.7,0.7-2.5,2-2.5c0.5,0,0.9,0.1,1.3,0.3v-1.7c-0.3-0.2-0.8-0.2-1.4-0.2c-1,0-1.9,0.3-2.6,1
		c-0.8,0.8-1.2,1.8-1.2,3.1v2h-2v1.6h2L85.1,206.9L85.1,206.9z M93,203.6c0,2.3,1,3.5,3.1,3.5c0.8,0,1.3-0.1,1.8-0.4v-1.6
		c-0.4,0.3-0.8,0.4-1.2,0.4c-0.7,0-1.1-0.2-1.4-0.5c-0.3-0.3-0.4-0.9-0.4-1.7v-6.8h3v-1.6h-3v-3.5c-0.7,0.2-1.3,0.4-1.9,0.6v2.9
		h-2.1v1.6H93L93,203.6L93,203.6z M299,225.7c-0.7-0.6-1.4-0.9-2.4-0.9c-1,0-1.8,0.3-2.4,1c-0.7,0.6-1,1.5-1,2.4c0,1,0.3,1.8,1,2.4
		c0.7,0.6,1.5,0.9,2.4,0.9c1,0,1.8-0.3,2.4-1c0.6-0.7,1-1.4,1-2.4C300,227.1,299.6,226.3,299,225.7L299,225.7z M298.7,230.2
		c-0.6,0.6-1.3,0.8-2.1,0.8c-0.8,0-1.5-0.3-2.1-0.8c-0.6-0.6-0.9-1.3-0.9-2.2c0-0.8,0.3-1.5,0.8-2.1c0.6-0.6,1.3-0.8,2.1-0.8
		c0.8,0,1.5,0.3,2.1,0.8c0.6,0.6,0.9,1.3,0.9,2.1C299.5,228.9,299.3,229.6,298.7,230.2z M296.9,228.3c0.3-0.1,0.6-0.2,0.8-0.4
		c0.2-0.2,0.3-0.5,0.3-0.8c0-0.3-0.1-0.6-0.3-0.8c-0.3-0.2-0.7-0.3-1.2-0.3h-1.2v4.3h0.6v-1.8h0.4c0.3,0,0.5,0.3,0.8,0.8l0.5,1h0.7
		l-0.6-1.2C297.4,228.5,297.2,228.3,296.9,228.3L296.9,228.3L296.9,228.3z M296.5,227.9h-0.7v-1.5h0.5c0.4,0,0.7,0.1,0.8,0.2
		c0.2,0.1,0.2,0.3,0.2,0.5C297.4,227.6,297.1,227.9,296.5,227.9L296.5,227.9L296.5,227.9z M189.4,194.4h0.5v-4.3h1.4v-0.5H188v0.5
		h1.4L189.4,194.4L189.4,194.4z M192.7,191.2c0-0.4,0-0.8,0-1c0,0.2,0.1,0.4,0.1,0.5l1.7,3.7h0.3l1.7-3.7c0-0.1,0.1-0.3,0.2-0.5
		c0,0.4,0,0.7,0,0.9v3.3h0.6v-4.8h-0.7l-1.5,3.3c0,0.1-0.2,0.4-0.2,0.6h0c0-0.2-0.1-0.3-0.2-0.6l-1.5-3.4h-0.8v4.8h0.5L192.7,191.2
		L192.7,191.2L192.7,191.2z"/>
</g>
</svg>
