<?xml version="1.0" encoding="utf-8"?>
<!-- Generator: Adobe Illustrator 23.0.2, SVG Export Plug-In . SVG Version: 6.00 Build 0)  -->
<svg version="1.1" id="Layer_1" xmlns="http://www.w3.org/2000/svg" xmlns:xlink="http://www.w3.org/1999/xlink" x="0px" y="0px"
	 viewBox="0 0 300 300" style="enable-background:new 0 0 300 300;" xml:space="preserve">
<style type="text/css">
	.st0{fill:url(#SVGID_1_);}
	.st1{fill:url(#SVGID_2_);}
	.st2{fill:#14559A;}
	.st3{fill:url(#SVGID_3_);}
	.st4{fill:#3092C4;}
	.st5{fill:#1969BC;}
	.st6{fill:url(#SVGID_4_);}
	.st7{fill:url(#SVGID_5_);}
	.st8{fill:url(#SVGID_6_);}
	.st9{fill:#2B74B1;}
	.st10{fill:#125A9E;}
	.st11{fill:url(#SVGID_7_);}
	.st12{fill:url(#SVGID_8_);}
	.st13{fill:#0D82CA;}
	.st14{fill:url(#SVGID_9_);}
	.st15{fill:#127BCA;}
	.st16{fill:url(#SVGID_10_);}
	.st17{fill:url(#SVGID_11_);}
	.st18{fill:#05A1E6;}
	.st19{fill:url(#SVGID_12_);}
	.st20{fill:url(#SVGID_13_);}
	.st21{fill:url(#SVGID_14_);}
	.st22{fill:#079AE1;}
	.st23{fill:#1E5CB3;}
	.st24{fill:#1D60B5;}
	.st25{fill:#175FAB;}
	.st26{fill:url(#SVGID_15_);}
	.st27{fill:#7DCBEC;}
	.st28{fill:#5EC5ED;}
	.st29{fill:url(#SVGID_16_);}
	.st30{fill:url(#SVGID_17_);}
	.st31{fill:url(#SVGID_18_);}
</style>
<g>
	<g transform="translate(26.734177, 116.658228)">
		<path d="M224.9,41c0-0.5-0.1-0.9-0.4-1.1c-0.3-0.3-0.9-0.4-1.6-0.4h-1.1v3h1.3C224.3,42.5,224.9,42,224.9,41L224.9,41z
			 M226.6,47.3h-1.5l-1-2.1c-0.5-1.1-1-1.6-1.6-1.6h-0.8v3.7h-1.2v-8.8h2.5c1.1,0,1.9,0.2,2.5,0.7c0.5,0.4,0.7,1,0.7,1.7
			c0,0.6-0.2,1.1-0.6,1.5c-0.4,0.4-0.9,0.7-1.6,0.9v0c0.5,0.1,1,0.7,1.5,1.6L226.6,47.3L226.6,47.3z M229.4,42.9
			c0-1.7-0.6-3.2-1.8-4.4c-1.2-1.2-2.6-1.7-4.3-1.7c-1.8,0-3.2,0.6-4.4,1.8c-1.2,1.2-1.7,2.6-1.7,4.4c0,1.8,0.6,3.2,1.8,4.4
			c1.2,1.2,2.6,1.7,4.3,1.7c1.7,0,3.1-0.6,4.3-1.8C228.8,46.2,229.4,44.7,229.4,42.9L229.4,42.9z M230.2,42.9c0,1.9-0.7,3.6-2,4.9
			c-1.3,1.3-3,2-5,2c-2,0-3.6-0.7-4.9-1.9c-1.3-1.3-2-2.9-2-4.9c0-1.9,0.7-3.6,2-4.9c1.3-1.3,3-2,5-2c1.9,0,3.6,0.6,4.9,1.9
			C229.5,39.3,230.2,40.9,230.2,42.9L230.2,42.9z"/>
		<path d="M41.6,67.5h-4.3V43c0-1.9,0.1-4.3,0.4-7.1h-0.1c-0.4,1.6-0.8,2.8-1.1,3.5l-12.4,28H22L9.6,39.7c-0.4-0.8-0.7-2-1.1-3.7
			H8.4c0.1,1.5,0.2,3.8,0.2,7.1v24.4H4.5V31.1h5.6l11.2,25.4c0.8,1.9,1.4,3.4,1.7,4.4h0.2c0.7-2,1.3-3.5,1.7-4.5l11.4-25.3h5.4
			L41.6,67.5L41.6,67.5z"/>
		<path d="M54.8,67.5h-4.2v-26h4.2V67.5L54.8,67.5z M55.5,32.1c0,0.8-0.3,1.4-0.8,1.9c-0.5,0.5-1.2,0.8-1.9,0.8
			c-0.7,0-1.4-0.3-1.9-0.8c-0.5-0.5-0.8-1.2-0.8-2c0-0.8,0.3-1.4,0.8-1.9c0.5-0.5,1.2-0.8,1.9-0.8c0.8,0,1.4,0.3,1.9,0.8
			C55.2,30.8,55.5,31.4,55.5,32.1L55.5,32.1z"/>
		<path d="M80.8,66.3c-2,1.2-4.4,1.8-7.1,1.8c-3.7,0-6.7-1.2-9-3.7c-2.2-2.4-3.4-5.5-3.4-9.3c0-4.3,1.2-7.7,3.7-10.3
			c2.4-2.6,5.7-3.9,9.9-3.9c2.3,0,4.3,0.4,6,1.3v4.3c-1.9-1.4-4-2-6.2-2c-2.7,0-4.8,0.9-6.5,2.8c-1.7,1.9-2.6,4.4-2.6,7.6
			c0,3,0.8,5.4,2.4,7.2c1.6,1.8,3.7,2.6,6.4,2.6c2.3,0,4.4-0.7,6.4-2.2V66.3L80.8,66.3z"/>
		<path d="M100.6,45.7c-0.7-0.6-1.8-0.8-3.2-0.8c-1.7,0-3.1,0.8-4.3,2.3c-1.3,1.7-2,4.1-2,7.1v13.3h-4.2v-26h4.2v5.4h0.1
			c0.6-1.9,1.6-3.4,2.8-4.4c1.2-0.9,2.5-1.4,4-1.4c1.1,0,1.9,0.1,2.5,0.4L100.6,45.7L100.6,45.7z"/>
		<path d="M123.8,54.5c0-3.3-0.8-5.9-2.3-7.6c-1.5-1.7-3.5-2.5-6.1-2.5c-2.6,0-4.7,0.8-6.2,2.5c-1.6,1.8-2.5,4.4-2.5,7.7
			c0,3.1,0.8,5.6,2.4,7.3c1.6,1.8,3.7,2.6,6.3,2.6c2.7,0,4.8-0.9,6.3-2.7C123.1,60.2,123.8,57.7,123.8,54.5 M128.1,54.4
			c0,4.1-1.2,7.5-3.5,10c-2.3,2.5-5.5,3.8-9.5,3.8c-3.9,0-7-1.3-9.3-3.8c-2.2-2.4-3.4-5.6-3.4-9.6c0-4.5,1.3-8,3.8-10.5
			c2.4-2.3,5.5-3.5,9.4-3.5c3.9,0,6.9,1.2,9.1,3.6C127,46.9,128.1,50.2,128.1,54.4"/>
		<path d="M148.8,60.5c0,2.1-0.8,3.9-2.4,5.3c-1.7,1.5-4.1,2.3-7.1,2.3c-2.5,0-4.6-0.5-6.5-1.6v-4.5c2,1.7,4.3,2.5,6.8,2.5
			c3.3,0,5-1.2,5-3.6c0-1-0.4-1.9-1.1-2.5c-0.7-0.7-2.2-1.5-4.3-2.4c-2.2-1-3.7-1.9-4.6-3c-1.1-1.2-1.7-2.8-1.7-4.7
			c0-2.2,0.9-4,2.6-5.4c1.7-1.4,3.9-2.2,6.6-2.2c2.1,0,3.9,0.4,5.6,1.2v4.2c-1.7-1.2-3.7-1.9-5.9-1.9c-1.4,0-2.5,0.3-3.3,1
			c-0.8,0.7-1.3,1.6-1.3,2.6c0,1.2,0.4,2,1,2.7c0.6,0.6,1.9,1.3,3.9,2.2c2.2,0.9,3.8,1.9,4.8,2.9C148.1,57,148.8,58.6,148.8,60.5"/>
		<path d="M174.2,54.5c0-3.3-0.8-5.9-2.3-7.6c-1.5-1.7-3.5-2.5-6.1-2.5c-2.6,0-4.7,0.8-6.2,2.5c-1.6,1.8-2.5,4.4-2.5,7.7
			c0,3.1,0.8,5.6,2.3,7.3c1.6,1.8,3.7,2.6,6.3,2.6c2.7,0,4.8-0.9,6.3-2.7C173.5,60.2,174.2,57.7,174.2,54.5 M178.5,54.4
			c0,4.1-1.2,7.5-3.5,10c-2.3,2.5-5.5,3.8-9.4,3.8c-3.9,0-7-1.3-9.3-3.8c-2.2-2.4-3.4-5.6-3.4-9.6c0-4.5,1.3-8,3.8-10.5
			c2.4-2.3,5.5-3.5,9.5-3.5c3.9,0,6.9,1.2,9.1,3.6C177.4,46.9,178.5,50.2,178.5,54.4"/>
		<path d="M196.9,32.6c-0.8-0.5-1.7-0.7-2.8-0.7c-2.9,0-4.4,1.8-4.4,5.5v4h6.1V45h-6.1v22.5h-4.2V45h-4.4v-3.5h4.4v-4.2
			c0-2.9,0.9-5.1,2.7-6.7c1.5-1.4,3.4-2.1,5.6-2.1c1.3,0,2.3,0.2,3,0.5V32.6L196.9,32.6z"/>
		<path d="M213.3,67.2c-1,0.6-2.3,0.8-3.9,0.8c-4.5,0-6.8-2.6-6.8-7.7V45h-4.5v-3.5h4.5v-6.3c1.3-0.4,2.7-0.9,4.2-1.3v7.7h6.6V45
			h-6.6v14.7c0,1.7,0.3,3,0.9,3.7c0.6,0.7,1.6,1.1,3,1.1c1,0,1.9-0.3,2.7-0.8V67.2L213.3,67.2z"/>
	</g>
	<g transform="translate(0.000000, 160.405063)">
		<path d="M14.9,125.3c0,2-0.7,3.8-2.2,5.3c-1.5,1.5-3.2,2.2-5.3,2.2c-2,0-3.8-0.7-5.2-2.2c-1.4-1.5-2.1-3.3-2.1-5.3
			c0-2.1,0.7-3.9,2.1-5.3c1.4-1.5,3.2-2.2,5.2-2.2c2.1,0,3.9,0.7,5.3,2.2C14.1,121.5,14.9,123.3,14.9,125.3"/>
		<path d="M108.1,131.3H94.5L45.2,55.2c-1.2-1.8-2.1-3.8-3-6h-0.4c0.4,2,0.5,6.4,0.5,13.1v69H31.2V35.8h14.5l47.8,75
			c1.9,3,3.2,5.1,3.9,6.4h0.3c-0.4-2.7-0.7-7.4-0.7-14V35.8h11.1L108.1,131.3L108.1,131.3z"/>
		<path d="M179.9,131.3h-50.6V35.8h48.4v10.1h-37.3v31.8H175v10.1h-34.5v33.4h39.5V131.3L179.9,131.3z"/>
		<path d="M256.7,45.9h-27.5v85.4H218V45.9h-27.6V35.8h66.3V45.9L256.7,45.9z"/>
	</g>
	<g transform="translate(0.810127, 0.000000)">
		
			<linearGradient id="SVGID_1_" gradientUnits="userSpaceOnUse" x1="1.0868" y1="301.1212" x2="1.0868" y2="299.363" gradientTransform="matrix(45.6076 0 0 -81.335 80.8398 24500.2129)">
			<stop  offset="0" style="stop-color:#0994DC"/>
			<stop  offset="0.35" style="stop-color:#66CEF5"/>
			<stop  offset="0.35" style="stop-color:#66CEF5"/>
			<stop  offset="0.8462" style="stop-color:#127BCA"/>
			<stop  offset="0.8462" style="stop-color:#127BCA"/>
			<stop  offset="1" style="stop-color:#127BCA"/>
		</linearGradient>
		<path class="st0" d="M103.5,31.1c10.8,33,14.9,92,46.5,92l0,0c2.4,0,4.8-0.2,7.3-0.7l0,0c-28.7-6.7-32.1-65-49.6-95.2l0,0
			C106.3,28.5,104.9,29.8,103.5,31.1"/>
		
			<linearGradient id="SVGID_2_" gradientUnits="userSpaceOnUse" x1="1.0853" y1="301.1297" x2="1.0853" y2="299.3715" gradientTransform="matrix(47.8692 0 0 -83.4083 83.903 25121.6016)">
			<stop  offset="0" style="stop-color:#0E76BC"/>
			<stop  offset="0.36" style="stop-color:#36AEE8"/>
			<stop  offset="0.36" style="stop-color:#36AEE8"/>
			<stop  offset="0.8462" style="stop-color:#00ADEF"/>
			<stop  offset="0.8462" style="stop-color:#00ADEF"/>
			<stop  offset="1" style="stop-color:#00ADEF"/>
		</linearGradient>
		<path class="st1" d="M107.6,27.2c17.5,30.2,20.9,88.5,49.6,95.2l0,0c2.3-0.4,4.5-1,6.8-1.8l0,0c-25.8-12.6-32.9-69.2-52.8-96.5
			l0,0C110.1,25.1,108.8,26.1,107.6,27.2"/>
		<path class="st2" d="M132.9,9.3c-2.4,0-4.8,0.2-7.3,0.7c-6.4,1.2-12.9,4-19.4,8.1c1.8,1.8,3.5,3.8,5.1,6
			c6.7-5.5,13.3-9.6,19.9-12.1c2.5-0.9,4.9-1.6,7.4-2.1C136.8,9.5,134.9,9.3,132.9,9.3"/>
		
			<linearGradient id="SVGID_3_" gradientUnits="userSpaceOnUse" x1="1.2047" y1="299.6198" x2="1.2047" y2="301.0007" gradientTransform="matrix(45.4522 0 0 -84.5 110.5723 25437.6914)">
			<stop  offset="0" style="stop-color:#1C63B7"/>
			<stop  offset="0.5" style="stop-color:#33BDF2"/>
			<stop  offset="1" style="stop-color:#33BDF2;stop-opacity:0.4196"/>
		</linearGradient>
		<path class="st3" d="M184.2,108.9c2.6-2.1,5.3-4.4,7.9-6.9c-11-32.9-14.9-92.7-46.7-92.7c-2.3,0-4.6,0.2-6.9,0.6
			C167.5,17.2,171.2,80.2,184.2,108.9"/>
		<path class="st4" d="M138.5,10c-1.8-0.5-3.7-0.7-5.7-0.7l12.5,0C143.1,9.3,140.8,9.5,138.5,10"/>
		<path class="st5" d="M183.6,115.9c-1.2-1.2-2.4-2.5-3.6-3.9c-5.4,3.8-10.7,6.7-16,8.5c1.9,0.9,3.9,1.6,6,2
			c1.6,0.3,3.3,0.5,5.1,0.5c5.9,0,10.6-0.7,14.6-2.6C187.5,119.3,185.5,117.8,183.6,115.9"/>
		
			<linearGradient id="SVGID_4_" gradientUnits="userSpaceOnUse" x1="1.1839" y1="301.1581" x2="1.1839" y2="299.3999" gradientTransform="matrix(45.0105 0 0 -86.5982 104.3704 26069.7969)">
			<stop  offset="0" style="stop-color:#166AB8"/>
			<stop  offset="0.4" style="stop-color:#36AEE8"/>
			<stop  offset="0.4" style="stop-color:#36AEE8"/>
			<stop  offset="0.8462" style="stop-color:#0798DD"/>
			<stop  offset="0.8462" style="stop-color:#0798DD"/>
			<stop  offset="1" style="stop-color:#0798DD"/>
		</linearGradient>
		<path class="st6" d="M131.1,12c26,13.6,28.2,75.1,48.9,100l0,0c1.4-1,2.8-2,4.1-3.1l0,0c-13-28.7-16.7-91.8-45.6-99l0,0
			C136.1,10.4,133.6,11.1,131.1,12"/>
		
			<linearGradient id="SVGID_5_" gradientUnits="userSpaceOnUse" x1="1.0398" y1="301.1591" x2="1.0398" y2="299.4008" gradientTransform="matrix(58.3509 0 0 -92.0822 84.9882 27722.2324)">
			<stop  offset="0" style="stop-color:#124379"/>
			<stop  offset="0.39" style="stop-color:#1487CB"/>
			<stop  offset="0.39" style="stop-color:#1487CB"/>
			<stop  offset="0.7802" style="stop-color:#165197"/>
			<stop  offset="0.7802" style="stop-color:#165197"/>
			<stop  offset="1" style="stop-color:#165197"/>
		</linearGradient>
		<path class="st7" d="M111.3,24.1c19.9,27.3,27,83.9,52.8,96.5l0,0c5.3-1.9,10.6-4.7,16-8.5l0,0c-20.7-25-23-86.4-48.9-100l0,0
			C124.5,14.5,117.9,18.6,111.3,24.1"/>
		
			<linearGradient id="SVGID_6_" gradientUnits="userSpaceOnUse" x1="0.7331" y1="300.1484" x2="1.912" y2="300.1484" gradientTransform="matrix(19.4176 0 0 -30.9219 66.3945 9321.6914)">
			<stop  offset="0" style="stop-color:#33BDF2;stop-opacity:0.698"/>
			<stop  offset="1" style="stop-color:#1DACD8"/>
		</linearGradient>
		<path class="st8" d="M90.8,30.3c-3.1,7.1-6.3,16.3-10.2,28.4c7.7-10.8,15.3-20.1,22.9-27.6c-1-3.2-2.2-6.2-3.4-8.8
			C97,24.7,93.9,27.4,90.8,30.3"/>
		<path class="st9" d="M102.9,20.3c-0.9,0.7-1.8,1.3-2.8,2c1.2,2.6,2.3,5.6,3.4,8.8c1.4-1.3,2.7-2.7,4.1-3.9
			C106.2,24.7,104.6,22.4,102.9,20.3"/>
		<path class="st10" d="M106.2,18.1c-1.1,0.7-2.2,1.4-3.3,2.2c1.7,2.1,3.3,4.4,4.7,7c1.2-1.1,2.4-2.2,3.6-3.1
			C109.7,21.9,108,19.9,106.2,18.1"/>
		
			<linearGradient id="SVGID_7_" gradientUnits="userSpaceOnUse" x1="1.1528" y1="299.8256" x2="1.1528" y2="300.9774" gradientTransform="matrix(79.1425 0 0 -98.6787 161.3071 29703.2832)">
			<stop  offset="0" style="stop-color:#136AB4"/>
			<stop  offset="0.6" style="stop-color:#59CAF5;stop-opacity:0.549"/>
			<stop  offset="1" style="stop-color:#59CAF5;stop-opacity:0.2353"/>
		</linearGradient>
		<path class="st11" d="M283.2,6.8c-14.7,56.6-45.3,102.1-71.1,113.6h0c-0.5,0.2-0.9,0.4-1.4,0.6c-0.1,0-0.1,0-0.2,0.1
			c-0.1,0.1-0.3,0.1-0.4,0.2c-0.1,0-0.1,0.1-0.2,0.1c-0.2,0.1-0.4,0.1-0.6,0.2c-0.1,0-0.2,0.1-0.3,0.1c-0.1,0-0.2,0.1-0.3,0.1
			c-0.1,0-0.2,0.1-0.3,0.1c-0.1,0-0.2,0.1-0.3,0.1c-0.2,0.1-0.4,0.1-0.5,0.2c-0.1,0-0.1,0-0.2,0.1c-0.1,0-0.2,0.1-0.4,0.1
			c-0.1,0-0.2,0.1-0.3,0.1c-0.1,0-0.3,0.1-0.4,0.1c-0.2,0-0.3,0.1-0.5,0.1c1.2,0.4,2.4,0.6,3.7,0.6c24.4,0,49-43.7,89.6-116.3
			L283.2,6.8L283.2,6.8z"/>
		
			<linearGradient id="SVGID_8_" gradientUnits="userSpaceOnUse" x1="0.1652" y1="300.3488" x2="1.3441" y2="300.3488" gradientTransform="matrix(72.0226 0 0 -99.1613 -12.4985 29850.6699)">
			<stop  offset="0" style="stop-color:#05A1E6;stop-opacity:0.2471"/>
			<stop  offset="1" style="stop-color:#05A1E6"/>
		</linearGradient>
		<path class="st12" d="M75.3,11.6C75.4,11.6,75.4,11.5,75.3,11.6c0.1,0,0.1,0,0.1-0.1h0c0.1,0,0.3-0.1,0.4-0.2c0,0,0.1,0,0.1,0
			c0,0,0.1,0,0.1,0c0.1,0,0.3-0.1,0.4-0.2h0c0.3-0.1,0.6-0.2,0.9-0.3c0,0,0.1,0,0.1,0c0.1,0,0.3-0.1,0.4-0.1c0.1,0,0.1,0,0.2-0.1
			c0.1,0,0.3-0.1,0.4-0.1c0.1,0,0.1,0,0.2,0c0.4-0.1,0.9-0.2,1.3-0.3c0.1,0,0.1,0,0.2,0c0.1,0,0.3-0.1,0.4-0.1c0.1,0,0.1,0,0.2-0.1
			c0.1,0,0.3,0,0.4-0.1h0.1c0.3-0.1,0.5-0.1,0.8-0.2h0.2c0.1,0,0.2,0,0.4-0.1c0.1,0,0.1,0,0.2,0c0.1,0,0.2,0,0.4-0.1
			c0.1,0,0.1,0,0.2,0c0.3,0,0.6-0.1,0.9-0.1c-0.8-0.1-1.7-0.1-2.6-0.1c-27.5,0-65.3,50.9-82.3,116.9h3.3
			c5.5-9.7,10.4-18.9,14.8-27.6C29.4,51.9,53.7,20,75.3,11.6"/>
		<path class="st13" d="M90.8,30.3c3.1-3,6.2-5.7,9.4-8c-0.7-1.6-1.4-3-2.2-4.3C95.4,21.1,93.1,25.1,90.8,30.3"/>
		<path class="st13" d="M93,12c1.8,1.5,3.4,3.6,4.9,6.1c0.5-0.6,0.9-1.1,1.4-1.6c-2-1.9-4.2-3.5-6.6-4.6C92.8,11.8,92.9,11.9,93,12
			C93,11.9,93,12,93,12"/>
		
			<linearGradient id="SVGID_9_" gradientUnits="userSpaceOnUse" x1="0.7991" y1="299.4468" x2="0.7991" y2="301.0233" gradientTransform="matrix(49.0511 0 0 -73.8222 7.2268 22225.5781)">
			<stop  offset="0" style="stop-color:#318ED5"/>
			<stop  offset="1" style="stop-color:#38A7E4"/>
		</linearGradient>
		<path class="st14" d="M17.5,98.6c25-48.2,36.9-78.8,57.8-87l0,0C53.8,20,29.4,51.9,17.5,98.6"/>
		<path class="st15" d="M99.3,16.4c-0.5,0.5-0.9,1-1.4,1.6c0.8,1.3,1.5,2.7,2.2,4.3c0.9-0.7,1.8-1.4,2.8-2
			C101.8,18.9,100.6,17.6,99.3,16.4"/>
		
			<linearGradient id="SVGID_10_" gradientUnits="userSpaceOnUse" x1="0.8317" y1="299.6862" x2="0.8317" y2="301.6666" gradientTransform="matrix(45.6036 0 0 -57.1283 15.8193 17240.7402)">
			<stop  offset="0" style="stop-color:#05A1E6"/>
			<stop  offset="1" style="stop-color:#05A1E6;stop-opacity:0.549"/>
		</linearGradient>
		<path class="st16" d="M28.9,125.9L28.9,125.9c-0.2,0-0.3,0-0.5,0.1h-0.1c-0.1,0-0.3,0-0.4,0h-0.1c-0.3,0-0.6,0-0.9,0.1h-0.1
			c25.3-0.7,36.9-13.4,42.7-31.8c4.4-13.9,8-25.7,11.1-35.6c-10.6,14.9-21.3,32.7-32,52.7C43.5,121,35.6,125.1,28.9,125.9"/>
		
			<linearGradient id="SVGID_11_" gradientUnits="userSpaceOnUse" x1="0.8306" y1="299.7061" x2="0.8306" y2="300.885" gradientTransform="matrix(52.5191 0 0 -81.0936 16.2076 24430.1758)">
			<stop  offset="0" style="stop-color:#1959A6"/>
			<stop  offset="0.5" style="stop-color:#05A1E6"/>
			<stop  offset="0.5" style="stop-color:#05A1E6"/>
			<stop  offset="0.9176" style="stop-color:#7EC5EA"/>
			<stop  offset="1" style="stop-color:#7EC5EA"/>
		</linearGradient>
		<path class="st17" d="M28.9,125.9L28.9,125.9c6.7-0.9,14.6-4.9,19.8-14.5l0,0c10.7-19.9,21.4-37.8,32-52.7l0,0
			c3.9-12.1,7-21.4,10.2-28.4l0,0C69.7,50.4,48.4,83.9,28.9,125.9"/>
		<path class="st18" d="M17.5,98.6c-4.5,8.6-9.4,17.8-14.8,27.6h9.6C13.5,116.5,15.3,107.3,17.5,98.6"/>
		
			<linearGradient id="SVGID_12_" gradientUnits="userSpaceOnUse" x1="0.8974" y1="299.823" x2="0.646" y2="300.87" gradientTransform="matrix(72.6768 0 0 -99.0047 -1.7167 29803.709)">
			<stop  offset="0" style="stop-color:#165096"/>
			<stop  offset="1" style="stop-color:#0D82CA"/>
		</linearGradient>
		<path class="st19" d="M83.4,9.5c-0.1,0-0.1,0-0.2,0l0,0c-0.1,0-0.2,0-0.4,0.1l0,0c-0.1,0-0.1,0-0.2,0l0,0c-0.1,0-0.3,0-0.4,0.1
			l0,0c-0.1,0-0.1,0-0.2,0l0,0c-0.3,0-0.5,0.1-0.8,0.1l0,0h-0.1l0,0c-0.1,0-0.3,0.1-0.4,0.1l0,0c-0.1,0-0.1,0-0.2,0.1l0,0
			c-0.1,0-0.3,0.1-0.4,0.1l0,0c-0.1,0-0.1,0-0.2,0l0,0c-0.4,0.1-0.9,0.2-1.3,0.3l0,0c0,0-0.1,0-0.2,0l0,0c-0.1,0-0.3,0.1-0.4,0.1
			l0,0c-0.1,0-0.1,0-0.2,0.1l0,0c-0.1,0-0.3,0.1-0.4,0.1l0,0c-0.1,0-0.1,0-0.1,0l0,0c-0.3,0.1-0.6,0.2-0.9,0.3l0,0l0,0l0,0
			c-0.1,0-0.3,0.1-0.4,0.1l0,0c-0.1,0-0.1,0-0.2,0.1l0,0c-0.1,0-0.3,0.1-0.4,0.1l0,0c0,0-0.1,0-0.1,0.1l0,0
			c-20.9,8.3-32.8,38.8-57.8,87l0,0c-2.2,8.7-4,17.9-5.3,27.6l0,0h1.3c3.8,0,4.8,0,9.2,0l0,0H23h0.6h0.2h0.1h0.2h0.1h0.1h0.2h0.5
			h0.5h0.5h0.1H27l0,0c0.3,0,0.6,0,0.9-0.1l0,0H28l0,0c0.1,0,0.3,0,0.4,0l0,0h0.1l0,0c0.1,0,0.3,0,0.5-0.1l0,0
			c19.6-42,40.8-75.5,61.9-95.6l0,0c2.3-5.3,4.6-9.3,7.1-12.3l0,0c-1.5-2.5-3.1-4.6-4.9-6.1l0,0c0,0,0,0-0.1,0l0,0
			c-0.1,0-0.2-0.1-0.3-0.1l0,0c-0.1-0.1-0.2-0.1-0.3-0.2l0,0c-0.1,0-0.2-0.1-0.3-0.1l0,0c-0.1,0-0.2-0.1-0.3-0.1l0,0
			c-0.1,0-0.2-0.1-0.3-0.1l0,0c-0.2-0.1-0.4-0.2-0.6-0.2l0,0c-0.1,0-0.2-0.1-0.2-0.1l0,0c-0.1,0-0.3-0.1-0.4-0.2l0,0
			c-0.1,0-0.1,0-0.2-0.1l0,0c-0.2-0.1-0.4-0.1-0.6-0.2l0,0h0l0,0c-0.2-0.1-0.4-0.1-0.7-0.2l0,0c-0.1,0-0.1,0-0.1,0l0,0
			c-0.2-0.1-0.4-0.1-0.6-0.2l0,0c0,0-0.1,0-0.1,0l0,0c-0.5-0.1-0.9-0.2-1.4-0.3l0,0c0,0-0.1,0-0.1,0l0,0c-0.2,0-0.4-0.1-0.6-0.1l0,0
			c0,0-0.1,0-0.1,0l0,0c-0.2,0-0.5-0.1-0.7-0.1l0,0h-0.1l0,0c-0.2,0-0.4,0-0.5-0.1l0,0C84,9.5,83.7,9.5,83.4,9.5"/>
		
			<linearGradient id="SVGID_13_" gradientUnits="userSpaceOnUse" x1="1.7178" y1="299.9852" x2="1.7178" y2="300.9319" gradientTransform="matrix(32.7663 0 0 -57.2261 176.7999 17228.2031)">
			<stop  offset="0" style="stop-color:#05A1E6"/>
			<stop  offset="0.8736" style="stop-color:#0495D6"/>
			<stop  offset="1" style="stop-color:#0495D6"/>
		</linearGradient>
		<path class="st20" d="M225.9,38.1c-4.8,15.4-8.7,28.2-12.1,38.6l0,0C227,58.5,240,35.7,252.4,9.3l0,0
			C237.9,13.8,230.2,24.2,225.9,38.1"/>
		
			<linearGradient id="SVGID_14_" gradientUnits="userSpaceOnUse" x1="1.4655" y1="300.9894" x2="1.1" y2="299.6926" gradientTransform="matrix(60.2691 0 0 -96.3231 170.2241 28994.2598)">
			<stop  offset="0" style="stop-color:#38A7E4;stop-opacity:0.3294"/>
			<stop  offset="0.9615" style="stop-color:#0E88D3"/>
			<stop  offset="0.9615" style="stop-color:#0E88D3"/>
			<stop  offset="1" style="stop-color:#0E88D3"/>
		</linearGradient>
		<path class="st21" d="M214.2,119.3c-0.7,0.3-1.3,0.7-2,1c25.7-11.5,56.4-56.9,71.1-113.6h-3C246.5,67,235.7,107.3,214.2,119.3"/>
		<path class="st22" d="M197.4,114.3c5.6-6.8,10.1-18.4,16.4-37.6c-7.2,9.9-14.4,18.3-21.6,25.2c0,0,0,0,0,0.1
			C193.7,106.7,195.4,110.9,197.4,114.3"/>
		<path class="st5" d="M197.4,114.3c-1.9,2.3-3.9,4.1-6.2,5.4c-0.5,0.3-1,0.6-1.5,0.8c2.4,1.3,5,2.1,7.8,2.5l0,0
			c0.4,0,0.8,0.1,1.3,0.1h0.1c0.2,0,0.4,0,0.6,0h0.1h0.6h0.7h0.2h0.5c0.1,0,0.2,0,0.2,0c0.2,0,0.3,0,0.5,0h0.1h0.2
			c0.2,0,0.3,0,0.5-0.1h0c0.1,0,0.1,0,0.2,0c0.2,0,0.4-0.1,0.5-0.1h0.2c0.2,0,0.4-0.1,0.6-0.1h0h0.1c0.4-0.1,0.8-0.2,1.2-0.3
			C202.6,121.3,199.8,118.4,197.4,114.3"/>
		<path class="st23" d="M150,123.1c2.4,0,4.8-0.2,7.3-0.7c2.3-0.4,4.5-1,6.8-1.8c1.9,0.9,3.9,1.6,6,2c1.6,0.3,3.3,0.5,5.1,0.5H150
			L150,123.1z"/>
		<path class="st23" d="M175.1,123.1c5.9,0,10.6-0.7,14.6-2.6c2.4,1.3,5,2.1,7.8,2.5l0,0c0.4,0,0.8,0.1,1.3,0.1h0.1
			c0.2,0,0.4,0,0.6,0h0.1h0.6L175.1,123.1L175.1,123.1z"/>
		<path class="st24" d="M200.3,123.1h0.7h0.2h0.5c0.1,0,0.2,0,0.2,0c0.2,0,0.3,0,0.5,0h0.1h0.2c0.2,0,0.3,0,0.5-0.1h0
			c0.1,0,0.1,0,0.2,0c0.2,0,0.4-0.1,0.5-0.1c0.1,0,0.1,0,0.2,0c0.2,0,0.4-0.1,0.6-0.1h0h0.1c0.4-0.1,0.8-0.2,1.2-0.3l0,0
			c1.2,0.4,2.4,0.6,3.7,0.6L200.3,123.1L200.3,123.1z"/>
		<path class="st25" d="M192.1,102L192.1,102c-2.6,2.5-5.3,4.8-7.9,6.9c-1.4,1.1-2.8,2.1-4.1,3.1c1.2,1.4,2.3,2.7,3.6,3.9
			c1.9,1.8,3.9,3.4,6.1,4.6c0.5-0.2,1-0.5,1.5-0.8c2.2-1.3,4.3-3.1,6.2-5.4C195.4,110.9,193.7,106.7,192.1,102"/>
		
			<linearGradient id="SVGID_15_" gradientUnits="userSpaceOnUse" x1="1.1815" y1="300.9449" x2="1.1815" y2="299.7404" gradientTransform="matrix(70.2816 0 0 -98.1105 155.778 29532.2598)">
			<stop  offset="0" style="stop-color:#168CD4"/>
			<stop  offset="0.5" style="stop-color:#1C87CC"/>
			<stop  offset="1" style="stop-color:#154B8D"/>
		</linearGradient>
		<path class="st26" d="M270.8,6.8h-12.5h-1.2l0,0h-1.2l0,0h0c-0.8,0-1.6,0.1-2.4,0.1l0,0c-0.4,0.8-0.7,1.6-1.1,2.4l0,0
			C240,35.6,227,58.5,213.8,76.7l0,0c-6.2,19.1-10.8,30.7-16.4,37.6l0,0c2.4,4.1,5.2,6.9,8.5,8.2l0,0c0.1,0,0.2,0,0.3-0.1l0,0h0.1
			l0,0c0.1,0,0.1,0,0.2,0l0,0c0.1,0,0.3-0.1,0.4-0.1l0,0c0.1,0,0.2,0,0.2-0.1l0,0c0.1,0,0.3-0.1,0.4-0.1l0,0c0.1,0,0.2-0.1,0.2-0.1
			l0,0c0.2-0.1,0.4-0.1,0.5-0.2l0,0c0.1,0,0.2-0.1,0.3-0.1l0,0c0.1,0,0.2-0.1,0.3-0.1l0,0c0.1,0,0.2-0.1,0.3-0.1l0,0
			c0.1,0,0.2-0.1,0.3-0.1l0,0c0.2-0.1,0.4-0.1,0.6-0.2l0,0c0.1,0,0.1-0.1,0.2-0.1l0,0c0.1-0.1,0.3-0.1,0.4-0.2l0,0
			c0,0,0.1,0,0.2-0.1l0,0c0.5-0.2,0.9-0.4,1.4-0.6l0,0h0l0,0c0.7-0.3,1.3-0.6,2-1l0,0c21.5-12,32.3-52.3,66.1-112.6l0,0L270.8,6.8
			L270.8,6.8z"/>
		<path class="st27" d="M84.3,9.4c0.1,0,0.1,0,0.2,0c0.1,0,0.3,0,0.4,0H85c0.2,0,0.5,0.1,0.7,0.1c0,0,0.1,0,0.1,0
			c0.2,0,0.4,0.1,0.6,0.1c0,0,0.1,0,0.1,0c0.5,0.1,0.9,0.2,1.4,0.3c0,0,0.1,0,0.1,0c0.2,0,0.4,0.1,0.6,0.2c0.1,0,0.1,0,0.2,0
			c0.2,0.1,0.4,0.1,0.7,0.2c0,0,0,0,0,0c0.2,0.1,0.4,0.1,0.6,0.2c0.1,0,0.1,0.1,0.2,0.1c0.1,0.1,0.3,0.1,0.4,0.2
			c0.1,0,0.2,0.1,0.2,0.1c0.2,0.1,0.4,0.2,0.5,0.2c0.1,0,0.2,0.1,0.3,0.1c0.1,0.1,0.2,0.1,0.3,0.1c0.1,0,0.2,0.1,0.3,0.1
			c0.1,0.1,0.2,0.1,0.3,0.2c2.4,1.2,4.6,2.7,6.6,4.6c0.8-0.8,1.5-1.5,2.4-2.1c-4.5-3.2-9.5-5-15.3-5C85.7,9.4,85,9.4,84.3,9.4"/>
		<path class="st28" d="M99.3,16.4c1.2,1.2,2.4,2.5,3.6,3.9c1.1-0.8,2.2-1.5,3.3-2.2c-1.4-1.4-2.9-2.7-4.5-3.8
			C100.9,14.9,100.1,15.6,99.3,16.4"/>
		
			<linearGradient id="SVGID_16_" gradientUnits="userSpaceOnUse" x1="0.7165" y1="300.1974" x2="1.5552" y2="302.8546" gradientTransform="matrix(32.4594 0 0 4.2491 64.8346 -1271.594)">
			<stop  offset="0" style="stop-color:#97D6EE"/>
			<stop  offset="0.7033" style="stop-color:#55C1EA"/>
			<stop  offset="1" style="stop-color:#55C1EA"/>
		</linearGradient>
		<path class="st29" d="M84.3,9.4c0.7-0.1,1.4-0.1,2-0.1c5.8,0,10.9,1.8,15.3,5c4.7-3.7,10.4-5,18.3-5H81.7
			C82.6,9.3,83.5,9.3,84.3,9.4"/>
		
			<linearGradient id="SVGID_17_" gradientUnits="userSpaceOnUse" x1="0.7904" y1="301.9234" x2="1.6023" y2="300.6215" gradientTransform="matrix(26.4722 0 0 7.484 82.9107 -2242.0647)">
			<stop  offset="0" style="stop-color:#7ACCEC"/>
			<stop  offset="1" style="stop-color:#3FB7ED"/>
		</linearGradient>
		<path class="st30" d="M120,9.3c-7.9,0-13.6,1.3-18.3,5c1.6,1.1,3.1,2.4,4.5,3.8c6.6-4.2,13-6.9,19.4-8.1c2.4-0.5,4.9-0.7,7.3-0.7
			H120L120,9.3z"/>
		
			<linearGradient id="SVGID_18_" gradientUnits="userSpaceOnUse" x1="1.3072" y1="300.8535" x2="1.3072" y2="299.42" gradientTransform="matrix(52.0449 0 0 -80.6355 154.8015 24272.4316)">
			<stop  offset="0" style="stop-color:#1DA7E7"/>
			<stop  offset="1" style="stop-color:#37ABE7;stop-opacity:0"/>
		</linearGradient>
		<path class="st31" d="M213.8,76.7c3.4-10.5,7.3-23.2,12.1-38.6c4.3-13.9,12-24.3,26.5-28.8c0.4-0.8,0.7-1.6,1.1-2.4
			c-23.6,1.4-34.6,13.4-40.1,31.2c-9.7,31-15.6,51.1-21.2,63.9C199.4,95.1,206.6,86.6,213.8,76.7"/>
		<path d="M248.4,114.9h-2.7v8.3h-1.1v-8.3h-2.7v-1h6.4V114.9L248.4,114.9z"/>
		<path d="M259.3,123.2h-1.1v-6.2c0-0.5,0-1.1,0.1-1.8l0,0c-0.1,0.4-0.2,0.7-0.3,0.9l-3.2,7.1h-0.5l-3.2-7.1c-0.1-0.2-0.2-0.5-0.3-1
			h0c0,0.4,0.1,1,0.1,1.8v6.2h-1v-9.3h1.4l2.8,6.5c0.2,0.5,0.4,0.9,0.4,1.1h0c0.2-0.5,0.3-0.9,0.4-1.1l2.9-6.5h1.4L259.3,123.2
			L259.3,123.2z"/>
	</g>
</g>
</svg>
