<?xml version="1.0" encoding="utf-8"?>
<!-- Generator: Adobe Illustrator 23.0.2, SVG Export Plug-In . SVG Version: 6.00 Build 0)  -->
<svg version="1.1" id="Layer_1" xmlns="http://www.w3.org/2000/svg" xmlns:xlink="http://www.w3.org/1999/xlink" x="0px" y="0px"
	 viewBox="0 0 300 300" style="enable-background:new 0 0 300 300;" xml:space="preserve">
<style type="text/css">
	.st0{fill:url(#SVGID_1_);}
	.st1{fill:url(#SVGID_2_);}
</style>
<g>
	
		<linearGradient id="SVGID_1_" gradientUnits="userSpaceOnUse" x1="-104.2979" y1="406.2979" x2="-103.5146" y2="405.5207" gradientTransform="matrix(189.3834 0 0 -189.8058 19780.4043 77146.0156)">
		<stop  offset="0" style="stop-color:#387EB8"/>
		<stop  offset="1" style="stop-color:#366994"/>
	</linearGradient>
	<path class="st0" d="M148.9,0.8c-76.2,0-71.4,33-71.4,33L77.6,68h72.7v10.3H48.7c0,0-48.7-5.5-48.7,71.3
		c0,76.8,42.5,74.1,42.5,74.1h25.4v-35.7c0,0-1.4-42.5,41.9-42.5h72.1c0,0,40.5,0.7,40.5-39.1V40.6C222.4,40.6,228.5,0.8,148.9,0.8
		L148.9,0.8L148.9,0.8z M108.8,23.8c7.2,0,13.1,5.8,13.1,13.1s-5.8,13.1-13.1,13.1c-7.2,0-13.1-5.8-13.1-13.1
		C95.8,29.6,101.6,23.8,108.8,23.8L108.8,23.8L108.8,23.8z"/>
	
		<linearGradient id="SVGID_2_" gradientUnits="userSpaceOnUse" x1="-104.1645" y1="406.1382" x2="-103.3233" y2="405.3412" gradientTransform="matrix(189.3834 0 0 -189.8058 19846.4043 77210.2813)">
		<stop  offset="0" style="stop-color:#FFE052"/>
		<stop  offset="1" style="stop-color:#FFC331"/>
	</linearGradient>
	<path class="st1" d="M151.1,299.2c76.2,0,71.4-33,71.4-33l-0.1-34.2h-72.7v-10.3h101.5c0,0,48.7,5.5,48.7-71.3
		c0-76.8-42.5-74.1-42.5-74.1h-25.4v35.7c0,0,1.4,42.5-41.9,42.5h-72.1c0,0-40.5-0.7-40.5,39.1v65.8
		C77.6,259.4,71.5,299.2,151.1,299.2L151.1,299.2L151.1,299.2z M191.2,276.2c-7.2,0-13.1-5.8-13.1-13.1c0-7.2,5.8-13.1,13.1-13.1
		c7.2,0,13.1,5.8,13.1,13.1C204.2,270.4,198.4,276.2,191.2,276.2L191.2,276.2L191.2,276.2z"/>
</g>
</svg>
