<?xml version="1.0" encoding="iso-8859-1"?>
<!-- Generator: Adobe Illustrator 16.0.0, SVG Export Plug-In . SVG Version: 6.00 Build 0)  -->
<!DOCTYPE svg PUBLIC "-//W3C//DTD SVG 1.1//EN" "http://www.w3.org/Graphics/SVG/1.1/DTD/svg11.dtd">
<svg version="1.1" id="Layer_1" xmlns="http://www.w3.org/2000/svg" xmlns:xlink="http://www.w3.org/1999/xlink" x="0px" y="0px"
	 width="18px" height="19.596px" viewBox="0 0 18 19.596" style="enable-background:new 0 0 18 19.596;" xml:space="preserve">
<g>
	<g>
		<path style="fill:#8F8F8E;" d="M16.538,19.322L0.252,1.589c-0.334-0.364-0.334-0.954,0-1.317c0.333-0.363,0.875-0.363,1.209,0
			l16.285,17.733c0.334,0.363,0.334,0.953,0,1.317C17.413,19.687,16.871,19.687,16.538,19.322z"/>
		<path style="fill:#8F8F8E;" d="M0.25,19.32c-0.334-0.364-0.334-0.954,0-1.315l16.29-17.73c0.333-0.363,0.875-0.363,1.209,0
			c0.334,0.364,0.334,0.954,0,1.317L1.46,19.32C1.126,19.684,0.584,19.684,0.25,19.32z"/>
	</g>
</g>
</svg>
